<svg id="Layer_1" data-name="Layer 1" xmlns="http://www.w3.org/2000/svg" viewBox="0 0 1365.95 326.97"><defs><style>.cls-1{fill:#fff;}</style></defs><path class="cls-1" d="M.05,440.07V121.22c1.16-.6,1.82-1.23,2.47-1.23,56.43.2,112.89-.64,169.28,1.08,38.07,1.16,62.46,25,76,58.35,12.92,31.79,9,62.64-15.83,88.74-2.67,2.8-5.06,5.86-8.1,9.41,2.35,1.92,4.17,3.72,6.28,5.1,50.25,32.84,49.88,82.78,32.18,124.25-.15.36-.39.68-.54,1-9.57,22.55-23.05,34.19-51.1,33-65.67-2.77-131.53-.88-197.31-.88ZM85.84,326.4v62.11c26.16,0,51.26.11,76.35-.12,3.36,0,6.84-1.44,10-2.76,9.8-4.06,16.65-17.54,15.54-30.09-1.38-15.59-9.26-28.39-20.73-28.82C140,325.71,113,326.4,85.84,326.4Zm-.09-80.62c21.93,0,43.21.62,64.43-.23,13-.52,19.58-9.7,19.68-24.09.09-13.81-5.71-23.06-17.23-23.51-21.94-.87-43.94-.25-66.88-.25Z" transform="translate(-0.05 -114.06)"/><path class="cls-1" d="M1154.07,288.66V120.38h83.28V440c-28,0-55.14.3-82.27-.37-3.5-.08-7.71-4.58-10.18-8.05-27-38-53.75-76.29-80.58-114.47-3.08-4.37-6.32-8.63-12.19-12.47v135.1c-27.93,0-53.88.21-79.8-.41-2-.05-5.34-5.87-5.47-9.11-.68-17.49-.65-35-.66-52.52q-.08-124.37,0-248.72c0-2.64.27-5.29.49-9.27,21.4,0,42.28-.27,63.15.31,2.83.08,6.2,4,8.22,6.88q53.63,77.06,107,154.31c2,2.82,4.17,5.46,6.26,8.18Z" transform="translate(-0.05 -114.06)"/><path class="cls-1" d="M468.79,439.73c-32.69,0-65.4.56-98.06-.41-7.74-.23-17-3.73-22.74-8.87-56.3-50.4-72.91-114-53.85-185.29,18.72-70,66.82-112.93,137.75-127.31,98.64-20,194.2,41.28,213.34,136.46,14.16,70.36-4.52,131-59.94,178.35-5,4.27-13,6.94-19.61,7.08-32.28.72-64.59.33-96.89.33Zm-.45-243.27c-48.13-2.28-97.39,36.41-96.08,98.7,1.26,59.79,38.37,98,98.88,97.94,45.32-.05,92.86-34.56,92.32-99.22C563,236.78,524,196.64,468.34,196.46Z" transform="translate(-0.05 -114.06)"/><path class="cls-1" d="M765.35,352.59c0,23.3.16,47.36-.06,71.41-.13,15.67-.37,15.8-16.29,15.89-22.52.13-45,0-68.29,0V117c1.72-.43,3.15-1.09,4.57-1.08,46.31.32,92.65-.16,138.92,1.33,49.32,1.58,86.09,24.88,103.85,71.4,18.23,47.75,8.89,92-26.56,129.43-9.21,9.72-20.82,17.16-32.12,26.28,20.42,30.28,41.41,61.42,64.42,95.56-9,0-15,0-20.95,0-21.8,0-43.62-.47-65.39.41-10.43.42-16.32-3.46-21.41-12.11-13.59-23.11-28-45.75-41.93-68.66C780.08,352.93,775.39,348.52,765.35,352.59Zm1-77.91c19.35-.85,38-.66,56.3-2.77,17-2,28.56-15.92,29.75-32.48,1.25-17.47-8.9-36-25.27-38.68-20-3.32-40.57-2.63-60.78-3.68Z" transform="translate(-0.05 -114.06)"/><path class="cls-1" d="M1317.14,440.06c-4.66,0-9.4-.54-14,.08-16,2.15-24.59-6.76-30.39-19.92-11.12-25.25,2.72-58.25,29.38-65.34,28-7.43,54.4,3.48,62.32,33.14a55.6,55.6,0,0,1,.4,24.16c-3.95,20.3-14.09,27.82-34.89,27.89Q1323.56,440.09,1317.14,440.06Z" transform="translate(-0.05 -114.06)"/></svg>