<svg id="Layer_1" data-name="Layer 1" xmlns="http://www.w3.org/2000/svg" viewBox="0 0 1366.32 479.86"><defs><style>.cls-1{fill:#fff;}</style></defs><path class="cls-1" d="M296.64,5.57V70h82.79V270.41c-1.3-.86-2.49-1.56-3.59-2.38q-53.49-39.94-106.89-80c-2.74-2.06-4.31-2-7,.09q-70.27,55.1-140.76,109.9a9.77,9.77,0,0,0-4.22,8.74c.15,37.65.09,75.3.09,113v5.56h34.17V314.16H207.7V425.34H237V294.83h56.81V425.38H323V314.28h56.7V425.73h46v57.95H-.32V383H31.1V121.33H90v79.86h31V156.93h42.28v-6.09q0-69.79,0-139.59c0-1.9.13-3.79.2-5.68ZM249.55,307v6.49c0,39.83-.05,79.67.09,119.51,0,4-1.12,5.28-5.15,5.22-14.89-.2-29.78-.16-44.67,0-3.46,0-4.66-1.2-4.55-4.56.17-5,0-9.92,0-14.88q0-43.12,0-86.24c0-5.75-.11-5.84-5.92-5.86-6.72,0-13.44.22-20.14-.09-4.33-.19-5.74,1.09-5.72,5.63.2,33.26.11,66.53.11,99.8,0,6.13,0,6.14-6.33,6.14H110.44c-5.76,0-5.77,0-5.78-5.81V320.26c0-6.45,0-6.45-6.31-6.46H82.93a6.69,6.69,0,0,1,2.3-3.37q88.34-69,176.63-138c2.71-2.12,4.41-2,7.09.06q47,35.42,94.28,70.57c1.12.84,2.33,1.57,3.94,2.65.09-1.37.2-2.19.2-3q0-77.92.09-155.84c0-3.75-1.51-4.28-4.64-4.27-24.24.08-48.47,0-72.7,0-5.86,0-5.88,0-5.88-5.71q0-26.7,0-53.41c0-1.69-.16-3.39-.25-5.24-1.73-.09-3-.21-4.31-.21q-48.83,0-97.66,0c-6.25,0-6.25,0-6.26,6.47q0,69.82.08,139.65c0,4.13-1.05,5.58-5.36,5.46-10.79-.29-21.6.05-32.4-.18-3.75-.08-4.75,1.28-4.7,4.8.15,11.67-.05,23.35.11,35,0,3.59-1.17,4.81-4.8,4.77C113.79,213.88,98.9,214,84,214c-7,0-7,0-7-6.87,0-22.91-.07-45.82.06-68.73,0-3.78-1.12-5.18-5-5-7.14.27-14.3,0-21.45.08-7.83,0-7.16-.69-7.16,7q0,123.66,0,247.34c0,1.45-.09,2.92,0,4.37.17,2.6-1,3.76-3.57,3.69-4.81-.12-9.62-.18-14.44-.21-4.31,0-8.63,0-13,0v75.69H405.91a31.42,31.42,0,0,1,3.5,0c2.9.3,3.81-1,3.77-3.8-.12-8.32-.18-16.64,0-24.95.09-3.52-1.2-4.51-4.57-4.46-12,.15-23.94-.11-35.9.14-4.16.08-5.48-1.09-5.45-5.38.16-33.7.09-67.41.09-101.12v-5.45H341.81c-6,0-6,0-6,5.94,0,33.41-.06,66.83.07,100.25,0,4.22-1,5.87-5.6,5.78-14.3-.29-28.61-.1-42.92-.11-6.15,0-6.17,0-6.17-6.34q0-59.1,0-118.19a16.53,16.53,0,0,0-.19-4.35c-.24-.88-1.36-2.15-2.1-2.16C269.28,307,259.69,307,249.55,307Z" transform="translate(0.32 -5.57)"/><path class="cls-1" d="M681.2,485.43c-1.47-.55-2.92-1.14-4.41-1.62-11.18-3.62-18-13.41-17.32-24.9.73-12.19,8.56-21.25,20.61-23a40.68,40.68,0,0,1,13.44.17c12,2.28,19.43,11.32,19.79,23.24s-6.49,21.38-18,24.85c-1.22.37-2.4.86-3.59,1.3Zm5.22-42.29c-9.46,0-16.69,7.41-16.7,17.06a16.71,16.71,0,0,0,16.68,17.12c9.38,0,16.66-7.42,16.7-17.1A16.67,16.67,0,0,0,686.42,443.14Z" transform="translate(0.32 -5.57)"/><path class="cls-1" d="M1207.66,485.43a11,11,0,0,0-1.93-.86c-13.16-3.12-20.46-13.63-19.19-27.68,1.06-11.76,10.66-20.67,23.21-21.46,6.63-.43,13.12-.07,19.19,4.48-1.16,2.27-2.3,4.52-3.49,6.87-8.81-4-17.2-5-24.5,2.23-4.64,4.59-5.57,12.77-2,18.75,6.53,11.05,16.71,9.77,27,7.16,3.07,6.95,2.56,8-4.4,9.52-1.12.24-2.2.65-3.3,1Z" transform="translate(0.32 -5.57)"/><path class="cls-1" d="M655.82,387.84V258a17.68,17.68,0,0,1,2.67-.43c23.48,0,47-.41,70.45.09,24.23.51,43.54,16.07,49.95,39.79a87,87,0,0,1-1,50c-8,25-25.83,38.69-51.62,40.1C703,388.84,679.65,387.84,655.82,387.84Zm34.34-66v39c0,.15,0,.29,0,.44-.06,2.14-.08,4.14,3,4.25,5.82.2,11.66,1,17.46.75,15.67-.58,26.65-9.07,31.32-24.08a67.37,67.37,0,0,0,.9-37.11c-4-15.73-13.73-24.13-29.83-25.64-6.08-.56-12.24-.19-18.35-.5-3.38-.17-4.6.86-4.54,4.4C690.28,296.17,690.16,309,690.16,321.86Z" transform="translate(0.32 -5.57)"/><path class="cls-1" d="M842.81,330.18v36.11h58.1v21.52H808.39V257.88H897V279h-5.31c-14.89,0-29.78.09-44.66-.06-3.42,0-4.6.95-4.5,4.45.23,7.87.19,15.76,0,23.63-.06,3.06,1,4.06,4,4,11.68-.14,23.35,0,35,0H887v19.21Z" transform="translate(0.32 -5.57)"/><path class="cls-1" d="M1185.66,279.37V387.9h-34.8V279.46h-47V257.93h128.81v21.44Z" transform="translate(0.32 -5.57)"/><path class="cls-1" d="M553.83,257.92V279H548.5c-15.32,0-30.65.08-46-.06-3.24,0-4.34.95-4.27,4.23q.28,14,0,28c-.06,3.27,1,4.29,4.25,4.25,12-.16,23.94-.07,35.91-.07h5v19.2h-45v53.33H464V257.92Z" transform="translate(0.32 -5.57)"/><path class="cls-1" d="M1366,257.55c-7.46,12.69-14.31,24.34-21.17,36-7.17,12.17-14.43,24.3-21.46,36.55a14.79,14.79,0,0,0-1.86,6.94c-.16,15.31-.09,30.62-.09,45.93v4.93h-34.81v-4.81c0-15.31.09-30.62-.09-45.93a15.73,15.73,0,0,0-2-7.35c-13-22.6-26.17-45.1-39.28-67.64-.72-1.23-1.36-2.5-2.34-4.3,1.85-.12,3.21-.28,4.58-.29,9.48,0,19,.17,28.44-.1,3.46-.1,5.17,1.22,6.8,4.07,8.24,14.41,16.68,28.71,25.06,43,.73,1.25,1.52,2.46,2.55,4.11.88-1.28,1.63-2.23,2.23-3.27,8.72-14.81,17.48-29.6,26.07-44.49,1.4-2.44,2.9-3.53,5.81-3.44C1351.29,257.7,1358.12,257.55,1366,257.55Z" transform="translate(0.32 -5.57)"/><path class="cls-1" d="M932.85,257.82H967.3V366.36h58.43v21.47H932.85Z" transform="translate(0.32 -5.57)"/><path class="cls-1" d="M584.54,257.81h34.13v130H584.54Z" transform="translate(0.32 -5.57)"/><path class="cls-1" d="M1083.74,388h-34.32V257.86h34.32Z" transform="translate(0.32 -5.57)"/><path class="cls-1" d="M1159.76,468.88V436.5h8.93v47.44c-8.28,1.83-9.37,1.43-14-5.27l-19.73-28.37v33.85h-9.08V437c8-2.28,10.6-1.36,14.94,5.13q9,13.44,18,26.88Z" transform="translate(0.32 -5.57)"/><path class="cls-1" d="M772.86,484.55c-2.42,0-4.47-.17-6.48,0-2.67.28-4.18-.9-5.65-3.06-6.93-10.18-14-20.24-21.66-31.19V484.1H730V436.22a73.51,73.51,0,0,1,9.32.12c1.28.17,2.69,1.51,3.5,2.69,6.63,9.75,13.14,19.59,19.69,29.39.29.43.63.81,1.63,2.08V436.59h8.77Z" transform="translate(0.32 -5.57)"/><path class="cls-1" d="M1041.08,469.41v-32.9h8.45v47.42c-8.11,1.87-9.32,1.41-14-5.28l-19.73-28.36v33.85h-9.1V437c8-2.28,10.68-1.34,15,5.07q9.21,13.79,18.43,27.55Z" transform="translate(0.32 -5.57)"/><path class="cls-1" d="M471.36,484.24h-8.84v-48c3.14,0,6.2-.32,9.14.14,1.4.22,2.9,1.71,3.79,3,6.86,10,13.59,20.17,20.92,31.12v-33.9h9.05v47.49c-6.13,1.3-10.73.78-14.42-5.38-5.71-9.55-12.56-18.42-19.64-28.6Z" transform="translate(0.32 -5.57)"/><path class="cls-1" d="M566.55,484.22c-9.89.6-10.06.65-12.69-7.87-1-3.23-2.51-4.43-5.85-4.12-4,.38-9.07-1.08-11.88.86s-3.35,7.07-5,11.08H521.3c1.85-4.89,3.63-9.6,5.42-14.31,3.92-10.33,7.75-20.69,11.88-30.94.51-1.25,2.65-2.5,4.09-2.58,2.16-.11,5.07-1.49,6.37,2C554.82,453.49,560.62,468.66,566.55,484.22Zm-22.18-35.77-1,.17c-1.69,5.15-3.39,10.3-5.17,15.71h11.49C547.86,458.8,546.12,453.63,544.37,448.45Z" transform="translate(0.32 -5.57)"/><path class="cls-1" d="M835.87,484.31H826c-.47-1.24-1-2.43-1.38-3.65-2.88-8.37-2.88-8.51-11.93-8.3-3.48.07-7.68-1.91-9.36,4.07-2.39,8.55-2.84,8.43-12.62,7.78,1.45-3.88,2.83-7.61,4.24-11.32,4.27-11.28,8.47-22.59,13-33.79a5.36,5.36,0,0,1,4-2.74c2.18,0,5.8.49,6.33,1.79C824.25,453.22,829.88,468.48,835.87,484.31Zm-16.84-20c-1.89-5.54-3.65-10.72-5.42-15.9l-.93.18-5.1,15.72Z" transform="translate(0.32 -5.57)"/><path class="cls-1" d="M1110.73,484.12c-1.15.17-1.58.28-2,.3-7.93.27-8.14.33-10.34-7.29-1.07-3.69-2.71-5.56-6.64-4.85a6.46,6.46,0,0,1-.88,0c-3.49.06-7.78-1.08-10.26.54s-2.77,6.07-4.38,9.1a5.26,5.26,0,0,1-3.31,2.4c-2.23.38-4.57.11-7.5.11,3.76-9.92,7.32-19.27,10.86-28.63,2.17-5.72,4.19-11.51,6.61-17.11a4.91,4.91,0,0,1,3.8-2.36c2.18.06,5.75.52,6.28,1.81C1099.09,453.23,1104.77,468.49,1110.73,484.12Zm-22.58-37c-2.15,6.45-3.88,11.62-5.71,17.12h11.47Z" transform="translate(0.32 -5.57)"/><path class="cls-1" d="M1316.34,484.22c-9.41.62-9.52.65-12.23-7.93-.92-2.9-2.19-4.63-5.47-4a10.22,10.22,0,0,1-1.75,0c-3.49.07-7.77-1.07-10.24.56s-2.76,6.06-4.35,9.08a5.21,5.21,0,0,1-3.29,2.4c-2.26.38-4.63.11-7.55.11,3.33-8.77,6.52-17.15,9.71-25.53,2.53-6.66,5.19-13.27,7.5-20,1-2.84,2.91-2.85,5.14-2.7s4.56-.79,5.74,2.42c5.44,14.73,11.08,29.38,16.63,44.07A6.49,6.49,0,0,1,1316.34,484.22Zm-27.81-19.88H1300c-1.88-5.54-3.65-10.72-5.42-15.91l-.9.16C1292,453.73,1290.32,458.86,1288.53,464.34Z" transform="translate(0.32 -5.57)"/><path class="cls-1" d="M957.94,436.19v7.72H937v12.18h17.06V464H936.82v20.18h-9.3a23.57,23.57,0,0,1-.36-2.94c0-13.7.06-27.4-.08-41.1,0-3,.92-4.05,4-4C939.91,436.3,948.77,436.19,957.94,436.19Z" transform="translate(0.32 -5.57)"/><path class="cls-1" d="M589.59,444H574.75v-7.47h39.44v7.34H599.07V484.2h-9.48Z" transform="translate(0.32 -5.57)"/><path class="cls-1" d="M1341.89,476.8h20.56v7.37h-29.84V436.6h9.28Z" transform="translate(0.32 -5.57)"/><path class="cls-1" d="M883.06,476.49v7.59H853.23V436.54h9v39.95Z" transform="translate(0.32 -5.57)"/><path class="cls-1" d="M633.36,484.22V436.46h9v47.76Z" transform="translate(0.32 -5.57)"/><path class="cls-1" d="M985.91,484.32h-9V436.59h9Z" transform="translate(0.32 -5.57)"/><path class="cls-1" d="M1248.14,436.42h9.08V484.2h-9.08Z" transform="translate(0.32 -5.57)"/><path class="cls-1" d="M425.4,401.78a15.77,15.77,0,0,1-16.16,15.89,15.94,15.94,0,0,1-15.56-16.12,15.56,15.56,0,0,1,16-15.94C418.75,385.65,425.48,392.56,425.4,401.78ZM416.63,411c4.85-2.81,6.61-8.25,4.47-13.81s-8.33-9.09-14-7.79a12.69,12.69,0,0,0-9.78,10.49c-.59,5.09,1.34,9.09,5.36,11.12C406.6,415,412.39,415,416.63,411Z" transform="translate(0.32 -5.57)"/><path class="cls-1" d="M1343.7,404c9.89-3.41,7.67,5.93,10.75,9.83,3-4.22,1.6-13.26,11.37-9.85v15.54h-4.66v-7.84l-.79-.2a40.55,40.55,0,0,1-2.72,5.58c-.76,1.12-2.28,2.61-3.28,2.49-1.3-.16-2.7-1.57-3.55-2.79s-1.32-3.12-2.82-4.64c-.11,2.32-.22,4.64-.35,7.32l-4,.28Z" transform="translate(0.32 -5.57)"/><path class="cls-1" d="M1340.14,403.43c1.85,4.4-1.66,3.49-4,4.25v11.79h-4.92V407.76a8.26,8.26,0,0,1-2.62-.62,11.45,11.45,0,0,1-1.92-2.22c.74-.5,1.47-1.4,2.23-1.43C1332.72,403.35,1336.5,403.43,1340.14,403.43Z" transform="translate(0.32 -5.57)"/><path class="cls-1" d="M416.7,411c-5.43,1-6.81-3.38-9.55-6.76-.14,2-.28,4-.45,6.3l-4.11.46V392.39c5.14.65,10.54-2.08,13.54,3.26,1.74,3.1.2,6.19-3.37,8.15Zm-9.61-10.46,1.13,1.09,4-3.37-5.1-4Z" transform="translate(0.32 -5.57)"/></svg>