<svg id="Layer_1" data-name="Layer 1" xmlns="http://www.w3.org/2000/svg" viewBox="0 0 1365.62 195.24"><defs><style>.cls-1{fill:#fff;}</style></defs><path class="cls-1" d="M678.15,143.07c68-13.64,138.19-13.43,206.86-5.23,28.38,3.68,57.91,7.41,82.93,22.4,14.6,8.46,25.9,23.84,26.43,41.11-46.81,1-93.62.48-140.42.34-14-16.33-36.33-21.44-56.9-22.37-27.57-.93-56.22,1.15-81.47,13.17-21.34,10.11-39.65,28.83-45.29,52.23-2.75,10.65,4.13,21.67,13.49,26.49,18.08,9.23,38.82,10.31,58.74,11.05,26.06,1,53.21-3.83,75.33-18.28,2.19-1.25,4.1-3.61,6.9-3.26q71-.25,142,.11c-16.3,18.24-38,30.77-60.54,39.62-28.3,11.12-58.35,17-88.38,21-33.32,4-66.88,6.41-100.44,5.92-45.4-.25-91.32-3.2-135.11-15.91-20.2-6.3-40.58-15.95-53.74-33.13-11-13.61-12.52-33.4-5.33-49.11,9.33-20.67,27.59-35.62,46.73-46.87,33.45-19.23,70.52-31.51,108.21-39.25ZM82.54,138.69c49.2-.8,98.42.46,147.63.27-9,20.43-18.24,40.82-27.31,61.25,47.88.08,95.77-.17,143.66.12,9.37-20.36,18.1-41,27.48-61.4,50.57-.06,101.13-.18,151.7,0q-41.16,91-82.09,182c-42.36.92-84.73.36-127.09.49-8,.08-16.06.27-24-.85,11.2-23.83,21.77-47.95,32.54-71.95q-72,0-144.1,0c-10.42,24.08-21.17,48-31.26,72.22-49.77,1.06-99.54.66-149.32.38C27.36,260.18,55.39,199.62,82.54,138.69Zm982.78-.31h152.56q-30.9,69.3-62.13,138.44,105.12.07,210.25.2-10,22.17-20,44.31-181.27.15-362.53,0c26.94-61.13,54.48-122,81.83-182.94Z" transform="translate(-0.38 -132.16)"/></svg>