<svg id="Layer_1" data-name="Layer 1" xmlns="http://www.w3.org/2000/svg" xmlns:xlink="http://www.w3.org/1999/xlink" viewBox="0 0 1365.91 449.4"><defs><style>.cls-1,.cls-18{fill:#fff;}.cls-2{clip-path:url(#clip-path);}.cls-3{clip-path:url(#clip-path-2);}.cls-4{clip-path:url(#clip-path-3);}.cls-5{clip-path:url(#clip-path-4);}.cls-6{clip-path:url(#clip-path-5);}.cls-7{clip-path:url(#clip-path-6);}.cls-8{clip-path:url(#clip-path-7);}.cls-9{clip-path:url(#clip-path-8);}.cls-10{clip-path:url(#clip-path-9);}.cls-11{clip-path:url(#clip-path-10);}.cls-12{clip-path:url(#clip-path-11);}.cls-13{clip-path:url(#clip-path-12);}.cls-14{clip-path:url(#clip-path-13);}.cls-15{clip-path:url(#clip-path-14);}.cls-16{clip-path:url(#clip-path-15);}.cls-17{clip-path:url(#clip-path-16);}.cls-18{fill-rule:evenodd;}</style><clipPath id="clip-path" transform="translate(-0.04 -5.3)"><rect class="cls-1" x="53.19" y="348.62" width="49.99" height="2.98"/></clipPath><clipPath id="clip-path-2" transform="translate(-0.04 -5.3)"><rect class="cls-1" x="309.41" y="351.58" width="3.07" height="100.04"/></clipPath><clipPath id="clip-path-3" transform="translate(-0.04 -5.3)"><rect class="cls-1" x="515.64" y="245.43" width="3.07" height="103.08"/></clipPath><clipPath id="clip-path-4" transform="translate(-0.04 -5.3)"><rect class="cls-1" x="206.26" y="92.36" width="3.09" height="49.93"/></clipPath><clipPath id="clip-path-5" transform="translate(-0.04 -5.3)"><rect class="cls-1" x="412.51" y="5.3" width="3.09" height="136.99"/></clipPath><clipPath id="clip-path-6" transform="translate(-0.04 -5.3)"><rect class="cls-1" x="309.42" y="92.37" width="3.08" height="49.91"/></clipPath><clipPath id="clip-path-7" transform="translate(-0.04 -5.3)"><rect class="cls-1" x="206.3" y="451.64" width="106.19" height="3.06"/></clipPath><clipPath id="clip-path-8" transform="translate(-0.04 -5.3)"><rect class="cls-1" x="412.51" y="142.29" width="106.21" height="3.05"/></clipPath><clipPath id="clip-path-9" transform="translate(-0.04 -5.3)"><rect class="cls-1" x="412.51" y="245.45" width="106.21" height="3.03"/></clipPath><clipPath id="clip-path-10" transform="translate(-0.04 -5.3)"><rect class="cls-1" x="412.51" y="348.52" width="106.21" height="3.08"/></clipPath><clipPath id="clip-path-11" transform="translate(-0.04 -5.3)"><rect class="cls-1" x="457.38" y="142.3" width="106.25" height="3.05"/></clipPath><clipPath id="clip-path-12" transform="translate(-0.04 -5.3)"><rect class="cls-1" x="0.04" y="245.45" width="103.14" height="3.03"/></clipPath><clipPath id="clip-path-13" transform="translate(-0.04 -5.3)"><rect class="cls-1" x="103.18" y="142.29" width="3.07" height="103.11"/></clipPath><clipPath id="clip-path-14" transform="translate(-0.04 -5.3)"><rect class="cls-1" x="0.07" y="142.28" width="206.2" height="3.07"/></clipPath><clipPath id="clip-path-15" transform="translate(-0.04 -5.3)"><rect class="cls-1" x="103.13" y="351.59" width="3.13" height="103.1"/></clipPath><clipPath id="clip-path-16" transform="translate(-0.04 -5.3)"><rect class="cls-1" x="206.3" y="351.59" width="3.08" height="103.1"/></clipPath></defs><path class="cls-1" d="M412.51,245.49H312.45V145.35H412.51Zm-103.11,103H209.34v-100H309.4Zm103.11,0H312.45v-100H412.51Zm-206.21,0h-100v-100h100Zm0-103.13h-100v-100h100Zm103.1.11H209.34V145.35H309.4ZM415.6,142.3H103.19V351.59H415.6Z" transform="translate(-0.04 -5.3)"/><path class="cls-1" d="M515.64,145.36h3.06v100h-3.06Z" transform="translate(-0.04 -5.3)"/><rect class="cls-1" x="53.14" y="343.32" width="49.99" height="2.98"/><g class="cls-2"><path class="cls-1" d="M53.19,348.62h50v3h-50Z" transform="translate(-0.04 -5.3)"/></g><rect class="cls-1" x="309.36" y="346.28" width="3.07" height="100.04"/><g class="cls-3"><path class="cls-1" d="M309.42,351.59h3.07v100h-3.07Z" transform="translate(-0.04 -5.3)"/></g><rect class="cls-1" x="515.59" y="240.13" width="3.07" height="103.08"/><g class="cls-4"><path class="cls-1" d="M515.64,245.43h3.06V348.51h-3.06Z" transform="translate(-0.04 -5.3)"/></g><rect class="cls-1" x="206.22" y="87.06" width="3.09" height="49.93"/><g class="cls-5"><path class="cls-1" d="M206.25,92.36h3.12v49.92h-3.12Z" transform="translate(-0.04 -5.3)"/></g><rect class="cls-1" x="412.47" width="3.09" height="136.99"/><g class="cls-6"><path class="cls-1" d="M412.51,5.3h3.09v137h-3.09Z" transform="translate(-0.04 -5.3)"/></g><rect class="cls-1" x="309.38" y="87.07" width="3.08" height="49.91"/><g class="cls-7"><path class="cls-1" d="M309.42,92.37h3.08v49.91h-3.08Z" transform="translate(-0.04 -5.3)"/></g><rect class="cls-1" x="206.25" y="446.34" width="106.19" height="3.06"/><g class="cls-8"><path class="cls-1" d="M206.3,451.64H312.48v3.06H206.3Z" transform="translate(-0.04 -5.3)"/></g><path class="cls-1" d="M103.18,451.64H209.37v3.06H103.18Z" transform="translate(-0.04 -5.3)"/><rect class="cls-1" x="412.47" y="136.99" width="106.21" height="3.05"/><g class="cls-9"><path class="cls-1" d="M412.51,142.29h106.2v3.05H412.51Z" transform="translate(-0.04 -5.3)"/></g><rect class="cls-1" x="412.47" y="240.15" width="106.21" height="3.03"/><g class="cls-10"><path class="cls-1" d="M412.51,245.45h106.2v3H412.51Z" transform="translate(-0.04 -5.3)"/></g><rect class="cls-1" x="412.47" y="343.22" width="106.21" height="3.08"/><g class="cls-11"><path class="cls-1" d="M412.51,348.53h106.2v3.06H412.51Z" transform="translate(-0.04 -5.3)"/></g><rect class="cls-1" x="457.33" y="136.99" width="106.25" height="3.05"/><g class="cls-12"><path class="cls-1" d="M457.38,142.3H563.63v3H457.38Z" transform="translate(-0.04 -5.3)"/></g><rect class="cls-1" y="240.15" width="103.14" height="3.03"/><g class="cls-13"><path class="cls-1" d="M.05,245.45H103.18v3H.05Z" transform="translate(-0.04 -5.3)"/></g><rect class="cls-1" x="103.14" y="136.99" width="3.07" height="103.11"/><g class="cls-14"><path class="cls-1" d="M103.18,142.29h3.07V245.4h-3.07Z" transform="translate(-0.04 -5.3)"/></g><rect class="cls-1" x="0.03" y="136.98" width="206.2" height="3.07"/><g class="cls-15"><path class="cls-1" d="M.08,142.29h206.2v3.07H.08Z" transform="translate(-0.04 -5.3)"/></g><path class="cls-1" d="M.07,142.28h3V245.39h-3Z" transform="translate(-0.04 -5.3)"/><rect class="cls-1" x="103.08" y="346.29" width="3.13" height="103.1"/><g class="cls-16"><path class="cls-1" d="M103.14,351.59h3.12V454.7h-3.12Z" transform="translate(-0.04 -5.3)"/></g><rect class="cls-1" x="206.26" y="346.29" width="3.08" height="103.1"/><g class="cls-17"><path class="cls-1" d="M206.3,351.59h3.08V454.7H206.3Z" transform="translate(-0.04 -5.3)"/></g><path class="cls-1" d="M104.72,350H207.84V453.15H104.72Z" transform="translate(-0.04 -5.3)"/><path class="cls-1" d="M207.84,247H311v103.1H207.84Z" transform="translate(-0.04 -5.3)"/><path class="cls-1" d="M311,247H414.06v103.1H311Z" transform="translate(-0.04 -5.3)"/><path class="cls-1" d="M1.61,143.81H104.72V246.93H1.61Z" transform="translate(-0.04 -5.3)"/><path class="cls-1" d="M311,143.81H414.06V246.93H311Z" transform="translate(-0.04 -5.3)"/><path class="cls-1" d="M414.05,143.81H517.16V246.93H414.05Z" transform="translate(-0.04 -5.3)"/><path class="cls-1" d="M414.05,40.7H517.16V143.81H414.05Z" transform="translate(-0.04 -5.3)"/><path class="cls-1" d="M1028.74,238.2l22.58-24.31c-11.63,3.7-28,8.11-42.19,8.11-35.91,0-46.12-19.49-46-35.83.13-25.64,21.95-51,56.47-51,21.78,0,32.51,8.31,38,14.13L1072,118.09c-19.53-12.69-49.38-12.74-54.93-12.74-68.21,0-103.55,39.5-103.55,83,0,35,26.29,62.49,74.79,62.49,13,0,27.52-4,33.36-5.13Z" transform="translate(-0.04 -5.3)"/><path class="cls-1" d="M895.6,238.2l22.59-24.31c-11.63,3.7-28,8.11-42.19,8.11-35.91,0-46.12-19.49-46-35.83.13-25.64,22-51,56.49-51,21.76,0,32.5,8.31,38,14.13l14.36-31.19c-19.52-12.69-49.36-12.74-54.9-12.74-68.21,0-103.55,39.5-103.55,83,0,35,26.28,62.49,74.8,62.49,13,0,27.5-4,33.32-5.13Z" transform="translate(-0.04 -5.3)"/><path class="cls-1" d="M735.22,109.57H663.3L620.65,247.05h50.28L685,202.44a198.27,198.27,0,0,0,28.16,2.34c13.68,0,33.68-1.16,50.75-12.45,13.68-9.15,23-25.29,23.5-41,.94-27.64-27.77-41.75-52.21-41.75m1.25,48.48c-1.55,5.38-8.25,15.11-21.93,16.28a50,50,0,0,1-20.46-1.27L704,140.35h16.68c8.74,0,19.2,5.9,15.84,17.7m425.19,23.49-34.38,65.36h-58.59l3.39-137.46h47.55l-5.53,79.64,48.06-79.64h36.06l5.3,80.11,36.3-80.11H1291L1215.62,246.9h-52.54Zm-415,119.31H706.36l-2,6.11H759.8l-9.56,29.36H738.43l6.35-19.58H701.2L693,341.84H680.12l8.15-25.1h-43.7l-6.45,19.58H626.51l6.36-19.58,3.18-9.78h55.41l2-6.11H650.11l3.21-9.82h101Zm-58,54.33-2.06,6.36h33.63l2.06-6.36Zm-15,6.36,2.06-6.36h-33.6l-2,6.36Zm8,15h33.62l2.24-6.89H684Zm-46.54,0H668.8l2.25-6.89H637.46Zm82.66,8.71h-39c-.24.76-.46,1.49-.63,2.16a5.89,5.89,0,0,0-.14,3.11c.67,2.18,3.22,3,7.81,3h48.78l-7.67,9.77H682.32c-13.18,0-15.73-3.62-17-7.39a13.14,13.14,0,0,1-.34-6.14,28.58,28.58,0,0,1,1-4.51H620.58l12.61-38.82H737l-12.64,38.82ZM782,397H770.23l13.27-40.87h43.82L814.05,397H782ZM792,366l-6.89,21.22h20.34l6.9-21.22Zm120-75-31.56,97.12c-2.28,6.64,8.11,6.85,12.44,6.82l-7.29,9.3s-23.83,1.88-17.86-16.86c.65-2,20-61.37,27.92-85.91H875.84c-2.66,8.13-6.54,19.58-11.28,32.16h18.75l-8.21,10.5H860.49c-8.66,21.84-19.38,45.07-30.26,59.17H813.36c13.86-14.89,25.57-37.85,34.42-59.17H837.66l3.42-10.5H852c4.9-12.8,8.67-24.3,11.09-32.16H851.52l3.4-10.47h57.16Zm76.36,33.34c2.31,1.61,5.13,3.85,8.21,6.41a107.55,107.55,0,0,0,11.88-10.68H973.44a100.2,100.2,0,0,1-27.79,33.75H929.18c19.82-15.11,33-31.06,39.07-52.35H953.13L956.55,291h95.76L1046,310.61h14.57l-6.4,19.69c-6.4,19.77-14.2,27.66-28,24.45L1018,341.43c7.22,3.76,15.19,4.21,18.46.39,1.71-2,5.12-11.34,5.18-11.64l3.38-10.07h-14.49l6-18.6H980.85c-.82,2.74-1.86,5.8-3.15,9.11h52.51c-7.4,10.76-16.93,19.91-25.76,27a228.92,228.92,0,0,1,16.29,16.2h-15.89c-3.56-3.85-6.55-7-9.13-9.63A115.39,115.39,0,0,1,980,353.86h-24.6c10.2-3.21,22.17-9.58,32.85-16.89-5.37-4.91-9.29-7.67-15.7-12.59h15.91Zm-36.6,44.33-8.31,25.44h16.35l8.25-25.44Zm88.66-8.29-2.11,6.52Zm0,0-2.11,6.52-.59,1.78-8.25,25.44h16l-7.16,9.17H915.58l3-9.17h12.58l11-33.74.29-.89h98.29Zm-52,33.74,8.24-25.44h-16.3l-8.26,25.44Zm20.59-25.45-8.26,25.44h16.33l8.25-25.44Zm100.44-22.4A122.65,122.65,0,0,1,1088.63,371h-15.24c16.8-14.39,28.56-29.44,33.76-38.69h-16l3.66-11.31h23l6-18.57h-20.13l3.72-11.38h51l-8.88,11.38h-13.34l-6,18.57h21.55l-8.85,11.31H1128a102,102,0,0,1,13.77,25.83h-12.18a110.3,110.3,0,0,0-6.66-14.82l-19.49,60H1091Z" transform="translate(-0.04 -5.3)"/><path class="cls-1" d="M1209,361.83,1200.27,373H1189l-9.86,30.33h-12.9l9.88-30.33h-41.83l3.62-11.17h41.83l23-70.8h12.88l-23,70.8Z" transform="translate(-0.04 -5.3)"/><path class="cls-18" d="M1185.2,317.88h-29.54l8.53-10.92h29.55Zm-8.67,26.67H1147l8.54-10.89h29.54Zm-335.07-43.7h-40l3.24-9.82h44.48Zm-1.15,16.48H791.53L795,307h53.31Zm-9.48,16.33h-40l3.26-9.83h44.46Zm-5.18,15.93h-40l3.22-9.82h44.49Zm-92.9-20.75H701.5l6.26-8H739Zm-4.25,13H697.25l6.23-8h31.26Zm-52.42-13H644.81l6.27-8h31.25Zm-4.25,13H640.57l6.25-8h31.26Z" transform="translate(-0.04 -5.3)"/><path class="cls-1" d="M1298.13,87.41a33.92,33.92,0,1,1,33.92,33.92,33.94,33.94,0,0,1-33.92-33.92m62.67,0a28.74,28.74,0,1,0-28.75,28.71,28.37,28.37,0,0,0,28.75-28.71M1332.71,67c11.64,0,14.16,6.51,14.16,11.88,0,5-3.52,9.55-9.54,10.72l8.69,19.77h-5.7l-8.28-19h-8.3v19h-5.18V67Zm-9.51,18.74h6.86c8.61,0,10-3,10-6.94,0-5.44-3.51-7.22-9.13-7.22h-7.79V85.72Z" transform="translate(-0.04 -5.3)"/></svg>