<svg id="Слой_1" data-name="Слой 1" xmlns="http://www.w3.org/2000/svg" viewBox="0 0 4994.73 2682.45"><defs><style>.cls-1{fill:#2b3872;}.cls-2{fill:#4656a1;}.cls-3{fill:#38488c;}.cls-4{fill:#232851;}.cls-5{fill:#15172d;}.cls-6,.cls-8{fill:#2c447d;}.cls-7{fill:#191e3a;stroke:#191e3a;stroke-width:2px;}.cls-7,.cls-8{stroke-miterlimit:10;}.cls-8{stroke:#2c447d;stroke-width:6px;}</style></defs><path class="cls-1" d="M4272.45,2626H4108.83a70.73,70.73,0,0,1-70.73-70.73V2429.79a70.57,70.57,0,0,1,24.84-53.82h0a70.41,70.41,0,0,1,45.87-16.9h163.62Z" transform="translate(0 -127.4)"/><path class="cls-2" d="M4653.85,2765.36H4327a91.4,91.4,0,0,1-91.39-91.41v-362.9a91.39,91.39,0,0,1,91.39-91.39h326.83Z" transform="translate(0 -127.4)"/><rect class="cls-3" x="4372.49" y="2456.53" width="634.68" height="71.96" rx="6.08" transform="translate(2197.32 7054.93) rotate(-90)"/><path class="cls-4" d="M4725.8,2410.61v-93h222.43a46.5,46.5,0,0,1,46.5,46.5h0a46.5,46.5,0,0,1-46.5,46.5Z" transform="translate(0 -127.4)"/><path class="cls-4" d="M4837.33,2486.44h45.87a23.56,23.56,0,0,1,23.56,23.56v245.36a0,0,0,0,1,0,0h-93a0,0,0,0,1,0,0V2510A23.56,23.56,0,0,1,4837.33,2486.44Z" transform="translate(7481.17 -2366.76) rotate(90)"/><path class="cls-3" d="M4653.85,2765.36H4327a91.4,91.4,0,0,1-91.39-91.41v-362.9a91.39,91.39,0,0,1,91.39-91.39c27.23,391.85,326.83,427.85,326.83,427.85Z" transform="translate(0 -127.4)"/><rect class="cls-1" x="4367.82" y="2479.33" width="545.7" height="26.35" transform="translate(7133.18 -2275.55) rotate(90)"/><path class="cls-1" d="M4515.71,2765.36H4327a91.4,91.4,0,0,1-91.39-91.41V2419.19C4235.63,2676.46,4515.71,2765.36,4515.71,2765.36Z" transform="translate(0 -127.4)"/><rect class="cls-4" x="4093.66" y="2483.97" width="266.86" height="17.08" transform="translate(6719.6 -1861.98) rotate(90)"/><rect class="cls-5" x="4695.58" y="2347.83" width="93" height="32.56" transform="translate(7106.2 -2505.37) rotate(90)"/><rect class="cls-5" x="4695.58" y="2604.62" width="93" height="32.56" transform="translate(7362.98 -2248.58) rotate(90)"/><path class="cls-4" d="M4235.63,2626h-126.8a70.73,70.73,0,0,1-70.73-70.73V2429.79a70.57,70.57,0,0,1,24.84-53.82h0c-24,195.51,172.67,225.36,172.67,225.36Z" transform="translate(0 -127.4)"/><polygon class="cls-6" points="2063.86 2378.02 2015.99 2360.53 2061.99 2343.74 2014.35 2326.35 2069.92 2306.07 1937.19 2306.07 1937.19 2306.07 0 2306.07 0 2416.79 1937.19 2416.79 1937.19 2416.79 2069.92 2416.79 2069.92 2416.72 2013.88 2396.25 2063.86 2378.02"/><polygon class="cls-6" points="3122.19 2309.75 3122.19 2309.75 2989.46 2309.75 2989.46 2309.83 3045.5 2330.3 2995.52 2348.53 3043.39 2366.02 2997.39 2382.81 3045.03 2400.2 2989.46 2420.48 3122.19 2420.48 3122.19 2420.48 4038.1 2420.48 4038.1 2309.75 3122.19 2309.75"/><path class="cls-1" d="M2164.57,2259.38h29.84a7.67,7.67,0,0,1,7.67,7.68h0a7.67,7.67,0,0,1-7.67,7.67h-29.84a7.68,7.68,0,0,1,0-15.35Z" transform="translate(0 -127.4)"/><path class="cls-1" d="M2276,2266.93a7.68,7.68,0,0,1-7.67,7.8h-29.84a7.68,7.68,0,0,1-7.68-7.67h0a7.68,7.68,0,0,1,7.68-7.68h29.65A7.8,7.8,0,0,1,2276,2266.93Z" transform="translate(0 -127.4)"/><path class="cls-1" d="M2224.12,2215.19V2245a7.67,7.67,0,0,1-7.68,7.67h0a7.66,7.66,0,0,1-7.67-7.67v-29.83a7.68,7.68,0,1,1,15.35,0Z" transform="translate(0 -127.4)"/><path class="cls-1" d="M2216.44,2281.42h0a7.67,7.67,0,0,1,7.68,7.67v29.84a7.68,7.68,0,0,1-15.35,0v-29.84A7.66,7.66,0,0,1,2216.44,2281.42Z" transform="translate(0 -127.4)"/><path class="cls-1" d="M2856.46,2669.19h30.29a7.8,7.8,0,0,1,7.8,7.8h0a7.8,7.8,0,0,1-7.8,7.79h-30.29a7.8,7.8,0,0,1,0-15.59Z" transform="translate(0 -127.4)"/><path class="cls-1" d="M2969.59,2676.86a7.79,7.79,0,0,1-7.79,7.92h-30.3a7.79,7.79,0,0,1-7.79-7.79h0a7.8,7.8,0,0,1,7.79-7.8h30.11A7.92,7.92,0,0,1,2969.59,2676.86Z" transform="translate(0 -127.4)"/><path class="cls-1" d="M2916.92,2624.32v30.29a7.8,7.8,0,0,1-7.79,7.8h0a7.8,7.8,0,0,1-7.8-7.8v-30.29a7.8,7.8,0,1,1,15.59,0Z" transform="translate(0 -127.4)"/><path class="cls-1" d="M2909.13,2691.57h0a7.8,7.8,0,0,1,7.79,7.8v30.29a7.8,7.8,0,0,1-15.59,0v-30.29A7.8,7.8,0,0,1,2909.13,2691.57Z" transform="translate(0 -127.4)"/><polygon class="cls-1" points="2330.88 2297 2354.2 2309.75 2330.88 2322.51 2318.13 2345.82 2305.38 2322.51 2282.07 2309.75 2305.38 2297 2318.13 2273.69 2330.88 2297"/><polygon class="cls-1" points="2864.67 2163.86 2887.99 2176.61 2864.67 2189.36 2851.92 2212.68 2839.17 2189.36 2815.86 2176.61 2839.17 2163.86 2851.92 2140.55 2864.67 2163.86"/><path class="cls-1" d="M2647.62,2473.22a35.13,35.13,0,1,0,35.13,35.12A35.12,35.12,0,0,0,2647.62,2473.22Zm0,54.63a19.51,19.51,0,1,1,19.52-19.51A19.5,19.5,0,0,1,2647.62,2527.85Z" transform="translate(0 -127.4)"/><path class="cls-1" d="M2224.12,2669.19a35.13,35.13,0,1,0,35.13,35.13A35.12,35.12,0,0,0,2224.12,2669.19Zm0,54.64a19.51,19.51,0,1,1,19.51-19.51A19.5,19.5,0,0,1,2224.12,2723.83Z" transform="translate(0 -127.4)"/><path class="cls-7" d="M1215.13,1577.9h-51v77.84q0,16.69-7.88,25.33a25.76,25.76,0,0,1-19.88,8.62q-12.57,0-20.26-8.53t-7.69-25v-212q0-18.37,8.44-26.26t26.83-7.88h71.47q31.69,0,48.77,4.88a72.55,72.55,0,0,1,29.17,15.57,70.17,70.17,0,0,1,18.66,26.63q6.38,15.77,6.38,35.46,0,42-25.89,63.68T1215.13,1577.9Zm-13.51-126.06H1164.1v84h37.52q19.7,0,32.92-4.13t20.17-13.51q6.93-9.37,6.94-24.57,0-18.2-10.7-29.64Q1239,1451.85,1201.62,1451.84Z" transform="translate(0 -127.4)"/><path class="cls-7" d="M1475.86,1660.81q-18.57,14.45-35.92,21.66t-38.92,7.22q-19.69,0-34.61-7.78a57,57,0,0,1-23-21.1,54.74,54.74,0,0,1-8.06-28.89q0-21,13.31-35.83t36.58-19.88q4.88-1.12,24.2-5.07t33.11-7.22q13.79-3.29,29.92-8-.95-20.27-8.16-29.73t-29.92-9.48q-19.52,0-29.36,5.44a47.76,47.76,0,0,0-16.88,16.32,171.49,171.49,0,0,1-9.94,14.35q-2.91,3.48-12.48,3.47a21.81,21.81,0,0,1-14.91-5.53,18,18,0,0,1-6.28-14.16q0-13.52,9.56-26.26t29.83-21q20.27-8.25,50.46-8.26,33.77,0,53.08,8t27.3,25.22q8,17.27,8,45.78,0,18-.09,30.57t-.29,27.95a103,103,0,0,0,4.79,30.11q4.78,15.66,4.78,20.16,0,7.88-7.41,14.35a24.79,24.79,0,0,1-16.79,6.47q-7.87,0-15.57-7.41T1475.86,1660.81Zm-3.37-74.1q-11.27,4.13-32.73,8.72t-29.74,6.76a40.46,40.46,0,0,0-15.75,8.44q-7.51,6.28-7.51,17.54a26,26,0,0,0,8.82,19.79q8.82,8.16,23.07,8.16a60.06,60.06,0,0,0,28-6.66q12.84-6.66,18.85-17.17,6.93-11.62,6.94-38.26Z" transform="translate(0 -127.4)"/><path class="cls-7" d="M1758,1519v148.76q0,25.5-5.44,43.89T1735.1,1742q-12,12-31.42,17.82t-48.3,5.81q-26.45,0-47.27-7.4T1576,1739.12q-11.25-11.71-11.25-24.1,0-9.39,6.38-15.29a21.81,21.81,0,0,1,15.38-5.91q11.25,0,19.69,9.94,4.13,5.07,8.54,10.23a50.25,50.25,0,0,0,9.75,8.81,38.23,38.23,0,0,0,12.85,5.44,75,75,0,0,0,17.26,1.78q19.88,0,30.86-5.53t15.38-15.48a62.12,62.12,0,0,0,5.16-21.29q.73-11.34,1.12-36.48-11.82,16.52-27.29,25.14T1643,1685q-25.7,0-44.93-13.13t-29.54-36.76q-10.32-23.64-10.32-54.59,0-23.07,6.29-41.64t17.91-31.33a76.77,76.77,0,0,1,26.82-19.23,84.42,84.42,0,0,1,33.39-6.47q21.77,0,37.71,8.35t29.64,26.17v-6.94q0-13.32,6.56-20.64a21.67,21.67,0,0,1,16.88-7.31q14.82,0,19.7,9.66T1758,1519Zm-148.38,64.91q0,31.14,13.6,47.08t35.17,16a45.9,45.9,0,0,0,24.11-6.85q11.34-6.84,18.47-20.64t7.13-33.48q0-31.32-13.79-48.77T1658,1519.75q-22,0-35.18,16.69T1609.61,1583.9Z" transform="translate(0 -127.4)"/><path class="cls-7" d="M1943.13,1598.15H1843q.18,17.44,7,30.77t18.19,20.07a48.07,48.07,0,0,0,25,6.75,61.25,61.25,0,0,0,16.79-2.16,54.3,54.3,0,0,0,14.73-6.75,111.82,111.82,0,0,0,13.13-9.85q6-5.25,15.57-14.25,3.93-3.37,11.25-3.38,7.88,0,12.76,4.32t4.87,12.19q0,6.95-5.44,16.22t-16.41,17.82q-11,8.55-27.57,14.17t-38.18,5.62q-49.34,0-76.72-28.13t-27.38-76.35a127.39,127.39,0,0,1,6.75-42.11,92.9,92.9,0,0,1,19.7-33.3,85.36,85.36,0,0,1,31.88-21.29q18.94-7.41,42-7.41,30,0,51.49,12.67t32.17,32.73q10.69,20.07,10.7,40.89,0,19.32-11.07,25T1943.13,1598.15ZM1843,1569.08h92.85q-1.87-26.26-14.16-39.3t-32.36-13q-19.12,0-31.42,13.23T1843,1569.08Z" transform="translate(0 -127.4)"/><path class="cls-7" d="M2200.68,1438.71l107.11,162.07V1437.21q0-15.95,6.85-23.92t18.47-8q12,0,18.95,8t6.94,23.92v216.28q0,36.21-30,36.2a39.93,39.93,0,0,1-13.51-2.15,34.28,34.28,0,0,1-11.26-6.85,66.37,66.37,0,0,1-9.75-11q-4.5-6.29-9-12.85L2181,1496.67V1657.8q0,15.77-7.31,23.83a24.21,24.21,0,0,1-18.76,8.06q-11.82,0-18.95-8.16t-7.12-23.73V1445.65q0-13.5,3-21.2a30.22,30.22,0,0,1,11.81-13.78,32.16,32.16,0,0,1,17.82-5.35,29.23,29.23,0,0,1,22.23,9A68.44,68.44,0,0,1,2192,1425Q2196.18,1431.58,2200.68,1438.71Z" transform="translate(0 -127.4)"/><path class="cls-7" d="M2608.11,1585.59a121.05,121.05,0,0,1-7.13,42.2,93.32,93.32,0,0,1-20.63,33.2,91,91,0,0,1-32.27,21.29q-18.76,7.41-42.21,7.41-23.25,0-41.83-7.5a92.31,92.31,0,0,1-52.8-54.49q-7-19-7-42.11,0-23.27,7.12-42.59a92.85,92.85,0,0,1,20.45-33,90.12,90.12,0,0,1,32.26-21.1q18.95-7.41,41.83-7.41,23.27,0,42.21,7.5a90.81,90.81,0,0,1,53,54.4A121.49,121.49,0,0,1,2608.11,1585.59Zm-51.4,0q0-31.33-13.79-48.78t-37.05-17.44a45.92,45.92,0,0,0-26.44,7.78q-11.44,7.8-17.64,23t-6.19,35.46q0,20.07,6.1,35.07t17.44,23q11.36,8,26.73,8,23.27,0,37.05-17.53T2556.71,1585.59Z" transform="translate(0 -127.4)"/><path class="cls-7" d="M2651.25,1486h5.63v-30.76q0-12.39.66-19.42a28.59,28.59,0,0,1,3.65-12.1,23.1,23.1,0,0,1,8.63-8.53,24.46,24.46,0,0,1,12.57-3.28q9.75,0,17.63,7.31a21.72,21.72,0,0,1,6.66,11.91q1.41,7,1.41,20V1486h18.76q10.88,0,16.6,5.16a17,17,0,0,1,5.72,13.22q0,10.32-8.16,14.45t-23.36,4.12h-9.56v94.17a153.71,153.71,0,0,0,.84,18.48,18.86,18.86,0,0,0,4.5,10.5q3.66,4,11.92,4a63.88,63.88,0,0,0,12.19-1.59,63.42,63.42,0,0,1,12-1.59,15.39,15.39,0,0,1,11.16,5,16.66,16.66,0,0,1,5,12.28q0,12.39-13.5,19t-38.83,6.56q-24,0-36.39-8.06a37.49,37.49,0,0,1-16.23-22.32q-3.84-14.26-3.84-38.08v-98.3h-6.75q-11.09,0-16.89-5.25a17.15,17.15,0,0,1-5.81-13.32,16.55,16.55,0,0,1,6.09-13.22Q2639.63,1486,2651.25,1486Z" transform="translate(0 -127.4)"/><path class="cls-7" d="M3048.36,1453H2938.62v70.34h91.73q12.77,0,19,5.72t6.29,15.29q0,9.57-6.38,15.19t-19,5.63h-91.73v90.6q0,17.27-7.78,25.61t-20,8.34q-12.37,0-20.16-8.44t-7.79-25.51V1444.15q0-12,3.57-19.6a22.09,22.09,0,0,1,11.16-11.07q7.59-3.46,19.41-3.47h131.31q13.32,0,19.79,5.91t6.47,15.47q0,9.77-6.47,15.67T3048.36,1453Z" transform="translate(0 -127.4)"/><path class="cls-7" d="M3289.59,1585.59a121.05,121.05,0,0,1-7.13,42.2,93.18,93.18,0,0,1-20.63,33.2,91,91,0,0,1-32.26,21.29q-18.77,7.41-42.21,7.41-23.27,0-41.83-7.5a92.37,92.37,0,0,1-52.81-54.49q-7-19-7-42.11,0-23.27,7.13-42.59a92.68,92.68,0,0,1,20.44-33,90.16,90.16,0,0,1,32.27-21.1q18.94-7.41,41.83-7.41,23.25,0,42.21,7.5a90.81,90.81,0,0,1,53,54.4A121.73,121.73,0,0,1,3289.59,1585.59Zm-51.4,0q0-31.33-13.78-48.78t-37-17.44a46,46,0,0,0-26.45,7.78q-11.44,7.8-17.63,23t-6.19,35.46q0,20.07,6.09,35.07t17.45,23q11.34,8,26.73,8,23.25,0,37-17.53T3238.19,1585.59Z" transform="translate(0 -127.4)"/><path class="cls-7" d="M3462.92,1660.81v-6.57a113.82,113.82,0,0,1-19.33,19.51,71.12,71.12,0,0,1-22.13,11.72,89.79,89.79,0,0,1-27.39,3.85q-18.57,0-33.29-7.69a56.09,56.09,0,0,1-22.79-21.2q-9.57-16.32-9.57-46.89V1512.05q0-15.37,6.94-23t18.38-7.6q11.64,0,18.76,7.69t7.13,22.88v82q0,17.82,3,29.92t10.79,18.94q7.77,6.85,21.1,6.85a42.94,42.94,0,0,0,24.39-7.69A45,45,0,0,0,3455.6,1622q4.32-10.87,4.32-47.65v-62.28q0-15.19,7.12-22.88t18.57-7.69q11.44,0,18.39,7.6t6.94,23v148.38q0,14.64-6.66,22t-17.17,7.31a22.36,22.36,0,0,1-17.35-7.59Q3462.92,1674.5,3462.92,1660.81Z" transform="translate(0 -127.4)"/><path class="cls-7" d="M3608.48,1509.8V1516q13.5-17.82,29.54-26.16t36.86-8.35q20.26,0,36.21,8.81a56.09,56.09,0,0,1,23.82,25,59.32,59.32,0,0,1,6.56,20.26,209.85,209.85,0,0,1,1.51,27.76v95.3q0,15.38-7,23.26t-18.29,7.87q-11.45,0-18.57-8.06t-7.13-23.07v-85.35q0-25.34-7-38.74t-28-13.41a41.5,41.5,0,0,0-25,8.16,46.85,46.85,0,0,0-16.51,22.41q-3.75,11.44-3.75,42.77v64.16q0,15.57-7.22,23.35t-18.67,7.78a23.2,23.2,0,0,1-18.19-8.06q-7.14-8.07-7.13-23.07v-148q0-14.62,6.38-21.85t17.44-7.22a23.6,23.6,0,0,1,12.19,3.19,22.79,22.79,0,0,1,8.73,9.56A33.87,33.87,0,0,1,3608.48,1509.8Z" transform="translate(0 -127.4)"/><path class="cls-7" d="M3934.31,1660.43v-5.06a130.52,130.52,0,0,1-20.35,19.22,76.36,76.36,0,0,1-21.76,11.26,81.91,81.91,0,0,1-25.61,3.84,75.38,75.38,0,0,1-34-7.78,79.43,79.43,0,0,1-27.11-22.23,101.28,101.28,0,0,1-17.35-34,145,145,0,0,1-5.91-42.21q0-48,23.45-74.84t61.71-26.83q22.14,0,37.33,7.6t29.64,23.35v-75.59q0-15.76,6.28-23.82t17.92-8.07q11.63,0,17.91,7.41t6.29,21.85v225.85q0,14.64-6.76,22t-17.44,7.31a22.33,22.33,0,0,1-17.35-7.59Q3934.31,1674.5,3934.31,1660.43Zm-100.73-75.22q0,20.82,6.47,35.45t17.72,22a43.75,43.75,0,0,0,24.58,7.41,45.31,45.31,0,0,0,24.66-7q11.16-7,17.82-21.57t6.67-36.3q0-20.45-6.67-35.17t-18-22.51a43,43,0,0,0-24.86-7.78,41.86,41.86,0,0,0-25.13,8q-11.07,8-17.17,22.88T3833.58,1585.21Z" transform="translate(0 -127.4)"/><path class="cls-8" d="M1863.32,965.69V851.28H1554.54q-58.44,0-87.65-26.45t-29.21-72a69.83,69.83,0,0,1,4.3-23.68A122.5,122.5,0,0,1,1454.9,704q8.61-13.23,17.84-25.53t22.76-30.14l326-436.1q32-43,52.59-62.43t49.52-19.37q93.48,0,93.49,107V713.5h26.45q47.36,0,76,12.92T2148.1,783q0,35.68-23.37,52t-70.12,16.3h-37.52V965.69q0,47.37-20.91,70.42t-56,23.07q-34.46,0-55.66-23.68T1863.32,965.69ZM1598.83,713.5h264.49V356.13Z" transform="translate(0 -127.4)"/><path class="cls-8" d="M2859.76,601.55q0,100.89-12.3,173.46t-45.52,131.63q-41.83,72.58-108.25,111.94T2546.07,1058q-93.51,0-167.62-52.9T2266.82,858.66q-19.08-51-28-112.87T2229.91,612q0-92.86,9.84-167.3t30.76-127.94q36.28-88.57,105.48-135t165.15-46.44q63.34,0,115,20.6a262.52,262.52,0,0,1,90.73,60.28Q2786,255.88,2813,314.31,2859.75,415.8,2859.76,601.55Zm-168.53-12.3q0-112.56-13.54-184.22t-45.51-108.25q-32-36.58-88.58-36.6-81.18,0-112.86,81.81t-31.68,252.18q0,115.65,13.53,189.45t45.52,111.64q32,37.83,86.72,37.83,56.6,0,88.58-39.37t44.9-112.56Q2691.23,708,2691.23,589.25Z" transform="translate(0 -127.4)"/><path class="cls-8" d="M3360.44,965.69V851.28H3051.67q-58.46,0-87.65-26.45t-29.22-72a69.6,69.6,0,0,1,4.31-23.68A122.43,122.43,0,0,1,2952,704q8.61-13.23,17.84-25.53t22.76-30.14l326-436.1q32-43,52.59-62.43t49.52-19.37q93.48,0,93.49,107V713.5h26.45q47.36,0,76,12.92T3645.23,783q0,35.68-23.38,52t-70.12,16.3h-37.52V965.69q0,47.37-20.91,70.42t-56,23.07q-34.45,0-55.67-23.68T3360.44,965.69ZM3096,713.5h264.49V356.13Z" transform="translate(0 -127.4)"/></svg>