<svg id="Layer_1" data-name="Layer 1" xmlns="http://www.w3.org/2000/svg" xmlns:xlink="http://www.w3.org/1999/xlink" viewBox="0 0 1967.6 2160"><defs><style>.cls-1{fill:none;}.cls-2{clip-path:url(#clip-path);}.cls-3{fill:url(#linear-gradient);}.cls-4{clip-path:url(#clip-path-2);}.cls-5{fill:url(#linear-gradient-2);}.cls-6{clip-path:url(#clip-path-3);}.cls-7{fill:url(#linear-gradient-3);}.cls-8{clip-path:url(#clip-path-4);}.cls-9{fill:url(#linear-gradient-4);}.cls-10{clip-path:url(#clip-path-5);}.cls-11{fill:url(#linear-gradient-5);}.cls-12{clip-path:url(#clip-path-6);}.cls-13{fill:url(#linear-gradient-6);}.cls-14{clip-path:url(#clip-path-7);}.cls-15{fill:url(#linear-gradient-7);}.cls-16{clip-path:url(#clip-path-8);}.cls-17{fill:url(#linear-gradient-8);}</style><clipPath id="clip-path"><path class="cls-1" d="M541.81,1887.08A831.84,831.84,0,0,1,658,1703.5c139.21-167.4,342.63-284.48,597.37-400.44,461.93-210.28,496.71-525.7,531.45-840.82C1804.26,303.88,1821.72,145.6,1892,0h22.49c-72.67,145.5-90.26,304.93-107.84,464.42-35.36,320.75-70.76,641.79-543,856.78-252.27,114.84-453.48,230.49-590.33,395a811.67,811.67,0,0,0-110.61,173.36q-10.44-1.23-20.88-2.51m-48.94-6.4a832.28,832.28,0,0,1,122-196.5c139.21-167.4,342.63-284.48,597.37-400.44C1674.2,1073.46,1709,758.05,1743.72,442.93c16.69-151.39,33.37-302.7,96.21-442.93h22.19c-64.92,140.23-81.74,292.64-98.55,445.11-35.35,320.75-70.75,641.79-543,856.77-252.28,114.84-453.5,230.5-590.33,395a811.91,811.91,0,0,0-116.71,186.57Q503.19,1882.13,492.87,1880.68Zm-48.26-7.38a833,833,0,0,1,127.21-208.43c139.21-167.4,342.63-284.48,597.37-400.44,461.93-210.28,496.71-525.7,531.45-840.82C1716.56,279.16,1732.5,134.76,1788.52,0h21.91c-57.85,134.86-73.9,280.3-89.94,425.8-35.35,320.75-70.75,641.79-543,856.77-252.29,114.84-453.5,230.49-590.33,395a812.15,812.15,0,0,0-122.18,199Q454.79,1875,444.61,1873.3Zm-47.51-8.68a833.71,833.71,0,0,1,131.64-219.06c139.22-167.4,342.63-284.48,597.37-400.44,461.93-210.28,496.71-525.7,531.45-840.82,15.16-137.57,30.35-275.1,80.16-404.3h21.66c-51.4,129.38-66.69,267.91-82,406.49-35.36,320.74-70.76,641.79-543,856.77-252.27,114.84-453.48,230.5-590.32,395a813.27,813.27,0,0,0-126.94,210.18Q407.1,1866.62,397.1,1864.62Zm-46.71-10.31a833.92,833.92,0,0,1,135.27-228.06c139.21-167.4,342.63-284.48,597.37-400.44C1545,1015.53,1579.73,700.12,1614.48,385c14.41-130.74,28.84-261.44,73-385h21.46c-45.53,123.81-60.07,255.47-74.58,387.18C1599,707.92,1563.58,1029,1091.31,1244,839,1358.79,637.83,1474.45,501,1639a814.17,814.17,0,0,0-130.9,219.9Q360.21,1856.69,350.39,1854.31Zm-45.83-12.26a835.17,835.17,0,0,1,138-235.12c139.21-167.39,342.63-284.48,597.37-400.44,461.93-210.27,496.71-525.69,531.45-840.81,13.66-124,27.32-247.87,66.33-365.68H1659c-40.2,118.14-54,243-67.74,367.86-35.36,320.75-70.76,641.79-543,856.77-252.27,114.84-453.48,230.5-590.33,395-55.46,66.69-100.42,141.57-134,227.83Q314.16,1844.87,304.56,1842.05Zm-44.93-14.53c34.65-91,81.59-169.81,139.87-239.9,139.21-167.4,342.63-284.48,597.37-400.44,461.93-210.28,496.71-525.7,531.45-840.82C1541.23,229.17,1554.17,112,1588.5,0h21.09c-35.37,112.39-48.4,230.46-61.41,348.55-35.36,320.75-70.76,641.79-543,856.77-252.27,114.84-453.48,230.5-590.33,395-56.7,68.19-102.43,144.91-136.27,233.61Q269,1830.87,259.63,1827.52Zm-43.92-17.06c34.72-92,82-171.5,140.71-242.15,139.21-167.4,342.63-284.48,597.37-400.44,461.93-210.28,496.71-525.7,531.45-840.82,12.18-110.48,24.37-220.92,54.49-327h20.94c-31,106.57-43.3,217.89-55.58,329.24C1469.74,650,1434.34,971,962.08,1186c-252.28,114.84-453.5,230.5-590.33,395-57.42,69-103.58,146.85-137.54,237Q224.9,1814.36,215.71,1810.46Zm375.6,82.41A831.59,831.59,0,0,1,701.06,1722.8c139.22-167.4,342.63-284.47,597.37-400.43,461.93-210.28,496.71-525.7,531.45-840.82,18.23-165.39,36.48-330.69,114.9-481.55h22.82c-81.12,150.63-99.5,317.14-117.86,483.74-35.36,320.74-70.76,641.78-543,856.77-252.27,114.84-453.48,230.5-590.33,395a811.36,811.36,0,0,0-104,159.68l-7.4-.83Z"/></clipPath><linearGradient id="linear-gradient" x1="260.4" y1="2043.94" x2="2388.64" y2="-762.97" gradientUnits="userSpaceOnUse"><stop offset="0" stop-color="#003780"/><stop offset="1" stop-color="#51f4e9"/></linearGradient><clipPath id="clip-path-2"><path class="cls-1" d="M377,1419.19c130.28-115.56,298.07-206.93,497.27-297.6,461.93-210.28,496.71-525.7,531.45-840.83,10.41-94.51,20.84-189,42.49-280.76h20.65c-22.27,92.32-32.78,187.63-43.29,283-35.35,320.75-70.75,641.79-543,856.77C688.44,1228.07,524.61,1316.9,397,1428.09q-10.15-4.32-20.07-8.9m-41.4-20.8c130-114.86,297.25-205.83,495.59-296.12C1293.08,892,1327.86,576.58,1362.6,261.46,1372.29,173.56,1382,85.69,1400.71,0h20.56c-19.25,86.27-29,174.94-38.82,263.64-35.35,320.74-70.75,641.78-543,856.77-193.81,88.22-357.47,176.94-485,287.92Q344.9,1403.49,335.56,1398.39Zm-38.92-23c129.43-113.14,295.2-203.14,491.43-292.47,461.93-210.28,496.71-525.7,531.45-840.82,9-81.3,17.92-162.58,34-242.14H1374c-16.56,80.17-25.62,162.24-34.67,244.32-35.35,320.75-70.75,641.79-543,856.78-192.26,87.52-354.85,175.53-481.91,285.27Q305.43,1381,296.64,1375.43Zm-36.56-25c128.46-110.5,292-199,484.91-286.81C1206.92,853.37,1241.7,538,1276.44,222.83c8.24-74.73,16.48-149.45,30.27-222.83h20.41c-14.17,74-22.5,149.5-30.82,225-35.36,320.74-70.76,641.79-543,856.76-189.51,86.28-350.19,173-476.43,280.59Q268.34,1356.52,260.08,1350.46Zm-34.24-26.84c127.09-107,287.52-193.45,476.06-279.28,461.94-210.28,496.71-525.7,531.45-840.82,7.52-68.19,15.05-136.36,26.78-203.52h20.33c-12,67.81-19.64,136.75-27.24,205.71-35.36,320.74-70.76,641.78-543,856.76-185.6,84.49-343.55,169.43-468.57,274Q233.61,1330.12,225.84,1323.62Zm-32-28.51c125.29-102.79,281.88-186.73,465-270.09,461.93-210.27,496.71-525.69,531.45-840.82,6.79-61.66,13.6-123.31,23.5-184.2h20.3c-10.18,61.57-17.07,124-23.94,186.39-35.36,320.74-70.76,641.79-543,856.77C486.48,1125.39,332,1208,208.65,1308.76Q201.14,1302,193.84,1295.11Zm-29.83-30c123-97.94,275-178.92,451.74-259.37C1077.68,795.43,1112.46,480,1147.2,164.89c6.07-55.15,12.16-110.29,20.46-164.89h20.26c-8.54,55.29-14.71,111.18-20.87,167.08-35.35,320.74-70.75,641.79-543,856.77C449.37,1103.36,299.2,1183.26,177.9,1279.5Q170.85,1272.39,164,1265.08Zm-27.77-31.29c120.24-92.61,267-170.26,436.43-247.39,461.93-210.28,496.71-525.7,531.45-840.82,5.36-48.66,10.73-97.3,17.62-145.58H1142c-7.09,49-12.53,98.37-18,147.77-35.35,320.74-70.75,641.79-543,856.77-167.8,76.38-313,153.13-431.68,244.38Q142.67,1241.44,136.24,1233.79Zm284.65,204c130.16-115.21,297.66-206.38,496.42-296.86C1379.24,930.61,1414,615.2,1448.76,300.08,1459.91,198.93,1471.06,97.81,1496,0h20.77c-25.64,98.31-36.89,200.28-48.13,302.27-35.36,320.74-70.76,641.78-543,856.76-193.18,88-356.41,176.37-483.73,286.86Z"/></clipPath><linearGradient id="linear-gradient-2" x1="1471.08" y1="-95.5" x2="-418.01" y2="2303.1" gradientUnits="userSpaceOnUse"><stop offset="0" stop-color="#215605"/><stop offset="1" stop-color="#aff022"/></linearGradient><clipPath id="clip-path-3"><path class="cls-1" d="M430.84,969.17q29.93-14.16,60.88-28.23c461.93-210.28,496.71-525.7,531.45-840.82,3.68-33.42,7.37-66.82,11.55-100.12h20.14c-4.3,34-8.06,68.16-11.83,102.31-35.36,320.74-70.76,641.78-543,856.77q-25.86,11.77-51,23.57-9.22-6.6-18.16-13.48M400.1,944q23.94-11.24,48.54-22.42C910.57,711.35,945.35,395.93,980.09,80.81c3-27,5.94-53.91,9.17-80.81h20.13c-3.33,27.62-6.39,55.31-9.44,83-35.36,320.74-70.75,641.78-543,856.76q-20.22,9.21-40,18.42Q408.39,951.23,400.1,944Zm-28.48-26.12q16.81-7.81,33.94-15.61C867.49,692,902.27,376.61,937,61.49c2.26-20.5,4.52-41,6.9-61.49H964c-2.47,21.21-4.81,42.44-7.16,63.68-35.35,320.75-70.75,641.79-543,856.77q-13.38,6.09-26.57,12.19Q379.35,925.4,371.62,917.92Zm-26.45-27q8.61-4,17.31-7.91C824.41,672.73,859.19,357.31,893.93,42.18Q896.26,21.09,898.62,0h20.1q-2.51,22.17-4.93,44.37c-35.36,320.75-70.76,641.79-543,856.77l-11,5Q352.36,898.65,345.17,890.92Zm-24.62-27.77C781.38,652.87,816.14,337.73,850.85,22.88L853.38,0h20.1l-2.77,25.06c-35.2,319.26-70.5,638.8-536.55,853.76Q327.25,871.08,320.55,863.15Zm-23.08-28.62c441.85-210.2,476.1-520.73,510.3-831L808.16,0h20.1l-.63,5.74c-34.71,314.86-69.5,630-517.5,844.81Q303.69,842.63,297.47,834.53Zm-21.85-29.64C690.1,598.54,729.77,299.93,763,0h20.1c-33.77,305.48-73.18,609.86-495.61,821.26Q281.43,813.16,275.62,804.89Zm-20.77-30.72C639.83,572.81,685.42,287.92,717.72,0h20.1C705,293.67,659.51,584.54,265.93,790.9Q260.31,782.61,254.85,774.17Zm209.23,219q34.67-16.5,70.72-32.9C996.73,750,1031.51,434.55,1066.25,119.43c4.4-39.88,8.8-79.76,14-119.43h20.16c-5.38,40.38-9.86,81-14.34,121.62-35.36,320.74-70.76,641.78-543,856.77q-30.24,13.77-59.5,27.58l-10.49-6.84Q468.55,996.18,464.08,993.15Z"/></clipPath><linearGradient id="linear-gradient-3" x1="283.98" y1="995.45" x2="1388.84" y2="-386.66" gradientUnits="userSpaceOnUse"><stop offset="0" stop-color="red"/><stop offset="1" stop-color="#ff0"/></linearGradient><clipPath id="clip-path-4"><path class="cls-1" d="M0,2103.51A760.56,760.56,0,0,0,129.26,2160H70.56A750.83,750.83,0,0,1,0,2126.91Zm0-54.24c103.85,62.25,215.66,92.08,330.2,110.73H226.28C148.34,2141.47,72.36,2114.79,0,2073.14Zm0-55.12c163.23,105.37,347.34,125.71,531.35,146l10.84,1.19q-1.49,9.19-2.81,18.66H529.17C346.3,2139.85,163.36,2119.63,0,2018.49Zm0-56C167.8,2054.74,359,2075.94,550.19,2097q-2,9.67-3.79,19.68C357,2095.82,167.56,2074.57,0,1963Zm0-57C169.62,2008,364.68,2031.32,560,2052.89q-2.34,9.59-4.62,19.59C362.14,2051.13,169.24,2027.71,0,1906.64Zm0-58.11C171.89,1961.37,371.53,1986.8,571.83,2009q-2.77,9.46-5.49,19.49c-197.87-21.94-395-47.53-566.34-179.28Zm0-59.17c174.62,151.19,379.68,178.53,585.72,201.41q-3.21,9.3-6.44,19.39C376.07,1962.06,174,1934.43,0,1790.73Zm0-60.46c177.86,165.7,389.29,194.78,601.92,218.45-2.41,6-4.93,12.4-7.51,19.26-209.35-23.38-417.35-52.89-594.41-210Zm0,453.5c2,1,4,2.07,6,3.08H0Z"/></clipPath><linearGradient id="linear-gradient-4" x1="690.14" y1="2087.67" x2="-117.96" y2="1763.83" gradientUnits="userSpaceOnUse"><stop offset="0" stop-color="#4e046d"/><stop offset="1" stop-color="#cd9fe3"/></linearGradient><clipPath id="clip-path-5"><path class="cls-1" d="M0,1572.24c65.3,72.78,135.87,124.07,210,161.1q-4.32,9.27-8.42,18.76C130.79,1716.93,63.11,1669,0,1602.3Zm0-65.43c71.16,85.45,149,143.64,231.16,184.4q-4.86,9-9.55,18.19C143.31,1670.59,68.77,1616.21,0,1538Zm0-67.16C77.54,1540,163.6,1605.79,254.87,1650.31Q249.5,1659,244.25,1668C157.33,1625.44,75,1563.91,0,1472.18Zm0-69.05c84.35,117.83,179.52,191.69,281,239.88q-5.83,8.4-11.64,17.19C172.76,1581.43,81.73,1512.17,0,1404.59Zm0-71.13C91.51,1437.54,196.68,1520,309.42,1571.66q-6.3,8.17-12.65,16.78C189.46,1538.65,88.84,1461.13,0,1335.13Zm0-73.4c98.92,161.45,215.08,252.87,340.22,307.68-4.48,5.25-9.05,10.71-13.66,16.36C207.43,1497,96.3,1410.87,0,1263.59Zm0-75.87c106.58,188.43,234.8,288.93,373.56,346.45q-7.12,7.53-14.77,16c-132.1-56-254.76-151-358.79-322.8Zm0-78.68c114.46,219.65,256,329.22,409.83,388.82-4.78,4.5-10.19,9.73-16.14,15.64C247.34,1417.59,112,1313.61,0,1113.56Zm0,564.56c60.07,62.17,124.32,107.3,191.45,140.74q-3.72,9.6-7.16,19.4A704.27,704.27,0,0,1,0,1665.09Z"/></clipPath><linearGradient id="linear-gradient-5" x1="-170.71" y1="1108.25" x2="524.01" y2="1710.49" xlink:href="#linear-gradient-3"/><clipPath id="clip-path-6"><path class="cls-1" d="M0,891.24q9.86,21.07,19.67,42.64c45.72,100.43,96.41,180.66,151,245.09-5.69,3.82-11.32,7.66-16.84,11.5C98.86,1125,47.74,1043.68,1.53,942.17L0,938.83Zm0-83.88q19.59,40.74,39,83.45c50.44,110.8,106.93,197,168,264.56-5.83,3.67-11.64,7.36-17.37,11.09-61.25-68.57-118-155.76-168.78-267.37Q10.43,876.22,0,853.92Zm0-82.63q29.43,59.29,58.29,123c55.53,122,118.4,214.16,186.64,284.44q-9,5.34-17.91,10.8c-68.19-71.33-131.1-164.44-186.86-287Q20.12,812,0,770.15Zm0-81.35c26.28,51.15,52,105,77.6,161.26,61,134,130.81,232,206.9,304.48q-9.18,5.24-18.46,10.62c-75.8-73.67-145.47-172.58-206.58-306.81Q29.9,748,0,687.58Zm0-80c33.07,62,65,128.14,96.92,198.17,66.79,146.75,144.21,250.37,228.85,324.58-6.26,3.41-12.63,6.92-19,10.49-84.1-75.49-161.14-180-227.94-326.78C52.75,712.67,26.67,658.13,0,606.35Zm0-78.6c40,72.07,78.19,150.12,116.23,233.69,73,160.41,158.73,269.3,252.7,344.58q-9.6,5-19.72,10.44C256.07,996.78,171,886.9,98.09,726.77,65.81,655.87,33.47,589,0,526.45Zm0-77.1C47.15,489,91.43,578.5,135.54,675.4,215.23,850.47,310,964.17,414.19,1039.78c-6.43,3.24-13.28,6.72-20.48,10.42C290.71,973,196.81,858.15,117.4,683.69,79,599.24,40.43,520.54,0,448ZM0,332c54.47,89.84,104.76,190.28,154.85,300.3,86.89,190.88,191.74,308.79,307.09,383.92-5.34,2.57-12.62,6.09-21.49,10.45-113.78-77-217.33-196.25-303.74-386.08C92.2,542.82,47.56,452.71,0,371.05ZM0,976.2l.36.76c41.37,90.89,86.81,165.21,135.52,226.27q-8.31,6.06-16.24,12.12c-42.46-53.52-82.51-117-119.64-192.5Z"/></clipPath><linearGradient id="linear-gradient-6" x1="445.56" y1="1066.66" x2="-150.7" y2="252.59" xlink:href="#linear-gradient-2"/><clipPath id="clip-path-7"><path class="cls-1" d="M0,178C74.34,286.27,139.67,412.89,204.65,555.63c29,63.73,60,119.33,92.76,167.91Q289,728.82,280.22,734c-33-49.29-64.36-105.61-93.71-170.09C126.81,432.78,66.89,315.45,0,213.77Zm0-70.5c82.46,114.08,153.41,250.06,224,405C257.22,585.63,293.12,648,331.23,701.38Q323,707,314.5,712.62C275.93,658.33,239.57,595,205.82,520.83,140.44,377.21,74.79,250.14,0,142.07ZM0,38.4C90.8,157.64,167.28,302.53,243.27,469.46c37.31,82,77.93,150.46,121.27,207.91q-7.95,6-16.25,12c-44-58.53-85.21-128.26-123.16-211.62C154.18,321.89,82.91,185.53,0,71.79ZM22.86,0c89.25,118.34,164.72,261.63,239.72,426.39,41.12,90.32,86.25,164.3,134.63,225.14q-7.65,6.33-15.74,12.75c-49.18-62.1-95.12-137.55-137-229.61C168,266.84,91.28,121.63,0,2.92V0ZM73.31,0c76,109.49,142.46,238.05,208.58,383.31,44.66,98.09,94.05,176.91,147.18,240.56q-7.32,6.66-15.16,13.48c-54.15-65-104.54-145.56-150.16-245.76C195.77,242.24,127.49,110.8,49,0Zm48.1,0c64.23,99.68,122.16,213.6,179.8,340.23C349.1,445.43,402.44,528.46,460,594.4q-6.93,6.93-14.55,14.22c-58.8-67.44-113.34-152.41-162.37-260.1C223.69,218.07,164.09,101.3,97.63,0Zm46.17,0C221.31,89,271,188.41,320.51,297.15,371.3,408.7,428.21,495.32,489.76,563.06c-4.28,4.75-8.88,9.76-13.85,15-63.07-69.35-121.42-158.14-173.53-272.63C251.25,193.11,199.94,90.91,144.24,0Zm44.56,0c44.23,77.67,86,162.56,127.69,254.07,53.24,117,113.23,206.51,178.23,275.62-3.55,4.49-7.89,9.83-13,15.9C438.2,474.75,376.5,382.76,321.69,262.35,278.49,167.44,235.16,79.75,189.16,0ZM0,250C66.45,351.64,126,468.46,185.33,598.71c24.58,54,50.6,102.15,77.89,145.14q-8.69,4.89-17.63,9.68C218.16,710,192,661.42,167.19,607,113.3,488.6,59.22,381.46,0,286.94Z"/></clipPath><linearGradient id="linear-gradient-7" x1="-9.26" y1="-57.68" x2="674.45" y2="1049.47" xlink:href="#linear-gradient"/><clipPath id="clip-path-8"><path class="cls-1" d="M223,0h16.11q-1.73,8.1-3.56,16.17C231.42,10.73,227.22,5.32,223,0M487.32,458.12C581.78,316.92,610.7,159.61,630,0h20.13c-19.86,165.51-49.53,328.72-149.36,474.93Q493.93,466.62,487.32,458.12Zm-29.58-40.36C538,287.8,566.16,145.09,584.53,0h20.15c-19,151.51-48.14,300.61-134,436Q464.09,426.93,457.74,417.76Zm-28.58-43.93C495.08,256.41,521.69,129.34,538.94,0h20.17c-18,136.3-45.82,270.24-117.53,393.56Q435.25,383.78,429.16,373.83Zm-27.8-48.08C453.29,222.4,477.34,112.19,493.21,0h20.21c-16.71,119.77-42.31,237.41-100,347.29Q407.27,336.6,401.36,325.75Zm-27.19-53C412.68,185.29,433.24,93.44,447.31,0h20.24C452.46,101.73,430,201.69,385.91,296.42Q379.93,284.65,374.17,272.75Zm-27.12-58.5C373.22,144.83,389.45,73,401.21,0h20.31c-13,81.94-31.34,162.57-62.62,240.09Q353,227.21,347.05,214.25Zm-28.66-60.77c16-50.22,27.54-101.54,36.53-153.48h20.35C364.9,61.05,351.2,121.29,331,180Q324.78,166.75,318.39,153.48ZM287.78,91.54C295.9,61.33,302.62,30.79,308.36,0h20.42A1186.77,1186.77,0,0,1,301.3,118.47Q294.63,105,287.78,91.54ZM518,495.25C626.39,343.88,655.21,173,675.37,0h20.11c-20.68,178.41-50,354.81-163.33,510.85Q525,503.16,518,495.25ZM255.72,44.51Q261.08,22.35,265.59,0h20.52c-4.48,22.63-9.52,45.11-15.29,67.42C266.17,60.14,261.12,52.43,255.72,44.51Z"/></clipPath><linearGradient id="linear-gradient-8" x1="653.73" y1="-110.33" x2="300.74" y2="553.41" xlink:href="#linear-gradient-4"/></defs><g class="cls-2"><rect class="cls-3" x="215.71" width="1751.9" height="1895.23"/></g><g class="cls-4"><rect class="cls-5" x="136.24" width="1380.51" height="1445.89"/></g><g class="cls-6"><rect class="cls-7" x="254.85" width="845.6" height="1005.97"/></g><g class="cls-8"><rect class="cls-9" y="1703.42" width="601.92" height="456.58"/></g><g class="cls-10"><rect class="cls-11" y="1071.52" width="409.83" height="724.7"/></g><g class="cls-12"><rect class="cls-13" y="332.02" width="461.94" height="883.34"/></g><g class="cls-14"><rect class="cls-15" width="518.06" height="753.53"/></g><g class="cls-16"><rect class="cls-17" x="222.95" width="472.53" height="510.85"/></g></svg>