<svg id="Layer_1" data-name="Layer 1" xmlns="http://www.w3.org/2000/svg" viewBox="0 0 458.85 173.19"><defs><style>.cls-1,.cls-3{fill:#959fb2;}.cls-2{fill:#fff;}.cls-3{stroke:#fff;stroke-miterlimit:10;}</style></defs><path class="cls-1" d="M303.94,84.94v79.85h64.75V84.94H303.94m.05,2.21h64.68v1.2H304v-1.2m47.42,35.93h.06V163.2H319.19V123.08h0c.08-8.65,10-9.31,15.85-15.7a2.2,2.2,0,0,0,.26-.27l.24.27c5.87,6.39,15.78,7.05,15.86,15.7"/><path class="cls-2" d="M369.19,165.29H303.44V84.44h65.75Zm-64.75-1h63.75V88.85H304.44Zm.05-76.44h63.68v-.2H304.49Zm-.05-1.2h63.75V85.44H304.44Zm47.53,77H318.69l0-41.12c.29-5.37,4.32-7.71,8.59-10.18a30.06,30.06,0,0,0,7.38-5.36,2.3,2.3,0,0,0,.23-.24l.38-.44.4.42a2.57,2.57,0,0,0,.21.24,29.91,29.91,0,0,0,7.4,5.38c4.27,2.47,8.32,4.81,8.6,10.18H352Zm-32.28-1H351V123.54l-.06-.46c-.05-5.15-3.78-7.31-8.11-9.82a31,31,0,0,1-7.5-5.42,30.66,30.66,0,0,1-7.5,5.42c-4.32,2.51-8.05,4.67-8.1,9.82V162.7Z"/><path class="cls-1" d="M381.43,69.57h-.49c-4.33,5-11.34,8-11.34,14.59a10.83,10.83,0,0,0,.72,4s.09.25.22.54a8,8,0,0,0,.58,1h0v10h20.46V89.18l0-.08.12-.23,0-.05c.05-.12.12-.25.16-.38a10.71,10.71,0,0,0,.83-4.28C392.77,77.6,385.74,74.54,381.43,69.57ZM375,98.14h-2.43V92.48h0a1.34,1.34,0,0,1,0-.21,2,2,0,0,1,0-.29,1.09,1.09,0,0,1,.07-.24c.23-.58.74-.79,1.08-1.49a2.27,2.27,0,0,0,.37.56,2.16,2.16,0,0,1,.84,1.67Zm4.28.1V91.4c0-1.21,1.16-1.51,2.13-2.18a2.8,2.8,0,0,0,.56-.48l0-.06h0a3.9,3.9,0,0,0,.85.69,7.48,7.48,0,0,1,1.45,1,1.36,1.36,0,0,1,.32.46,2,2,0,0,1,.13.6v6.84Zm10.33-.1h-2.42V92.48a2.21,2.21,0,0,1,.83-1.66h0a1.73,1.73,0,0,0,.21-.25c.06-.1.11-.19.17-.31a1.23,1.23,0,0,0,.19.31,5.77,5.77,0,0,0,.52.64,1.58,1.58,0,0,1,.37.54,2.1,2.1,0,0,1,.06.24.85.85,0,0,1,0,.29.68.68,0,0,1,0,.21h0Z"/><path class="cls-2" d="M392.09,100.29H370.63V89.92a9.73,9.73,0,0,1-.54-1l-.24-.57a11.5,11.5,0,0,1-.76-4.21c0-4.78,3.43-7.69,7.06-10.77a43.26,43.26,0,0,0,4.41-4.14l.15-.18h1l.15.18a41.4,41.4,0,0,0,4.42,4.15c3.46,2.94,7,6,7,10.76a11.22,11.22,0,0,1-.87,4.48,2.7,2.7,0,0,1-.13.3l-.18.36Zm-20.46-1h19.46V89.06l.05-.1a2,2,0,0,1,.12-.23l.49.14-.43-.27.05-.1a.93.93,0,0,0,.09-.2,10.47,10.47,0,0,0,.81-4.14c0-4.31-3.25-7.07-6.69-10a43.27,43.27,0,0,1-4.37-4.09h0a43.17,43.17,0,0,1-4.37,4.08c-3.44,2.93-6.7,5.69-6.7,10a10.57,10.57,0,0,0,.69,3.84l.22.53c.16.32.35.66.54,1l.13.15,0,.13Zm13.62-.55h-6.5V91.4c0-1.21.9-1.73,1.68-2.18.22-.13.45-.26.66-.41a2.73,2.73,0,0,0,.49-.41l.15-.21h.47l.17.17a3.75,3.75,0,0,0,.74.6l.38.22a5.35,5.35,0,0,1,1.17.82,2.15,2.15,0,0,1,.42.6,2.66,2.66,0,0,1,.17.79Zm-5.5-1h4.5V91.4a1.65,1.65,0,0,0-.09-.43.94.94,0,0,0-.21-.27A4.41,4.41,0,0,0,383,90l-.42-.24a6.77,6.77,0,0,1-.58-.42l-.34.26c-.23.16-.48.3-.73.44-.77.45-1.18.71-1.18,1.32Zm10.33.9h-3.42V92.48a2.34,2.34,0,0,1,.76-1.77l.07-.08v0l.17-.17a.59.59,0,0,0,.09-.11,1.73,1.73,0,0,0,.16-.28l.45-1,.46,1a1.28,1.28,0,0,0,.12.19,4.26,4.26,0,0,0,.38.49l.14.16a2.06,2.06,0,0,1,.45.68,1.89,1.89,0,0,1,.1.35.41.41,0,0,0,0,.07h0v6.66Zm-2.42-1h1.42V92.48a.49.49,0,0,0,0-.12.85.85,0,0,0,0-.21,1.44,1.44,0,0,0-.07-.25,1,1,0,0,0-.26-.36l-.14-.16-.2-.23h0l-.21.24a1.34,1.34,0,0,0-.5,1.1Zm-12.19,1H372V92h.06v0a1.58,1.58,0,0,1,.09-.35,2.62,2.62,0,0,1,.61-.91,2.64,2.64,0,0,0,.49-.67l.47-1,.44,1a1.86,1.86,0,0,0,.29.44l.2.21a2.34,2.34,0,0,1,.77,1.79Zm-2.43-1h1.43V92.48a1.38,1.38,0,0,0-.5-1.11l-.21-.23-.22.24a1.75,1.75,0,0,0-.4.54s0,.1,0,.15,0,.17,0,.2v.1a.4.4,0,0,0,0,.11Z"/><polygon class="cls-1" points="308.05 88.34 364.22 88.34 364.22 107.38 308.06 107.38 308.05 88.34"/><path class="cls-2" d="M364.72,107.88H307.56v-20h57.17Zm-56.16-1h55.16v-18H308.55Z"/><path class="cls-1" d="M367.47,64.47a28.87,28.87,0,0,1-3.25,13.76v8.92H308.05V79.89a28.19,28.19,0,0,1-4.19-15.42c0-18,19.26-26.41,31.12-40h1.36C348.19,38.06,367.47,46.43,367.47,64.47Z"/><path class="cls-2" d="M364.72,87.65H307.55V80a28.68,28.68,0,0,1-4.19-15.56c0-12.73,9.26-20.6,19.06-28.92a113.84,113.84,0,0,0,12.19-11.44l.15-.17h1.81l.15.17a112.11,112.11,0,0,0,12.2,11.45C358.71,43.88,368,51.74,368,64.47a29.38,29.38,0,0,1-3.25,13.89Zm-56.17-1h55.17V78.11l.06-.11A28.45,28.45,0,0,0,367,64.47c0-12.26-9.09-20-18.7-28.15a114.74,114.74,0,0,1-12.15-11.38h-.91a114.65,114.65,0,0,1-12.15,11.37c-9.61,8.17-18.7,15.89-18.7,28.16a27.67,27.67,0,0,0,4.11,15.15l.08.12Z"/><path class="cls-1" d="M336.84,25.05a1.15,1.15,0,1,1-2.3,0v-1c0-.55,1.27-20.43,1.27-20.43s1,19.84,1,20.43Z"/><path class="cls-2" d="M335.69,26.71A1.66,1.66,0,0,1,334,25.05v-1c0-.55,1.14-18.43,1.27-20.47h1c0,.81,1,19.86,1,20.46v1A1.66,1.66,0,0,1,335.69,26.71Zm.07-14.4C335.4,18,335,23.74,335,24.05v1a.65.65,0,1,0,1.3,0v-1C336.34,23.75,336.06,18.11,335.76,12.31Z"/><path class="cls-1" d="M291.66,70.88h-.49c-4.32,5-11.34,8-11.34,14.58a10.83,10.83,0,0,0,.73,4h0v0a1.16,1.16,0,0,0,.06.15c0,.09.08.21.15.34a7.38,7.38,0,0,0,.58,1v10h20.45V90.47l0-.08h0l.09-.15c.08-.16.16-.32.23-.48a11.12,11.12,0,0,0,.82-4.29C303,78.89,296,75.84,291.66,70.88ZM292.24,90a13.76,13.76,0,0,0,2.12,1.49,1.56,1.56,0,0,1,.62,1.23h0v6.84h-5.51V92.71c0-1.13,1-1.45,1.9-2l.43-.31h0a4.78,4.78,0,0,0,.39-.39h0Zm-9.44,3.8a1.55,1.55,0,0,1,0-.22,2.26,2.26,0,0,1,0-.29,2.19,2.19,0,0,1,.07-.23,1.32,1.32,0,0,1,.18-.33,7.23,7.23,0,0,0,.89-1.18,3.06,3.06,0,0,0,.37.58,2.22,2.22,0,0,1,.85,1.67v5.64H282.8Zm17,0v5.64h-2.41V93.79a2.22,2.22,0,0,1,.85-1.67,2.31,2.31,0,0,0,.37-.58c.33.71.83.93,1.07,1.51a2.19,2.19,0,0,1,.07.23.88.88,0,0,1,0,.29A1.55,1.55,0,0,1,299.8,93.79Z"/><path class="cls-2" d="M302.32,101.6H280.87V91.22a7.75,7.75,0,0,1-.54-1,2,2,0,0,1-.14-.29l0-.1c0-.07,0-.13-.06-.19v0a11.25,11.25,0,0,1-.75-4.17c0-4.78,3.59-7.83,7.06-10.78a41.18,41.18,0,0,0,4.41-4.13l.15-.17h.93l.15.17a41.18,41.18,0,0,0,4.41,4.13c3.47,2.95,7.06,6,7.06,10.78a11.5,11.5,0,0,1-.86,4.48l-.25.52-.07.13Zm-20.45-1h19.45l.05-10.33.14-.28a3.62,3.62,0,0,0,.2-.44,10.46,10.46,0,0,0,.79-4.09c0-4.32-3.26-7.09-6.71-10a42.86,42.86,0,0,1-4.36-4.06h0A42.86,42.86,0,0,1,287,75.44c-3.45,2.93-6.71,5.7-6.71,10a10.28,10.28,0,0,0,.69,3.83l0,.15h0l.05.13c0,.06.05.13.09.2a7.79,7.79,0,0,0,.56,1l.1.21Zm-1.06-11.12-.2.15.36-.15Zm14.69,10.57H289V92.71c0-1.22.89-1.72,1.66-2.17l.47-.28.14-.11a2.27,2.27,0,0,0,.25-.18l.08-.06a3.31,3.31,0,0,0,.26-.27l.15-.16h.72v.3a5.48,5.48,0,0,0,1.08.75,5.67,5.67,0,0,1,.87.57,2.11,2.11,0,0,1,.74,1.11h.06l0,.5Zm-5.51-1h4.51l0-6.33a1,1,0,0,0-.44-.85,7.13,7.13,0,0,0-.73-.48,7.41,7.41,0,0,1-1.08-.71l-.06.06-.18.13-.16.1-.15.11a5.34,5.34,0,0,1-.53.32c-.76.44-1.15.7-1.16,1.32Zm10.31.88h-3.41V93.79a2.37,2.37,0,0,1,.78-1.79,2,2,0,0,0,.19-.21,1.56,1.56,0,0,0,.29-.46l.45-1,.46,1a2.85,2.85,0,0,0,.5.69,2.78,2.78,0,0,1,.58.83.7.7,0,0,1,.06.19,1.76,1.76,0,0,1,.09.53.93.93,0,0,1,0,.22Zm-2.41-1h1.41V93.79a.56.56,0,0,0,0-.13.8.8,0,0,0,0-.24s0-.08,0-.13a1.86,1.86,0,0,0-.4-.6l-.22-.24c-.07.09-.14.16-.21.24a1.38,1.38,0,0,0-.51,1.1Zm-12.18,1H282.3V93.79a1.51,1.51,0,0,1,0-.31.56.56,0,0,1,0-.2l0-.16a2.06,2.06,0,0,1,.07-.26,1.58,1.58,0,0,1,.28-.46,3.11,3.11,0,0,1,.32-.41,2.42,2.42,0,0,0,.49-.67l.48-1,.43,1a2.43,2.43,0,0,0,.3.46,1.71,1.71,0,0,0,.18.2,2.38,2.38,0,0,1,.78,1.78Zm-2.41-1h1.41V93.79a1.38,1.38,0,0,0-.51-1.1l-.22-.24c-.06.08-.12.14-.18.21a3,3,0,0,0-.28.34.79.79,0,0,0-.14.25l-.06.19c0,.06,0,.09,0,.13a.92.92,0,0,0,0,.22Z"/><path class="cls-1" d="M395.51,99.79H275.72l-18,4.08-.79,59.49,0,2.53h155.6v-61.4l-17-4.7m5.28,17.43c0-2.75,1.27-3.55,2.45-5,.18-.25.37-.49.56-.76h0c.16-.29.33-.58.49-.92l0,0c1.29,2.74,3.51,3,3.53,6.62h0v16.7h-7.08v-16.7m0,27.19c0-2.75,1.26-3.55,2.45-4.95.18-.23.37-.48.55-.75a2.16,2.16,0,0,0,.27-.44,5.39,5.39,0,0,0,.25-.48c1.31,2.74,3.53,3,3.55,6.62h0v16.7h-7.08v-16.7m-24.88-27.19c0-2.75,2.44-3.55,4.66-5a9.91,9.91,0,0,0,2.05-1.69v0c2.43,2.74,6.65,3,6.68,6.62h0v16.7H375.91v-16.7m0,27.19c0-3.65,4.27-3.88,6.71-6.65h0c2.43,2.76,6.65,3,6.68,6.64h0v16.7H375.91v-16.7m-56.72-21.33h0c.08-8.65,10-9.31,15.85-15.7a2.2,2.2,0,0,0,.26-.27l.24.27c5.87,6.39,15.78,7.05,15.86,15.7h.06V163.2H319.19V123.08M296,133.92H282.54v-16.7c0-2.75,2.42-3.55,4.66-5a9.91,9.91,0,0,0,2.05-1.69v0c2.42,2.74,6.65,3,6.69,6.62h0v16.7m-13.44,10.49c0-3.65,4.27-3.88,6.71-6.65h0c2.42,2.76,6.65,3,6.69,6.64h0v16.7H282.54v-16.7m-19.81,0h0c0-3.65,2.23-3.88,3.52-6.62.08.17.18.33.26.48a3.67,3.67,0,0,0,.27.44c1.3,1.93,3,2.51,3,5.7v16.7h-7.1v-16.7m0-10.49v-16.7h0c0-3.65,2.23-3.88,3.51-6.62v0a8.64,8.64,0,0,0,1.08,1.69c1.19,1.4,2.45,2.2,2.47,5v16.7h-7.1"/><path class="cls-2" d="M413,166.39H256.41l0-3,.8-59.89,18.48-4.18H395.57L413,104.11Zm-155.59-1H412V104.87l-16.57-4.58H275.78l-17.55,4ZM352,163.7H318.69l0-41.12c.29-5.37,4.32-7.71,8.59-10.18a30.06,30.06,0,0,0,7.38-5.36,2.3,2.3,0,0,0,.23-.24l.38-.44.4.42a2.57,2.57,0,0,0,.21.24,29.91,29.91,0,0,0,7.4,5.38c4.27,2.47,8.32,4.81,8.6,10.18h0l.06.5Zm-32.28-1H351V123.54l-.06-.46c-.05-5.15-3.78-7.31-8.11-9.82a31,31,0,0,1-7.5-5.42,30.66,30.66,0,0,1-7.5,5.42c-4.32,2.51-8.05,4.67-8.1,9.82V162.7Zm88.68-1.09h-8.08v-17.2a6,6,0,0,1,2-4.63c.2-.2.39-.42.59-.65a6.88,6.88,0,0,0,.51-.69,1.87,1.87,0,0,0,.23-.36c.12-.21.19-.35.26-.5l.45-1,.45,1a8.62,8.62,0,0,0,1.62,2.23,5.9,5.9,0,0,1,2,4.11h0v17.7Zm-7.08-1h6.08v-16.2a5,5,0,0,0-1.72-3.94,11.21,11.21,0,0,1-1.32-1.64l-.14.2c-.16.24-.36.5-.55.74s-.42.47-.62.69a5,5,0,0,0-1.72,3.95Zm-11.44,1H375.41v-17.2c0-2.55,1.9-3.64,3.73-4.7a11.66,11.66,0,0,0,3.1-2.28l.38-.43.37.43a11.76,11.76,0,0,0,3.1,2.28c1.7,1,3.45,2,3.69,4.2h0l0,.5Zm-13.44-1h12.44l0-16.19c0-2-1.43-2.8-3.22-3.84a14.89,14.89,0,0,1-3-2.09,15.23,15.23,0,0,1-3,2.09c-1.8,1-3.22,1.86-3.23,3.84Zm-79.93,1H282v-17.2c0-2.55,1.9-3.64,3.73-4.7a11.82,11.82,0,0,0,3.1-2.28l.35-.39.37.36a11.84,11.84,0,0,0,3.13,2.31c1.7,1,3.45,2,3.7,4.2h0l0,.5Zm-13.44-1h12.44l0-16.19c0-2-1.44-2.8-3.23-3.84a14.49,14.49,0,0,1-3-2.09,15.23,15.23,0,0,1-3,2.09c-1.8,1-3.22,1.86-3.23,3.83Zm-12.71,1h-8.1l0-17.7a6,6,0,0,1,2-4.11,8.37,8.37,0,0,0,1.61-2.23l.46-1,.45,1c.06.13.13.25.19.37l.06.1c.07.13.15.26.23.38a13.32,13.32,0,0,0,1.12,1.36,5.93,5.93,0,0,1,2,4.62Zm-7.1-1h6.1v-16.2a5.06,5.06,0,0,0-1.72-3.95A10.32,10.32,0,0,1,266.4,139l-.12-.16a11.2,11.2,0,0,1-1.32,1.65,4.94,4.94,0,0,0-1.7,3.93l0,.5Zm145.14-26.19h-8.08v-17.2a6,6,0,0,1,2-4.61c.2-.21.4-.43.6-.67s.36-.47.54-.72l.05-.08c.13-.24.28-.49.41-.77l.33-.68.59.69a8.37,8.37,0,0,0,1.61,2.23,6,6,0,0,1,1.95,4.11h0v17.7Zm-7.08-1h6.08v-16.2a5,5,0,0,0-1.71-3.94,11.47,11.47,0,0,1-1.33-1.66h0l-.06.12c-.22.31-.4.54-.58.77s-.47.54-.67.77a5,5,0,0,0-1.71,3.93Zm-11.44,1H375.41v-17.2c0-2.56,1.92-3.64,3.74-4.69l1.16-.69a9.07,9.07,0,0,0,1.93-1.59l.39-.44.37.45a11.87,11.87,0,0,0,3.08,2.26c1.7,1,3.46,2,3.7,4.2h0l0,.5Zm-13.44-1h12.44l0-16.19c0-2-1.43-2.81-3.23-3.84a14.37,14.37,0,0,1-3-2.08,11.83,11.83,0,0,1-1.77,1.37c-.41.26-.81.49-1.2.71-1.8,1-3.22,1.85-3.24,3.83Zm-79.93,1H282v-17.2c0-2.57,1.92-3.65,3.75-4.71.38-.21.76-.43,1.14-.67a8.88,8.88,0,0,0,1.94-1.59l.36-.41.38.39a11.91,11.91,0,0,0,3.1,2.29c1.71,1,3.46,2,3.71,4.2h0l0,.5Zm-13.44-1h12.44l0-16.19c0-2-1.44-2.8-3.24-3.84a14.37,14.37,0,0,1-3-2.08,11.35,11.35,0,0,1-1.78,1.38l-1.18.69c-1.8,1-3.23,1.86-3.25,3.85Zm-12.71,1h-8.1l0-17.7a5.93,5.93,0,0,1,2-4.1,8.82,8.82,0,0,0,1.6-2.24l.09-.13.5-.52.33.64a8,8,0,0,0,1,1.58c.19.23.39.44.59.66a6,6,0,0,1,2,4.61Zm-7.1-1h6.1v-16.2a5,5,0,0,0-1.73-3.94l-.62-.69a11.25,11.25,0,0,1-.7-1,10.93,10.93,0,0,1-1.32,1.67,5,5,0,0,0-1.7,3.93l0,.5Z"/><path class="cls-1" d="M15.59,114.65v52.7H27.51v-52.7H15.59m67-21.11V87H81.18V79.37H75.06V71.23H73.78v-5.5H62.49V63.61h-6.9V59.75h-5.7V57.3h-6v2.45H38.2v3.86H31.29v2.12H20v5.5H18.72v8.14H12.6V87H11.22v6.5H6.75v5.3h.82v1.66H9.85v67.55h4.44V113.27H28.81v54.78H34V122.21c0-.07,0-.15,0-.22,0-8.24,5.77-14.91,12.89-14.91s12.9,6.67,12.9,14.91c0,.07,0,.15,0,.22h0v45.84H65V113.27H79.5v54.78h4.44V100.5h2.27V98.84H87v-5.3H82.56M9.2,95.77a.76.76,0,0,1,0-1.51.76.76,0,0,1,0,1.51m2.6,0a.76.76,0,0,1,0-1.51.76.76,0,0,1,0,1.51m10.39-1.51a.76.76,0,0,1,0,1.51.76.76,0,0,1,0-1.51m-2.59,0a.76.76,0,0,1,0,1.51.76.76,0,0,1,0-1.51m-5.2,1.51a.76.76,0,0,1,0-1.51.76.76,0,0,1,0,1.51m2.6,0a.76.76,0,0,1,0-1.51.76.76,0,0,1,0,1.51m4.56,16.61a3.79,3.79,0,1,1,3.57-3.78,3.68,3.68,0,0,1-3.57,3.78M24.8,95.77a.76.76,0,1,1,.71-.76.74.74,0,0,1-.71.76m2.59,0a.76.76,0,1,1,.72-.76.75.75,0,0,1-.72.76m2.6,0a.76.76,0,1,1,.72-.76.75.75,0,0,1-.72.76m0-17.32a2.58,2.58,0,1,1,2.43-2.59,2.52,2.52,0,0,1-2.43,2.59m2.65,17.32a.76.76,0,1,1,.72-.76.75.75,0,0,1-.72.76m2.6,0a.76.76,0,1,1,.72-.76.75.75,0,0,1-.72.76m2.6,0a.76.76,0,1,1,.72-.76.75.75,0,0,1-.72.76m2.6,0a.76.76,0,1,1,.72-.76.75.75,0,0,1-.72.76m2.6,0a.76.76,0,1,1,.72-.76.75.75,0,0,1-.72.76m2.6,0a.76.76,0,1,1,.72-.76.75.75,0,0,1-.72.76M35,78.45v-4.6H58.81v4.6H35M48.19,95.77a.76.76,0,1,1,.72-.76.75.75,0,0,1-.72.76m2.6,0a.76.76,0,1,1,.72-.76.75.75,0,0,1-.72.76m2.6,0a.76.76,0,1,1,.72-.76.75.75,0,0,1-.72.76m2.6,0a.76.76,0,1,1,.72-.76.75.75,0,0,1-.72.76m2.6,0a.76.76,0,1,1,.72-.76.75.75,0,0,1-.72.76m15.6-1.51a.76.76,0,0,1,0,1.51.76.76,0,0,1,0-1.51m-2.6,0a.76.76,0,0,1,0,1.51.76.76,0,0,1,0-1.51m-10.4,1.51a.76.76,0,1,1,.72-.76.75.75,0,0,1-.72.76m2.6,0a.76.76,0,0,1,0-1.51.76.76,0,0,1,0,1.51m.05-17.32a2.58,2.58,0,1,1,2.44-2.59,2.52,2.52,0,0,1-2.44,2.59m2.55,17.32a.76.76,0,0,1,0-1.51.76.76,0,0,1,0,1.51M68.27,95a.74.74,0,0,1,.72-.75.76.76,0,0,1,0,1.51.75.75,0,0,1-.72-.76m4,17.37a3.79,3.79,0,1,1,3.57-3.78,3.68,3.68,0,0,1-3.57,3.78m4.55-16.61a.76.76,0,0,1,0-1.51.76.76,0,0,1,0,1.51m2.6,0a.76.76,0,0,1,0-1.51.76.76,0,0,1,0,1.51m2.6,0a.76.76,0,0,1,0-1.51.76.76,0,0,1,0,1.51m2.6,0a.76.76,0,0,1,0-1.51.76.76,0,0,1,0,1.51M66.28,114.65v52.7H78.21v-52.7H66.28"/><path class="cls-2" d="M84.44,168.55H79V113.77H65.48v54.78H59.29l0-46.34s0-.1,0-.15c0-8-5.55-14.48-12.39-14.48S34.5,114.05,34.5,122c0,.12,0,.17,0,.22v46.34h-6.2V113.77H14.79v54.78H9.35V101H7.07V99.34H6.25V93h4.47v-6.5H12.1V78.87h6.12V70.73H19.5v-5.5H30.79V63.11H37.7V59.25h5.69V56.8h7v2.45h5.7v3.86H63v2.12h11.3v5.5h1.27v8.14h6.12v7.67h1.38V93h4.47v6.3h-.82V101H84.44Zm-4.44-1h3.44V100h2.27V98.34h.82V94H85.36a1.27,1.27,0,0,1,.44,1,1.22,1.22,0,1,1-2.43,0,1.25,1.25,0,0,1,.45-1H82.76a1.27,1.27,0,0,1,.44,1,1.22,1.22,0,1,1-2.43,0,1.26,1.26,0,0,1,1.29-1.25V87.54H80.68V79.87H74.56V71.73H73.29v-5.5H62V64.11h-6.9V60.25h-5.7V57.8h-5v2.45H38.7v3.86H31.79v2.12H20.5v5.5H19.22v8.14H13.1v7.67H11.72v6.22A1.24,1.24,0,1,1,11,94H10a1.27,1.27,0,0,1,.44,1A1.22,1.22,0,1,1,8,95a1.28,1.28,0,0,1,.45-1H7.25v4.3h.82V100h2.28v67.55h3.44V112.77h6.86a4.25,4.25,0,0,1-3.17-4.17,4.19,4.19,0,0,1,4.08-4.28,4.18,4.18,0,0,1,4.07,4.28,4.24,4.24,0,0,1-3.16,4.17h6.84v54.78h4.2V122.21c0-.12,0-.17,0-.22,0-8.49,6-15.41,13.39-15.41s13.4,6.92,13.4,15.41a.28.28,0,0,1,0,.09v45.47h4.19V112.77h6.85a4.24,4.24,0,0,1-3.16-4.17,4.08,4.08,0,1,1,8.14,0,4.24,4.24,0,0,1-3.16,4.17H80Zm-7.76-62.23a3.29,3.29,0,1,0,3.07,3.28A3.18,3.18,0,0,0,72.24,105.32Zm-50.68,0a3.29,3.29,0,0,0,0,6.56,3.29,3.29,0,0,0,0-6.56Zm63-10.56a.24.24,0,0,0-.22.25.22.22,0,1,0,.43,0A.24.24,0,0,0,84.59,94.76Zm-2.6,0a.25.25,0,0,0-.22.25.25.25,0,0,0,.22.26A.25.25,0,0,0,82.2,95,.24.24,0,0,0,82,94.76Zm-70.19,0a.24.24,0,0,0-.22.25A.22.22,0,1,0,12,95,.24.24,0,0,0,11.8,94.76Zm-2.6,0A.24.24,0,0,0,9,95a.22.22,0,1,0,.43,0A.24.24,0,0,0,9.2,94.76Zm69.51,73.09H65.78v-53.7H78.71Zm-11.93-1H77.71v-51.7H66.78Zm-38.77,1H15.09v-53.7H28Zm-11.92-1H27v-51.7H16.09Zm63.3-70.58A1.26,1.26,0,1,1,80.6,95,1.24,1.24,0,0,1,79.39,96.27Zm0-1.51a.25.25,0,0,0-.22.25c0,.32.43.26.43,0A.24.24,0,0,0,79.39,94.76Zm-2.6,1.51A1.26,1.26,0,1,1,78,95,1.24,1.24,0,0,1,76.79,96.27Zm0-1.51a.24.24,0,0,0-.22.25A.22.22,0,1,0,77,95,.24.24,0,0,0,76.79,94.76Zm-2.6,1.51A1.26,1.26,0,1,1,75.4,95,1.24,1.24,0,0,1,74.19,96.27Zm0-1.51A.25.25,0,0,0,74,95a.25.25,0,0,0,.22.26A.25.25,0,0,0,74.4,95,.24.24,0,0,0,74.19,94.76Zm-2.6,1.51A1.26,1.26,0,1,1,72.8,95,1.24,1.24,0,0,1,71.59,96.27Zm0-1.51a.25.25,0,0,0-.22.25.25.25,0,0,0,.22.26A.25.25,0,0,0,71.8,95,.24.24,0,0,0,71.59,94.76ZM69,96.27A1.26,1.26,0,1,1,70.2,95,1.24,1.24,0,0,1,69,96.27Zm0-1.51a.25.25,0,0,0-.22.25.25.25,0,0,0,.22.26A.25.25,0,0,0,69.2,95,.24.24,0,0,0,69,94.76Zm-2.6,1.51A1.26,1.26,0,1,1,67.6,95,1.24,1.24,0,0,1,66.39,96.27Zm0-1.51a.25.25,0,0,0-.22.25c0,.32.43.26.43,0A.24.24,0,0,0,66.39,94.76Zm-2.6,1.51A1.26,1.26,0,1,1,65,95,1.24,1.24,0,0,1,63.79,96.27Zm0-1.51a.25.25,0,0,0-.22.25.25.25,0,0,0,.22.26A.25.25,0,0,0,64,95,.24.24,0,0,0,63.79,94.76Zm-2.6,1.51A1.26,1.26,0,1,1,62.41,95,1.24,1.24,0,0,1,61.19,96.27Zm0-1.51A.25.25,0,0,0,61,95a.22.22,0,1,0,.44,0A.25.25,0,0,0,61.19,94.76Zm-2.6,1.51A1.26,1.26,0,1,1,59.81,95,1.23,1.23,0,0,1,58.59,96.27Zm0-1.51a.24.24,0,0,0-.21.25.22.22,0,1,0,.43,0A.24.24,0,0,0,58.59,94.76ZM56,96.27A1.26,1.26,0,1,1,57.21,95,1.23,1.23,0,0,1,56,96.27Zm0-1.51a.24.24,0,0,0-.21.25.25.25,0,0,0,.21.26.25.25,0,0,0,.22-.26A.25.25,0,0,0,56,94.76Zm-2.6,1.51A1.26,1.26,0,1,1,54.61,95,1.23,1.23,0,0,1,53.39,96.27Zm0-1.51a.24.24,0,0,0-.21.25c0,.26.43.32.43,0A.25.25,0,0,0,53.39,94.76Zm-2.6,1.51A1.26,1.26,0,1,1,52,95,1.23,1.23,0,0,1,50.79,96.27Zm0-1.51a.24.24,0,0,0-.21.25.25.25,0,0,0,.21.26A.25.25,0,0,0,51,95,.25.25,0,0,0,50.79,94.76Zm-2.6,1.51A1.26,1.26,0,1,1,49.41,95,1.23,1.23,0,0,1,48.19,96.27Zm0-1.51A.24.24,0,0,0,48,95a.22.22,0,1,0,.43,0A.24.24,0,0,0,48.19,94.76Zm-2.6,1.51A1.26,1.26,0,1,1,46.81,95,1.23,1.23,0,0,1,45.59,96.27Zm0-1.51a.24.24,0,0,0-.21.25.22.22,0,1,0,.43,0A.24.24,0,0,0,45.59,94.76ZM43,96.27A1.26,1.26,0,1,1,44.21,95,1.23,1.23,0,0,1,43,96.27Zm0-1.51a.24.24,0,0,0-.21.25c0,.26.43.31.43,0A.25.25,0,0,0,43,94.76Zm-2.6,1.51A1.26,1.26,0,1,1,41.61,95,1.23,1.23,0,0,1,40.39,96.27Zm0-1.51a.24.24,0,0,0-.21.25.22.22,0,1,0,.43,0A.24.24,0,0,0,40.39,94.76Zm-2.6,1.51A1.26,1.26,0,1,1,39,95,1.23,1.23,0,0,1,37.79,96.27Zm0-1.51a.24.24,0,0,0-.21.25A.22.22,0,1,0,38,95,.24.24,0,0,0,37.79,94.76Zm-2.6,1.51A1.26,1.26,0,1,1,36.41,95,1.23,1.23,0,0,1,35.19,96.27Zm0-1.51A.24.24,0,0,0,35,95a.22.22,0,1,0,.43,0A.24.24,0,0,0,35.19,94.76Zm-2.6,1.51A1.26,1.26,0,1,1,33.81,95,1.23,1.23,0,0,1,32.59,96.27Zm0-1.51a.24.24,0,0,0-.21.25c0,.26.43.32.43,0A.24.24,0,0,0,32.59,94.76ZM30,96.27A1.26,1.26,0,1,1,31.21,95,1.23,1.23,0,0,1,30,96.27Zm0-1.51a.24.24,0,0,0-.21.25c0,.32.43.26.43,0A.24.24,0,0,0,30,94.76Zm-2.6,1.51A1.26,1.26,0,1,1,28.61,95,1.23,1.23,0,0,1,27.39,96.27Zm0-1.51a.24.24,0,0,0-.21.25.22.22,0,1,0,.43,0A.24.24,0,0,0,27.39,94.76ZM24.8,96.27A1.26,1.26,0,1,1,26,95,1.24,1.24,0,0,1,24.8,96.27Zm0-1.51a.24.24,0,0,0-.22.25A.22.22,0,1,0,25,95,.24.24,0,0,0,24.8,94.76Zm-2.61,1.51A1.26,1.26,0,1,1,23.41,95,1.24,1.24,0,0,1,22.19,96.27Zm0-1.51A.24.24,0,0,0,22,95c0,.32.43.26.43,0A.24.24,0,0,0,22.19,94.76ZM19.6,96.27A1.26,1.26,0,1,1,20.81,95,1.24,1.24,0,0,1,19.6,96.27Zm0-1.51a.24.24,0,0,0-.22.25.22.22,0,1,0,.43,0A.24.24,0,0,0,19.6,94.76ZM17,96.27A1.26,1.26,0,1,1,18.21,95,1.24,1.24,0,0,1,17,96.27Zm0-1.51a.24.24,0,0,0-.22.25.22.22,0,1,0,.43,0A.24.24,0,0,0,17,94.76Zm-2.6,1.51A1.26,1.26,0,1,1,15.61,95,1.24,1.24,0,0,1,14.4,96.27Zm0-1.51a.24.24,0,0,0-.22.25.22.22,0,1,0,.43,0A.24.24,0,0,0,14.4,94.76ZM63.84,79a3.08,3.08,0,1,1,2.94-3.09A3,3,0,0,1,63.84,79Zm0-5.16a2.09,2.09,0,1,0,1.94,2.07A2,2,0,0,0,63.84,73.79ZM59.31,79H34.47v-5.6H59.31ZM35.47,78H58.31v-3.6H35.47Zm-5.53,1a3.08,3.08,0,1,1,2.93-3.09A3,3,0,0,1,29.94,79Zm0-5.16a2.09,2.09,0,1,0,1.93,2.07A2,2,0,0,0,29.94,73.79Z"/><polygon class="cls-1" points="456.87 164.64 426.05 164.64 434.29 17.64 448.62 17.64 456.87 164.64"/><path class="cls-2" d="M457.4,165.14H425.52l0-.53,8.27-147.47H449.1Zm-30.82-1h29.76l-8.19-146H434.76Z"/><rect class="cls-1" x="434.51" y="21.72" width="13.88" height="0.56"/><rect class="cls-2" x="434.01" y="21.22" width="14.88" height="1.56"/><rect class="cls-1" x="434.51" y="41.25" width="13.88" height="0.56"/><rect class="cls-2" x="434.01" y="40.75" width="14.88" height="1.56"/><rect class="cls-1" x="431.06" y="36.69" width="20.8" height="0.56"/><rect class="cls-2" x="430.56" y="36.19" width="21.8" height="1.56"/><rect class="cls-1" x="434.51" y="73.9" width="13.88" height="0.56"/><rect class="cls-2" x="434.01" y="73.4" width="14.88" height="1.56"/><rect class="cls-1" x="431.06" y="69.33" width="20.8" height="0.56"/><rect class="cls-2" x="430.56" y="68.83" width="21.8" height="1.56"/><rect class="cls-1" x="434.51" y="115.58" width="13.88" height="0.56"/><rect class="cls-2" x="434.01" y="115.08" width="14.88" height="1.56"/><rect class="cls-1" x="431.06" y="109.86" width="20.8" height="0.56"/><rect class="cls-2" x="430.56" y="109.36" width="21.8" height="1.56"/><rect class="cls-1" x="146.05" y="103.93" width="36.98" height="0.88"/><rect class="cls-2" x="145.55" y="103.43" width="37.98" height="1.88"/><path class="cls-1" d="M109,90.88v22.36h22V90.88Zm6.3,17.84a2.71,2.71,0,0,1-2.7,2.71,2.73,2.73,0,0,1-2.71-2.71V97.88a2.71,2.71,0,0,1,5.41,0Zm7.56,0a2.73,2.73,0,0,1-2.72,2.71,2.73,2.73,0,0,1-2.71-2.71V97.88a2.71,2.71,0,0,1,2.71-2.7A2.67,2.67,0,0,1,122,96a2.71,2.71,0,0,1,.8,1.9Zm7.28,0a2.7,2.7,0,0,1-4.62,1.91,2.68,2.68,0,0,1-.79-1.91V97.88a2.71,2.71,0,0,1,5.41,0Z"/><path class="cls-2" d="M131.48,113.75h-23V90.38h23Zm-22-1h21v-3.11a3.2,3.2,0,0,1-6.27-.92V97.88a3.2,3.2,0,0,1,6.27-.92V91.38h-21v5.68a3.2,3.2,0,0,1,6.3.82v10.84a3.21,3.21,0,0,1-3.2,3.21,3.2,3.2,0,0,1-3.1-2.39Zm17.94-17.07a2.21,2.21,0,0,0-2.21,2.2v10.84a2.16,2.16,0,0,0,.65,1.56,2.19,2.19,0,0,0,1.56.65,2.21,2.21,0,0,0,2.2-2.21V97.88A2.21,2.21,0,0,0,127.42,95.68Zm-14.84,0a2.21,2.21,0,0,0-2.21,2.2v10.84a2.19,2.19,0,0,0,.65,1.56,2.2,2.2,0,0,0,3.76-1.56V97.88A2.21,2.21,0,0,0,112.58,95.68Zm7.54,16.25a3.23,3.23,0,0,1-3.21-3.21V97.88a3.21,3.21,0,0,1,3.21-3.2,3.23,3.23,0,0,1,3.21,3.2v10.84A3.21,3.21,0,0,1,120.12,111.93Zm0-16.25a2.21,2.21,0,0,0-2.21,2.2v10.84a2.22,2.22,0,0,0,2.21,2.21,2.21,2.21,0,0,0,2.21-2.21V97.88a2.2,2.2,0,0,0-2.21-2.2Z"/><rect class="cls-1" x="104.59" y="89.59" width="30.76" height="1.65"/><path class="cls-2" d="M135.86,91.74H104.09V89.09h31.77Zm-30.77-1h29.77v-.65H105.09Z"/><path class="cls-1" d="M109,90.23V86.15s.12-2.56,3.32-4.53a64.57,64.57,0,0,1,5.91-3.24h3.67s5.8,2.4,7.33,4.08,2.08,3.21,2.08,7.77Z"/><path class="cls-2" d="M131.78,90.73H108.47V86.15c0-.14.17-2.88,3.55-5a65.26,65.26,0,0,1,6-3.26l.21-.05,3.86,0c.24.1,5.92,2.46,7.51,4.21s2.21,3.63,2.21,8.1Zm-22.31-1h21.3c0-4.11-.56-5.42-1.94-6.93s-6.33-3.61-7.06-3.92h-3.46c-.51.25-3,1.44-5.76,3.16s-3.07,4-3.08,4.14Z"/><path class="cls-1" d="M118.2,78.38V77.27s1.3-1.21,1.43-1.26a4.24,4.24,0,0,1,.72,0l1.43,1.18v1.19Z"/><path class="cls-2" d="M122.28,78.88H117.7V77.05l.16-.14c1.38-1.29,1.51-1.33,1.61-1.37a2.36,2.36,0,0,1,.91,0l.16,0L122.28,77Zm-3.58-1h2.58v-.46l-1.13-.92h-.33l-1.12,1Z"/><polygon class="cls-1" points="119.64 76.17 120.02 72.32 120.35 76.17 119.64 76.17"/><polygon class="cls-2" points="120.89 76.67 119.08 76.67 119.52 72.27 120.52 72.28 120.89 76.67"/><path class="cls-1" d="M112.8,113.78v-5.89a2.29,2.29,0,1,0-4.54,0v5.89Z"/><path class="cls-2" d="M113.3,114.28h-5.54v-6.39a2.79,2.79,0,1,1,5.54,0Zm-4.54-1h3.54v-5.39a1.8,1.8,0,1,0-3.54,0Z"/><path class="cls-1" d="M107.36,105.35v8.43h-1.8v-5.89A2.54,2.54,0,0,1,107.36,105.35Z"/><path class="cls-2" d="M107.86,114.28h-2.8v-6.39a3.06,3.06,0,0,1,2.18-3l.62-.15Zm-1.8-1h.8v-7.14a2.21,2.21,0,0,0-.8,1.75Z"/><path class="cls-1" d="M118.84,113.78v-5.89a2.3,2.3,0,1,0-4.55,0v5.89Z"/><path class="cls-2" d="M119.34,114.28h-5.55v-6.39a2.79,2.79,0,1,1,5.55,0Zm-4.55-1h3.55v-5.39a1.8,1.8,0,1,0-3.55,0Z"/><path class="cls-1" d="M124.87,113.78v-5.89a2.29,2.29,0,1,0-4.54,0v5.89Z"/><path class="cls-2" d="M125.37,114.28h-5.54v-6.39a2.79,2.79,0,1,1,5.54,0Zm-4.54-1h3.54v-5.39a1.8,1.8,0,1,0-3.54,0Z"/><path class="cls-1" d="M130.9,113.78v-5.89a2.29,2.29,0,1,0-4.54,0v5.89Z"/><path class="cls-2" d="M131.4,114.28h-5.54v-6.39a2.79,2.79,0,1,1,5.54,0Zm-4.54-1h3.54v-5.39a1.8,1.8,0,1,0-3.54,0Z"/><path class="cls-1" d="M154.62,113.78v-5.89a2.29,2.29,0,1,0-4.54,0v5.89Z"/><path class="cls-2" d="M155.12,114.28h-5.54v-6.39a2.79,2.79,0,1,1,5.54,0Zm-4.54-1h3.54v-5.39a1.8,1.8,0,1,0-3.54,0Z"/><path class="cls-1" d="M147.14,105.29h-.08v8.48h2.36v-5.89A2.45,2.45,0,0,0,147.14,105.29Z"/><path class="cls-2" d="M149.92,114.28h-3.36v-9.43l.58-.06a3,3,0,0,1,2.78,3.1Zm-2.36-1h1.36v-5.39a2.07,2.07,0,0,0-1.36-2Z"/><path class="cls-1" d="M159.65,113.78v-5.89a2.29,2.29,0,1,0-4.54,0v5.89Z"/><path class="cls-2" d="M160.15,114.28h-5.54v-6.39a2.79,2.79,0,1,1,5.54,0Zm-4.54-1h3.54v-5.39a1.8,1.8,0,1,0-3.54,0Z"/><path class="cls-1" d="M164.68,113.78v-5.89a2.3,2.3,0,1,0-4.55,0v5.89Z"/><path class="cls-2" d="M165.18,114.28h-5.55v-6.39a2.79,2.79,0,1,1,5.55,0Zm-4.55-1h3.55v-5.39a1.8,1.8,0,1,0-3.55,0Z"/><path class="cls-1" d="M169.7,113.78v-5.89a2.29,2.29,0,1,0-4.54,0v5.89Z"/><path class="cls-2" d="M170.21,114.28h-5.55v-6.39a2.79,2.79,0,1,1,5.55,0Zm-4.55-1h3.55v-5.39a1.8,1.8,0,1,0-3.55,0Z"/><path class="cls-1" d="M174.73,113.78v-5.89a2.29,2.29,0,1,0-4.54,0v5.89Z"/><path class="cls-2" d="M175.23,114.28h-5.54v-6.39a2.79,2.79,0,1,1,5.54,0Zm-4.54-1h3.54v-5.39a1.8,1.8,0,1,0-3.54,0Z"/><path class="cls-1" d="M179.76,113.78v-5.89a2.29,2.29,0,1,0-4.54,0v5.89Z"/><path class="cls-2" d="M180.26,114.28h-5.54v-6.39a2.79,2.79,0,1,1,5.54,0Zm-4.54-1h3.54v-5.39a1.8,1.8,0,1,0-3.54,0Z"/><path class="cls-1" d="M182.59,105.29h-.07a2.45,2.45,0,0,0-2.27,2.6v5.89h2.34Z"/><path class="cls-2" d="M183.09,114.28h-3.34v-6.39a3,3,0,0,1,2.77-3.1l.57.06Zm-2.34-1h1.34v-7.44a2.08,2.08,0,0,0-1.34,2Z"/><path class="cls-1" d="M131.87,105.31a2.49,2.49,0,0,1,2,2.58v5.89h-2Z"/><path class="cls-2" d="M134.42,114.28h-3v-9.53l.56.07a3,3,0,0,1,2.49,3.07Zm-2-1h1v-5.39a2.14,2.14,0,0,0-1-1.91Z"/><path class="cls-1" d="M199.1,91.69v22.36h22V91.69Zm6.3,17.83a2.69,2.69,0,0,1-4.61,1.92,2.67,2.67,0,0,1-.8-1.92V98.69a2.71,2.71,0,0,1,5.41,0Zm7.55,0a2.73,2.73,0,0,1-2.71,2.72,2.71,2.71,0,0,1-2.71-2.72V98.69a2.71,2.71,0,0,1,2.71-2.7,2.67,2.67,0,0,1,1.92.8,2.7,2.7,0,0,1,.79,1.9Zm7.29,0a2.72,2.72,0,0,1-2.7,2.72,2.76,2.76,0,0,1-1.92-.8,2.71,2.71,0,0,1-.79-1.92V98.69a2.71,2.71,0,0,1,5.41,0Z"/><path class="cls-2" d="M221.6,114.55h-23V91.19h23Zm-22-1h21v-3.1a3.2,3.2,0,0,1-3.06,2.29,3.25,3.25,0,0,1-2.27-.95,3.16,3.16,0,0,1-.94-2.27V98.69a3.2,3.2,0,0,1,6.27-.92V92.19h-21v5.69a3.2,3.2,0,0,1,6.3.81v10.83a3.2,3.2,0,0,1-5.47,2.27,3.07,3.07,0,0,1-.83-1.45Zm17.94-17.06a2.21,2.21,0,0,0-2.21,2.2v10.83a2.17,2.17,0,0,0,.65,1.57,2.2,2.2,0,0,0,3.76-1.57V98.69A2.21,2.21,0,0,0,217.54,96.49Zm-14.84,0a2.21,2.21,0,0,0-2.21,2.2v10.83a2.21,2.21,0,1,0,4.41,0V98.69A2.2,2.2,0,0,0,202.7,96.49Zm7.54,16.25a3.23,3.23,0,0,1-3.21-3.22V98.69a3.21,3.21,0,0,1,6.42,0v10.83A3.22,3.22,0,0,1,210.24,112.74Zm0-16.25a2.21,2.21,0,0,0-2.21,2.2v10.83a2.24,2.24,0,0,0,.65,1.57,2.28,2.28,0,0,0,1.56.65,2.22,2.22,0,0,0,2.21-2.22V98.69a2.2,2.2,0,0,0-2.21-2.2Z"/><rect class="cls-1" x="194.71" y="90.4" width="30.76" height="1.61"/><path class="cls-2" d="M226,92.51H194.21V89.9H226Zm-30.77-1H225V90.9H195.21Z"/><path class="cls-1" d="M199.09,91V87s.12-2.57,3.32-4.53a64.57,64.57,0,0,1,5.91-3.24H212s5.8,2.4,7.34,4.08,2.07,3.21,2.07,7.77Z"/><path class="cls-2" d="M221.9,91.54H198.59V87c0-.14.17-2.88,3.55-5,3.18-2,5.94-3.25,6-3.27l.21,0,3.86,0c.24.1,5.92,2.46,7.51,4.21s2.21,3.63,2.21,8.1Zm-22.31-1h21.3c0-4.11-.56-5.42-1.93-6.93s-6.34-3.61-7.07-3.92h-3.46c-.51.25-3,1.44-5.76,3.16s-3.07,4-3.08,4.14Z"/><path class="cls-1" d="M208.32,79.19V78.08s1.3-1.21,1.43-1.26a4.12,4.12,0,0,1,.71,0L211.9,78v1.2Z"/><path class="cls-2" d="M212.4,79.69h-4.58V77.86l.16-.15c1.38-1.28,1.51-1.33,1.62-1.36a2.26,2.26,0,0,1,.9,0l.16,0,1.74,1.42Zm-3.58-1h2.58v-.46l-1.13-.92h-.33c-.19.15-.68.59-1.12,1Z"/><polygon class="cls-1" points="209.75 76.94 210.14 73.09 210.47 76.94 209.75 76.94"/><polygon class="cls-2" points="211.01 77.44 209.2 77.44 209.64 73.04 210.64 73.05 211.01 77.44"/><path class="cls-1" d="M202.92,114.59V108.7a2.29,2.29,0,1,0-4.54,0v5.89Z"/><path class="cls-2" d="M203.42,115.09h-5.54V108.7a2.79,2.79,0,1,1,5.54,0Zm-4.54-1h3.54V108.7a1.8,1.8,0,1,0-3.54,0Z"/><path class="cls-1" d="M197.48,106.15v8.44h-1.8V108.7A2.55,2.55,0,0,1,197.48,106.15Z"/><path class="cls-2" d="M198,115.09h-2.8V108.7a3.06,3.06,0,0,1,2.18-3l.62-.15Zm-1.8-1h.8v-7.15a2.24,2.24,0,0,0-.8,1.76Z"/><path class="cls-1" d="M209,114.59V108.7a2.29,2.29,0,1,0-4.53,0v5.89Z"/><path class="cls-2" d="M209.46,115.09h-5.54V108.7a2.79,2.79,0,1,1,5.54,0Zm-4.54-1h3.54V108.7a1.8,1.8,0,1,0-3.54,0Z"/><path class="cls-1" d="M215,114.59V108.7a2.29,2.29,0,1,0-4.54,0v5.89Z"/><path class="cls-2" d="M215.49,115.09H210V108.7a2.79,2.79,0,1,1,5.54,0Zm-4.54-1h3.54V108.7a1.8,1.8,0,1,0-3.54,0Z"/><path class="cls-1" d="M221,114.59V108.7a2.29,2.29,0,1,0-4.54,0v5.89Z"/><path class="cls-2" d="M221.52,115.09H216V108.7a2.79,2.79,0,1,1,5.54,0Zm-4.54-1h3.54V108.7a1.8,1.8,0,1,0-3.54,0Z"/><path class="cls-1" d="M222,106.12a2.49,2.49,0,0,1,2,2.58v5.89h-2Z"/><path class="cls-2" d="M224.54,115.09h-3v-9.53l.56.06a3,3,0,0,1,2.49,3.08Zm-2-1h1V108.7a2.14,2.14,0,0,0-1-1.91Z"/><rect class="cls-1" x="104.43" y="113.16" width="120.78" height="22.54"/><path class="cls-2" d="M225.71,136.2H103.93V112.66H225.71Zm-120.78-1H224.71V113.66H104.93Z"/><path class="cls-1" d="M92.76,126.83v-3.45a2.68,2.68,0,1,0-5.35,0v3.45Z"/><path class="cls-2" d="M93.26,127.33H86.91v-4a3.18,3.18,0,1,1,6.35,0Zm-5.35-1h4.35v-3a2.18,2.18,0,1,0-4.35,0Z"/><path class="cls-1" d="M98.7,126.83v-3.45a2.68,2.68,0,1,0-5.35,0v3.45Z"/><path class="cls-2" d="M99.2,127.33H92.85v-4a3.18,3.18,0,1,1,6.35,0Zm-5.35-1H98.2v-3a2.18,2.18,0,1,0-4.35,0Z"/><path class="cls-1" d="M104.85,126.83v-3.45a2.67,2.67,0,1,0-5.34,0v3.45Z"/><path class="cls-2" d="M105.35,127.33H99v-4a3.18,3.18,0,1,1,6.35,0Zm-5.35-1h4.35v-3a2.18,2.18,0,1,0-4.35,0Z"/><path class="cls-1" d="M229.49,126.83v-3.45a2.68,2.68,0,1,0-5.35,0v3.45Z"/><path class="cls-2" d="M230,127.33h-6.35v-4a3.18,3.18,0,1,1,6.35,0Zm-5.35-1H229v-3a2.18,2.18,0,1,0-4.35,0Z"/><path class="cls-1" d="M235.43,126.83v-3.45a2.67,2.67,0,1,0-5.34,0v3.45Z"/><path class="cls-2" d="M235.93,127.33h-6.34v-4a3.17,3.17,0,1,1,6.34,0Zm-5.34-1h4.34v-3a2.17,2.17,0,1,0-4.34,0Z"/><path class="cls-1" d="M241.59,126.83v-3.45a2.68,2.68,0,1,0-5.35,0v3.45Z"/><path class="cls-2" d="M242.09,127.33h-6.35v-4a3.18,3.18,0,1,1,6.35,0Zm-5.35-1h4.35v-3a2.18,2.18,0,1,0-4.35,0Z"/><rect class="cls-1" x="142.11" y="78.26" width="4.54" height="36.3"/><path class="cls-2" d="M147.15,115.05h-5.54V77.76h5.54Zm-4.54-1h3.54V78.76h-3.54Z"/><rect class="cls-1" x="141.76" y="77.37" width="5.25" height="0.89"/><rect class="cls-2" x="141.26" y="76.87" width="6.25" height="1.89"/><rect class="cls-1" x="141.89" y="76.04" width="4.98" height="1.33"/><path class="cls-2" d="M147.37,77.87h-6V75.54h6Zm-5-1h4v-.33h-4Z"/><path class="cls-1" d="M142,70.57V76h4.75V70.57Zm1.5,4.37h-1.23V71.6c0-.34.27-.86.62-.86s.61.52.61.86Zm1.49,0h-1.23V71.6c0-.34.27-.86.61-.86s.62.52.62.86Zm1.54-3.34v3.34h-1.25V71.6c0-.34.28-.86.62-.86S146.54,71.26,146.54,71.6Z"/><path class="cls-2" d="M147.26,76.53h-5.75V70.07h5.75Zm-4.75-1h3.75v-.09h-3.75Zm3.28-1.09H146V71.6a.65.65,0,0,0-.13-.31.63.63,0,0,0-.12.31Zm-1.52,0h.23V71.6a.63.63,0,0,0-.12-.31.61.61,0,0,0-.11.31Zm-1.49,0H143V71.6a.63.63,0,0,0-.12-.31.72.72,0,0,0-.11.31Z"/><rect class="cls-1" x="140.87" y="70.51" width="6.98" height="0.24"/><rect class="cls-2" x="140.37" y="70.01" width="7.98" height="1.24"/><path class="cls-1" d="M144.65,75.09V70.74h2.24v-.27a2.5,2.5,0,0,0-2-2.45,32,32,0,0,1-.49-3.93,32.32,32.32,0,0,1-.56,3.93,2.5,2.5,0,0,0-2,2.45v.27h2.45v4.35h-2.74v1h5.58v-1Z"/><path class="cls-2" d="M147.67,76.54h-6.58v-2h2.74V71.24h-2.45v-.77a3,3,0,0,1,2.07-2.86c.12-.56.31-2.15.45-3.57h1c.11,1.41.28,3,.38,3.55a3,3,0,0,1,2.11,2.87v.77h-2.24v3.35h2.52Zm-3.52-6.3h2.23a2,2,0,0,0-1.59-1.74c-.19,0-.31-.06-.42-.44-.12.39-.25.41-.43.45a2,2,0,0,0-1.55,1.73Z"/><rect class="cls-1" x="183.04" y="78.26" width="4.54" height="36.3"/><path class="cls-2" d="M188.08,115.05h-5.54V77.76h5.54Zm-4.54-1h3.54V78.76h-3.54Z"/><rect class="cls-1" x="182.68" y="77.37" width="5.25" height="0.89"/><rect class="cls-2" x="182.18" y="76.87" width="6.25" height="1.89"/><rect class="cls-1" x="182.81" y="76.04" width="4.98" height="1.33"/><path class="cls-2" d="M188.3,77.87h-6V75.54h6Zm-5-1h4v-.33h-4Z"/><path class="cls-1" d="M182.93,70.57V76h4.76V70.57Zm1.51,4.37H183.2V71.6c0-.34.27-.86.63-.86s.61.52.61.86Zm1.49,0h-1.24V71.6c0-.34.27-.86.61-.86s.63.52.63.86Zm1.53-3.34v3.34h-1.25V71.6c0-.34.29-.86.63-.86S187.46,71.26,187.46,71.6Z"/><path class="cls-2" d="M188.19,76.53h-5.76V70.07h5.76Zm-4.76-1h3.76v-.09h-3.76Zm3.28-1.09H187V71.6a.63.63,0,0,0-.12-.31.56.56,0,0,0-.13.31Zm-1.52,0h.24V71.6a.18.18,0,1,0-.24,0Zm-1.49,0h.24V71.6a.18.18,0,1,0-.24,0Z"/><rect class="cls-1" x="181.79" y="70.51" width="6.98" height="0.24"/><rect class="cls-2" x="181.29" y="70.01" width="7.98" height="1.24"/><path class="cls-1" d="M185.58,75.09V70.74h2.23v-.27a2.5,2.5,0,0,0-2-2.45,34,34,0,0,1-.49-3.93,30.47,30.47,0,0,1-.56,3.93,2.51,2.51,0,0,0-2,2.45v.27h2.46v4.35h-2.74v1h5.57v-1Z"/><path class="cls-2" d="M188.59,76.54H182v-2h2.74V71.24H182.3v-.77a3,3,0,0,1,2.08-2.86c.11-.56.3-2.15.44-3.57h1c.12,1.41.28,3,.39,3.55a3,3,0,0,1,2.1,2.87v.77h-2.23v3.35h2.51Zm-3.51-6.3h2.22a2,2,0,0,0-1.59-1.74c-.18,0-.31-.06-.42-.43-.12.37-.24.4-.42.44a2,2,0,0,0-1.56,1.73Z"/><path class="cls-1" d="M180.91,94.12V93a2.06,2.06,0,0,0-1.28-3.12c-.15-.3-.33-.6-.33-.6s-.21.34-.37.55A2.27,2.27,0,0,0,177.58,93v1.1h-1.41V93a2.06,2.06,0,0,0-1.28-3.12l-.33-.6s-.21.34-.37.55A2.27,2.27,0,0,0,172.84,93v1.1h-1.41V93a2.06,2.06,0,0,0-1.28-3.12l-.33-.6s-.21.34-.37.55A2.28,2.28,0,0,0,168.09,93v1.1h-1.41V93a2.06,2.06,0,0,0-1.27-3.12l-.33-.6s-.21.34-.37.55A2.28,2.28,0,0,0,163.35,93v1.1h-1.44V93a2.06,2.06,0,0,0-1.28-3.12c-.15-.3-.33-.6-.33-.6a5.58,5.58,0,0,1-.37.55A2.27,2.27,0,0,0,158.58,93v1.1h-1.41V93a2.06,2.06,0,0,0-1.28-3.12c-.15-.3-.33-.6-.33-.6s-.21.34-.37.55A2.27,2.27,0,0,0,153.84,93v1.1h-1.41V93a2.06,2.06,0,0,0-1.28-3.12c-.15-.3-.33-.6-.33-.6s-.21.34-.37.55A2.27,2.27,0,0,0,149.1,93v1.1h-2.45v.59h.95v9.22h34.66V94.71h1v-.59Zm-27.86,9.46h-4.46V99H149V97.49h.85v-.92h2v.92h.86V99h.36Zm5.63,0h-4.44V99h.36V97.49h.84v-.92h2v.92h.84V99h.36Zm5.64,0h-4.43V99h.36V97.49h.83v-.92h2v.92H164V99h.36Zm5.65,0h-4.44V99h.36V97.49h.84v-.92h2.05v.92h.83V99H170Zm5.65,0h-4.45V99h.36V97.49h.85v-.92h2v.92h.85V99h.36Zm5.63,0h-4.44V99h.37V97.49H178v-.92h2.05v.92h.83V99h.36Z"/><path class="cls-2" d="M182.76,104.43H147.1V95.21h-.95V93.62h2.45v-.49a3,3,0,0,1-.09-2.07,2.93,2.93,0,0,1,1.62-1.63c.13-.19.26-.41.26-.41l.44-.73.42.74s.13.21.26.46A2.91,2.91,0,0,1,153.14,91a.6.6,0,0,1,.06.19s0-.1.05-.16a3,3,0,0,1,1.62-1.63l.27-.41.44-.73L156,89s.12.21.25.46A3,3,0,0,1,157.89,91a1.05,1.05,0,0,1,.05.19s0-.1.05-.16a3,3,0,0,1,1.62-1.63l.27-.41.43-.73.43.74.26.46A3,3,0,0,1,162.63,91a1.82,1.82,0,0,1,.07.25l.06-.22a3,3,0,0,1,1.62-1.63l.27-.41.44-.73.42.74.26.46A2.91,2.91,0,0,1,167.4,91l.06.18a1.21,1.21,0,0,1,0-.14,2.93,2.93,0,0,1,1.61-1.64l.27-.41.44-.73.42.74s.13.21.26.46A2.91,2.91,0,0,1,172.14,91l.06.19a1.42,1.42,0,0,1,.05-.16,2.94,2.94,0,0,1,1.61-1.63c.14-.19.27-.41.27-.41l.44-.73L175,89s.13.21.26.46A2.91,2.91,0,0,1,176.88,91a1.06,1.06,0,0,1,.06.19s0-.1.05-.16a2.93,2.93,0,0,1,1.62-1.63l.27-.41.43-.72.42.73s.13.21.26.46A2.91,2.91,0,0,1,181.62,91a2.62,2.62,0,0,1-.21,2.09v.5h2.3v1.59h-1Zm-1-1h0V94.62h-1.35V92.88l.05-.11a1.73,1.73,0,0,0,.22-1.4,2,2,0,0,0-1.16-1l-.27-.14-.12.05a2.07,2.07,0,0,0-1.2,1.11,2,2,0,0,0,.09,1.4l.06.1v1.72h-2.41V92.88l.05-.11a1.77,1.77,0,0,0,.22-1.4,2,2,0,0,0-1.16-1l-.27-.14-.12.05a2.07,2.07,0,0,0-1.2,1.11,2,2,0,0,0,.09,1.4l.05.1v1.72h-2.41V92.88l.06-.11a1.77,1.77,0,0,0,.22-1.4,2,2,0,0,0-1.16-1l-.27-.14-.12.05a1.77,1.77,0,0,0-1.11,2.51l.05.11v1.71h-2.41V92.88l.06-.11a1.77,1.77,0,0,0,.22-1.4,2,2,0,0,0-1.16-1l-.27-.14-.12.05a1.77,1.77,0,0,0-1.11,2.51l0,.11v1.71h-2.44V92.88l.06-.11a1.81,1.81,0,0,0,.22-1.4,2,2,0,0,0-1.16-1l-.28-.14-.12.05a2.07,2.07,0,0,0-1.2,1.11,2,2,0,0,0,.1,1.4l.05.1v1.72h-2.41V92.88l.05-.11a1.78,1.78,0,0,0,.23-1.4,2.06,2.06,0,0,0-1.16-1l-.28-.14h0l-.12.05a2,2,0,0,0-1.19,1.11,1.91,1.91,0,0,0,.09,1.4l.05.11v1.71h-2.41V92.88l0-.11a1.73,1.73,0,0,0,.22-1.4,2,2,0,0,0-1.16-1l-.27-.14-.12.05a2.07,2.07,0,0,0-1.2,1.11,2,2,0,0,0,.09,1.4l.06.11v1.71h-1.5v3.9h.35V97h.85v-.92h3V97h.86v1.53h.36v4.91h.19V98.52h.36V97h.84v-.92h3V97h.84v1.53h.36v4.91h.21V98.52h.36V97h.83v-.92h3V97h.83v1.53h.36v4.91H165V98.52h.36V97h.84v-.92h3.05V97h.83v1.53h.36v4.91h.2V98.52H171V97h.85v-.92h3V97h.85v1.53h.36v4.91h.19V98.52h.36V97h.84v-.92h3.05V97h.83v1.53h.36Zm-4.44-.35h3.44V99.52h-.36V98h-.83v-.92h-1.05V98h-.84v1.53h-.36Zm-5.64,0h3.45V99.52h-.36V98h-.85v-.92h-1V98H172v1.53h-.36Zm-5.64,0h3.44V99.52h-.36V98h-.83v-.92h-1.05V98h-.84v1.53H166Zm-5.64,0h3.43V99.52h-.36V98h-.83v-.92h-1V98h-.83v1.53h-.36Zm-5.65,0h3.44V99.52h-.36V98H157v-.92h-1V98h-.84v1.53h-.36Zm-5.65,0h3.46V99.52h-.36V98h-.86v-.92h-1V98h-.85v1.53h-.36Zm27.58-9.46h.41v-.49a2.68,2.68,0,0,1-.18-.61c-.06.19-.14.39-.23.6Zm-4.75,0h.41v-.49a3.47,3.47,0,0,1-.17-.61,4.68,4.68,0,0,1-.24.6Zm-4.74,0h.41v-.49a4.38,4.38,0,0,1-.18-.61,3.48,3.48,0,0,1-.23.6Zm-4.77,0h.44v-.49a3.76,3.76,0,0,1-.19-.68,3.94,3.94,0,0,1-.25.67Zm-4.74,0h.41v-.49a3.33,3.33,0,0,1-.18-.61,4.56,4.56,0,0,1-.23.6Zm-4.74,0h.41v-.49a3.33,3.33,0,0,1-.18-.61,4.56,4.56,0,0,1-.23.6Z"/><rect class="cls-1" x="87.41" y="126.83" width="17.88" height="8.78"/><path class="cls-2" d="M105.79,136.11H86.91v-9.78h18.88Zm-17.88-1h16.88v-7.78H87.91Z"/><rect class="cls-1" x="223.82" y="126.83" width="17.88" height="8.78"/><path class="cls-2" d="M242.2,136.11H223.32v-9.78H242.2Zm-17.88-1H241.2v-7.78H224.32Z"/><rect class="cls-1" x="87.41" y="135.61" width="154.29" height="3.82"/><path class="cls-2" d="M242.2,139.93H86.91v-4.82H242.2Zm-154.29-1H241.2v-2.82H87.91Z"/><polyline class="cls-1" points="241.97 168.05 87.68 168.05 87.68 140.63 241.97 140.63 241.97 168.05"/><path class="cls-2" d="M242.47,168.55H87.18V140.13H242.47Zm-154.29-1H241.47V141.13H88.18Z"/><rect class="cls-1" x="164.93" y="63.44" width="0.34" height="26.88"/><rect class="cls-2" x="164.43" y="62.94" width="1.34" height="27.88"/><path class="cls-1" d="M164.92,63.44v2.15h3.54V63.44Zm1.77,1.36a.28.28,0,0,1-.28-.28.29.29,0,1,1,.57,0A.28.28,0,0,1,166.69,64.8Z"/><path class="cls-2" d="M169,66.09h-4.54V62.94H169Zm-1.73-1H168V63.94h-.73a.79.79,0,0,1,0,1.15Zm-1.81,0h.74a.79.79,0,0,1,0-1.15h-.74Zm1.27-.79a.22.22,0,0,0-.21.22c0,.24.43.24.43,0A.22.22,0,0,0,166.69,64.3Z"/><path class="cls-1" d="M310.5,95.65v70.81h51.24V95.65H310.5m48.77,69.41H312.44V97.23h46.83v67.83"/><path class="cls-2" d="M362.24,167H310V95.15h52.24ZM311,166h50.24V96.15H311Zm48.77-.4H311.94V96.73h47.83Zm-46.83-1h45.83V97.73H312.94Z"/><path class="cls-1" d="M315.09,103.07v65h41.36v-65H315.09m39.38,63.69H316.65V104.52h37.82v62.24"/><path class="cls-2" d="M357,168.55H314.59v-66H357Zm-41.36-1H356v-64H315.59Zm39.38-.29H316.15V104H355Zm-37.82-1H354V105H317.15Z"/><polygon class="cls-1" points="449.57 23.13 433.34 23.13 431.65 17.64 451.26 17.64 449.57 23.13"/><path class="cls-2" d="M449.94,23.63H433l-2-6.49h21Zm-16.23-1H449.2l1.38-4.49H432.33Z"/><polygon class="cls-1" points="452.33 75.09 430.58 75.09 427.86 67.94 455.05 67.94 452.33 75.09"/><path class="cls-2" d="M452.68,75.59H430.23l-3.09-8.15h28.64Zm-21.76-1H452l2.34-6.15H428.58Z"/><polygon class="cls-1" points="454.81 117.56 428.11 117.56 424.77 107.86 458.14 107.86 454.81 117.56"/><path class="cls-2" d="M455.16,118.06H427.75l-3.68-10.7h34.78Zm-26.7-1h26l3-8.7h-32Z"/><rect class="cls-1" x="435.69" y="6.97" width="11.52" height="10.68"/><path class="cls-2" d="M447.72,18.14H435.19V6.46h12.53Zm-11.53-1h10.53V7.46H436.19Z"/><path class="cls-1" d="M447.22,3.87V2.26h.42V.5H435.27V2.26h.42V3.87h-2.38V7h16.3V3.87Zm-.7,0H444.9V2.26h1.62Zm-5.7-1.61h1.41V3.87h-1.41Zm-.7,1.61h-1.4V2.26h1.4Zm2.81-1.61h1.27V3.87h-1.27Zm-6.53,0H438V3.87H436.4Z"/><path class="cls-2" d="M450.11,7.46h-17.3V3.37h2.38V2.76h-.42V0h13.37V2.76h-.42v.61h2.39Zm-16.3-1h15.3V4.37h-15.3ZM445.4,3.37H446V2.76h-.62Zm-2,0h.27V2.76h-.27Zm-2.11,0h.41V2.76h-.41Zm-2.1,0h.4V2.76h-.4Zm-2.32,0h.61V2.76h-.61ZM447,1.76h.12V1H435.77v.76Z"/><polygon class="cls-1" points="434.86 34.79 435.22 24.18 434.86 24.18 434.48 34.79 434.86 34.79"/><polygon class="cls-2" points="435.35 35.29 433.96 35.29 434.38 23.68 435.74 23.68 435.35 35.29"/><polygon class="cls-1" points="433.67 65.92 434.5 43.68 434.09 43.68 433.22 65.92 433.67 65.92"/><polygon class="cls-2" points="434.16 66.42 432.7 66.42 433.61 43.18 435.02 43.18 434.16 66.42"/><polygon class="cls-1" points="432.19 106.02 433.27 76.72 432.8 76.72 431.65 106.02 432.19 106.02"/><polygon class="cls-2" points="432.67 106.52 431.13 106.52 432.32 76.22 433.79 76.22 432.67 106.52"/><polygon class="cls-1" points="431.13 119.41 429.35 164.64 430.02 164.64 431.7 119.41 431.13 119.41"/><polygon class="cls-2" points="430.5 165.14 428.83 165.14 428.85 164.62 430.64 118.91 432.21 118.91 432.19 119.43 430.5 165.14"/><polygon class="cls-1" points="436.79 34.79 437.05 24.18 436.68 24.18 436.41 34.79 436.79 34.79"/><polygon class="cls-2" points="437.28 35.29 435.9 35.29 436.2 23.68 437.56 23.68 437.28 35.29"/><polygon class="cls-1" points="434.91 106.02 435.67 76.72 435.2 76.72 434.37 106.02 434.91 106.02"/><polygon class="cls-2" points="435.4 106.52 433.85 106.52 434.71 76.22 436.19 76.22 435.4 106.52"/><polygon class="cls-1" points="433.99 119.41 432.71 164.64 433.37 164.64 434.56 119.41 433.99 119.41"/><polygon class="cls-2" points="433.86 165.14 432.19 165.14 433.5 118.91 435.07 118.91 433.86 165.14"/><polygon class="cls-1" points="435.95 65.92 436.54 43.68 436.13 43.68 435.5 65.92 435.95 65.92"/><polygon class="cls-2" points="436.44 66.42 434.99 66.42 435.64 43.18 437.05 43.18 436.44 66.42"/><polygon class="cls-1" points="438.73 34.79 438.87 24.18 438.51 24.18 438.34 34.79 438.73 34.79"/><polygon class="cls-2" points="439.22 35.29 437.83 35.29 438.02 23.68 439.38 23.68 439.22 35.29"/><polygon class="cls-1" points="438.24 65.92 438.57 43.68 438.17 43.68 437.79 65.92 438.24 65.92"/><polygon class="cls-2" points="438.73 66.42 437.28 66.42 437.68 43.18 439.08 43.18 438.73 66.42"/><polygon class="cls-1" points="437.62 106.02 438.07 76.72 437.6 76.72 437.09 106.02 437.62 106.02"/><polygon class="cls-2" points="438.12 106.52 436.58 106.52 437.11 76.22 438.58 76.22 438.12 106.52"/><polygon class="cls-1" points="436.85 119.41 436.06 164.64 436.73 164.64 437.42 119.41 436.85 119.41"/><polygon class="cls-2" points="437.22 165.14 435.56 165.14 436.36 118.91 437.93 118.91 437.22 165.14"/><polygon class="cls-1" points="440.52 65.92 440.62 43.68 440.21 43.68 440.06 65.92 440.52 65.92"/><polygon class="cls-2" points="441.02 66.42 439.56 66.42 439.71 43.18 441.12 43.18 441.02 66.42"/><polygon class="cls-1" points="440.34 106.02 440.47 76.72 439.99 76.72 439.8 106.02 440.34 106.02"/><polygon class="cls-2" points="440.84 106.52 439.3 106.52 439.5 76.22 440.97 76.22 440.84 106.52"/><polygon class="cls-1" points="439.71 119.41 439.42 164.64 440.09 164.64 440.28 119.41 439.71 119.41"/><polygon class="cls-2" points="440.58 165.14 438.92 165.14 439.22 118.91 440.79 118.91 440.58 165.14"/><polygon class="cls-1" points="440.66 34.79 440.7 24.18 440.33 24.18 440.27 34.79 440.66 34.79"/><polygon class="cls-2" points="441.15 35.29 439.77 35.29 439.84 23.68 441.2 23.68 441.15 35.29"/><polygon class="cls-1" points="442.59 34.79 442.52 24.18 442.16 24.18 442.2 34.79 442.59 34.79"/><polygon class="cls-2" points="443.09 35.29 441.71 35.29 441.66 23.68 443.02 23.68 443.09 35.29"/><polygon class="cls-1" points="442.8 65.92 442.65 43.68 442.25 43.68 442.34 65.92 442.8 65.92"/><polygon class="cls-2" points="443.3 66.42 441.85 66.42 441.74 43.18 443.15 43.18 443.3 66.42"/><polygon class="cls-1" points="443.06 106.02 442.87 76.72 442.39 76.72 442.52 106.02 443.06 106.02"/><polygon class="cls-2" points="443.56 106.52 442.02 106.52 441.89 76.22 443.36 76.22 443.56 106.52"/><polygon class="cls-1" points="442.58 119.41 442.77 164.64 443.44 164.64 443.14 119.41 442.58 119.41"/><polygon class="cls-2" points="443.94 165.14 442.28 165.14 442.07 118.91 443.64 118.91 443.94 165.14"/><polygon class="cls-1" points="444.52 34.79 444.35 24.18 443.99 24.18 444.13 34.79 444.52 34.79"/><polygon class="cls-2" points="445.03 35.29 443.64 35.29 443.48 23.68 444.84 23.68 445.03 35.29"/><polygon class="cls-1" points="445.77 106.02 445.27 76.72 444.79 76.72 445.24 106.02 445.77 106.02"/><polygon class="cls-2" points="446.28 106.52 444.74 106.52 444.28 76.22 445.76 76.22 446.28 106.52"/><polygon class="cls-1" points="445.44 119.41 446.13 164.64 446.8 164.64 446.01 119.41 445.44 119.41"/><polygon class="cls-2" points="447.31 165.14 445.64 165.14 444.93 118.91 446.5 118.91 447.31 165.14"/><polygon class="cls-1" points="445.08 65.92 444.69 43.68 444.28 43.68 444.62 65.92 445.08 65.92"/><polygon class="cls-2" points="445.59 66.42 444.13 66.42 443.77 43.18 445.18 43.18 445.59 66.42"/><polygon class="cls-1" points="446.45 34.79 446.18 24.18 445.81 24.18 446.07 34.79 446.45 34.79"/><polygon class="cls-2" points="446.96 35.29 445.58 35.29 445.3 23.68 446.66 23.68 446.96 35.29"/><polygon class="cls-1" points="447.36 65.92 446.73 43.68 446.32 43.68 446.91 65.92 447.36 65.92"/><polygon class="cls-2" points="447.87 66.42 446.42 66.42 445.81 43.18 447.21 43.18 447.87 66.42"/><polygon class="cls-1" points="448.49 106.02 447.66 76.72 447.19 76.72 447.95 106.02 448.49 106.02"/><polygon class="cls-2" points="449.01 106.52 447.47 106.52 446.67 76.22 448.15 76.22 449.01 106.52"/><polygon class="cls-1" points="448.3 119.41 449.49 164.64 450.15 164.64 448.87 119.41 448.3 119.41"/><polygon class="cls-2" points="450.67 165.14 449 165.14 447.79 118.91 449.36 118.91 450.67 165.14"/><polygon class="cls-1" points="448.38 34.79 448 24.18 447.64 24.18 448 34.79 448.38 34.79"/><polygon class="cls-2" points="448.9 35.29 447.51 35.29 447.12 23.68 448.49 23.68 448.9 35.29"/><polygon class="cls-1" points="449.64 65.92 448.77 43.68 448.36 43.68 449.19 65.92 449.64 65.92"/><polygon class="cls-2" points="450.16 66.42 448.7 66.42 447.85 43.18 449.25 43.18 450.16 66.42"/><polygon class="cls-1" points="451.17 119.41 452.84 164.64 453.51 164.64 451.73 119.41 451.17 119.41"/><polygon class="cls-2" points="454.03 165.14 452.36 165.14 452.34 164.66 450.65 118.91 452.21 118.91 452.23 119.39 454.03 165.14"/><polygon class="cls-1" points="451.21 106.02 450.06 76.72 449.59 76.72 450.67 106.02 451.21 106.02"/><polygon class="cls-2" points="451.73 106.52 450.19 106.52 449.07 76.22 450.55 76.22 451.73 106.52"/><polygon class="cls-1" points="451.26 42.52 431.65 42.52 429.2 36.09 453.71 36.09 451.26 42.52"/><path class="cls-2" d="M451.6,43H431.31l-2.83-7.43h26ZM432,42h18.91L453,36.59H429.93Z"/><polygon class="cls-1" points="120.88 114.07 119.21 114.04 119 100.14 115.24 93.02 124.24 93.2 121.14 99.98 120.88 114.07"/><path class="cls-2" d="M121.37,114.58l-2.66,0-.2-14.26-4.1-7.76,10.6.2-3.37,7.38Zm-1.67-1h.69l.3-13.79,2.78-6.09-7.39-.14L119.5,100Z"/><path class="cls-1" d="M111.73,110.63a2.72,2.72,0,0,0,1.36.74,2.22,2.22,0,0,1-.51.06,2.73,2.73,0,0,1-1.91-.8,2.65,2.65,0,0,1-.8-1.91V97.88a2.71,2.71,0,0,1,2.71-2.7,2.1,2.1,0,0,1,.51.06,2.71,2.71,0,0,0-2.15,2.64v10.84A2.72,2.72,0,0,0,111.73,110.63Z"/><path class="cls-2" d="M112.58,111.93a3.27,3.27,0,0,1-2.26-.94,3.2,3.2,0,0,1-.95-2.27V97.88a3.21,3.21,0,0,1,3.21-3.2,2.43,2.43,0,0,1,.64.08l2,.54-2,.43a2.21,2.21,0,0,0-1.76,2.15v10.84a2.24,2.24,0,0,0,.65,1.56,2.2,2.2,0,0,0,1.11.6l2.07.45-2,.52A2.49,2.49,0,0,1,112.58,111.93Zm-2-15a2.17,2.17,0,0,0-.2.92v10.84a2.14,2.14,0,0,0,.21.93,3,3,0,0,1-.14-.93V97.88A3.15,3.15,0,0,1,110.57,97Z"/><path class="cls-1" d="M130.12,97.88v10.84a2.67,2.67,0,0,1-3.28,2.64,2.7,2.7,0,0,0,2.13-2.64V97.88a2.67,2.67,0,0,0-2.13-2.62,1.85,1.85,0,0,1,.58-.08A2.7,2.7,0,0,1,130.12,97.88Z"/><path class="cls-2" d="M127.42,111.93a2.92,2.92,0,0,1-.7-.09l-2.19-.51,2.21-.46a2.21,2.21,0,0,0,1.73-2.15V97.88a2.18,2.18,0,0,0-1.73-2.13l-1.91-.4,1.86-.57a2.26,2.26,0,0,1,.73-.1,3.21,3.21,0,0,1,3.2,3.2v10.84A3.21,3.21,0,0,1,127.42,111.93Zm1.76-15.36a3.06,3.06,0,0,1,.29,1.31v10.84a3.14,3.14,0,0,1-.29,1.32,2.18,2.18,0,0,0,.44-1.32V97.88A2.15,2.15,0,0,0,129.18,96.57Z"/><polygon class="cls-1" points="211 117.17 209.33 117.14 209.12 101.73 205.36 93.83 214.36 94.02 211.26 101.55 211 117.17"/><path class="cls-2" d="M211.49,117.68l-2.66-.05-.2-15.79-4.07-8.53,10.54.23-3.34,8.11Zm-1.67-1h.69l.29-15.3,2.82-6.85-7.46-.16,3.46,7.37Z"/><path class="cls-1" d="M201.85,111.44a2.72,2.72,0,0,0,1.36.74,2.22,2.22,0,0,1-.51.06,2.75,2.75,0,0,1-1.91-.8,2.67,2.67,0,0,1-.8-1.92V98.69A2.71,2.71,0,0,1,202.7,96a2.1,2.1,0,0,1,.51.06,2.7,2.7,0,0,0-2.15,2.64v10.83A2.75,2.75,0,0,0,201.85,111.44Z"/><path class="cls-2" d="M202.7,112.74a3.27,3.27,0,0,1-2.26-.94,3.21,3.21,0,0,1-.95-2.28V98.69a3.21,3.21,0,0,1,3.21-3.2,2.38,2.38,0,0,1,.64.08l2,.54-2,.43a2.21,2.21,0,0,0-1.76,2.15v10.83a2.24,2.24,0,0,0,.65,1.57,2.2,2.2,0,0,0,1.11.6l2.1.45-2.09.52A2.41,2.41,0,0,1,202.7,112.74Zm-2-15a2.13,2.13,0,0,0-.2.91v10.83a2.17,2.17,0,0,0,.21,1,3,3,0,0,1-.14-1V98.69A3.08,3.08,0,0,1,200.69,97.78Z"/><path class="cls-1" d="M220.24,98.69v10.83a2.72,2.72,0,0,1-2.7,2.72,2.2,2.2,0,0,1-.58-.08,2.69,2.69,0,0,0,2.13-2.64V98.69A2.69,2.69,0,0,0,217,96.06a2.2,2.2,0,0,1,.58-.07A2.7,2.7,0,0,1,220.24,98.69Z"/><path class="cls-2" d="M217.54,112.74a2.84,2.84,0,0,1-.69-.09l-2.21-.51,2.22-.46a2.21,2.21,0,0,0,1.73-2.16V98.69a2.19,2.19,0,0,0-1.73-2.14l-1.91-.4,1.86-.56a2.26,2.26,0,0,1,.73-.1,3.21,3.21,0,0,1,3.2,3.2v10.83A3.22,3.22,0,0,1,217.54,112.74Zm1.76-15.36a3.06,3.06,0,0,1,.29,1.31v10.83a3.15,3.15,0,0,1-.29,1.33,2.19,2.19,0,0,0,.44-1.33V98.69A2.15,2.15,0,0,0,219.3,97.38Z"/><path class="cls-1" d="M113.88,135.61V123.94a4.3,4.3,0,1,0-8.59,0v11.67Z"/><path class="cls-2" d="M114.38,136.11h-9.59V123.94a4.8,4.8,0,1,1,9.59,0Zm-8.59-1h7.59V123.94a3.8,3.8,0,1,0-7.59,0Z"/><path class="cls-1" d="M124.28,135.61V123.94a4.3,4.3,0,1,0-8.6,0v11.67Z"/><path class="cls-2" d="M124.78,136.11h-9.6V123.94a4.8,4.8,0,1,1,9.6,0Zm-8.6-1h7.6V123.94a3.8,3.8,0,1,0-7.6,0Z"/><path class="cls-1" d="M134.67,135.61V123.94a4.3,4.3,0,1,0-8.6,0v11.67Z"/><path class="cls-2" d="M135.17,136.11h-9.6V123.94a4.8,4.8,0,1,1,9.6,0Zm-8.6-1h7.6V123.94a3.8,3.8,0,1,0-7.6,0Z"/><path class="cls-1" d="M203,135.61V123.94a4.3,4.3,0,1,0-8.59,0v11.67Z"/><path class="cls-2" d="M203.46,136.11h-9.59V123.94a4.8,4.8,0,1,1,9.59,0Zm-8.59-1h7.59V123.94a3.8,3.8,0,1,0-7.59,0Z"/><path class="cls-1" d="M213.36,135.61V123.94a4.3,4.3,0,0,0-8.6,0v11.67Z"/><path class="cls-2" d="M213.86,136.11h-9.6V123.94a4.8,4.8,0,1,1,9.6,0Zm-8.6-1h7.6V123.94a3.8,3.8,0,0,0-7.6,0Z"/><path class="cls-1" d="M223.75,135.61V123.94a4.3,4.3,0,0,0-8.6,0v11.67Z"/><path class="cls-2" d="M224.25,136.11h-9.6V123.94a4.8,4.8,0,0,1,9.6,0Zm-8.6-1h7.6V123.94a3.8,3.8,0,0,0-7.6,0Z"/><path class="cls-1" d="M158.73,135.61V123.94a4.3,4.3,0,1,0-8.6,0v11.67Z"/><path class="cls-2" d="M159.23,136.11h-9.6V123.94a4.8,4.8,0,1,1,9.6,0Zm-8.6-1h7.6V123.94a3.8,3.8,0,1,0-7.6,0Z"/><path class="cls-1" d="M169.12,135.61V123.94a4.3,4.3,0,0,0-8.6,0v11.67Z"/><path class="cls-2" d="M169.62,136.11H160V123.94a4.8,4.8,0,0,1,9.6,0Zm-8.6-1h7.6V123.94a3.8,3.8,0,0,0-7.6,0Z"/><path class="cls-1" d="M179.51,135.61V123.94a4.3,4.3,0,1,0-8.6,0v11.67Z"/><path class="cls-2" d="M180,136.11h-9.6V123.94a4.8,4.8,0,1,1,9.6,0Zm-8.6-1H179V123.94a3.8,3.8,0,1,0-7.6,0Z"/><rect class="cls-1" x="87.68" y="139.43" width="154.29" height="1.2"/><path class="cls-2" d="M242.47,141.13H87.18v-2.2H242.47Zm-154.29-1H241.47v-.2H88.18Z"/><polygon class="cls-1" points="381.99 88.68 381.99 88.68 382 88.68 381.99 88.68"/><polygon class="cls-2" points="382 89.18 381.99 88.85 381.99 89.18 381.99 88.18 382 88.18 382 89.18"/><polygon class="cls-1" points="373.76 90.24 373.76 90.24 373.76 90.24 373.76 90.24"/><polygon class="cls-2" points="373.26 91.67 373.26 90.24 373.75 90.24 373.37 89.93 374.15 90.55 373.26 91.67"/><path class="cls-1" d="M388.36,90.24h0Z"/><polygon class="cls-2" points="388.37 90.74 388.36 89.74 388.37 89.74 388.37 90.74"/><path class="cls-1" d="M257.73,103.87l-.79,59.49,0,2.53h19.22V99.79l-18.4,4.08m8.55,6.71a8.64,8.64,0,0,0,1.08,1.69c1.19,1.4,2.45,2.2,2.47,5v16.7h-7.1v-16.7h0c0-3.65,2.23-3.88,3.51-6.62v0m-3.55,33.83h0c0-3.65,2.23-3.88,3.52-6.62.08.17.18.33.26.48a3.67,3.67,0,0,0,.27.44c1.3,1.93,3,2.51,3,5.7v16.7h-7.1v-16.7"/><path class="cls-2" d="M276.63,166.39H256.41l0-3,.8-59.89,19.39-4.3Zm-19.21-1h18.21v-65l-17.4,3.86Zm12.91-3.78h-8.1l0-17.7a6,6,0,0,1,2-4.11,8.37,8.37,0,0,0,1.61-2.23l.46-1,.45,1c.06.13.13.25.19.37l.06.1c.07.13.15.26.23.38a13.32,13.32,0,0,0,1.12,1.36,5.93,5.93,0,0,1,2,4.62Zm-7.1-1h6.1v-16.2a5.06,5.06,0,0,0-1.72-3.95A10.32,10.32,0,0,1,266.4,139l-.12-.16a11.2,11.2,0,0,1-1.32,1.65,4.94,4.94,0,0,0-1.7,3.93l0,.5Zm7.1-26.19h-8.1l0-17.7a5.93,5.93,0,0,1,2-4.1,8.82,8.82,0,0,0,1.6-2.24l.09-.13.5-.52.33.64a8,8,0,0,0,1,1.58c.19.23.39.44.59.66a6,6,0,0,1,2,4.61Zm-7.1-1h6.1v-16.2a5,5,0,0,0-1.73-3.94l-.62-.69a11.25,11.25,0,0,1-.7-1,10.93,10.93,0,0,1-1.32,1.67,5,5,0,0,0-1.7,3.93l0,.5Z"/><path class="cls-1" d="M395.51,99.79v66h17V104.49l-17-4.7m5.28,17.43c0-2.75,1.27-3.55,2.45-5,.18-.25.37-.49.56-.76h0c.16-.29.33-.58.49-.92l0,0c1.29,2.74,3.51,3,3.53,6.62h0v16.7h-7.08v-16.7m0,27.19c0-2.75,1.26-3.55,2.45-4.95.18-.23.37-.48.55-.75a2.16,2.16,0,0,0,.27-.44,5.39,5.39,0,0,0,.25-.48c1.31,2.74,3.53,3,3.55,6.62h0v16.7h-7.08v-16.7"/><path class="cls-2" d="M413,166.26H395V99.14l18,5Zm-17-1h16V104.87l-16-4.42Zm12.36-3.65h-8.08v-17.2a6,6,0,0,1,2-4.63c.2-.2.39-.42.59-.65a6.88,6.88,0,0,0,.51-.69,1.87,1.87,0,0,0,.23-.36c.12-.21.19-.35.26-.5l.45-1,.45,1a8.62,8.62,0,0,0,1.62,2.23,5.9,5.9,0,0,1,2,4.11h0v17.7Zm-7.08-1h6.08v-16.2a5,5,0,0,0-1.72-3.94,11.21,11.21,0,0,1-1.32-1.64l-.14.2c-.16.24-.36.5-.55.74s-.42.47-.62.69a5,5,0,0,0-1.72,3.95Zm7.08-26.19h-8.08v-17.2a6,6,0,0,1,2-4.61c.2-.21.4-.43.6-.67s.36-.47.54-.72l.05-.08c.13-.24.28-.49.41-.77l.33-.68.59.69a8.37,8.37,0,0,0,1.61,2.23,6,6,0,0,1,1.95,4.11h0v17.7Zm-7.08-1h6.08v-16.2a5,5,0,0,0-1.71-3.94,11.47,11.47,0,0,1-1.33-1.66h0l-.06.12c-.22.31-.4.54-.58.77s-.47.54-.67.77a5,5,0,0,0-1.71,3.93Z"/><polygon class="cls-1" points="335.29 107.09 335.3 107.11 335.32 107.09 335.29 107.09"/><polygon class="cls-2" points="335.24 107.87 334.37 106.61 336.55 106.59 335.24 107.87"/><polygon class="cls-1" points="382.61 110.57 382.62 110.58 382.62 110.57 382.61 110.57"/><polygon class="cls-2" points="382.76 111.29 381.07 110.08 383.51 110.07 382.76 111.29"/><polygon class="cls-1" points="404.31 110.57 404.32 110.58 404.32 110.57 404.31 110.57"/><polygon class="cls-2" points="404.56 111.48 403.04 110.08 405 110.07 404.56 111.48"/><polygon class="cls-1" points="404.31 137.76 404.32 137.77 404.32 137.76 404.31 137.76"/><polygon class="cls-2" points="404.57 138.76 403.17 137.27 404.97 137.26 404.57 138.76"/><polygon class="cls-1" points="266.3 110.57 266.29 110.58 266.29 110.57 266.3 110.57"/><polygon class="cls-2" points="266.01 111.39 265.61 110.08 267.83 110.07 266.01 111.39"/><polygon class="cls-1" points="266.3 137.76 266.29 137.77 266.29 137.76 266.3 137.76"/><polygon class="cls-2" points="266.01 138.65 265.64 137.27 267.67 137.26 266.01 138.65"/><polygon class="cls-1" points="382.61 137.76 382.62 137.76 382.62 137.76 382.61 137.76"/><polygon class="cls-2" points="382.71 138.31 379.54 137.26 384.12 137.26 382.71 138.31"/><polygon class="cls-1" points="289.24 110.57 289.24 110.58 289.25 110.57 289.24 110.57"/><polygon class="cls-2" points="289.11 111.29 288.35 110.08 290.8 110.07 289.11 111.29"/><polygon class="cls-1" points="292.23 89.98 292.23 89.98 292.24 89.98 292.23 89.98"/><polygon class="cls-2" points="292.24 90.48 292.23 89.48 292.24 89.48 292.24 90.48"/><path class="cls-1" d="M284,91.54Z"/><polygon class="cls-2" points="284.5 91.54 283.5 91.54 284.5 91.54 284.5 91.54"/><path class="cls-3" d="M298.6,91.54"/><polygon class="cls-1" points="289.24 137.76 289.24 137.76 289.25 137.76 289.24 137.76"/><polygon class="cls-2" points="289.16 138.31 287.74 137.26 292.33 137.26 289.16 138.31"/><path class="cls-1" d="M391.6,90.13c-2.39-1.24-6.3-2-10.72-2a26.16,26.16,0,0,0-9.77,1.68,6.85,6.85,0,0,1-.79-1.58,25.19,25.19,0,0,1,10.56-2c4.65,0,8.74.9,11.09,2.25l-.35.61Z"/><path class="cls-2" d="M392.08,91l-.71-.38c-2.4-1.24-6.32-2-10.49-2a25.66,25.66,0,0,0-9.58,1.64l-.31.13-.24-.24a6.63,6.63,0,0,1-.9-1.75l-.16-.43.4-.2a25.66,25.66,0,0,1,10.79-2c4.59,0,8.83.87,11.34,2.31l.43.25-.53.94Zm-11.2-3.37a27,27,0,0,1,10.24,1.77v-.41l.15-.28c-2.41-1.23-6.24-2-10.4-2A25.89,25.89,0,0,0,371,88.43a7,7,0,0,0,.33.71A27.37,27.37,0,0,1,380.88,87.58Z"/><path class="cls-1" d="M384.76,91.4c0-1.49-1.75-1.59-2.74-2.72a4.33,4.33,0,0,1-.86.7c1,.93,2.51,1.1,2.52,2.5h0v6.36h1.07V91.4Z"/><path class="cls-2" d="M385.27,98.74H383.2l0-6.86c0-.61-.4-.87-1.17-1.32a6.51,6.51,0,0,1-1.19-.82l-.48-.44.55-.34a3.67,3.67,0,0,0,.75-.62l.38-.42.37.43a4.73,4.73,0,0,0,1.2.87,2.9,2.9,0,0,1,1.61,1.68h.07Zm-1.07-1h.07V91.41c0-.53-.31-.8-.89-1.16a2,2,0,0,1,.76,1.13h.05l0,.5ZM382,89.39l.16.1-.14-.12Z"/><path class="cls-1" d="M372.55,92.49c0-1.23.77-1.31,1.2-2.25a2.33,2.33,0,0,0,.38.58c-.44.77-1.1.91-1.11,2.06h0v5.25h-.48V92.49Z"/><path class="cls-2" d="M373.52,98.63H372V92h0a2.38,2.38,0,0,1,.71-1.28,2.55,2.55,0,0,0,.5-.68l.45-1,.45,1a2.07,2.07,0,0,0,.31.46l.23.27-.18.3a3.38,3.38,0,0,1-.55.72,1.37,1.37,0,0,0-.49,1.1Z"/><path class="cls-1" d="M389.58,92.49c0-1.23-.77-1.31-1.2-2.25a3.07,3.07,0,0,1-.38.58c.44.77,1.11.91,1.11,2.06h0v5.25h.48V92.49Z"/><path class="cls-2" d="M390.09,98.63h-1.48V92.88a1.37,1.37,0,0,0-.49-1.1,4,4,0,0,1-.56-.71l-.17-.31.23-.27a2.19,2.19,0,0,0,.3-.47l.46-1,.45,1a2.5,2.5,0,0,0,.5.68A2.38,2.38,0,0,1,390,92h.06Z"/><path class="cls-1" d="M364.19,77.63C332.63,65.07,306.54,77,306.54,77a9.86,9.86,0,0,0,1.46,2.8c6.63-2.77,16.08-4.6,26.83-4.6,12.14,0,22.86,2.22,29.43,5.61l.07-2.89,0,0A2.14,2.14,0,0,0,364.19,77.63Z"/><path class="cls-2" d="M364.74,81.66l-.71-.37c-6.74-3.48-17.65-5.55-29.2-5.55-10.14,0-19.6,1.62-26.64,4.56l-.32.13-.23-.24a10.06,10.06,0,0,1-1.57-3l-.15-.43.41-.18c.27-.12,26.66-11.92,58,.58l.14,0,.08.12a4,4,0,0,1,.22.37l.1.23-.09.15Zm-29.91-6.92c11.3,0,22,2,28.95,5.31l0-2c-28.73-11.37-53.16-2.16-56.64-.72a9.19,9.19,0,0,0,1,1.93C315.27,76.33,324.73,74.74,334.83,74.74Z"/><path class="cls-1" d="M301.85,91.43c-2.4-1.24-6.31-2.05-10.73-2.05a26.25,26.25,0,0,0-9.78,1.68,7.3,7.3,0,0,1-.79-1.58,25.29,25.29,0,0,1,10.57-2c4.65,0,8.74.89,11.08,2.24l-.34.62Z"/><path class="cls-2" d="M302.33,92.25l-.71-.37c-2.41-1.25-6.33-2-10.5-2a25.66,25.66,0,0,0-9.58,1.64l-.31.13-.24-.24a6.68,6.68,0,0,1-.91-1.75l-.16-.43.41-.2a25.73,25.73,0,0,1,10.79-2c4.59,0,8.82.86,11.33,2.31l.43.24-.52.94Zm-11.21-3.37a27.19,27.19,0,0,1,10.24,1.77v-.41l.15-.28c-2.41-1.22-6.24-1.94-10.4-1.94a26.07,26.07,0,0,0-9.93,1.71,6.16,6.16,0,0,0,.34.72A27.33,27.33,0,0,1,291.12,88.88Z"/><path class="cls-1" d="M389.36,117.21c0-3.65-4.27-3.88-6.7-6.65a9.16,9.16,0,0,1-2.09,1.71c2.47,2.27,6.14,2.71,6.17,6.1h0v15.54h2.62v-16.7Z"/><path class="cls-2" d="M389.89,134.41h-3.62l0-16c0-2-1.43-2.8-3.23-3.84a15,15,0,0,1-2.77-1.9l-.48-.45.55-.34a8.91,8.91,0,0,0,2-1.62l.37-.42.38.42a11.56,11.56,0,0,0,3.09,2.28c1.7,1,3.46,2,3.7,4.2h.06Zm-2.62-1h1.62l0-16.2c0-2-1.43-2.79-3.23-3.83a14.11,14.11,0,0,1-3-2.09,10.41,10.41,0,0,1-1.25,1,17.4,17.4,0,0,0,2.1,1.35c1.7,1,3.45,2,3.7,4.2h0l0,.5Z"/><path class="cls-1" d="M407.88,117.21c0-3.65-2.25-3.88-3.54-6.65a7.2,7.2,0,0,1-1.1,1.71c1.31,2.27,3.25,2.71,3.26,6.1h0v15.54h1.39v-16.7Z"/><path class="cls-2" d="M408.4,134.41H406v-16a5,5,0,0,0-1.71-3.94,10.48,10.48,0,0,1-1.48-1.92l-.18-.3.23-.27a7,7,0,0,0,1-1.59l.45-1,.45,1a8.64,8.64,0,0,0,1.62,2.26,6,6,0,0,1,2,4.1h0Zm-1.39-1h.39l0-16.2a5,5,0,0,0-1.7-3.93,11,11,0,0,1-1.34-1.67,6.33,6.33,0,0,1-.49.7,11.19,11.19,0,0,0,1.18,1.46,6,6,0,0,1,2,4.1h0v15.54Z"/><path class="cls-1" d="M407.88,144.4c0-3.65-2.25-3.88-3.54-6.65a7.2,7.2,0,0,1-1.1,1.71c1.31,2.27,3.25,2.7,3.26,6.11h0V161.1h1.39V144.4Z"/><path class="cls-2" d="M408.4,161.6H406v-16a5,5,0,0,0-1.71-3.94,10.83,10.83,0,0,1-1.48-1.92l-.18-.31.23-.26a6.92,6.92,0,0,0,1-1.6l.45-1,.45,1a8.81,8.81,0,0,0,1.62,2.26,6,6,0,0,1,2,4.1h0Zm-1.39-1h.39l0-16.2a5,5,0,0,0-1.7-3.93,11,11,0,0,1-1.34-1.67,6.05,6.05,0,0,1-.49.7A11.19,11.19,0,0,0,405,141a6,6,0,0,1,2,4.11h0V160.6Z"/><path class="cls-1" d="M262.72,117.21c0-3.65,2.26-3.88,3.54-6.65a7.88,7.88,0,0,0,1.1,1.71c-1.3,2.27-3.24,2.71-3.25,6.1h0v15.54h-1.38v-16.7Z"/><path class="cls-2" d="M264.59,134.41h-2.38l0-17.7a6.05,6.05,0,0,1,1.95-4.1,8.64,8.64,0,0,0,1.62-2.26l.45-1,.45,1a7.41,7.41,0,0,0,1,1.6l.22.27-.17.3a10.94,10.94,0,0,1-1.48,1.92,5,5,0,0,0-1.71,3.94l0,.49Zm-1.38-1h.38l0-15.54a6,6,0,0,1,1.95-4.1,10.38,10.38,0,0,0,1.17-1.46,8,8,0,0,1-.49-.7,11,11,0,0,1-1.33,1.67,5,5,0,0,0-1.71,3.93v16.2Z"/><path class="cls-1" d="M262.72,144.4c0-3.65,2.26-3.88,3.54-6.65a7.88,7.88,0,0,0,1.1,1.71c-1.3,2.27-3.24,2.7-3.25,6.11h0V161.1h-1.38V144.4Z"/><path class="cls-2" d="M264.59,161.6h-2.38l0-17.7a6.05,6.05,0,0,1,1.95-4.1,8.81,8.81,0,0,0,1.62-2.26l.45-1,.45,1a7.28,7.28,0,0,0,1,1.6l.22.26-.17.31a11.33,11.33,0,0,1-1.48,1.92,5,5,0,0,0-1.71,3.94l0,.5Zm-1.38-1h.38l0-15.53a6,6,0,0,1,1.95-4.12,10.27,10.27,0,0,0,1.17-1.45c-.15-.2-.32-.43-.49-.7a11,11,0,0,1-1.33,1.67,5,5,0,0,0-1.71,3.93v16.2Z"/><path class="cls-1" d="M389.36,144.4c0-3.65-4.27-3.88-6.7-6.65a9.16,9.16,0,0,1-2.09,1.71c2.47,2.27,6.14,2.7,6.17,6.1h0V161.1h2.62V144.4Z"/><path class="cls-2" d="M389.89,161.6h-3.62l0-16c0-2-1.44-2.8-3.23-3.84a15.51,15.51,0,0,1-2.77-1.9l-.48-.45.55-.34a9.17,9.17,0,0,0,2-1.62l.37-.43.38.43a11.66,11.66,0,0,0,3.1,2.28c1.69,1,3.45,2,3.69,4.2h.06Zm-2.62-1h1.62l0-16.19c0-2-1.43-2.8-3.23-3.84a14.49,14.49,0,0,1-3-2.09,9.31,9.31,0,0,1-1.25,1,17.4,17.4,0,0,0,2.1,1.35c1.7,1,3.45,2,3.7,4.2h0l0,.5Z"/><path class="cls-1" d="M296,117.21c0-3.65-4.28-3.88-6.71-6.65a9.16,9.16,0,0,1-2.09,1.71c2.47,2.27,6.14,2.71,6.18,6.1h0v15.54H296v-16.7Z"/><path class="cls-2" d="M296.52,134.41h-3.61l0-16c0-2-1.44-2.8-3.24-3.84a15,15,0,0,1-2.77-1.9l-.49-.45.56-.34a9.39,9.39,0,0,0,2-1.62l.37-.42.38.42a11.45,11.45,0,0,0,3.1,2.28c1.7,1,3.45,2,3.7,4.2h0Zm-2.61-1h1.61l0-16.19c0-2-1.44-2.8-3.23-3.84a13.91,13.91,0,0,1-3-2.09,9.54,9.54,0,0,1-1.25,1,17.4,17.4,0,0,0,2.1,1.35c1.7,1,3.46,2,3.71,4.2h0l0,.5Z"/><path class="cls-1" d="M295,92.71c0-1.5-1.75-1.6-2.75-2.73a3.57,3.57,0,0,1-.86.7c1,.93,2.52,1.1,2.53,2.5h0v6.36H295V92.71Z"/><path class="cls-2" d="M295.51,100h-2.07l0-6.86c0-.61-.41-.87-1.17-1.32a6.27,6.27,0,0,1-1.19-.81l-.49-.45.56-.35a3.22,3.22,0,0,0,.75-.6l.37-.43.38.43a4.68,4.68,0,0,0,1.19.87,2.87,2.87,0,0,1,1.62,1.69h.07Zm-1.07-1h.07V92.71c0-.53-.31-.8-.89-1.15a2,2,0,0,1,.75,1.12h.06l0,.5Zm-2.2-8.35.17.11-.16-.13Z"/><path class="cls-1" d="M282.78,93.79c0-1.23.77-1.31,1.21-2.25a2.64,2.64,0,0,0,.37.58c-.44.77-1.1.91-1.1,2.06h0v5.25h-.47V93.79Z"/><path class="cls-2" d="M283.75,99.93h-1.47V93.29h.05A2.38,2.38,0,0,1,283,92a2.55,2.55,0,0,0,.5-.68l.44-1,.46,1a2.13,2.13,0,0,0,.31.47l.22.27-.17.3a4.51,4.51,0,0,1-.55.71,1.34,1.34,0,0,0-.49,1.1Z"/><path class="cls-1" d="M299.82,93.79c0-1.23-.77-1.31-1.21-2.25a2.64,2.64,0,0,1-.37.58c.44.77,1.1.91,1.1,2.06h0v5.25h.47V93.79Z"/><path class="cls-2" d="M300.32,99.93h-1.47V94.18a1.34,1.34,0,0,0-.49-1.1,4.51,4.51,0,0,1-.55-.71l-.17-.31.23-.27a1.91,1.91,0,0,0,.3-.46l.45-1,.46,1a2.53,2.53,0,0,0,.49.68,2.32,2.32,0,0,1,.71,1.28h.05Z"/><path class="cls-1" d="M296,144.4c0-3.65-4.28-3.88-6.71-6.65a9.16,9.16,0,0,1-2.09,1.71c2.47,2.27,6.14,2.7,6.18,6.1h0V161.1H296V144.4Z"/><path class="cls-2" d="M296.52,161.6h-3.61l0-16c0-2-1.44-2.8-3.24-3.84a15.51,15.51,0,0,1-2.77-1.9l-.48-.45.55-.35a9,9,0,0,0,2-1.61l.37-.43.38.43a11.66,11.66,0,0,0,3.1,2.28c1.7,1,3.45,2,3.7,4.2h0Zm-2.61-1h1.61l0-16.19c0-2-1.44-2.8-3.23-3.84a13.91,13.91,0,0,1-3-2.09,9.31,9.31,0,0,1-1.25,1,17.4,17.4,0,0,0,2.1,1.35c1.7,1,3.46,2,3.71,4.2h0l0,.5Z"/><path class="cls-1" d="M66.25,76.12a2.39,2.39,0,0,1-4.77,0,.53.53,0,0,0,0,.22,2.42,2.42,0,0,0,4.81-.14s0,0,0-.08"/><path class="cls-2" d="M63.84,79A3,3,0,0,1,61,76.42,1.26,1.26,0,0,1,61,76l.75-2.36L62,76.08a1.89,1.89,0,0,0,3.78,0L66,73.56l.79,2.63v.07A3,3,0,0,1,63.84,79Z"/><path class="cls-1" d="M27.63,76.12a.72.72,0,0,0,0,.25,2.1,2.1,0,0,0,2.34,2.08,2.29,2.29,0,0,0,1.29-.4A2.22,2.22,0,0,1,30,78.4a2.44,2.44,0,0,1-2.39-2.28"/><path class="cls-2" d="M29.94,79a3,3,0,0,1-2.8-2.15,2.82,2.82,0,0,1,0-.43,1.27,1.27,0,0,1,0-.4l.75-2.34.22,2.45A2,2,0,0,0,30,77.9a1.8,1.8,0,0,0,.95-.27l.54.84A2.84,2.84,0,0,1,29.94,79Z"/><polyline class="cls-1" points="58.87 78.45 58.81 78.45 34.97 78.45 34.97 79.11 58.87 79.11 58.87 78.45"/><polygon class="cls-2" points="59.37 79.61 34.47 79.61 34.47 77.95 59.31 77.95 59.37 78.45 59.37 79.61"/><path class="cls-1" d="M66.26,76.2a2.42,2.42,0,0,1-4.81.14v0a2.41,2.41,0,1,0,4.82,0,1,1,0,0,0,0-.17"/><path class="cls-2" d="M63.87,79.43A3,3,0,0,1,61,76.37l1-.12a1.92,1.92,0,0,0,3.83-.11l.44-3.6.55,3.58a2.09,2.09,0,0,1,0,.25A3,3,0,0,1,63.87,79.43Z"/><path class="cls-1" d="M32.4,76.12a2.57,2.57,0,0,1-1.17,1.93,2.29,2.29,0,0,1-1.29.4,2.44,2.44,0,0,1-2.32-1.8,2.4,2.4,0,1,0,4.8-.28,1.06,1.06,0,0,0,0-.25"/><path class="cls-2" d="M30,79.43a3,3,0,0,1-2.9-2.72l1-.2A2,2,0,0,0,29.94,78a1.82,1.82,0,0,0,1-.31,2.07,2.07,0,0,0,.95-1.56l.22-2.45L32.87,76a1.27,1.27,0,0,1,.05.4A3,3,0,0,1,30,79.43Z"/><rect class="cls-1" x="12.61" y="85.49" width="68.13" height="1.6"/><path class="cls-2" d="M81.24,87.59H12.11V85H81.24Zm-68.13-1H80.24V86H13.11Z"/><rect class="cls-1" x="9.85" y="101.59" width="74.09" height="2.17"/><path class="cls-2" d="M84.44,104.26H9.35v-3.17H84.44Zm-74.09-1H83.44v-1.17H10.35Z"/><rect class="cls-1" x="433.06" y="18.98" width="0.65" height="0.68"/><rect class="cls-2" x="432.56" y="18.48" width="1.65" height="1.68"/><rect class="cls-1" x="434.31" y="18.98" width="0.65" height="0.68"/><rect class="cls-2" x="433.81" y="18.48" width="1.65" height="1.68"/><rect class="cls-1" x="435.57" y="18.98" width="0.65" height="0.68"/><rect class="cls-2" x="435.07" y="18.48" width="1.65" height="1.68"/><rect class="cls-1" x="436.82" y="18.98" width="0.65" height="0.68"/><rect class="cls-2" x="436.32" y="18.48" width="1.64" height="1.68"/><rect class="cls-1" x="438.07" y="18.98" width="0.65" height="0.68"/><rect class="cls-2" x="437.57" y="18.48" width="1.65" height="1.68"/><rect class="cls-1" x="439.33" y="18.98" width="0.65" height="0.68"/><rect class="cls-2" x="438.83" y="18.48" width="1.65" height="1.68"/><rect class="cls-1" x="440.58" y="18.98" width="0.64" height="0.68"/><rect class="cls-2" x="440.08" y="18.48" width="1.65" height="1.68"/><rect class="cls-1" x="441.83" y="18.98" width="0.64" height="0.68"/><rect class="cls-2" x="441.33" y="18.48" width="1.64" height="1.68"/><rect class="cls-1" x="443.09" y="18.98" width="0.65" height="0.68"/><rect class="cls-2" x="442.59" y="18.48" width="1.65" height="1.68"/><rect class="cls-1" x="444.34" y="18.98" width="0.65" height="0.68"/><rect class="cls-2" x="443.84" y="18.48" width="1.65" height="1.68"/><rect class="cls-1" x="445.53" y="18.98" width="0.64" height="0.68"/><rect class="cls-2" x="445.03" y="18.48" width="1.64" height="1.68"/><rect class="cls-1" x="446.79" y="18.98" width="0.65" height="0.68"/><rect class="cls-2" x="446.29" y="18.48" width="1.65" height="1.68"/><rect class="cls-1" x="448.04" y="18.98" width="0.65" height="0.68"/><rect class="cls-2" x="447.54" y="18.48" width="1.65" height="1.68"/><rect class="cls-1" x="449.29" y="18.98" width="0.64" height="0.68"/><rect class="cls-2" x="448.79" y="18.48" width="1.64" height="1.68"/><rect class="cls-1" x="433.06" y="20.43" width="0.65" height="0.69"/><rect class="cls-2" x="432.56" y="19.93" width="1.65" height="1.69"/><rect class="cls-1" x="434.31" y="20.43" width="0.65" height="0.69"/><rect class="cls-2" x="433.81" y="19.93" width="1.65" height="1.69"/><rect class="cls-1" x="435.57" y="20.43" width="0.65" height="0.69"/><rect class="cls-2" x="435.07" y="19.93" width="1.65" height="1.69"/><rect class="cls-1" x="436.82" y="20.43" width="0.65" height="0.69"/><rect class="cls-2" x="436.32" y="19.93" width="1.64" height="1.69"/><rect class="cls-1" x="438.07" y="20.43" width="0.65" height="0.69"/><rect class="cls-2" x="437.57" y="19.93" width="1.65" height="1.69"/><rect class="cls-1" x="439.33" y="20.43" width="0.65" height="0.69"/><rect class="cls-2" x="438.83" y="19.93" width="1.65" height="1.69"/><rect class="cls-1" x="440.58" y="20.43" width="0.64" height="0.69"/><rect class="cls-2" x="440.08" y="19.93" width="1.65" height="1.69"/><rect class="cls-1" x="441.83" y="20.43" width="0.64" height="0.69"/><rect class="cls-2" x="441.33" y="19.93" width="1.64" height="1.69"/><rect class="cls-1" x="443.09" y="20.43" width="0.65" height="0.69"/><rect class="cls-2" x="442.59" y="19.93" width="1.65" height="1.69"/><rect class="cls-1" x="444.34" y="20.43" width="0.65" height="0.69"/><rect class="cls-2" x="443.84" y="19.93" width="1.65" height="1.69"/><rect class="cls-1" x="445.53" y="20.43" width="0.64" height="0.69"/><rect class="cls-2" x="445.03" y="19.93" width="1.64" height="1.69"/><rect class="cls-1" x="446.79" y="20.43" width="0.65" height="0.69"/><rect class="cls-2" x="446.29" y="19.93" width="1.65" height="1.69"/><rect class="cls-1" x="448.04" y="20.43" width="0.65" height="0.69"/><rect class="cls-2" x="447.54" y="19.93" width="1.65" height="1.69"/><rect class="cls-1" x="449.29" y="20.43" width="0.64" height="0.69"/><rect class="cls-2" x="448.79" y="19.93" width="1.64" height="1.69"/><rect class="cls-1" x="433.06" y="38.24" width="0.65" height="0.69"/><rect class="cls-2" x="432.56" y="37.74" width="1.65" height="1.69"/><rect class="cls-1" x="434.31" y="38.24" width="0.65" height="0.69"/><rect class="cls-2" x="433.81" y="37.74" width="1.65" height="1.69"/><rect class="cls-1" x="435.57" y="38.24" width="0.65" height="0.69"/><rect class="cls-2" x="435.07" y="37.74" width="1.65" height="1.69"/><rect class="cls-1" x="436.82" y="38.24" width="0.65" height="0.69"/><rect class="cls-2" x="436.32" y="37.74" width="1.64" height="1.69"/><rect class="cls-1" x="438.07" y="38.24" width="0.65" height="0.69"/><rect class="cls-2" x="437.57" y="37.74" width="1.65" height="1.69"/><rect class="cls-1" x="439.33" y="38.24" width="0.65" height="0.69"/><rect class="cls-2" x="438.83" y="37.74" width="1.65" height="1.69"/><rect class="cls-1" x="440.58" y="38.24" width="0.64" height="0.69"/><rect class="cls-2" x="440.08" y="37.74" width="1.65" height="1.69"/><rect class="cls-1" x="441.83" y="38.24" width="0.64" height="0.69"/><rect class="cls-2" x="441.33" y="37.74" width="1.64" height="1.69"/><rect class="cls-1" x="443.09" y="38.24" width="0.65" height="0.69"/><rect class="cls-2" x="442.59" y="37.74" width="1.65" height="1.69"/><rect class="cls-1" x="444.34" y="38.24" width="0.65" height="0.69"/><rect class="cls-2" x="443.84" y="37.74" width="1.65" height="1.69"/><rect class="cls-1" x="445.53" y="38.24" width="0.64" height="0.69"/><rect class="cls-2" x="445.03" y="37.74" width="1.64" height="1.69"/><rect class="cls-1" x="446.79" y="38.24" width="0.65" height="0.69"/><rect class="cls-2" x="446.29" y="37.74" width="1.65" height="1.69"/><rect class="cls-1" x="448.04" y="38.24" width="0.65" height="0.69"/><rect class="cls-2" x="447.54" y="37.74" width="1.65" height="1.69"/><rect class="cls-1" x="449.29" y="38.24" width="0.64" height="0.69"/><rect class="cls-2" x="448.79" y="37.74" width="1.64" height="1.69"/><rect class="cls-1" x="433.06" y="39.69" width="0.65" height="0.68"/><rect class="cls-2" x="432.56" y="39.19" width="1.65" height="1.68"/><rect class="cls-1" x="434.31" y="39.69" width="0.65" height="0.68"/><rect class="cls-2" x="433.81" y="39.19" width="1.65" height="1.68"/><rect class="cls-1" x="435.57" y="39.69" width="0.65" height="0.68"/><rect class="cls-2" x="435.07" y="39.19" width="1.65" height="1.68"/><rect class="cls-1" x="436.82" y="39.69" width="0.65" height="0.68"/><rect class="cls-2" x="436.32" y="39.19" width="1.64" height="1.68"/><rect class="cls-1" x="438.07" y="39.69" width="0.65" height="0.68"/><rect class="cls-2" x="437.57" y="39.19" width="1.65" height="1.68"/><rect class="cls-1" x="439.33" y="39.69" width="0.65" height="0.68"/><rect class="cls-2" x="438.83" y="39.19" width="1.65" height="1.68"/><rect class="cls-1" x="440.58" y="39.69" width="0.64" height="0.68"/><rect class="cls-2" x="440.08" y="39.19" width="1.65" height="1.68"/><rect class="cls-1" x="441.83" y="39.69" width="0.64" height="0.68"/><rect class="cls-2" x="441.33" y="39.19" width="1.64" height="1.68"/><rect class="cls-1" x="443.09" y="39.69" width="0.65" height="0.68"/><rect class="cls-2" x="442.59" y="39.19" width="1.65" height="1.68"/><rect class="cls-1" x="444.34" y="39.69" width="0.65" height="0.68"/><rect class="cls-2" x="443.84" y="39.19" width="1.65" height="1.68"/><rect class="cls-1" x="445.53" y="39.69" width="0.64" height="0.68"/><rect class="cls-2" x="445.03" y="39.19" width="1.64" height="1.68"/><rect class="cls-1" x="446.79" y="39.69" width="0.65" height="0.68"/><rect class="cls-2" x="446.29" y="39.19" width="1.65" height="1.68"/><rect class="cls-1" x="448.04" y="39.69" width="0.65" height="0.68"/><rect class="cls-2" x="447.54" y="39.19" width="1.65" height="1.68"/><rect class="cls-1" x="449.29" y="39.69" width="0.64" height="0.68"/><rect class="cls-2" x="448.79" y="39.19" width="1.64" height="1.68"/><rect class="cls-1" x="433.06" y="70.83" width="0.65" height="0.69"/><rect class="cls-2" x="432.56" y="70.33" width="1.65" height="1.69"/><rect class="cls-1" x="434.31" y="70.83" width="0.65" height="0.69"/><rect class="cls-2" x="433.81" y="70.33" width="1.65" height="1.69"/><rect class="cls-1" x="435.57" y="70.83" width="0.65" height="0.69"/><rect class="cls-2" x="435.07" y="70.33" width="1.65" height="1.69"/><rect class="cls-1" x="436.82" y="70.83" width="0.65" height="0.69"/><rect class="cls-2" x="436.32" y="70.33" width="1.64" height="1.69"/><rect class="cls-1" x="438.07" y="70.83" width="0.65" height="0.69"/><rect class="cls-2" x="437.57" y="70.33" width="1.65" height="1.69"/><rect class="cls-1" x="439.33" y="70.83" width="0.65" height="0.69"/><rect class="cls-2" x="438.83" y="70.33" width="1.65" height="1.69"/><rect class="cls-1" x="440.58" y="70.83" width="0.64" height="0.69"/><rect class="cls-2" x="440.08" y="70.33" width="1.65" height="1.69"/><rect class="cls-1" x="441.83" y="70.83" width="0.64" height="0.69"/><rect class="cls-2" x="441.33" y="70.33" width="1.64" height="1.69"/><rect class="cls-1" x="443.09" y="70.83" width="0.65" height="0.69"/><rect class="cls-2" x="442.59" y="70.33" width="1.65" height="1.69"/><rect class="cls-1" x="444.34" y="70.83" width="0.65" height="0.69"/><rect class="cls-2" x="443.84" y="70.33" width="1.65" height="1.69"/><rect class="cls-1" x="445.53" y="70.83" width="0.64" height="0.69"/><rect class="cls-2" x="445.03" y="70.33" width="1.64" height="1.69"/><rect class="cls-1" x="446.79" y="70.83" width="0.65" height="0.69"/><rect class="cls-2" x="446.29" y="70.33" width="1.65" height="1.69"/><rect class="cls-1" x="448.04" y="70.83" width="0.65" height="0.69"/><rect class="cls-2" x="447.54" y="70.33" width="1.65" height="1.69"/><rect class="cls-1" x="449.29" y="70.83" width="0.64" height="0.69"/><rect class="cls-2" x="448.79" y="70.33" width="1.64" height="1.69"/><rect class="cls-1" x="433.06" y="72.28" width="0.65" height="0.69"/><rect class="cls-2" x="432.56" y="71.78" width="1.65" height="1.69"/><rect class="cls-1" x="434.31" y="72.28" width="0.65" height="0.69"/><rect class="cls-2" x="433.81" y="71.78" width="1.65" height="1.69"/><rect class="cls-1" x="435.57" y="72.28" width="0.65" height="0.69"/><rect class="cls-2" x="435.07" y="71.78" width="1.65" height="1.69"/><rect class="cls-1" x="436.82" y="72.28" width="0.65" height="0.69"/><rect class="cls-2" x="436.32" y="71.78" width="1.64" height="1.69"/><rect class="cls-1" x="438.07" y="72.28" width="0.65" height="0.69"/><rect class="cls-2" x="437.57" y="71.78" width="1.65" height="1.69"/><rect class="cls-1" x="439.33" y="72.28" width="0.65" height="0.69"/><rect class="cls-2" x="438.83" y="71.78" width="1.65" height="1.69"/><rect class="cls-1" x="440.58" y="72.28" width="0.64" height="0.69"/><rect class="cls-2" x="440.08" y="71.78" width="1.65" height="1.69"/><rect class="cls-1" x="441.83" y="72.28" width="0.64" height="0.69"/><rect class="cls-2" x="441.33" y="71.78" width="1.64" height="1.69"/><rect class="cls-1" x="443.09" y="72.28" width="0.65" height="0.69"/><rect class="cls-2" x="442.59" y="71.78" width="1.65" height="1.69"/><rect class="cls-1" x="444.34" y="72.28" width="0.65" height="0.69"/><rect class="cls-2" x="443.84" y="71.78" width="1.65" height="1.69"/><rect class="cls-1" x="445.53" y="72.28" width="0.64" height="0.69"/><rect class="cls-2" x="445.03" y="71.78" width="1.64" height="1.69"/><rect class="cls-1" x="446.79" y="72.28" width="0.65" height="0.69"/><rect class="cls-2" x="446.29" y="71.78" width="1.65" height="1.69"/><rect class="cls-1" x="448.04" y="72.28" width="0.65" height="0.69"/><rect class="cls-2" x="447.54" y="71.78" width="1.65" height="1.69"/><rect class="cls-1" x="449.29" y="72.28" width="0.64" height="0.69"/><rect class="cls-2" x="448.79" y="71.78" width="1.64" height="1.69"/><rect class="cls-1" x="431.7" y="111.72" width="0.79" height="0.83"/><rect class="cls-2" x="431.2" y="111.22" width="1.79" height="1.83"/><rect class="cls-1" x="433.22" y="111.72" width="0.79" height="0.83"/><rect class="cls-2" x="432.72" y="111.22" width="1.79" height="1.83"/><rect class="cls-1" x="434.74" y="111.72" width="0.79" height="0.83"/><rect class="cls-2" x="434.24" y="111.22" width="1.79" height="1.83"/><rect class="cls-1" x="436.27" y="111.72" width="0.79" height="0.83"/><rect class="cls-2" x="435.77" y="111.22" width="1.79" height="1.83"/><rect class="cls-1" x="437.8" y="111.72" width="0.79" height="0.83"/><rect class="cls-2" x="437.3" y="111.22" width="1.79" height="1.83"/><rect class="cls-1" x="439.32" y="111.72" width="0.79" height="0.83"/><rect class="cls-2" x="438.82" y="111.22" width="1.79" height="1.83"/><rect class="cls-1" x="440.85" y="111.72" width="0.79" height="0.83"/><rect class="cls-2" x="440.35" y="111.22" width="1.79" height="1.83"/><rect class="cls-1" x="442.37" y="111.72" width="0.79" height="0.83"/><rect class="cls-2" x="441.87" y="111.22" width="1.79" height="1.83"/><rect class="cls-1" x="443.9" y="111.72" width="0.78" height="0.83"/><rect class="cls-2" x="443.4" y="111.22" width="1.79" height="1.83"/><rect class="cls-1" x="445.42" y="111.72" width="0.79" height="0.83"/><rect class="cls-2" x="444.92" y="111.22" width="1.79" height="1.83"/><rect class="cls-1" x="446.88" y="111.72" width="0.79" height="0.83"/><rect class="cls-2" x="446.38" y="111.22" width="1.79" height="1.83"/><rect class="cls-1" x="448.4" y="111.72" width="0.79" height="0.83"/><rect class="cls-2" x="447.9" y="111.22" width="1.79" height="1.83"/><rect class="cls-1" x="449.93" y="111.72" width="0.79" height="0.83"/><rect class="cls-2" x="449.43" y="111.22" width="1.79" height="1.83"/><rect class="cls-1" x="451.45" y="111.72" width="0.78" height="0.83"/><rect class="cls-2" x="450.96" y="111.22" width="1.78" height="1.83"/><rect class="cls-1" x="431.7" y="113.48" width="0.79" height="0.83"/><rect class="cls-2" x="431.2" y="112.98" width="1.79" height="1.83"/><rect class="cls-1" x="433.22" y="113.48" width="0.79" height="0.83"/><rect class="cls-2" x="432.72" y="112.98" width="1.79" height="1.83"/><rect class="cls-1" x="434.74" y="113.48" width="0.79" height="0.83"/><rect class="cls-2" x="434.24" y="112.98" width="1.79" height="1.83"/><rect class="cls-1" x="436.27" y="113.48" width="0.79" height="0.83"/><rect class="cls-2" x="435.77" y="112.98" width="1.79" height="1.83"/><rect class="cls-1" x="437.8" y="113.48" width="0.79" height="0.83"/><rect class="cls-2" x="437.3" y="112.98" width="1.79" height="1.83"/><rect class="cls-1" x="439.32" y="113.48" width="0.79" height="0.83"/><rect class="cls-2" x="438.82" y="112.98" width="1.79" height="1.83"/><rect class="cls-1" x="440.85" y="113.48" width="0.79" height="0.83"/><rect class="cls-2" x="440.35" y="112.98" width="1.79" height="1.83"/><rect class="cls-1" x="442.37" y="113.48" width="0.79" height="0.83"/><rect class="cls-2" x="441.87" y="112.98" width="1.79" height="1.83"/><rect class="cls-1" x="443.9" y="113.48" width="0.78" height="0.83"/><rect class="cls-2" x="443.4" y="112.98" width="1.79" height="1.83"/><rect class="cls-1" x="445.42" y="113.48" width="0.79" height="0.83"/><rect class="cls-2" x="444.92" y="112.98" width="1.79" height="1.83"/><rect class="cls-1" x="446.88" y="113.48" width="0.79" height="0.83"/><rect class="cls-2" x="446.38" y="112.98" width="1.79" height="1.83"/><rect class="cls-1" x="448.4" y="113.48" width="0.79" height="0.83"/><rect class="cls-2" x="447.9" y="112.98" width="1.79" height="1.83"/><rect class="cls-1" x="449.93" y="113.48" width="0.79" height="0.83"/><rect class="cls-2" x="449.43" y="112.98" width="1.79" height="1.83"/><rect class="cls-1" x="451.45" y="113.48" width="0.78" height="0.83"/><rect class="cls-2" x="450.96" y="112.98" width="1.78" height="1.83"/><path class="cls-1" d="M113.89,123.94v.67a4.3,4.3,0,0,0-8.6,0v-.67a4.3,4.3,0,0,1,8.6,0Z"/><path class="cls-2" d="M114.39,124.61h-1a3.8,3.8,0,0,0-7.6,0h-1v-.67a4.8,4.8,0,0,1,9.6,0Z"/><path class="cls-1" d="M124.27,123.94v.67a4.3,4.3,0,0,0-8.59,0v-.67a4.3,4.3,0,1,1,8.59,0Z"/><path class="cls-2" d="M124.77,124.61h-1a3.8,3.8,0,0,0-7.59,0h-1v-.67a4.8,4.8,0,1,1,9.59,0Z"/><path class="cls-1" d="M134.66,123.94v.67a4.3,4.3,0,0,0-8.59,0v-.67a4.3,4.3,0,1,1,8.59,0Z"/><path class="cls-2" d="M135.16,124.61h-1a3.8,3.8,0,0,0-7.59,0h-1v-.67a4.8,4.8,0,1,1,9.59,0Z"/><path class="cls-1" d="M203,123.94v.67a4.3,4.3,0,0,0-8.6,0v-.67a4.3,4.3,0,0,1,8.6,0Z"/><path class="cls-2" d="M203.47,124.61h-1a3.8,3.8,0,0,0-7.6,0h-1v-.67a4.8,4.8,0,0,1,9.6,0Z"/><path class="cls-1" d="M213.35,123.94v.67a4.3,4.3,0,0,0-8.59,0v-.67a4.3,4.3,0,1,1,8.59,0Z"/><path class="cls-2" d="M213.85,124.61h-1a3.8,3.8,0,0,0-7.59,0h-1v-.67a4.8,4.8,0,1,1,9.59,0Z"/><path class="cls-1" d="M223.74,123.94v.67a4.3,4.3,0,0,0-8.59,0v-.67a4.3,4.3,0,1,1,8.59,0Z"/><path class="cls-2" d="M224.24,124.61h-1a3.8,3.8,0,0,0-7.59,0h-1v-.67a4.8,4.8,0,1,1,9.59,0Z"/><path class="cls-1" d="M158.73,123.94v.67a4.3,4.3,0,0,0-8.6,0v-.67a4.3,4.3,0,1,1,8.6,0Z"/><path class="cls-2" d="M159.23,124.61h-1a3.8,3.8,0,0,0-7.6,0h-1v-.67a4.8,4.8,0,1,1,9.6,0Z"/><path class="cls-1" d="M169.11,123.94v.67a4.3,4.3,0,0,0-8.59,0v-.67a4.3,4.3,0,1,1,8.59,0Z"/><path class="cls-2" d="M169.61,124.61h-1a3.8,3.8,0,0,0-7.59,0h-1v-.67a4.8,4.8,0,1,1,9.59,0Z"/><path class="cls-1" d="M179.51,123.94v.67a4.3,4.3,0,0,0-8.59,0v-.67a4.3,4.3,0,1,1,8.59,0Z"/><path class="cls-2" d="M180,124.61h-1a3.8,3.8,0,0,0-7.59,0h-1v-.67a4.8,4.8,0,1,1,9.59,0Z"/><path class="cls-1" d="M90.62,126.83H89.55v-1.69a.54.54,0,0,1,1.07,0Z"/><path class="cls-2" d="M91.12,127.33H89.05v-2.19a1,1,0,0,1,2.07,0Zm-1.05-1h.05v-1.19Z"/><path class="cls-1" d="M96.56,126.83H95.5v-1.69a.53.53,0,0,1,1.06,0Z"/><path class="cls-2" d="M97.06,127.33H95v-2.19a1,1,0,0,1,2.06,0Zm-1-1h0v-1.19Z"/><path class="cls-1" d="M102.71,126.83h-1.06v-1.69a.53.53,0,0,1,1.06,0Z"/><path class="cls-2" d="M103.21,127.33h-2.06v-2.19a1,1,0,1,1,2.06,0Zm-1-1h0v-1.19Z"/><path class="cls-1" d="M227.35,126.83h-1.07v-1.69a.54.54,0,0,1,1.07,0Z"/><path class="cls-2" d="M227.85,127.33h-2.07v-2.19a1,1,0,0,1,2.07,0Zm-1-1h0v-1.19Z"/><path class="cls-1" d="M233.29,126.83h-1.06v-1.69a.53.53,0,1,1,1.06,0Z"/><path class="cls-2" d="M233.79,127.33h-2.06v-2.19a1,1,0,1,1,2.06,0Zm-1-1h0v-1.19Z"/><path class="cls-1" d="M239.44,126.83h-1.06v-1.69a.53.53,0,0,1,1.06,0Z"/><path class="cls-2" d="M239.94,127.33h-2.06v-2.19a1,1,0,0,1,2.06,0Zm-1-1h0v-1.19Z"/><path class="cls-1" d="M88.19,142v2.27a.46.46,0,0,0,.91,0V142Z"/><path class="cls-2" d="M88.65,145.22a1,1,0,0,1-1-.95V141.5H89.6v2.77A1,1,0,0,1,88.65,145.22Z"/><path class="cls-1" d="M94.28,142v2.27a.46.46,0,0,0,.92,0V142Z"/><path class="cls-2" d="M94.74,145.22a1,1,0,0,1-1-.95V141.5H95.7v2.77A1,1,0,0,1,94.74,145.22Z"/><path class="cls-1" d="M100.38,142v2.27a.46.46,0,0,0,.91,0V142Z"/><path class="cls-2" d="M100.84,145.22a1,1,0,0,1-1-.95V141.5h1.91v2.77A1,1,0,0,1,100.84,145.22Z"/><path class="cls-1" d="M106.47,142v2.27a.46.46,0,0,0,.92,0V142Z"/><path class="cls-2" d="M106.93,145.22a1,1,0,0,1-1-.95V141.5h1.92v2.77A1,1,0,0,1,106.93,145.22Z"/><path class="cls-1" d="M112.57,142v2.27a.45.45,0,0,0,.45.45.46.46,0,0,0,.46-.45V142Z"/><path class="cls-2" d="M113,145.22a1,1,0,0,1-1-.95V141.5H114v2.77A1,1,0,0,1,113,145.22Z"/><path class="cls-1" d="M118.66,142v2.27a.46.46,0,0,0,.46.45.45.45,0,0,0,.45-.45V142Z"/><path class="cls-2" d="M119.12,145.22a1,1,0,0,1-1-.95V141.5h1.91v2.77A1,1,0,0,1,119.12,145.22Z"/><path class="cls-1" d="M124.75,142v2.27a.46.46,0,0,0,.92,0V142Z"/><path class="cls-2" d="M125.21,145.22a1,1,0,0,1-1-.95V141.5h1.92v2.77A1,1,0,0,1,125.21,145.22Z"/><path class="cls-1" d="M130.85,142v2.27a.46.46,0,0,0,.91,0V142Z"/><path class="cls-2" d="M131.31,145.22a1,1,0,0,1-1-.95V141.5h1.91v2.77A1,1,0,0,1,131.31,145.22Z"/><path class="cls-1" d="M136.94,142v2.27a.46.46,0,0,0,.92,0V142Z"/><path class="cls-2" d="M137.4,145.22a1,1,0,0,1-1-.95V141.5h1.92v2.77A1,1,0,0,1,137.4,145.22Z"/><path class="cls-1" d="M143,142v2.27a.45.45,0,0,0,.45.45.46.46,0,0,0,.46-.45V142Z"/><path class="cls-2" d="M143.49,145.22a1,1,0,0,1-1-.95V141.5h1.91v2.77A1,1,0,0,1,143.49,145.22Z"/><path class="cls-1" d="M149.13,142v2.27a.46.46,0,0,0,.91,0V142Z"/><path class="cls-2" d="M149.59,145.22a1,1,0,0,1-1-.95V141.5h1.91v2.77A1,1,0,0,1,149.59,145.22Z"/><path class="cls-1" d="M155.22,142v2.27a.46.46,0,0,0,.92,0V142Z"/><path class="cls-2" d="M155.68,145.22a1,1,0,0,1-1-.95V141.5h1.92v2.77A1,1,0,0,1,155.68,145.22Z"/><path class="cls-1" d="M161.32,142v2.27a.46.46,0,0,0,.91,0V142Z"/><path class="cls-2" d="M161.78,145.22a1,1,0,0,1-1-.95V141.5h1.91v2.77A1,1,0,0,1,161.78,145.22Z"/><path class="cls-1" d="M167.41,142v2.27a.46.46,0,0,0,.46.45.45.45,0,0,0,.45-.45V142Z"/><path class="cls-2" d="M167.87,145.22a1,1,0,0,1-1-.95V141.5h1.91v2.77A1,1,0,0,1,167.87,145.22Z"/><path class="cls-1" d="M173.5,142v2.27a.46.46,0,0,0,.92,0V142Z"/><path class="cls-2" d="M174,145.22a1,1,0,0,1-1-.95V141.5h1.92v2.77A1,1,0,0,1,174,145.22Z"/><path class="cls-1" d="M179.6,142v2.27a.46.46,0,0,0,.91,0V142Z"/><path class="cls-2" d="M180.06,145.22a1,1,0,0,1-1-.95V141.5H181v2.77A1,1,0,0,1,180.06,145.22Z"/><path class="cls-1" d="M185.69,142v2.27a.46.46,0,0,0,.92,0V142Z"/><path class="cls-2" d="M186.15,145.22a1,1,0,0,1-1-.95V141.5h1.92v2.77A1,1,0,0,1,186.15,145.22Z"/><path class="cls-1" d="M191.79,142v2.27a.45.45,0,0,0,.45.45.46.46,0,0,0,.46-.45V142Z"/><path class="cls-2" d="M192.24,145.22a1,1,0,0,1-1-.95V141.5h1.91v2.77A1,1,0,0,1,192.24,145.22Z"/><path class="cls-1" d="M197.88,142v2.27a.46.46,0,0,0,.46.45.45.45,0,0,0,.45-.45V142Z"/><path class="cls-2" d="M198.34,145.22a1,1,0,0,1-1-.95V141.5h1.91v2.77A1,1,0,0,1,198.34,145.22Z"/><path class="cls-1" d="M204,142v2.27a.45.45,0,0,0,.45.45.46.46,0,0,0,.46-.45V142Z"/><path class="cls-2" d="M204.43,145.22a1,1,0,0,1-1-.95V141.5h1.91v2.77A1,1,0,0,1,204.43,145.22Z"/><path class="cls-1" d="M210.07,142v2.27a.46.46,0,0,0,.91,0V142Z"/><path class="cls-2" d="M210.53,145.22a1,1,0,0,1-1-.95V141.5h1.91v2.77A1,1,0,0,1,210.53,145.22Z"/><path class="cls-1" d="M216.16,142v2.27a.46.46,0,0,0,.92,0V142Z"/><path class="cls-2" d="M216.62,145.22a1,1,0,0,1-1-.95V141.5h1.92v2.77A1,1,0,0,1,216.62,145.22Z"/><path class="cls-1" d="M222.26,142v2.27a.46.46,0,0,0,.91,0V142Z"/><path class="cls-2" d="M222.71,145.22a1,1,0,0,1-1-.95V141.5h1.91v2.77A1,1,0,0,1,222.71,145.22Z"/><path class="cls-1" d="M228.35,142v2.27a.46.46,0,0,0,.46.45.45.45,0,0,0,.45-.45V142Z"/><path class="cls-2" d="M228.81,145.22a1,1,0,0,1-1-.95V141.5h1.91v2.77A1,1,0,0,1,228.81,145.22Z"/><path class="cls-1" d="M234.44,142v2.27a.46.46,0,0,0,.92,0V142Z"/><path class="cls-2" d="M234.9,145.22a1,1,0,0,1-1-.95V141.5h1.92v2.77A1,1,0,0,1,234.9,145.22Z"/><path class="cls-1" d="M240.54,142v2.27a.46.46,0,0,0,.91,0V142Z"/><path class="cls-2" d="M241,145.22a1,1,0,0,1-1-.95V141.5H242v2.77A1,1,0,0,1,241,145.22Z"/><rect class="cls-1" x="0.5" y="158.51" width="457.64" height="14.18"/><path class="cls-2" d="M458.65,173.19H0V158H458.65ZM1,172.19H457.65V159H1Z"/></svg>