<?xml version="1.0" encoding="utf-8"?>
<!-- Generator: Adobe Illustrator 25.4.1, SVG Export Plug-In . SVG Version: 6.00 Build 0)  -->
<svg version="1.1" id="Layer_1" xmlns="http://www.w3.org/2000/svg" xmlns:xlink="http://www.w3.org/1999/xlink" x="0px" y="0px"
	 viewBox="0 0 4413.6 2757" style="enable-background:new 0 0 4413.6 2757;" xml:space="preserve">
<style type="text/css">
	.st0{fill:#2E3191;}
	.st1{fill:#F7981D;}
</style>
<g>
	<g>
		<g>
			<path class="st0" d="M872.3,1322.4v129.1H684.2v560H518v-560H334.2v-129.1L872.3,1322.4L872.3,1322.4z"/>
			<path class="st0" d="M1353.5,1796h-339v4.4c0,36.5,14.2,63.1,42.7,79.8c28.4,16.8,64.2,25.2,107.2,25.2c29.9,0,56.1-2.9,78.7-8.7
				c22.6-5.8,41.6-12.8,56.9-20.8l29.5,111.6c-19.7,9.5-44.7,17.9-74.9,25.2c-30.3,7.3-67.3,10.9-111,10.9
				c-39.4,0-76.7-5.3-112.1-15.9c-35.4-10.6-66.4-26.8-93-48.7c-26.6-21.9-47.8-49.6-63.4-83.1c-15.7-33.5-23.5-73.6-23.5-120.3
				c0-41.6,6.4-79.6,19.1-114.3c12.8-34.6,30.8-64.3,54.1-89.1c23.3-24.8,51.2-43.9,83.7-57.4c32.4-13.5,68.4-20.2,107.7-20.2
				c72.2,0,129.8,21.9,172.8,65.6c43,43.8,64.5,106.1,64.5,187L1353.5,1796L1353.5,1796z M1188.4,1685.5c0-12.4-1.5-24.4-4.4-36.1
				c-2.9-11.7-7.5-22-13.7-31.2c-6.2-9.1-14.2-16.4-24.1-21.9c-9.8-5.5-21.7-8.2-35.5-8.2c-25.5,0-46.7,8.9-63.4,26.8
				c-16.8,17.9-26.6,42.1-29.5,72.7L1188.4,1685.5z"/>
			<path class="st0" d="M1616,1840.8v170.6h-160.8v-782H1616v456.1l164-199.1h195.8l-198,220.9l206.7,304h-190.3l-138.9-211.1
				L1616,1840.8z"/>
			<path class="st1" d="M2294.1,1309.3c48.1,0,89.7,4.9,124.7,14.8c35,9.8,65.2,21.7,90.8,35.5l-37.2,121.4
				c-28.4-14.6-57.1-26.1-85.9-34.5c-28.8-8.4-56.3-12.6-82.6-12.6c-33.6,0-59.1,6.2-76.6,18.6c-17.5,12.4-26.2,28.8-26.2,49.2
				c0,23.3,8.4,40.3,25.2,50.9c16.8,10.6,42.7,21.7,77.7,33.4l64.5,20.8c25.5,8.7,49.2,19.5,71.1,32.3
				c21.9,12.8,40.6,27.5,56.3,44.3c15.7,16.8,27.9,35.7,36.6,56.9c8.7,21.2,13.1,44.1,13.1,68.9c0,29.2-5.5,56.7-16.4,82.6
				c-10.9,25.9-27.5,48.7-49.8,68.4c-22.3,19.7-50.3,35.2-84.2,46.5c-33.9,11.3-73.8,17-119.8,17c-43,0-84-4.6-123-13.7
				c-39-9.1-74.9-22-107.7-38.8l37.2-121.4c31.3,15.3,62,27.3,91.9,36.1c29.9,8.7,61.2,13.1,94.1,13.1c38.6,0,66.5-6.4,83.7-19.1
				c17.1-12.8,25.7-30.1,25.7-51.9c0-7.3-1.5-14.6-4.4-21.9c-2.9-7.3-8.6-14.6-16.9-21.9c-8.4-7.3-20.1-14.4-35-21.3
				c-15-6.9-34.1-14-57.4-21.3l-53.6-18.6c-25.5-9.5-49.2-20-71.1-31.7c-21.9-11.7-40.7-25.5-56.3-41.6
				c-15.7-16-27.9-34.6-36.6-55.8c-8.7-21.1-13.1-46.3-13.1-75.5c0-29.9,5.6-57.6,16.9-83.1c11.3-25.5,28.1-47.6,50.3-66.2
				c22.2-18.6,49.6-33.2,82-43.8C2214.4,1314.6,2251.8,1309.3,2294.1,1309.3z"/>
			<path class="st1" d="M2653.9,2011.5v-782h159.7v782H2653.9z"/>
			<path class="st1" d="M2954.6,1532.4c29.9-17.5,63.6-31.5,101.2-42.1c37.5-10.6,76-15.9,115.4-15.9c64.9,0,117,15.7,156.4,47
				c39.4,31.4,59.1,81.3,59.1,149.8v340.1H3263l-14.2-52.5h-4.4c-14.6,19-34.8,34.5-60.7,46.5c-25.9,12-56.3,18-91.3,18
				c-29.9,0-56-4.4-78.2-13.1c-22.3-8.7-40.7-20.4-55.2-35c-14.6-14.6-25.7-31.9-33.4-51.9c-7.7-20-11.5-41.4-11.5-64
				c0-30.6,6.7-56.9,20.2-78.7c13.5-21.9,31.7-39.7,54.7-53.6c23-13.8,49.9-24.1,80.9-30.6c31-6.6,64-9.8,99-9.8h54.7v-28.4
				c0-19.7-6.9-34.8-20.8-45.4c-13.9-10.6-33.5-15.9-59.1-15.9c-21.9,0-43.4,3.3-64.5,9.8c-21.2,6.6-44.5,17.1-70,31.7
				L2954.6,1532.4z M3224.8,1785.1l-36.1,1.1c-20.4,0.7-37.6,2.9-51.4,6.6c-13.9,3.7-25,8.2-33.4,13.7c-8.4,5.5-14.4,12-18,19.7
				c-3.7,7.7-5.5,15.5-5.5,23.5c0,22.6,6.7,38.1,20.2,46.5c13.5,8.4,29,12.6,46.5,12.6s33.4-5.1,47.6-15.3
				c14.2-10.2,24.2-21.5,30.1-33.9V1785.1z"/>
			<path class="st1" d="M3840.5,1602.4H3706v222c0,24.1,5.3,40.8,15.9,50.3c10.6,9.5,25.3,14.2,44.3,14.2c14.6,0,29.2-1.5,43.8-4.4
				c14.6-2.9,25.9-6.9,33.9-12l24.1,110.5c-12.4,6.6-31.2,13-56.3,19.1c-25.2,6.2-51.9,9.3-80.4,9.3c-67.8,0-115.8-13.1-143.8-39.4
				c-28.1-26.2-42.1-66-42.1-119.2v-250.5h-82v-115.9h82v-159.7H3706v159.7h134.5L3840.5,1602.4L3840.5,1602.4z"/>
			<path class="st1" d="M4413.6,1796h-339v4.4c0,36.5,14.2,63.1,42.7,79.8c28.4,16.8,64.2,25.2,107.2,25.2c29.9,0,56.1-2.9,78.7-8.7
				c22.6-5.8,41.6-12.8,56.9-20.8l29.5,111.6c-19.7,9.5-44.7,17.9-74.9,25.2c-30.3,7.3-67.3,10.9-111,10.9
				c-39.4,0-76.7-5.3-112.1-15.9c-35.4-10.6-66.4-26.8-93-48.7c-26.6-21.9-47.8-49.6-63.4-83.1c-15.7-33.5-23.5-73.6-23.5-120.3
				c0-41.6,6.4-79.6,19.1-114.3c12.8-34.6,30.8-64.3,54.1-89.1c23.3-24.8,51.2-43.9,83.7-57.4c32.4-13.5,68.4-20.2,107.7-20.2
				c72.2,0,129.8,21.9,172.8,65.6c43,43.8,64.5,106.1,64.5,187L4413.6,1796L4413.6,1796z M4248.4,1685.5c0-12.4-1.5-24.4-4.4-36.1
				c-2.9-11.7-7.5-22-13.7-31.2c-6.2-9.1-14.2-16.4-24.1-21.9c-9.8-5.5-21.7-8.2-35.5-8.2c-25.5,0-46.7,8.9-63.4,26.8
				c-16.8,17.9-26.6,42.1-29.5,72.7L4248.4,1685.5z"/>
		</g>
	</g>
</g>
<polygon class="st0" points="2813,0 2813,964 2654.1,964 2654.1,158.9 158.9,158.9 158.9,2598.1 2654.1,2598.1 2654.1,2274.4 
	2813,2274.4 2813,2757 0,2757 0,0 "/>
</svg>
