<svg xmlns="http://www.w3.org/2000/svg" xmlns:xlink="http://www.w3.org/1999/xlink" viewBox="0 0 299.98 300.15"><defs><style>.cls-1{fill:none;}.cls-2{isolation:isolate;}.cls-3{clip-path:url(#clip-path);}.cls-4{fill:#dbdbdb;}.cls-5{fill:url(#linear-gradient);}.cls-6{fill:url(#linear-gradient-2);}.cls-7{fill:#a8a8a8;}.cls-8,.cls-9{mix-blend-mode:darken;}.cls-8{fill:url(#radial-gradient);}.cls-9{fill:url(#radial-gradient-2);}.cls-10{fill:#eaeaea;}.cls-11{fill:#f9f7f7;}</style><clipPath id="clip-path" transform="translate(-0.02)"><circle class="cls-1" cx="150" cy="150.07" r="150.07"/></clipPath><linearGradient id="linear-gradient" x1="93.31" y1="249.17" x2="202.39" y2="249.17" gradientUnits="userSpaceOnUse"><stop offset="0" stop-color="#a1a1a1"/><stop offset="0.06" stop-color="#b2b2b2"/><stop offset="0.19" stop-color="#d4d4d4"/><stop offset="0.31" stop-color="#ececec"/><stop offset="0.43" stop-color="#fafafa"/><stop offset="0.52" stop-color="#fff"/><stop offset="0.64" stop-color="#fcfcfb"/><stop offset="0.75" stop-color="#f1f1f1"/><stop offset="0.86" stop-color="#dfdfde"/><stop offset="0.96" stop-color="#c6c6c5"/><stop offset="1" stop-color="#babab9"/></linearGradient><linearGradient id="linear-gradient-2" x1="150.01" y1="306.71" x2="150.01" y2="193.5" gradientUnits="userSpaceOnUse"><stop offset="0" stop-color="#f2f2f2"/><stop offset="0.31" stop-color="#efefef"/><stop offset="0.55" stop-color="#e5e5e5"/><stop offset="0.77" stop-color="#d5d5d5"/><stop offset="0.96" stop-color="#bfbfbe"/><stop offset="1" stop-color="#babab9"/></linearGradient><radialGradient id="radial-gradient" cx="615.51" cy="907.33" r="58.64" gradientTransform="translate(-177.87 -178.5) scale(0.49 0.49)" gradientUnits="userSpaceOnUse"><stop offset="0" stop-color="#8a8a8a"/><stop offset="0.09" stop-color="#a0a0a0"/><stop offset="0.24" stop-color="#bebebe"/><stop offset="0.4" stop-color="#d5d5d5"/><stop offset="0.56" stop-color="#e5e5e5"/><stop offset="0.75" stop-color="#efefef"/><stop offset="1" stop-color="#f2f2f2"/></radialGradient><radialGradient id="radial-gradient-2" cx="710.6" cy="903.33" r="61.09" xlink:href="#radial-gradient"/></defs><g class="cls-2"><g id="Layer_1" data-name="Layer 1"><g class="cls-3"><rect class="cls-4" width="299.98" height="300.15"/><path class="cls-5" d="M202.39,269.65c-36.13-12.79-72.66-12.36-109.08,0V235.48c36.66-9.37,73-8.76,109.08,0Z" transform="translate(-0.02)"/><path class="cls-6" d="M187.05,206.38c-2.73,0,2.19,34.63,4.71,42.94,3.37,11.08,24.36,19.67,45.94,26.21,9.9,3,28.2,16.21,30.73,21.34,1.45,2.94,1.37,3.28,1.37,3.28H30.22l15.09-14.5a37.59,37.59,0,0,1,16.62-9.29l7.35-1.9,9-4.24a28.21,28.21,0,0,0,4.88-3l18.45-14a29,29,0,0,0,5.3-18.16c-.48-10.94-.48-28.73-.48-28.73Z" transform="translate(-0.02)"/><polygon class="cls-7" points="134.09 299.85 161.84 299.85 153.74 289.64 142.49 289.64 134.09 299.85"/><path class="cls-7" d="M145.36,265.48l-15.3,15.31s3.05,12.69,9.9,11.4c.65-.12-.05.59,3.06,2,3.3,1.48,7.45-.05,10.58-.48a13,13,0,0,0,9.46-6.36l3.75-6.4-14.55-14.86Z" transform="translate(-0.02)"/><path class="cls-8" d="M86.12,265.33S111.31,286,129,288.14c1.43.17,5.1.3,5.7-.6l13.87-21.46-51.67-17Z" transform="translate(-0.02)"/><path class="cls-9" d="M211.25,265.63s-25.2,20.71-42.9,22.81c-1.42.17-5.1.3-5.7-.6l-13.86-21.46,51.66-17Z" transform="translate(-0.02)"/><path class="cls-10" d="M91.47,174.54s7.64,37.46,26.86,49.09c30,18.15,50.63,2.75,50.63,2.75s23.95-21.44,27.87-34.08a181.16,181.16,0,0,0,4.74-17.76,7.33,7.33,0,0,0,5.27-2.61c2.11-2.61,2.64-19.32,4.22-24s2.63-12.53-2.64-12-7.9,9.4-7.9,9.4,9.95-34.15,6.79-43.55S201.05,91,188.4,83.16s-18.93-14-26.69-11.42-44,4.25-54,.6-19.41,27-21,34.81S90.94,139,91.47,145.3l.52,6.27s-3.68-16.71-6.85-17.76-9-1-7.9,11.49,2.33,2.83,6.85,26.11C86.73,185,91.47,174.54,91.47,174.54Z" transform="translate(-0.02)"/><path class="cls-11" d="M93.25,235.73s-4.6,27-7.54,27.76,32.64,18.27,45.72,20c0,0,7.86-13.6,16.66-17.71C148.09,265.74,95.06,247.76,93.25,235.73Z" transform="translate(-0.02)"/><path class="cls-11" d="M202.49,235.48s4.83,27,7.74,27.68-32.07,18.62-45,20.44c0,0-7.91-13.5-16.66-17.52C148.58,266.08,200.82,247.53,202.49,235.48Z" transform="translate(-0.02)"/><path class="cls-7" d="M91.81,143.41s-4.38-13.77-3.41-20.66-3.9-34.91,12.66-39.83,30.18.49,34.56-.49,21.53-9,27.75-7.38c7,1.79,31.15,21.15,37,21.15,0,0,2.49,14.5,3.95,17s-1.51,22.38-1.51,25.33a19.33,19.33,0,0,0,1,7.37s1.46-5.4,1.95-8.85,6.33-12.29,6.33-12.29,4.87-29.51,3.89-31.47,4.87-4.43-3.89-20.66-47.71-39.83-63.77-41.8-38.46,0-47.71,25.57c0,0-24.34,5.41-27.75,31S88.4,131.11,88.4,139s2.43,12.29,2.43,12.29Z" transform="translate(-0.02)"/><path class="cls-7" d="M202.18,144.27c.44,1.21-4-.72-4-.72s-5.46,16.08-8.4,16.88-31.61,1-33.57-1.47c-1.44-1.81-3.54-8.52-4.56-12-4.34-2.63-8.25-1.15-11,.87-1.09,3.62-3,9.45-4.3,11.12-2,2.47-30.65,2.27-33.58,1.47s-8.39-16.88-8.39-16.88-4.49,1.93-4,.72c.72-2-1.06-5.77-2.48-8.17a8,8,0,0,0,5.85,1.75s1.38-2.65,5.86-2.8c11.5-.36,32-1.94,43.6,3,3.7.52,4.33.37,6.23,0,11.61-5,32.1-3.41,43.6-3,4.48.15,5.86,2.8,5.86,2.8a8,8,0,0,0,5.85-1.75C203.24,138.5,201.46,142.28,202.18,144.27Z" transform="translate(-0.02)"/><path class="cls-10" d="M135.61,138.67s-14.1-3.9-34.2-.6c-9.47,1.55,1.8,19.51,2.1,19.81s16.5,2.7,30.3-.3C138.17,156.63,139.81,138.37,135.61,138.67Z" transform="translate(-0.02)"/><path class="cls-10" d="M157.06,138.67s14.1-3.9,34.2-.6c9.48,1.55-1.8,19.51-2.1,19.81s-16.5,2.7-30.3-.3C154.5,156.63,152.86,138.37,157.06,138.67Z" transform="translate(-0.02)"/><path class="cls-7" d="M204.2,134.34a6.29,6.29,0,0,1-1.34,1.76C203.91,134.31,204.75,133.29,204.2,134.34Z" transform="translate(-0.02)"/><path class="cls-7" d="M86,136.1a6.29,6.29,0,0,1-1.34-1.76C84.12,133.29,85,134.31,86,136.1Z" transform="translate(-0.02)"/></g></g></g></svg>