<svg id="Layer_1" data-name="Layer 1" xmlns="http://www.w3.org/2000/svg" viewBox="0 0 406.94 198.87"><defs><style>.cls-1,.cls-3{fill:#959fb2;}.cls-1{fill-rule:evenodd;}.cls-2{fill:#fff;}</style></defs><path class="cls-1" d="M282.58,111.77c-.75-3.45.86-7.24,3.38-8.61a41,41,0,0,0,7-5c-.27,0,3.75,3.44,6.58,5,2.49,1.35,4.21,5.17,3.57,8.61h1.44v78.48H281.09V111.77Z" transform="translate(-3.01 -4.71)"/><path class="cls-2" d="M305.05,190.75H280.59V111.27H282c-.48-3.39,1.11-7.13,3.73-8.55A48.38,48.38,0,0,0,292.48,98l.08-.31h.79l.1.35a36.9,36.9,0,0,0,6.33,4.68c2.61,1.42,4.29,5.16,3.91,8.55h1.36Zm-23.46-1h22.46V112.27H302.5l.12-.59c.58-3.09-.94-6.79-3.32-8.08a38.57,38.57,0,0,1-6.37-4.72,51.48,51.48,0,0,1-6.73,4.72c-2.41,1.31-3.81,4.92-3.13,8.07l.13.6h-1.61Z" transform="translate(-3.01 -4.71)"/><path class="cls-1" d="M236.75,65.7h1.76c0-1.63,2-2.94,4.66-3.19l.9-29.82L245,62.51c2.65.25,4.66,1.56,4.66,3.19h2.31L254.67,149v31.42H234V149Z" transform="translate(-3.01 -4.71)"/><path class="cls-2" d="M255.17,181H233.51V149l2.75-83.8h1.8c.32-1.56,2.11-2.79,4.62-3.14l.88-29.39h1l.89,29.39c2.51.35,4.31,1.58,4.62,3.14h2.34l0,.48L255.17,149Zm-20.66-1h19.66V149L251.44,66.2h-2.32v-.5c0-1.31-1.81-2.46-4.21-2.69l-.44,0-.41-13.63L243.66,63l-.44,0c-2.4.23-4.21,1.38-4.21,2.69v.5h-1.78L234.51,149Z" transform="translate(-3.01 -4.71)"/><polygon class="cls-1" points="183.99 109.86 187.13 109.86 187.13 108.11 201.65 96.33 201.65 185.54 183.99 185.54 183.99 109.86"/><path class="cls-2" d="M205.16,190.75H186.49V114.07h3.15v-1.49L205.16,100Zm-17.67-1h16.67V102.09l-13.52,11v2h-3.15Z" transform="translate(-3.01 -4.71)"/><polygon class="cls-1" points="126.48 131.19 128.36 131.19 129.22 124.6 151.51 124.6 152.38 131.19 154.26 131.19 154.26 185.66 126.48 185.66 126.48 145.63 126.48 131.19"/><path class="cls-2" d="M157.77,190.87H129V135.4h2l.86-6.59H155l.86,6.59h2Zm-27.79-1h26.79V136.4h-1.83l-.86-6.59H132.67l-.86,6.59H130Z" transform="translate(-3.01 -4.71)"/><path class="cls-1" d="M188.29,190.92h-19V169.46h19v21.46Zm-.67-.67V170.12H170v20.13Z" transform="translate(-3.01 -4.71)"/><path class="cls-2" d="M188.79,191.42h-20V169h20Zm-18.33-1.67h16.66V170.62H170.46Z" transform="translate(-3.01 -4.71)"/><polygon class="cls-1" points="160.55 130.31 161.49 130.31 161.49 129.12 164.56 129.12 164.99 119.77 165.45 129.12 168.52 129.12 168.52 130.31 169.46 130.31 169.46 185.66 160.55 185.66 160.55 130.31"/><path class="cls-2" d="M173,190.87h-9.92V134.52H164v-1.19h3.09l.41-8.88h1l.44,8.88H172v1.19H173Zm-8.92-1H172V135.52H171v-1.19h-6v1.19h-.95Z" transform="translate(-3.01 -4.71)"/><path class="cls-1" d="M81.13,101.85h3.7v-14h2.89V80.71a7.41,7.41,0,0,1,2.81-5.8c0-4.88,1.49-8,3.27-9L95.13,39l1.33,26.69c1.79.9,3.28,3.9,3.28,9.2a7.41,7.41,0,0,1,2.81,5.8v7.15h2.89v14h3.7v66.07h3.64v19.51H77.49V167.92h3.64Z" transform="translate(-3.01 -4.71)"/><path class="cls-2" d="M113.28,187.93H77V167.42h3.64V101.35h3.7v-14h2.89V80.71a7.88,7.88,0,0,1,2.81-6c0-4.32,1.26-7.68,3.28-9.09L94.63,39h1L97,65.41c2,1.24,3.25,4.66,3.29,9.26a7.88,7.88,0,0,1,2.81,6v6.65h2.89v14h3.7v66.07h3.64Zm-35.29-1h34.29V168.42h-3.64V102.35h-3.7v-14h-2.89V80.71a6.91,6.91,0,0,0-2.62-5.41l-.19-.15v-.24c0-5.34-1.55-8-3-8.76L96,66l-.85-16.94-.85,17.06-.22.14c-1.47.9-3,3.63-3,8.63v.24l-.19.15a6.91,6.91,0,0,0-2.62,5.41v7.65H85.33v14h-3.7v66.07H78Z" transform="translate(-3.01 -4.71)"/><polygon class="cls-1" points="59.91 144.93 62.69 144.93 62.69 138.83 71.84 138.83 71.84 144.93 74.62 144.93 74.62 185.66 59.91 185.66 59.91 144.93"/><path class="cls-2" d="M78.12,190.87H62.42V149.14h2.77V143H75.35v6.1h2.77Zm-14.7-1h13.7V150.14H74.35V144H66.19v6.1H63.42Z" transform="translate(-3.01 -4.71)"/><polygon class="cls-1" points="35.3 142.29 39.05 142.29 39.05 134.6 51.46 134.6 51.46 142.29 55.21 142.29 55.21 185.66 35.3 185.66 35.3 142.29"/><path class="cls-2" d="M58.72,190.87H37.81V146.5h3.75v-7.69H55v7.69h3.75Zm-19.91-1H57.72V147.5H54v-7.69H42.56v7.69H38.81Z" transform="translate(-3.01 -4.71)"/><path class="cls-1" d="M292.34,98a.67.67,0,0,1,.19-.25l.47-.65.4.69a.56.56,0,0,1,.17.25c.1.1.23.22.33.3.29.27.59.52.9.78.84.69,1.72,1.37,2.61,2a24.68,24.68,0,0,0,2.42,1.54,7.79,7.79,0,0,1,3.25,3.84,9.74,9.74,0,0,1,.76,4.68h1.35v79.71H280.42V111.21h1.37a9.62,9.62,0,0,1,.63-4.66,7.55,7.55,0,0,1,3.22-3.86c.91-.5,1.81-1.08,2.68-1.66s1.83-1.29,2.72-2l.95-.75.35-.29Zm-9.88,13.11,7,.6c-2.9,0-5.69.13-8.41.13v78.38h23.44V111.87c-2.78,0-5.57-.13-8.41-.13l7.07-.6c.29-3.23-1.36-6.61-3.67-7.87-2.82-1.52-6.84-5-6.56-5a41.07,41.07,0,0,1-7,5C283.61,104.54,282.06,107.9,282.46,111.14Z" transform="translate(-3.01 -4.71)"/><path class="cls-2" d="M305.69,191.42H279.92V110.71h1.33a10,10,0,0,1,.71-4.35,7.93,7.93,0,0,1,3.44-4.11c1-.52,1.87-1.12,2.63-1.64.93-.62,1.84-1.28,2.71-1.94.32-.24.63-.49.94-.74l.26-.21a1,1,0,0,1,.22-.28l.88-1.22.76,1.29a1.31,1.31,0,0,1,.19.27l.17.15c.36.33.66.58.95.83.86.71,1.73,1.37,2.59,2a22.12,22.12,0,0,0,2.37,1.51,8.28,8.28,0,0,1,3.47,4.08,10.32,10.32,0,0,1,.83,4.38h1.32Zm-24.1-1.67H304V112.37c-1.22,0-2.44,0-3.68-.06-1.4,0-2.81-.07-4.23-.07l0-1,6.64-.56c.1-2.84-1.36-5.84-3.44-7A38.27,38.27,0,0,1,292.91,99a50.58,50.58,0,0,1-6.72,4.71c-2.11,1.15-3.48,4.09-3.28,7l6.63.56-.05,1c-1.47,0-2.91,0-4.33.07-1.21,0-2.4.06-3.57.06Z" transform="translate(-3.01 -4.71)"/><path class="cls-1" d="M306.11,119.08c.27-9.31,15.76-8.77,16,0H324v71.17H303.93V119.08Z" transform="translate(-3.01 -4.71)"/><path class="cls-2" d="M324.52,190.75H303.43V118.58h2.21c.4-4.66,4.51-6.78,8.3-6.78h0c4.05,0,8.2,2.34,8.59,6.78h2Zm-20.09-1h19.09V119.58h-1.93l0-.49c-.09-4.12-3.9-6.28-7.61-6.29h0c-3.56,0-7.2,1.94-7.33,6.3v.48h-2.17Z" transform="translate(-3.01 -4.71)"/><path class="cls-1" d="M305.51,118.49c.94-9.25,16.24-8.79,17.17,0h2v72.34H303.29V118.49Zm.66.11,5.16.55H304v71H324v-71h-7.38l5.4-.58C321.18,110.55,307,110.08,306.17,118.6Z" transform="translate(-3.01 -4.71)"/><path class="cls-2" d="M325.16,191.33H302.79V118h2.28c.71-4.66,4.91-6.76,8.86-6.77h0c4,0,8.43,2.12,9.18,6.77h2Zm-20.71-1.66H323.5v-70h-6.88l-.05-1,4.88-.52c-.67-3.6-4.29-5.25-7.51-5.25h0c-3.18,0-6.55,1.65-7.17,5.28l4.65.49-.05,1h-6.88Z" transform="translate(-3.01 -4.71)"/><path class="cls-1" d="M238,65.21A3.49,3.49,0,0,1,239.75,63a7.6,7.6,0,0,1,2.9-1l.9-29.87h1l.9,29.87a7.6,7.6,0,0,1,2.9,1,3.52,3.52,0,0,1,1.72,2.17h2.34L255.2,149v32H233.48V149l2.75-83.78Zm.55,0,3.68.45c-1.9,0-3.66.07-5.51.07L234,149v31.45h20.66V149l-2.74-83.29c-2,0-3.94-.07-6-.07l3.64-.45c-.37-1.39-2.23-2.49-4.59-2.71l-.89-29.82-.9,29.82C240.82,62.73,239,63.83,238.58,65.22Z" transform="translate(-3.01 -4.71)"/><path class="cls-2" d="M255.7,181.48H233V149l2.77-84.28h1.9a4.27,4.27,0,0,1,1.83-2.1,7.78,7.78,0,0,1,2.68-1l.9-29.95h2l.9,30a7.78,7.78,0,0,1,2.68,1,4.32,4.32,0,0,1,1.83,2.1h2.45v.48L255.7,149ZM234.51,180h19.66V149l-2.73-82.79c-.84,0-1.67,0-2.5,0-1,0-2,0-3,0l-.06-1,3-.37a5.41,5.41,0,0,0-3.91-1.8l-.44,0-.41-13.63L243.66,63l-.44,0a5.42,5.42,0,0,0-3.9,1.79l3,.38-.06,1c-1,0-1.88,0-2.79,0-.74,0-1.49,0-2.24,0L234.51,149ZM244,32.66h0Z" transform="translate(-3.01 -4.71)"/><polygon class="cls-1" points="253.57 106.14 255.73 106.14 255.73 102.09 257.24 102.09 257.24 94.37 258.55 94.37 258.55 88.81 259.68 88.81 259.68 88.34 259.68 76.97 260.41 76.97 260.96 59.08 261.54 76.97 262.29 76.97 262.29 88.34 262.29 88.81 263.42 88.81 263.42 94.37 264.74 94.37 264.74 102.09 266.24 102.09 266.24 106.14 268.41 106.14 268.41 118.09 270.98 118.09 270.98 185.66 260.99 185.66 260.98 185.66 250.99 185.66 250.99 118.09 253.57 118.09 253.57 106.14"/><path class="cls-2" d="M274.49,190.87h-21V122.3h2.57v-12h2.17v-4h1.5V98.58h1.32V93h1.13V81.18h.74l.54-17.4h1L265,81.18h.76V93h1.13v5.56h1.32v7.72h1.51v4h2.16v12h2.58Zm-20-1h19V123.3h-2.58v-12h-2.16v-4h-1.51V99.58h-1.32V94h-1.13V82.18h-.72L264,79.62l-.08,2.56h-.71V94h-1.13v5.56h-1.32v7.72h-1.5v4h-2.17v12H254.5Z" transform="translate(-3.01 -4.71)"/><path class="cls-1" d="M256.57,110.84h2.17v-4.08h1.5V99.08h1.32V93.49h1.13V81.68h.73L264,63.79l.58,17.89h.74V93.49h1.13v5.59h1.32v7.68h1.51v4.08h2.16v12H274v67.57H254V122.8h2.57Z" transform="translate(-3.01 -4.71)"/><path class="cls-2" d="M274.49,190.87h-21V122.3h2.57v-12h2.17v-4.08h1.5V98.58h1.32V93h1.13V81.18h.74l.54-17.4h1L265,81.18h.76V93h1.13v5.59h1.32v7.68h1.51v4.08h2.16v12h2.58Zm-20-1h19V123.3h-2.58v-12h-2.16v-4.08h-1.51V99.58h-1.32V94h-1.13V82.18h-.72L264,79.62l-.08,2.56h-.71V94h-1.13v5.59h-1.32v7.68h-1.5v4.08h-2.17v12H254.5Z" transform="translate(-3.01 -4.71)"/><path class="cls-1" d="M258.07,110.18v-4.05h1.51V98.41h1.32V92.86H262V81h.74l.55-17.89h1.29l.58,17.9H266V92.86h1.13v5.55h1.32v7.72h1.5v4.05h2.17v11.95h2.57V191H253.33V122.13h2.58V110.18Zm-1.5,12.2,4.77.5c-2.51,0-4.92-.08-7.34-.08v67.57h20V122.8c-2.43,0-4.83.08-7.34.08l4.76-.5V110.84l-5.61,0,3.45-.54V106.8c-1.34,0-2.6,0-4,0l2.45-.54V99.08l-2.91,0,1.59-.53v-5l-1.89,0,.76-.4V81.68h-.74L264,63.79l-.55,17.89h-.73V93.1l.76.4-1.89,0v5l1.59.53-2.91,0v7.14l2.46.54c-1.36,0-2.62,0-4,0v3.52l3.45.54-5.62,0Z" transform="translate(-3.01 -4.71)"/><path class="cls-2" d="M275.15,191.54H252.83V121.63h2.58V109.68h2.16v-4.05h1.51V97.91h1.32V92.36h1.12V80.52h.77l.55-17.89h2.26l.58,17.9h.78V92.36h1.13v5.55h1.32v7.72h1.5v4.05h2.17v11.95h2.57Zm-20.65-1.67h19V123.3c-1,0-2.06,0-3.1,0-1.23,0-2.47,0-3.75,0l-.05-1,4.32-.46V111.35H265.8l-.08-1,3-.48V107.3l-1.47,0-2,0H262.7l-2,0-1.47,0v2.59l3,.48-.08,1h-5.12v10.58l4.32.46-.05,1c-1.27,0-2.51,0-3.75,0-1,0-2.06,0-3.09,0Zm6.24-84.05,3.25.71,3.25-.71V99.58h-6.5Zm1.32-7.61,1.93.65,1.93-.65V94h-3.86Zm1.13-5.41.8.42.8-.42V82.18h-.72L264,79.62l-.08,2.56h-.71Zm.62-29.18v.15h.33v-.15Z" transform="translate(-3.01 -4.71)"/><rect class="cls-3" x="265.78" y="132.09" width="11.59" height="54.12"/><path class="cls-2" d="M280.88,191.42H268.29V136.3h12.59Zm-11.59-1h10.59V137.3H269.29Z" transform="translate(-3.01 -4.71)"/><rect class="cls-3" x="266.45" y="132.75" width="10.26" height="52.79"/><path class="cls-2" d="M280.22,190.75H269V137h11.27Zm-10.27-1h9.27V138H270Z" transform="translate(-3.01 -4.71)"/><rect class="cls-3" x="276.04" y="148.46" width="11.59" height="37.75"/><path class="cls-2" d="M291.15,191.42h-12.6V152.67h12.6Zm-11.6-1h10.6V153.67h-10.6Z" transform="translate(-3.01 -4.71)"/><rect class="cls-3" x="276.71" y="149.12" width="10.26" height="36.42"/><path class="cls-2" d="M290.48,190.75H279.22V153.33h11.26Zm-10.26-1h9.26V154.33h-9.26Z" transform="translate(-3.01 -4.71)"/><path class="cls-1" d="M130.78,135.23l.87-6.59H155.1l.87,6.59h2V191H128.82V135.23Zm.68,0,8.08.67c-3.37,0-6.72,0-10.06,0v54.47h27.79V135.9c-3.34,0-6.69,0-10.06,0l8.08-.67-.77-5.89H132.23Z" transform="translate(-3.01 -4.71)"/><path class="cls-2" d="M158.43,191.54H128.32V134.73h2l.86-6.59h24.33l.86,6.59h2ZM130,189.87h26.79V136.4h-4.51l-5,0,0-1,7.56-.63-.65-4.93H132.67l-.65,4.93,7.56.63,0,1-5,0H130Z" transform="translate(-3.01 -4.71)"/><path class="cls-1" d="M163.83,134.42v-1.25h3.1l.43-9.36h1.27l.46,9.36h3.1v1.25h.95V191H162.89V134.42Zm.67.22,2.23.35c-1.16,0-2.11.1-3.18.1v55.28h8.92V135.09c-1.06,0-2-.1-3.17-.1l2.23-.35v-.81h-3.07l-.46-9.35-.44,9.35H164.5Z" transform="translate(-3.01 -4.71)"/><path class="cls-2" d="M173.64,191.54H162.39V133.92h.94v-1.25h3.12l.44-9.36h2.22l.46,9.36h3.12v1.25h.95Zm-9.59-1.67H172V135.58l-1,0c-.52,0-1.05,0-1.63,0l-.08-1,1.05-.17h-4.52l1.06.17-.08,1c-.59,0-1.12,0-1.64,0l-1,0Zm3.79-65.56v.14h.32v-.14Z" transform="translate(-3.01 -4.71)"/><path class="cls-1" d="M189.47,114V112.5l15.85-12.85v91.27h-19V114Zm.67-.17,6.78.74c-3.39,0-6.6.09-9.93.09v75.63h17.67V101l-14.52,11.78Z" transform="translate(-3.01 -4.71)"/><path class="cls-2" d="M205.82,191.42h-20v-78H189v-1.2L205.82,98.6Zm-18.33-1.67h16.67V102.09l-13.52,11v.28L197,114l-.05,1c-1.7,0-3.36,0-5,0-1.47,0-2.93,0-4.42,0Z" transform="translate(-3.01 -4.71)"/><path class="cls-1" d="M199.46,113.17h17v77.75h-17V113.17Zm.66.67v76.41h15.63V113.84Z" transform="translate(-3.01 -4.71)"/><path class="cls-2" d="M216.92,191.42H199V112.67h18Zm-16.3-1.67h14.63V114.34H200.62Z" transform="translate(-3.01 -4.71)"/><rect class="cls-3" x="197.12" y="109.13" width="15.63" height="76.41"/><path class="cls-2" d="M216.25,190.75H199.62V113.34h16.63Zm-15.63-1h14.63V114.34H200.62Z" transform="translate(-3.01 -4.71)"/><path class="cls-1" d="M215.09,136.8h17v54.12h-17V136.8Zm.66.66v52.79h15.63V137.46Z" transform="translate(-3.01 -4.71)"/><path class="cls-2" d="M232.55,191.42h-18V136.3h18Zm-16.3-1.67h14.63V138H216.25Z" transform="translate(-3.01 -4.71)"/><rect class="cls-3" x="212.75" y="132.75" width="15.63" height="52.79"/><path class="cls-2" d="M231.88,190.75H215.25V137h16.63Zm-15.63-1h14.63V138H216.25Z" transform="translate(-3.01 -4.71)"/><rect class="cls-3" x="166.95" y="165.41" width="17.67" height="20.13"/><path class="cls-2" d="M188.12,190.75H169.46V169.62h18.66Zm-17.66-1h16.66V170.62H170.46Z" transform="translate(-3.01 -4.71)"/><path class="cls-1" d="M155.07,145.35h9.12V191h-9.12V145.35Zm.67.66v44.36h7.78V146Z" transform="translate(-3.01 -4.71)"/><path class="cls-2" d="M164.69,191.54H154.57V144.85h10.12Zm-8.45-1.67H163V146.51h-6.78Z" transform="translate(-3.01 -4.71)"/><rect class="cls-3" x="152.73" y="141.3" width="7.79" height="44.36"/><path class="cls-2" d="M164,190.87h-8.78V145.51H164Zm-7.78-1H163V146.51h-6.78Z" transform="translate(-3.01 -4.71)"/><polygon class="cls-1" points="114.81 119.45 126.48 119.45 126.48 143.54 127.99 143.54 127.99 185.66 113.29 185.66 113.29 143.54 114.81 143.54 114.81 119.45"/><path class="cls-2" d="M131.5,190.87H115.8V147.75h1.51V123.66H130v24.09h1.52Zm-14.7-1h13.7V148.75H129V124.66H118.31v24.09H116.8Z" transform="translate(-3.01 -4.71)"/><path class="cls-1" d="M130.15,147.73h1.51V191h-16V147.73h1.52V123.5h13v24.23Zm-12.34.07,3.89.45c-2,0-3.61.15-5.4.15v42H131v-42c-1.8,0-3.45-.15-5.4-.15l3.88-.45V124.16H117.81Z" transform="translate(-3.01 -4.71)"/><path class="cls-2" d="M132.16,191.54h-17V147.23h1.52V123h14v24.23h1.51Zm-15.36-1.67h13.7v-41c-.71,0-1.4,0-2.11-.07-.89,0-1.8-.08-2.79-.08l-.06-1,3.44-.39v-22.7H118.31v22.7l3.45.39-.06,1c-1,0-1.91,0-2.8.08-.7,0-1.39.06-2.1.07Z" transform="translate(-3.01 -4.71)"/><path class="cls-1" d="M65,149v-6.14H75.52V149h2.77v42h-16V149Zm.66.23,3,.41-5.73,0v40.7h14.7v-40.7l-5.73,0,3-.41v-5.7H65.69Z" transform="translate(-3.01 -4.71)"/><path class="cls-2" d="M78.79,191.54h-17v-43h2.77v-6.14H76v6.14h2.77Zm-15.37-1.67h13.7v-39.7H71.89l-.07-1,2.53-.35V144H66.19v4.76l2.53.35-.06,1H63.42Z" transform="translate(-3.01 -4.71)"/><path class="cls-1" d="M41.4,146.33v-7.69H55.13v7.69h3.75V191H37.64V146.33Zm.66.32,4.12.4c-2.68,0-5.21-.05-7.87-.05v43.37H58.22V147c-2.66,0-5.2.05-7.88.05l4.13-.4v-7.34H42.06Z" transform="translate(-3.01 -4.71)"/><path class="cls-2" d="M59.38,191.54H37.14V145.83H40.9v-7.69H55.63v7.69h3.75Zm-20.57-1.67H57.72V147.5q-1.72,0-3.42,0l-4,0,0-1,3.67-.37v-6.38H42.56v6.38l3.67.37,0,1-4,0c-1.14,0-2.27,0-3.42,0Z" transform="translate(-3.01 -4.71)"/><path class="cls-1" d="M89.9,75a16.77,16.77,0,0,1,1-5.84,7.16,7.16,0,0,1,2.25-3.2L94.5,39h1.27L97.1,65.76a6.35,6.35,0,0,1,2.26,3.08,17.88,17.88,0,0,1,1,6.13A8,8,0,0,1,103.15,81v6.49H106v13.81h3.67v66.1h3.61v18.16H77V167.43h3.61v-66.1h3.67V87.52h2.87V81a8,8,0,0,1,1.56-4.74,1.3,1.3,0,0,1,.18-.23,7.66,7.66,0,0,1,1-1.09Zm4.3-.72C90.43,74,87.78,77.51,87.78,81V87.5l4.91.63c-2.64,0-5.17.05-7.78.05v12.9l6.86.91H81.24v65.2l9.4.86c-4.37,0-8.67,0-13,0v16.83h35V168.1c-4.34,0-8.64,0-13,0l9.4-.86V102H98.5l6.85-.91V88.18c-2.6,0-5.12-.05-7.75-.05l4.88-.63V81c0-3.54-2.67-7.06-6.46-6.78a4.82,4.82,0,0,1,3.67.43c-.1-4.88-1.54-7.67-3.24-8.53L95.13,39.68l-1.3,26.1a2.38,2.38,0,0,1,1.76,0,3.57,3.57,0,0,0-1.78.47c-1.69,1-3.12,3.88-3.24,8.36A4.82,4.82,0,0,1,94.2,74.25Z" transform="translate(-3.01 -4.71)"/><path class="cls-2" d="M113.8,186.09H76.47V166.93h3.61v-66.1h3.67V87h2.87V81a8.44,8.44,0,0,1,1.65-5c.06-.09.13-.17.2-.26a8.84,8.84,0,0,1,.94-1,16.92,16.92,0,0,1,1-5.79,8,8,0,0,1,2.23-3.27L94,38.52h2.21l1.34,27a5.17,5.17,0,0,1,1.1,1.09l.26.11-.19,0a8.74,8.74,0,0,1,1.08,2,17.71,17.71,0,0,1,1,6.08A8.49,8.49,0,0,1,103.65,81v6h2.87v13.81h3.67v66.1h3.61Zm-35.67-1.66h34V168.6l-6,0-6.52,0,0-1,9-.82V102.5h-10l-.07-1,6.42-.85v-12l-3.36,0c-1.28,0-2.57,0-3.89,0l-.06-1,4.44-.58V81a6.75,6.75,0,0,0-2.09-4.9,5.12,5.12,0,0,0-1.7-1.07l-3.08-.24-3,.23a5.22,5.22,0,0,0-1.68,1.06A6.82,6.82,0,0,0,88.28,81v6l4.47.58-.06,1c-1.32,0-2.62,0-3.91,0l-3.37,0v12l6.42.85-.06,1h-10v64.24l8.94.82,0,1-6.53,0-6,0ZM92.9,73.56a5,5,0,0,1,1.44.21l.77.23.77-.23a5.2,5.2,0,0,1,3.28.13c-.2-3.77-1.28-6.47-2.94-7.3L96,66.47v-.11l-.42,0a3.2,3.2,0,0,0-1.42.37c-1.33.81-2.74,3.1-3,7.19A5.33,5.33,0,0,1,92.9,73.56Zm1.77-8.43a2.87,2.87,0,0,1,1.11.23l.13,0-.78-15.67-.76,15.41ZM95,39.66h.33v-.14H95Z" transform="translate(-3.01 -4.71)"/><path class="cls-1" d="M52.84,162.34H66.6V191H52.84v-28.7Zm.66.67v27.36H65.94V163Z" transform="translate(-3.01 -4.71)"/><path class="cls-2" d="M67.1,191.54H52.34v-29.7H67.1ZM54,189.87H65.44V163.51H54Z" transform="translate(-3.01 -4.71)"/><rect class="cls-3" x="50.5" y="158.3" width="12.43" height="27.36"/><path class="cls-2" d="M66.44,190.87H53V162.51H66.44Zm-12.44-1H65.44V163.51H54Z" transform="translate(-3.01 -4.71)"/><path class="cls-1" d="M339.62,51.36l.61-7.85,1.19,7.85a7.83,7.83,0,0,1,2.7.67l6.3-5.22-4.89,6a6.54,6.54,0,0,1,1.58,1.61l8.59-1.94-8,3.32c.12.56.17.93.24,1.31l9.33.51-9.24.85c-.13.68-.32,1.32-.49,2,.21,1,1.31,2.24,0,2.09-.19,1.07.66,4.2.89,5.38a2,2,0,0,1-.78.94s1.22,3.84,1.48,4.52.51,1,1,1.14.62,1,.64,1.36.41.29,1,.42.91.31,1,.61.48,0,.7.9.62.35,1,1.09a15.2,15.2,0,0,1,1.26,3.53c.38,1.66.56,2.58.56,2.58a2.11,2.11,0,0,0,.46,1.27,3.56,3.56,0,0,1,.62,1.58s1.07.84,1.52,1.15,1.23.68,1.53.93-.07.49.07.65a5.16,5.16,0,0,0,.9.52l2.5-3.82.61.33c.48.21.44-1.34.46-1.66l4.74,2.55,3.39,1.93,1.08.72-1,1c.27.5.69.43.33.93-.18.25-1.55,2.68-1.55,2.68s.74,1.09,1,1.5c.48.86-2.19,4.53-2.71,5.57a4,4,0,0,1-3,2.28c-1.61.09-1.19.24-1.19.24a21,21,0,0,1-.62,5.25c-.68,2.58-1.1,5.53-2.22,5.84s-3.5.64-3.07,2.43l1.55,10.84a6.94,6.94,0,0,1,0,2.23c-.23.61.42,3.86.35,5a9.27,9.27,0,0,0,.11,2.07,1,1,0,0,1-.58,1c-.48.21-.26,1-.28,1.5a7.88,7.88,0,0,0,0,1.68c.09.5.46,1.13-.06,1.45s-.77.39-.74.66a12.33,12.33,0,0,1,.19,1.27c0,.38-.47.57-.47.57s.62,8.12.62,8.83-1.51,1.7-1.65,2.21,1,12.38,1.11,13.52a13.19,13.19,0,0,1,0,1.89,2.21,2.21,0,0,1,1.34,1.57h2.63l2.84,2.4v3.95l1.19,1.65L367.33,185l-.07,5.33H315.39l-.07-5.33-1.08-1.82,1.19-1.65v-3.95l2.83-2.4h3a2.75,2.75,0,0,1,1-2.44c1.26-.88,1-3.19,2-4.53s.74-2.24.39-4.35-.56-1.51.25-2.59,0-2.85-.43-4.35a9.39,9.39,0,0,1-.07-3.9c.11-1.09-.24-2.66.07-3.89s.29-2.81.81-4.67-.59-1.37-.42-2.77a19.72,19.72,0,0,1,.28-2.95,7.94,7.94,0,0,0,.6-3c-.18-.7-.14-3.26-.32-4.35s-.44-4.07-.42-4.77-.28-.91-.42-1.56a16.67,16.67,0,0,1-.39-2.19c0-.55-.35-.67-.61-1.9a13.41,13.41,0,0,1,.67-5.75,19.53,19.53,0,0,0,1.5-5.93c-.07-1.3-.13-.49-1.45-.51s-2.93-1.82-2.4-4,.28-3.16,1.4-5,.6-2,1.16-3.23,1.4-2.84,1.4-2.84a7.56,7.56,0,0,1-.91-2.91c0-1.16-.67-.49-1.12-1.51s-2-1.93-1.65-2.81,1.08-1.93.91-2.42-.79-.79-.6-1.36.79-2.71.55-3.2c-.36-.7-1.82-.89-2.5-1.93a2.62,2.62,0,0,1,.18-1.89c.26-.53.63-1.19.12-1.56s-1.75-.16-1.79-1a8.26,8.26,0,0,0-.68-3,5.36,5.36,0,0,1-.14-3.61c.35-1,2-3.19,2.11-4.74a3.6,3.6,0,0,1,1.19-2.38,37.35,37.35,0,0,0-.56-4A24.56,24.56,0,0,1,319.79,49c-.18-3.55-1-10.11-1-10.11s-.92-.52-.64-1.33.5-.89.41-1.35a17.87,17.87,0,0,1-1.19-3.32,3.92,3.92,0,0,1,.21-2l-.52-.78a.74.74,0,0,1-.09-.74,3.53,3.53,0,0,0,.13-.4s-.65-.53-.37-1,.41-.66.64-.73.15-.14-.21-.46a5.11,5.11,0,0,1-1.06-2.26c0-.39,0-.61-.05-.73-.94-.22-1.51-.52-1.51-.84,0-.66-.6-.29-.6-.81h0v0a.35.35,0,0,1,.1-.2,6,6,0,0,0,.61-1.76,3.74,3.74,0,0,0-.65-1.51s.55-.91,1.76-.19,1.38-.74,2-.83a.69.69,0,0,1,.55.22V16.52c-1.93-.76-2.41-2.82-1-4.75a3.34,3.34,0,0,0,.82-2.06c.35.1,1,.48.7,2,.66-.05.9-.45.6-2s0-3.18,1-3.45c0,0,0,1.32,1.79,2.9,3.12,2.76,2.09,6.43,0,7.29V18c.26-.21.51-.41.67-.4.48,0,.3.35,1,.83.86.61,1-.83,2.56,0a1.75,1.75,0,0,0-.79,1.21c-.11.81.66,1.95.72,2.3v0a.22.22,0,0,1,0,.11c0,.52-.59.15-.59.81,0,.49-1.3.91-3.19,1.11v0c.05.3.53.47.52.77s-.09.67-.37.78a1.1,1.1,0,0,0-.36.16l0,1.85a4.55,4.55,0,0,0,.63.58c.32.22.39.82.7,1.59a9.21,9.21,0,0,1,.81,2.25,5.49,5.49,0,0,1,0,2.54,11.78,11.78,0,0,0-.17,3.75c.19,1.15.8,5.34,1.19,6.49A35.87,35.87,0,0,1,327,51.57c.12,1.5.12,2.46.18,3.24l6.74-.28A5.49,5.49,0,0,1,335.39,53l-5.55-5.74,6.9,5a12.31,12.31,0,0,1,2.88-.81Zm-6.51,7.42-3.75-.31a2.61,2.61,0,0,1,.23.83c.12.62,1.11,1.16,1.09,1.86a5.35,5.35,0,0,1,0,1.51,1.61,1.61,0,0,0,.09,1.49,16.56,16.56,0,0,1,1.42,1.54c.11.26.3-1.61,1-2.1s-.15-.39.18-1.2.61-1.63.35-2a2.31,2.31,0,0,1-.57-1.57Zm-4-.83,3.92-.53a6.51,6.51,0,0,1,.19-1.37l-6.06-.9a5.24,5.24,0,0,0,.15.79C327.57,56.79,328.56,57,329.15,58Z" transform="translate(-3.01 -4.71)"/><path class="cls-2" d="M367.75,190.87H314.9l-.08-5.69-1.18-2,1.29-1.78v-4l3.15-2.67h2.68a3.06,3.06,0,0,1,1.23-2.35,3.5,3.5,0,0,0,1-2.1,6.42,6.42,0,0,1,.89-2.31c.79-1.07.67-1.8.37-3.55l-.07-.43c-.09-.5-.16-.85-.22-1.1a1.38,1.38,0,0,1,.33-1.57l.22-.3c.54-.72.13-2-.28-3.22-.07-.24-.15-.46-.21-.69a8.19,8.19,0,0,1-.15-3.54l.06-.55a9.56,9.56,0,0,0,0-1.4A8.54,8.54,0,0,1,324,149a13.33,13.33,0,0,0,.27-1.69,19.36,19.36,0,0,1,.54-3c.23-.81.1-1-.07-1.23a1.82,1.82,0,0,1-.37-1.47,12.3,12.3,0,0,0,.09-1.3,5.8,5.8,0,0,1,.21-1.71c.08-.31.17-.6.25-.88a4.49,4.49,0,0,0,.34-1.86,15.19,15.19,0,0,1-.17-2.19c0-.84-.07-1.7-.15-2.2a45.91,45.91,0,0,1-.43-4.86,1.43,1.43,0,0,0-.17-.73,4.15,4.15,0,0,1-.24-.71l0-.16a14.25,14.25,0,0,1-.37-2.13,1,1,0,0,0-.14-.44,5.38,5.38,0,0,1-.46-1.36,13.75,13.75,0,0,1,.7-6.07,19.11,19.11,0,0,0,1.46-5.69.81.81,0,0,0,0-.16,3.18,3.18,0,0,1-1,.12,2.94,2.94,0,0,1-2.17-1.23,4,4,0,0,1-.71-3.39c.16-.67.25-1.25.33-1.75a7.89,7.89,0,0,1,1.13-3.37,4.39,4.39,0,0,0,.77-1.91,4.27,4.27,0,0,1,.36-1.26c.44-1,1-2.15,1.3-2.64a7.42,7.42,0,0,1-.85-2.93.67.67,0,0,0,0-.31l-.12,0a1.66,1.66,0,0,1-.93-.92,4.37,4.37,0,0,0-.77-1c-.58-.64-1.25-1.37-.88-2.21.11-.25.24-.51.38-.77a4.32,4.32,0,0,0,.51-1.29,1.25,1.25,0,0,0-.22-.33,1.36,1.36,0,0,1-.37-1.35,9.27,9.27,0,0,0,.56-2.83c-.08-.17-.45-.36-.8-.55a4.15,4.15,0,0,1-1.66-1.31,2.93,2.93,0,0,1,.16-2.4c.22-.45.4-.83.27-.93a1.9,1.9,0,0,0-.56-.16c-.52-.11-1.4-.29-1.43-1.2a7.94,7.94,0,0,0-.65-2.85,5.88,5.88,0,0,1-.15-4,10.86,10.86,0,0,1,.73-1.45,10.05,10.05,0,0,0,1.35-3.16A4.13,4.13,0,0,1,321,59.25a32.9,32.9,0,0,0-.53-3.68c0-.2-.11-.42-.18-.67a23.07,23.07,0,0,1-1-5.92c-.16-3.12-.81-8.67-1-9.84a1.6,1.6,0,0,1-.64-1.78,6.31,6.31,0,0,1,.29-.7c.12-.25.12-.27.1-.4s-.18-.43-.3-.7a9.2,9.2,0,0,1-.9-2.65,4.93,4.93,0,0,1,.15-2l-.38-.57a1.26,1.26,0,0,1-.14-1.2.16.16,0,0,0,0-.08,1.24,1.24,0,0,1-.23-1.42,3.11,3.11,0,0,1,.44-.67,5.48,5.48,0,0,1-1.13-2.5,2.86,2.86,0,0,1,0-.37c-.74-.21-1.54-.56-1.54-1.24a1,1,0,0,1-.45-.31h-.49l.37-.69a.77.77,0,0,1,.15-.3,5.11,5.11,0,0,0,.53-1.49,3.08,3.08,0,0,0-.56-1.22l-.18-.27.16-.28a1.7,1.7,0,0,1,2.44-.36c.41.24.48.14.8-.26a1.34,1.34,0,0,1,.84-.63h.12v-.19a3.16,3.16,0,0,1-1.69-2,3.91,3.91,0,0,1,.8-3.41,2.91,2.91,0,0,0,.72-1.8l0-.62.6.18a1.43,1.43,0,0,1,.63.36c-.26-1.63.13-3.46,1.42-3.82L321,5.6v.66a4.07,4.07,0,0,0,1.62,2.52,5.58,5.58,0,0,1,2.07,5.12,4,4,0,0,1-1.92,2.87v.36a.65.65,0,0,1,.2,0,1,1,0,0,1,.81.5,1.48,1.48,0,0,0,.4.42c.14.09.14.1.41-.06a2,2,0,0,1,2.1,0l.79.41-.77.46a1.32,1.32,0,0,0-.55.85,3.38,3.38,0,0,0,.45,1.46,2.84,2.84,0,0,1,.27.68.91.91,0,0,1,0,.23.81.81,0,0,1-.59.81c0,.36-.16,1.09-2.77,1.5a.73.73,0,0,1,.11.42,1.25,1.25,0,0,1-.7,1.24h0l0,1.33a4,4,0,0,0,.42.37,2.09,2.09,0,0,1,.63,1.13c.07.2.14.43.24.68s.16.37.24.53a7.21,7.21,0,0,1,.6,1.81,6.11,6.11,0,0,1,0,2.77,11.17,11.17,0,0,0-.17,3.54l.16,1c.25,1.6.72,4.56,1,5.46a36.92,36.92,0,0,1,1.53,6.92c.06.85.09,1.53.12,2.1,0,.24,0,.45,0,.66l6-.24a6.52,6.52,0,0,1,1-1.15l-5.16-5.34.65-.75,6.68,4.79a12.41,12.41,0,0,1,2.34-.66l.92-11.81,1.79,11.78a7.92,7.92,0,0,1,2.18.54l6.06-5,.71.7-4.57,5.58a6.43,6.43,0,0,1,1.07,1.14L355.59,52l.3,1-7.59,3.17c0,.19.07.36.09.52l8.94.49,0,1-8.88.82c-.09.4-.19.79-.29,1.19l-.09.34a4.63,4.63,0,0,0,.28.72c.26.58.51,1.12.19,1.55a.79.79,0,0,1-.48.3,23.55,23.55,0,0,0,.64,3.63c.11.47.2.88.26,1.18l0,.15-.07.14a2.16,2.16,0,0,1-.65.91c.3.94,1.16,3.63,1.37,4.17s.39.75.7.84c.74.22.94,1.2,1,1.66l.23,0,.41.07c.31.06,1.1.21,1.34.86a1.37,1.37,0,0,1,.74,1c.05.21.06.22.18.27a1.35,1.35,0,0,1,.77.73,15.52,15.52,0,0,1,1.3,3.63c.39,1.68.56,2.6.56,2.6V85a1.59,1.59,0,0,0,.34.94,3.76,3.76,0,0,1,.7,1.63c.31.24,1,.78,1.35,1a7.19,7.19,0,0,0,.7.42,5.93,5.93,0,0,1,.86.54.78.78,0,0,1,.28.79,1.6,1.6,0,0,0,.19.11l2.51-3.83.68.36c0-.18,0-.46.05-.81,0-.11,0-.2,0-.26l.06-.76L370,88.06,373.43,90l1.63,1.07-1.14,1.15a.79.79,0,0,1,.06,1.19c-.1.15-.81,1.39-1.36,2.37.23.35.65,1,.82,1.28.42.76-.26,2.09-1.95,4.79-.34.53-.62,1-.75,1.24-.21.41-1.33,2.45-3.42,2.56l-.72.06a21.25,21.25,0,0,1-.63,5.06c-.14.53-.28,1.08-.4,1.62-.56,2.37-1,4.24-2.18,4.57l-.48.13c-1.65.41-2.46.78-2.24,1.71l1.56,10.88a6.59,6.59,0,0,1,0,2.47,12.33,12.33,0,0,0,.18,2.36,18,18,0,0,1,.2,2.51,7.51,7.51,0,0,0,.07,1.69c0,.12,0,.21,0,.3a1.45,1.45,0,0,1-.87,1.51,2.28,2.28,0,0,0,0,.6c0,.17,0,.34,0,.48a7.44,7.44,0,0,0,0,1.56,1.92,1.92,0,0,0,.09.32c.12.42.35,1.21-.38,1.64l-.25.15-.24.14c0,.08,0,.18.05.28a5.38,5.38,0,0,1,.12.94,1.07,1.07,0,0,1-.44.84c.12,1.5.6,7.91.6,8.56s-.56,1.17-1.11,1.72a4,4,0,0,0-.56.63c-.05.56.63,7.9.92,11,.11,1.18.19,2,.21,2.31.05.71.05,1.28.05,1.62a2.59,2.59,0,0,1,1.17,1.38h2.47l3.15,2.67v4l1.29,1.78-1.18,2Zm-51.87-1h50.89l.06-5,1-1.66-1.09-1.51v-3.87l-2.52-2.14h-2.82l-.11-.35a1.66,1.66,0,0,0-1-1.24l-.36-.13,0-.38a15.77,15.77,0,0,0,0-1.82c0-.27-.1-1.13-.21-2.3-.86-9.28-1-11.07-.88-11.4a2.86,2.86,0,0,1,.82-1.06c.26-.26.81-.81.81-1,0-.56-.44-6.53-.62-8.79l0-.36.33-.14a.55.55,0,0,0,.16-.12,6.34,6.34,0,0,0-.11-.74,4.61,4.61,0,0,1-.08-.47c-.05-.54.35-.78.75-1l.23-.13c.06-.09,0-.36-.06-.51a2.26,2.26,0,0,1-.11-.43,8,8,0,0,1-.05-1.78c0-.11,0-.24,0-.37,0-.51-.08-1.28.59-1.57a.47.47,0,0,0,.29-.5c0-.08,0-.16,0-.25a8.5,8.5,0,0,1-.08-1.9,17.54,17.54,0,0,0-.2-2.33,8.4,8.4,0,0,1-.12-2.83,6,6,0,0,0,0-2L359.69,119c-.48-2,1.77-2.56,3-2.86l.45-.12c.61-.17,1.09-2.2,1.47-3.84.13-.55.27-1.11.41-1.65a20.63,20.63,0,0,0,.6-4.77l-.06,0v-.45c.08-.48.56-.56,1.71-.62,1.58-.08,2.49-1.81,2.58-2s.44-.76.8-1.33c.61-1,2.05-3.27,1.92-3.8-.21-.36-.94-1.43-.94-1.44l-.18-.25.15-.28c.22-.39,1.31-2.31,1.56-2.69a1.9,1.9,0,0,1-.34-.43l-.18-.33.86-.87-.58-.38-3.36-1.91-4-2.17c0,.59-.16,1-.5,1.26a.66.66,0,0,1-.64,0l-.24-.13-2.48,3.81-.4-.19a3.65,3.65,0,0,1-1-.64.65.65,0,0,1-.12-.67c-.15-.1-.39-.23-.61-.36a8,8,0,0,1-.78-.47c-.46-.32-1.55-1.17-1.55-1.17l-.16-.13,0-.2a3.13,3.13,0,0,0-.49-1.32,2.56,2.56,0,0,1-.59-1.54c0-.2-.21-1.07-.55-2.52a14.76,14.76,0,0,0-1.21-3.41c-.1-.19-.15-.21-.27-.26a1.18,1.18,0,0,1-.76-.94c-.08-.3-.15-.34-.24-.38a.77.77,0,0,1-.47-.53s-.14-.15-.59-.23l-.37-.06c-.4-.06-1-.16-1.06-.82a1.62,1.62,0,0,0-.3-.92,2,2,0,0,1-1.35-1.43c-.26-.69-1.44-4.39-1.49-4.55l-.1-.32.37-.31a1.27,1.27,0,0,0,.47-.52c-.06-.27-.14-.61-.22-1a15.09,15.09,0,0,1-.64-4.43l.08-.47.47.06-.2-.46a5.47,5.47,0,0,1-.38-1l0-.11.16-.59c.13-.49.26-1,.36-1.48l.07-.38,2.82-.26-2.91-.15-.12-.69c-.05-.28-.11-.58-.19-1l-.09-.41,3-1.25L346.9,55l-.19-.26a6,6,0,0,0-1.47-1.5l-.44-.31,2-2.4-2.57,2.13-.28-.13a7.3,7.3,0,0,0-2.55-.63l-.38,0-.6-3.93-.31,3.91-.38.06a10.65,10.65,0,0,0-2.75.77l-.27.12-2.61-1.88L336.15,53l-.47.34a5,5,0,0,0-1.35,1.45l-.14.22-3.49.14,3.18.48-.13.53a5.41,5.41,0,0,0-.18,1.27l0,.42-2.1.28,2.12.18,0,.41a1.58,1.58,0,0,0,.33,1.09l.16.26c.37.59.14,1.43-.31,2.51-.06.15-.05.17,0,.25.35.57,0,.93-.34,1.16a3.37,3.37,0,0,0-.63,1.44c-.11.43-.2.76-.6.78l-.35,0-.16-.36c-.07-.11-.51-.56-.77-.82s-.44-.44-.57-.59a2,2,0,0,1-.19-2,1.5,1.5,0,0,0,0-.67,4.88,4.88,0,0,1,0-.71c0-.19-.23-.47-.45-.71a2.37,2.37,0,0,1-.63-1,2.61,2.61,0,0,0-.15-.62l-.23-.55a3.28,3.28,0,0,0-.82-.84,2.54,2.54,0,0,1-1-1.31,6.42,6.42,0,0,1-.14-.74h0l-.08-.78h0c0-.27,0-.56,0-.88,0-.57-.05-1.23-.12-2.07A35.54,35.54,0,0,0,325,44.92a53.33,53.33,0,0,1-1.06-5.61l-.16-1a12.25,12.25,0,0,1,.19-4,5,5,0,0,0,0-2.32,6.4,6.4,0,0,0-.54-1.59c-.08-.17-.16-.35-.24-.56s-.2-.53-.27-.75a2.53,2.53,0,0,0-.26-.63,4.17,4.17,0,0,1-.71-.65l-.14-.15.05-2.26.16-.15a1.53,1.53,0,0,1,.52-.25s0-.1,0-.25l-.1-.09a1.28,1.28,0,0,1-.42-.66l-.09-.52.53-.08c2-.21,2.68-.6,2.76-.72a.8.8,0,0,1,.55-.81h0s-.11-.22-.18-.37a3.89,3.89,0,0,1-.54-2,2.13,2.13,0,0,1,.33-.88,1,1,0,0,0-.42.18,1.25,1.25,0,0,1-1.48,0,2.39,2.39,0,0,1-.65-.67l-.06-.08s-.18.2-.29.29l-.82.65V16.11L322,16a2.92,2.92,0,0,0,1.63-2.25,4.65,4.65,0,0,0-1.75-4.21,6,6,0,0,1-1.77-2.41,3.85,3.85,0,0,0-.23,2.49c.22,1.09.18,1.7-.12,2.11a1.21,1.21,0,0,1-.93.45l-.66.06.13-.65a3,3,0,0,0,.06-.69,5.28,5.28,0,0,1-.69,1.18,3,3,0,0,0-.64,2.54,2.23,2.23,0,0,0,1.41,1.45l.32.12v2.68l-.84-.73c-.09-.09-.14-.09-.14-.09l-.19.25a1.44,1.44,0,0,1-2.1.51.89.89,0,0,0-.85-.16,3.22,3.22,0,0,1,.5,1.43,5.41,5.41,0,0,1-.62,1.91.89.89,0,0,1,.51.86,9.63,9.63,0,0,0,1.13.38l.37.08v.38c0,.12,0,.33.05.71a4.56,4.56,0,0,0,.9,1.93c.34.31.57.51.49.86a.62.62,0,0,1-.47.45c-.05,0-.11.06-.35.49,0,.08.12.3.25.41l.24.2-.08.31a3.44,3.44,0,0,1-.14.46.25.25,0,0,0,0,.28l.68,1-.12.25a3.69,3.69,0,0,0-.17,1.75,8.8,8.8,0,0,0,.82,2.34,5.14,5.14,0,0,1,.37.94,1.43,1.43,0,0,1-.18,1,6.23,6.23,0,0,0-.24.59c-.14.41.39.73.41.74l.21.13,0,.24c0,.07.81,6.62,1,10.14a22.47,22.47,0,0,0,.95,5.7c.07.25.14.48.19.69A37.25,37.25,0,0,1,322,59.4l0,.27-.21.17a3.16,3.16,0,0,0-1,2,10.32,10.32,0,0,1-1.47,3.56,12.32,12.32,0,0,0-.66,1.3A4.82,4.82,0,0,0,318.8,70a9.06,9.06,0,0,1,.74,3.22c0,.11.14.17.63.27a2.62,2.62,0,0,1,.95.33c.83.61.33,1.59.06,2.12a2.44,2.44,0,0,0-.23,1.48,3.23,3.23,0,0,0,1.28,1,2.58,2.58,0,0,1,1.23,1c.39.78-.42,3.29-.51,3.57,0,.09,0,.15.2.42a2,2,0,0,1,.39.63c.2.56-.16,1.25-.57,2.06-.13.25-.25.49-.36.73s.33.71.71,1.13a5,5,0,0,1,.94,1.27.7.7,0,0,0,.43.42c.39.17.76.41.74,1.3a6.78,6.78,0,0,0,.85,2.66l.13.24-.13.23s-.84,1.62-1.39,2.82a3.6,3.6,0,0,0-.29,1,5.25,5.25,0,0,1-.9,2.27,7,7,0,0,0-1,3,18.53,18.53,0,0,1-.35,1.84,3,3,0,0,0,.53,2.53,2,2,0,0,0,1.4.85,2.2,2.2,0,0,0,.84-.14.8.8,0,0,1,.75,0c.3.21.33.59.35,1.11a19.79,19.79,0,0,1-1.55,6.16,13.26,13.26,0,0,0-.63,5.45,4.59,4.59,0,0,0,.39,1.15,1.94,1.94,0,0,1,.23.83,15.31,15.31,0,0,0,.35,2l0,.15a3.78,3.78,0,0,0,.18.54,2.5,2.5,0,0,1,.25,1.14c0,.66.25,3.63.42,4.68.09.56.12,1.45.16,2.32a17.46,17.46,0,0,0,.14,2,4.77,4.77,0,0,1-.35,2.38c-.08.28-.17.56-.24.85a4.91,4.91,0,0,0-.18,1.48c0,.37,0,.79-.09,1.4a.85.85,0,0,0,.18.77,2,2,0,0,1,.22,2.08,19,19,0,0,0-.51,2.83,13.34,13.34,0,0,1-.29,1.82,8,8,0,0,0-.08,2.26,9.13,9.13,0,0,1,0,1.56q0,.27-.06.57a7.3,7.3,0,0,0,.11,3.13l.21.67c.46,1.4,1,3,.14,4.13l-.24.31a2.13,2.13,0,0,0-.22.31,2.54,2.54,0,0,0,.08.43c.06.27.14.63.22,1.16l.08.42c.31,1.87.49,2.9-.55,4.31a5.45,5.45,0,0,0-.72,1.95,4.2,4.2,0,0,1-1.37,2.69,2.3,2.3,0,0,0-.81,2l0,.53h-3.33l-2.52,2.14v3.87l-1.09,1.51,1,1.66Zm45.2-44.56ZM330.05,59a1.49,1.49,0,0,0,0,.18,1.66,1.66,0,0,0,.4.57,2.16,2.16,0,0,1,.69,1.39,5,5,0,0,0,0,.6,2.35,2.35,0,0,1-.07,1c-.15.54-.16.86,0,1s.31.33.52.53l.34.35a2.9,2.9,0,0,1,.86-1.51,1.16,1.16,0,0,1,0-1c.5-1.2.44-1.52.39-1.6l-.16-.25a2.11,2.11,0,0,1-.44-1.11ZM333,63.09Zm-5.17-7.35,0,.07c.08.29.3.48.69.79a4.67,4.67,0,0,1,.86.82L332.6,57a4.43,4.43,0,0,1,.06-.51Z" transform="translate(-3.01 -4.71)"/><path class="cls-1" d="M348.25,60.44c0,.13.1.26.15.38.25.57.71,1.34.33,1.94a1,1,0,0,1-.49.38,45.26,45.26,0,0,0,.9,4.65l0,.2-.09.19a2.17,2.17,0,0,1-.61.89l.6,1.9c.24.71.46,1.47.73,2.17.13.34.23.62.6.73a1.92,1.92,0,0,1,1.09,1.68c.17,0,.4.06.53.08a1.79,1.79,0,0,1,1.43.92,1.48,1.48,0,0,1,.77,1.08,1,1,0,0,0,0,.14,1.51,1.51,0,0,1,.9.82,16.46,16.46,0,0,1,1.31,3.68c.2.86.39,1.73.56,2.6l0,.07V85a1.4,1.4,0,0,0,.3.83,3.69,3.69,0,0,1,.72,1.65c.42.33.85.67,1.29,1s1.14.59,1.58,1a.87.87,0,0,1,.35.74l2.46-3.77.6.32c0-.3,0-.65,0-.82l.09-1,5.64,3.05,3.4,1.94,1.79,1.18-1.17,1.17a.82.82,0,0,1,.19.31,1.06,1.06,0,0,1-.22,1,14.33,14.33,0,0,0-.74,1.26l-.57,1c.27.39.55.81.77,1.21.53,1-.69,2.88-1.17,3.69-.3.51-.62,1-.93,1.5-.2.32-.43.66-.6,1a4.48,4.48,0,0,1-3.55,2.64l-.56,0a21.4,21.4,0,0,1-.64,5c-.08.28-.15.56-.22.85-.26,1.1-.5,2.24-.86,3.31-.27.81-.71,1.9-1.61,2.15-.48.14-1,.23-1.44.39s-1.35.48-1.17,1.25v0l1.56,10.87a6.71,6.71,0,0,1,0,2.53,14.08,14.08,0,0,0,.19,2.37,14.76,14.76,0,0,1,.19,2.47,8.42,8.42,0,0,0,0,1.23c0,.24.07.49.1.73a1.63,1.63,0,0,1-.89,1.64c0,.21,0,.81,0,1a7,7,0,0,0,0,1.52c0,.12.07.24.1.36a1.39,1.39,0,0,1-.47,1.78l-.39.22a8.24,8.24,0,0,1,.16,1.14,1.23,1.23,0,0,1-.44.91c.11,1.35.21,2.7.31,4.05.06.94.13,1.89.2,2.83,0,.52.09,1.09.09,1.61a2.63,2.63,0,0,1-.94,1.62,6.51,6.51,0,0,0-.72.76c0,.2,0,.47,0,.66,0,.51.07,1,.11,1.55.11,1.45.24,2.91.37,4.36l.39,4.31c.08.8.16,1.61.22,2.42a15.29,15.29,0,0,1,.06,1.53,2.73,2.73,0,0,1,1.11,1.31h2.42l3.25,2.77v4l1.32,1.83-1.21,2-.07,5.82H314.73l-.07-5.82-1.22-2,1.33-1.83v-4l3.25-2.77h2.58a3.21,3.21,0,0,1,1.3-2.32.8.8,0,0,0,.17-.15,5.22,5.22,0,0,0,.79-2.13,5.8,5.8,0,0,1,.85-2.09,2.75,2.75,0,0,0,.52-1.09A9.6,9.6,0,0,0,324,164c-.07-.41-.16-.81-.25-1.22a1.83,1.83,0,0,1,0-.84,3.36,3.36,0,0,1,.65-1c.61-.82-.25-2.85-.52-3.76a9.7,9.7,0,0,1-.1-4.15,15,15,0,0,0-.06-2.12,6.61,6.61,0,0,1,.15-1.88,15,15,0,0,0,.31-2,17.21,17.21,0,0,1,.5-2.67c.12-.42.22-.71,0-1.07a2,2,0,0,1-.4-1.6c.07-.56.07-1.07.09-1.62a5.67,5.67,0,0,1,.21-1.42,9.68,9.68,0,0,0,.59-2.65,6.37,6.37,0,0,1-.12-1.07c0-.46-.05-.93-.07-1.39a15.54,15.54,0,0,0-.13-1.94c-.13-.75-.2-1.54-.27-2.3,0-.51-.09-1-.12-1.53,0-.35-.05-.72,0-1.07a1.3,1.3,0,0,0-.1-.52,4.6,4.6,0,0,1-.31-.88,14.14,14.14,0,0,1-.4-2.31.68.68,0,0,0,0-.14c-.06-.16-.16-.34-.23-.5a5.77,5.77,0,0,1-.35-1.14,13.88,13.88,0,0,1,.71-6.16,19.32,19.32,0,0,0,1.45-5.58,4.26,4.26,0,0,1-.8.08,3.22,3.22,0,0,1-2.43-1.48,4.12,4.12,0,0,1-.61-3.34c.49-2,.32-3.29,1.48-5.18a4.49,4.49,0,0,0,.75-1.86,4.44,4.44,0,0,1,.37-1.29c.4-.87.82-1.73,1.26-2.57a7.17,7.17,0,0,1-.83-2.93,1.2,1.2,0,0,0,0-.19c-.11-.06-.25-.11-.37-.19a1.78,1.78,0,0,1-.69-.84,3.66,3.66,0,0,0-.61-.81c-.61-.68-1.48-1.53-1-2.53a15.2,15.2,0,0,0,.88-2,1.27,1.27,0,0,0-.13-.19,1.56,1.56,0,0,1-.46-1.58,11.61,11.61,0,0,0,.57-2.71,3.88,3.88,0,0,0-.83-.53A4,4,0,0,1,320,78a3,3,0,0,1,.14-2.55,3.27,3.27,0,0,0,.3-.74,3.59,3.59,0,0,0-.52-.13c-.76-.15-1.48-.44-1.52-1.35a7.41,7.41,0,0,0-.63-2.78,6.08,6.08,0,0,1-.16-4.12,9.4,9.4,0,0,1,.59-1.19c.26-.46.53-.93.77-1.4a6,6,0,0,0,.71-2,4.49,4.49,0,0,1,1.17-2.59c-.07-.65-.14-1.31-.23-2a13,13,0,0,0-.29-1.61c-.2-.8-.45-1.58-.64-2.4a27.22,27.22,0,0,1-.54-4.22c-.06-1.31-.18-2.62-.3-3.93q-.29-2.93-.64-5.83a1.75,1.75,0,0,1-.63-1.93c.08-.24.18-.46.28-.69a1.22,1.22,0,0,0,.1-.24.16.16,0,0,0,0-.07,6.36,6.36,0,0,0-.31-.71c-.2-.43-.39-.86-.55-1.31a6.23,6.23,0,0,1-.35-1.35,5.78,5.78,0,0,1,.14-2l-.33-.49a1.37,1.37,0,0,1-.16-1.34,1.37,1.37,0,0,1-.2-1.53,4.92,4.92,0,0,1,.37-.59,5.8,5.8,0,0,1-1.08-2.49c0-.09,0-.17,0-.26-.67-.2-1.46-.56-1.54-1.25a1,1,0,0,1-.22-.12.93.93,0,0,1-.15-.13h-.66l.46-.92a.91.91,0,0,1,.17-.34,6.33,6.33,0,0,0,.51-1.4,3.34,3.34,0,0,0-.53-1.13l-.25-.35.22-.37a1.72,1.72,0,0,1,.71-.63,2.08,2.08,0,0,1,2,.2s.23.14.29.1a.65.65,0,0,0,.17-.16c.28-.35.5-.71,1-.83-2.09-1.15-2.19-3.61-.78-5.52a2.82,2.82,0,0,0,.7-1.72l.05-.83.8.24a1.79,1.79,0,0,1,.37.15c-.12-1.37.16-3.21,1.59-3.61l.88-.24,0,.89a2.24,2.24,0,0,0,.21.68,5.29,5.29,0,0,0,1.36,1.72,5.87,5.87,0,0,1,2.17,4.92,4.19,4.19,0,0,1-2,3.28V17h.05c.83.06.77.57,1.3.94l0,0,.16-.08a2.88,2.88,0,0,1,.5-.24,2.16,2.16,0,0,1,1.77.21l1.07.56-1,.6a1.06,1.06,0,0,0-.47.73c-.08.59.61,1.5.71,2.09a.75.75,0,0,1,0,.26,1,1,0,0,1-.38.8,1,1,0,0,1-.22.12c-.11.92-1.55,1.33-2.69,1.52a1,1,0,0,1,0,.3,1.44,1.44,0,0,1-.74,1.35l0,1.16a3.27,3.27,0,0,0,.35.3c.54.38.68,1.28.93,1.88a11.11,11.11,0,0,1,.84,2.37,6.33,6.33,0,0,1,0,2.84,10.39,10.39,0,0,0-.16,3.47c.18,1.09.34,2.19.52,3.27.11.63.22,1.25.34,1.88a10.19,10.19,0,0,0,.3,1.24,36.75,36.75,0,0,1,1.12,4.24,20.93,20.93,0,0,1,.42,2.73c.07.86.09,1.73.14,2.6l5.75-.24a6.36,6.36,0,0,1,.88-1l-5.47-5.65.79-.92,7.1,5.1A11.81,11.81,0,0,1,339,50.8l.62-7.94,1.19,0,1.2,7.94a8.7,8.7,0,0,1,2,.5l6.45-5.34.86.85-4.85,5.92a7.62,7.62,0,0,1,.91,1l8.77-2,.37,1.16-8,3.35a2.38,2.38,0,0,1,0,.26L358,57l0,1.23-9.37.86c-.11.47-.23.92-.36,1.38Zm-8.63-9.08a12.31,12.31,0,0,0-2.88.81l-6.9-5L335.39,53a5.49,5.49,0,0,0-1.49,1.58l-6.74.28c-.06-.78-.06-1.74-.18-3.24a35.87,35.87,0,0,0-1.51-6.81c-.39-1.15-1-5.34-1.19-6.49a11.78,11.78,0,0,1,.17-3.75,5.49,5.49,0,0,0,0-2.54,9.21,9.21,0,0,0-.81-2.25c-.31-.77-.38-1.37-.7-1.59a4.55,4.55,0,0,1-.63-.58l0-1.85a1.1,1.1,0,0,1,.36-.16c.28-.11.36-.48.37-.78s-.47-.47-.52-.77v0c1.89-.2,3.19-.62,3.19-1.11,0-.66.59-.29.59-.81a.22.22,0,0,0,0-.11v0c-.06-.35-.83-1.49-.72-2.3a1.75,1.75,0,0,1,.79-1.21c-1.51-.79-1.7.65-2.56,0-.67-.48-.49-.79-1-.83-.16,0-.41.19-.67.4V16.45c2.12-.86,3.15-4.53,0-7.29-1.79-1.58-1.79-2.9-1.79-2.9-1,.27-1.33,1.93-1,3.45s.06,1.91-.6,2c.29-1.48-.35-1.86-.7-2a3.34,3.34,0,0,1-.82,2.06c-1.42,1.93-.94,4,1,4.75v1.24a.69.69,0,0,0-.55-.22c-.58.09-.75,1.55-2,.83s-1.76.19-1.76.19a3.74,3.74,0,0,1,.65,1.51,6,6,0,0,1-.61,1.76.35.35,0,0,0-.1.2v0h0c0,.52.6.15.6.81,0,.32.57.62,1.51.84,0,.12,0,.34.05.73a5.11,5.11,0,0,0,1.06,2.26c.36.32.45.39.21.46s-.36.22-.64.73.37,1,.37,1a3.53,3.53,0,0,1-.13.4.74.74,0,0,0,.09.74l.52.78a3.92,3.92,0,0,0-.21,2,17.87,17.87,0,0,0,1.19,3.32c.09.46-.13.54-.41,1.35s.64,1.33.64,1.33.8,6.56,1,10.11A24.56,24.56,0,0,0,321,55.45a37.35,37.35,0,0,1,.56,4,3.6,3.6,0,0,0-1.19,2.38c-.15,1.55-1.76,3.76-2.11,4.74a5.36,5.36,0,0,0,.14,3.61,8.26,8.26,0,0,1,.68,3c0,.82,1.29.61,1.79,1s.14,1-.12,1.56a2.62,2.62,0,0,0-.18,1.89c.68,1,2.14,1.23,2.5,1.93.24.49-.36,2.62-.55,3.2s.42.87.6,1.36-.53,1.55-.91,2.42,1.19,1.79,1.65,2.81,1.15.35,1.12,1.51a7.56,7.56,0,0,0,.91,2.91s-.84,1.61-1.4,2.84,0,1.41-1.16,3.23-.88,2.81-1.4,5,1.08,4,2.4,4,1.38-.79,1.45.51a19.53,19.53,0,0,1-1.5,5.93,13.41,13.41,0,0,0-.67,5.75c.26,1.23.6,1.35.61,1.9a16.67,16.67,0,0,0,.39,2.19c.14.65.44.86.42,1.56s.25,3.68.42,4.77.14,3.65.32,4.35a7.94,7.94,0,0,1-.6,3,19.72,19.72,0,0,0-.28,2.95c-.17,1.4,1,.91.42,2.77s-.49,3.44-.81,4.67,0,2.8-.07,3.89a9.39,9.39,0,0,0,.07,3.9c.46,1.5,1.23,3.26.43,4.35s-.6.49-.25,2.59.6,3-.39,4.35-.7,3.65-2,4.53a2.75,2.75,0,0,0-1,2.44h-3l-2.83,2.4v3.95l-1.19,1.65,1.08,1.82.07,5.33h51.87l.07-5.33,1.08-1.82-1.19-1.65v-3.95l-2.84-2.4h-2.63a2.21,2.21,0,0,0-1.34-1.57,13.19,13.19,0,0,0,0-1.89c-.09-1.14-1.25-13-1.11-13.52s1.65-1.51,1.65-2.21-.62-8.83-.62-8.83.47-.19.47-.57a12.33,12.33,0,0,0-.19-1.27c0-.27.21-.35.74-.66s.15-.95.06-1.45a7.88,7.88,0,0,1,0-1.68c0-.49-.2-1.29.28-1.5a1,1,0,0,0,.58-1,9.27,9.27,0,0,1-.11-2.07c.07-1.15-.58-4.4-.35-5a6.94,6.94,0,0,0,0-2.23l-1.55-10.84c-.43-1.79,1.94-2.11,3.07-2.43s1.54-3.26,2.22-5.84a21,21,0,0,0,.62-5.25s-.42-.15,1.19-.24a4,4,0,0,0,3-2.28c.52-1,3.19-4.71,2.71-5.57-.23-.41-1-1.5-1-1.5s1.37-2.43,1.55-2.68c.36-.5-.06-.43-.33-.93l1-1-1.08-.72L369.8,88.5,365.06,86c0,.32,0,1.87-.46,1.66l-.61-.33-2.5,3.82a5.16,5.16,0,0,1-.9-.52c-.14-.16.23-.39-.07-.65s-1.07-.61-1.53-.93-1.52-1.15-1.52-1.15a3.56,3.56,0,0,0-.62-1.58,2.11,2.11,0,0,1-.46-1.27s-.18-.92-.56-2.58a15.2,15.2,0,0,0-1.26-3.53c-.37-.74-.77-.24-1-1.09s-.63-.6-.7-.9-.35-.49-1-.61-1-.08-1-.42-.16-1.22-.64-1.36-.77-.45-1-1.14-1.48-4.52-1.48-4.52a2,2,0,0,0,.78-.94c-.23-1.18-1.08-4.31-.89-5.38,1.28.15.18-1.11,0-2.09.17-.67.36-1.31.49-2l9.24-.85L348,57.09c-.07-.38-.12-.75-.24-1.31l8-3.32-8.59,1.94a6.54,6.54,0,0,0-1.58-1.61l4.89-6L344.12,52a7.83,7.83,0,0,0-2.7-.67l-1.19-7.85-.61,7.85Zm-6.51,7.42-3.75-.31a2.61,2.61,0,0,1,.23.83c.12.62,1.11,1.16,1.09,1.86a5.35,5.35,0,0,1,0,1.51,1.61,1.61,0,0,0,.09,1.49,16.56,16.56,0,0,1,1.42,1.54c.11.26.3-1.61,1-2.1s-.15-.39.18-1.2.61-1.63.35-2a2.31,2.31,0,0,1-.57-1.57Zm-4-.83,3.92-.53a6.51,6.51,0,0,1,.19-1.37l-6.06-.9a5.24,5.24,0,0,0,.15.79C327.57,56.79,328.56,57,329.15,58Z" transform="translate(-3.01 -4.71)"/><path class="cls-2" d="M368.41,191.54H314.24l-.08-6.18-1.31-2.21,1.42-2v-4.1l3.57-3h2.34a3.55,3.55,0,0,1,1.44-2.23l.09-.08a4.24,4.24,0,0,0,.6-1.65l.06-.26a6.46,6.46,0,0,1,.93-2.27,2.16,2.16,0,0,0,.44-.89,6.91,6.91,0,0,0-.19-2.16l-.07-.42q-.11-.6-.24-1.2a2.24,2.24,0,0,1,0-1,2.76,2.76,0,0,1,.6-1l.14-.19c.35-.47-.17-2-.43-2.78l-.17-.54a8.56,8.56,0,0,1-.18-3.74l.06-.6a8.15,8.15,0,0,0,0-1.39c0-.22,0-.45,0-.66a7,7,0,0,1,.17-2,14.94,14.94,0,0,0,.25-1.56l0-.39a18.41,18.41,0,0,1,.52-2.75c.13-.45.13-.51,0-.64a2.49,2.49,0,0,1-.5-1.95,10.4,10.4,0,0,0,.08-1.22V140a6.58,6.58,0,0,1,.23-1.53c0-.12.08-.3.15-.51a9,9,0,0,0,.44-1.89,6.13,6.13,0,0,1-.14-1.11c0-.43,0-.81-.06-1.19l0-.58a12.82,12.82,0,0,0-.12-1.56c-.12-.76-.19-1.55-.26-2.31-.05-.54-.1-1.05-.13-1.57a10.58,10.58,0,0,1,0-1.11.82.82,0,0,0-.07-.33,6.32,6.32,0,0,1-.33-.95l-.08-.37a11.12,11.12,0,0,1-.33-2l-.11-.24-.1-.21a7.43,7.43,0,0,1-.38-1.23,14.44,14.44,0,0,1,.74-6.48,22.22,22.22,0,0,0,1.38-4.8h-.28a3.64,3.64,0,0,1-2.83-1.7,4.66,4.66,0,0,1-.69-3.74c.15-.6.23-1.13.32-1.64a8.82,8.82,0,0,1,1.23-3.68,3.89,3.89,0,0,0,.67-1.68,5,5,0,0,1,.42-1.42c.33-.72.7-1.49,1.15-2.37a7.81,7.81,0,0,1-.77-2.8l-.14-.07a2.38,2.38,0,0,1-.88-1.06,3.05,3.05,0,0,0-.52-.69L322.1,89c-.62-.68-1.55-1.7-1-2.93,0-.11.14-.29.25-.52s.43-.85.55-1.15a2,2,0,0,1-.52-2,14.35,14.35,0,0,0,.54-2.32l-.49-.28a4.62,4.62,0,0,1-1.87-1.52,3.5,3.5,0,0,1,.11-3.05l.08-.17a2,2,0,0,1-1.87-1.8,7.09,7.09,0,0,0-.58-2.61,6.46,6.46,0,0,1-.18-4.48,8.58,8.58,0,0,1,.57-1.18l.21-.36c.2-.37.41-.74.6-1.12a5.44,5.44,0,0,0,.66-1.79A5,5,0,0,1,320.3,59c-.06-.58-.13-1.15-.21-1.72a15.17,15.17,0,0,0-.27-1.55c-.08-.32-.17-.62-.26-.93-.13-.49-.27-1-.38-1.49a24.78,24.78,0,0,1-.56-4.3c-.06-1.35-.18-2.68-.3-3.91-.18-1.84-.38-3.73-.61-5.63a2.2,2.2,0,0,1-.64-2.34c.1-.26.19-.5.31-.74l0-.07c0-.1-.11-.26-.16-.36l-.08-.17q-.32-.66-.57-1.35a6.45,6.45,0,0,1-.37-1.47,6.35,6.35,0,0,1,.09-2l-.21-.31a1.9,1.9,0,0,1-.29-1.54,1.81,1.81,0,0,1-.09-1.85l.2-.34a6.52,6.52,0,0,1-1-2.39,2.2,2.2,0,0,1-1.5-1.28l-.09-.06,0,0-1.29,0,.81-1.61a1.56,1.56,0,0,1,.2-.41,6,6,0,0,0,.45-1.16,3.82,3.82,0,0,0-.44-.84l-.43-.62L313,18a2.26,2.26,0,0,1,.93-.82,2.45,2.45,0,0,1,2.32.17l.05-.06a4.64,4.64,0,0,1,.31-.36,3.55,3.55,0,0,1-1.22-2,4.76,4.76,0,0,1,.95-3.79,2.3,2.3,0,0,0,.6-1.45l.09-1.45,1.11.32c0-1.48.55-3,2-3.37l1.54-.42-.07,1.57a2.53,2.53,0,0,0,.17.45A4.68,4.68,0,0,0,323,8.28a6.41,6.41,0,0,1,2.34,5.35,4.92,4.92,0,0,1-1.5,3.13,1.9,1.9,0,0,1,.37.4l.12.16a2.92,2.92,0,0,1,.44-.19,2.65,2.65,0,0,1,2.17.24l1.86,1L327,19.4a.63.63,0,0,0-.23.36,2.85,2.85,0,0,0,.34,1,3.73,3.73,0,0,1,.37,1,1.18,1.18,0,0,1,0,.35,1.46,1.46,0,0,1-.58,1.2l-.09.06c-.24.75-1.09,1.28-2.59,1.59a2,2,0,0,1-.73,1.53l0,.65.14.11a3,3,0,0,1,.93,1.62c.06.17.11.33.17.48l.23.55a8,8,0,0,1,.64,1.92,6.68,6.68,0,0,1-.05,3.06,10.21,10.21,0,0,0-.15,3.26c.08.51.17,1,.25,1.54s.18,1.15.28,1.73.21,1.24.33,1.86a11.57,11.57,0,0,0,.29,1.19,40.41,40.41,0,0,1,1.13,4.29,21.26,21.26,0,0,1,.43,2.79c0,.52.06,1,.09,1.55,0,.19,0,.38,0,.57l5-.21c.14-.17.28-.34.43-.5l-5.44-5.63,1.39-1.62,7.25,5.21a12.77,12.77,0,0,1,1.62-.46l.63-8,.67,0,.25-3.23.49,3.2.67,0,1.21,8a8.77,8.77,0,0,1,1.47.37l6.58-5.45,1.5,1.49-4.84,5.92q.21.21.42.45l8.91-2,.65,2-7,2.92,8.32.45,0,2.17-9.48.87c-.06.24-.13.48-.19.73l0,.16a1.19,1.19,0,0,0,.08.2l.11.24a2.22,2.22,0,0,1,.18,2.17,1.45,1.45,0,0,1-.38.4,30.42,30.42,0,0,0,.6,3.09c.11.47.21.89.26,1.17l.07.36-.15.34a3.12,3.12,0,0,1-.5.82l.51,1.6.15.47c.18.56.36,1.14.57,1.68.14.36.17.4.27.43a2.16,2.16,0,0,1,1.37,1.72l.2,0a2.41,2.41,0,0,1,1.73,1.06,1.92,1.92,0,0,1,.84,1.22,1.85,1.85,0,0,1,.92,1A16.41,16.41,0,0,1,357,82.15c.21.87.4,1.75.57,2.62l0,.17a1,1,0,0,0,.17.56,4,4,0,0,1,.8,1.7c.37.29.75.58,1.13.85.19.13.41.25.63.37a5.18,5.18,0,0,1,1,.63l.1.09,2.21-3.4.31.16v-.05l.15-1.77,6.32,3.41,3.41,1.94L376.1,91l-1.32,1.33,0,.08a1.52,1.52,0,0,1-.29,1.43c-.17.25-.35.58-.52.88l-.6,1.06c.22.34.44.67.62,1,.64,1.15-.49,3-1.1,4.06l-.08.13-.69,1.12-.35.55c-.16.26-.34.53-.47.79a5,5,0,0,1-4,2.92h-.09a21,21,0,0,1-.65,4.62l-.21.84-.18.77c-.2.85-.41,1.74-.69,2.58-.33,1-.85,2.16-2,2.47l-.56.15c-.29.07-.57.14-.85.23-.86.29-.89.46-.84.66l1.57,11a7,7,0,0,1-.05,2.77,15.37,15.37,0,0,0,.18,1.87l.07.57a11.67,11.67,0,0,1,.16,2.27,7.05,7.05,0,0,0,0,1.14c0,.12,0,.23,0,.35s0,.25.05.38a2.09,2.09,0,0,1-.89,2c0,.1,0,.21,0,.31s0,.33,0,.41a6,6,0,0,0,0,1.41.79.79,0,0,0,.06.22c.34,1.17.1,2-.67,2.42l-.1.06a4.7,4.7,0,0,1,.11.88,1.7,1.7,0,0,1-.42,1.1c.1,1.3.19,2.56.28,3.82l0,.33.18,2.51,0,.42c0,.41.06.83.06,1.22a3,3,0,0,1-1.09,2l-.13.14-.45.44c0,.11,0,.23,0,.33V159c0,.51.07,1,.11,1.54.11,1.45.24,2.91.37,4.36l.33,3.71.12,1.2c.06.61.11,1.22.16,1.82s.06.92.06,1.3a3.24,3.24,0,0,1,.92,1.08h2.29l3.57,3v4.1l1.42,2-1.31,2.21Zm-52.53-1.67h50.89l.06-5,1-1.66-1.09-1.51v-3.87l-2.52-2.14h-2.82l-.11-.35a1.66,1.66,0,0,0-1-1.24l-.36-.13,0-.38a15.77,15.77,0,0,0,0-1.82c0-.27-.1-1.13-.21-2.3-.86-9.28-1-11.07-.88-11.4a2.86,2.86,0,0,1,.82-1.06c.26-.26.81-.81.81-1,0-.56-.44-6.53-.62-8.79l0-.36.33-.14a.55.55,0,0,0,.16-.12,6.34,6.34,0,0,0-.11-.74,4.61,4.61,0,0,1-.08-.47c-.05-.54.35-.78.75-1l.23-.13c.06-.09,0-.36-.06-.51a2.26,2.26,0,0,1-.11-.43,8,8,0,0,1-.05-1.78c0-.11,0-.24,0-.37,0-.51-.08-1.28.59-1.57a.47.47,0,0,0,.29-.5c0-.08,0-.16,0-.25a8.5,8.5,0,0,1-.08-1.9,17.54,17.54,0,0,0-.2-2.33,8.4,8.4,0,0,1-.12-2.83,6,6,0,0,0,0-2L359.69,119c-.48-2,1.77-2.56,3-2.86l.45-.12c.61-.17,1.09-2.2,1.47-3.84.13-.55.27-1.11.41-1.65a20.63,20.63,0,0,0,.6-4.77l-.06,0v-.45c.08-.48.56-.56,1.71-.62,1.58-.08,2.49-1.81,2.58-2s.44-.76.8-1.33c.61-1,2.05-3.27,1.92-3.8-.21-.36-.94-1.43-.94-1.44l-.18-.25.15-.28c.22-.39,1.31-2.31,1.56-2.69a1.9,1.9,0,0,1-.34-.43l-.18-.33.86-.87-.58-.38-3.36-1.91-4-2.17c0,.59-.16,1-.5,1.26a.66.66,0,0,1-.64,0l-.24-.13-2.48,3.81-.4-.19-.21-.1-.34.52,0-.68a2,2,0,0,1-.53-.38.65.65,0,0,1-.12-.67c-.15-.1-.39-.23-.61-.36a8,8,0,0,1-.78-.47c-.46-.32-1.55-1.17-1.55-1.17l-.16-.13,0-.2a3.13,3.13,0,0,0-.49-1.32,2.56,2.56,0,0,1-.59-1.54c0-.2-.21-1.07-.55-2.52a14.76,14.76,0,0,0-1.21-3.41c-.1-.19-.15-.21-.27-.26a1.18,1.18,0,0,1-.76-.94c-.08-.3-.15-.34-.24-.38a.77.77,0,0,1-.47-.53s-.14-.15-.59-.23l-.37-.06c-.4-.06-1-.16-1.06-.82a1.62,1.62,0,0,0-.3-.92,2,2,0,0,1-1.35-1.43c-.26-.69-1.44-4.39-1.49-4.55l-.1-.32.37-.31a1.27,1.27,0,0,0,.47-.52c-.06-.27-.14-.61-.22-1a15.09,15.09,0,0,1-.64-4.43l.08-.47.47.06-.2-.46a5.47,5.47,0,0,1-.38-1l0-.11.16-.59c.13-.49.26-1,.36-1.48l.07-.38,2.82-.26-2.91-.15-.12-.69c-.05-.28-.11-.58-.19-1l-.09-.41,3-1.25L346.9,55l-.19-.26a6,6,0,0,0-1.47-1.5l-.44-.31,2-2.4-2.57,2.13-.28-.13a7.3,7.3,0,0,0-2.55-.63l-.38,0-.6-3.93-.31,3.91-.38.06a10.65,10.65,0,0,0-2.75.77l-.27.12-2.61-1.88L336.15,53l-.47.34a5,5,0,0,0-1.35,1.45l-.14.22-3.49.14,3.18.48-.13.53a5.41,5.41,0,0,0-.18,1.27l0,.42-2.1.28,2.12.18,0,.41a1.58,1.58,0,0,0,.33,1.09l.16.26c.37.59.14,1.43-.31,2.51-.06.15-.05.17,0,.25.35.57,0,.93-.34,1.16a3.37,3.37,0,0,0-.63,1.44c-.11.43-.2.76-.6.78l-.35,0-.16-.36c-.07-.11-.51-.56-.77-.82s-.44-.44-.57-.59a2,2,0,0,1-.19-2,1.5,1.5,0,0,0,0-.67,4.88,4.88,0,0,1,0-.71c0-.19-.23-.47-.45-.71a2.37,2.37,0,0,1-.63-1,2.61,2.61,0,0,0-.15-.62l-.23-.55a3.28,3.28,0,0,0-.82-.84,2.54,2.54,0,0,1-1-1.31,6.42,6.42,0,0,1-.14-.74h0l-.08-.78h0c0-.27,0-.56,0-.88,0-.57-.05-1.23-.12-2.07A35.54,35.54,0,0,0,325,44.92a53.33,53.33,0,0,1-1.06-5.61l-.16-1a12.25,12.25,0,0,1,.19-4,5,5,0,0,0,0-2.32,6.4,6.4,0,0,0-.54-1.59c-.08-.17-.16-.35-.24-.56s-.2-.53-.27-.75a2.53,2.53,0,0,0-.26-.63,4.17,4.17,0,0,1-.71-.65l-.14-.15.05-2.26.16-.15a1.53,1.53,0,0,1,.52-.25s0-.1,0-.25l-.1-.09a1.28,1.28,0,0,1-.42-.66l-.09-.52.53-.08c2-.21,2.68-.6,2.76-.72a.8.8,0,0,1,.55-.81h0s-.11-.22-.18-.37a3.89,3.89,0,0,1-.54-2,2.13,2.13,0,0,1,.33-.88,1,1,0,0,0-.42.18,1.25,1.25,0,0,1-1.48,0,2.39,2.39,0,0,1-.65-.67l-.06-.08s-.18.2-.29.29l-.82.65V16.11L322,16a2.92,2.92,0,0,0,1.63-2.25,4.65,4.65,0,0,0-1.75-4.21,6,6,0,0,1-1.77-2.41,3.85,3.85,0,0,0-.23,2.49c.22,1.09.18,1.7-.12,2.11a1.21,1.21,0,0,1-.93.45l-.66.06.13-.65a3,3,0,0,0,.06-.69,5.28,5.28,0,0,1-.69,1.18,3,3,0,0,0-.64,2.54,2.23,2.23,0,0,0,1.41,1.45l.32.12V17l.1.06-.1,0v1.75l-.84-.73c-.09-.09-.14-.09-.14-.09l-.19.25a1.44,1.44,0,0,1-2.1.51.89.89,0,0,0-.85-.16,3.22,3.22,0,0,1,.5,1.43,5.41,5.41,0,0,1-.62,1.91.89.89,0,0,1,.51.86,9.63,9.63,0,0,0,1.13.38l.37.08v.38c0,.12,0,.33.05.71a4.56,4.56,0,0,0,.9,1.93c.34.31.57.51.49.86a.62.62,0,0,1-.47.45c-.05,0-.11.06-.35.49,0,.08.12.3.25.41l.24.2-.08.31a3.44,3.44,0,0,1-.14.46.25.25,0,0,0,0,.28l.68,1-.12.25a3.69,3.69,0,0,0-.17,1.75,8.8,8.8,0,0,0,.82,2.34,5.14,5.14,0,0,1,.37.94,1.43,1.43,0,0,1-.18,1,6.23,6.23,0,0,0-.24.59c-.14.41.39.73.41.74l.21.13,0,.24c0,.07.81,6.62,1,10.14a22.47,22.47,0,0,0,.95,5.7c.07.25.14.48.19.69A37.25,37.25,0,0,1,322,59.4l0,.27-.21.17a3.16,3.16,0,0,0-1,2,10.32,10.32,0,0,1-1.47,3.56,12.32,12.32,0,0,0-.66,1.3A4.85,4.85,0,0,0,318.8,70a9,9,0,0,1,.74,3.21c0,.11.14.17.63.27a2.62,2.62,0,0,1,.95.33c.83.61.33,1.59.06,2.12a2.44,2.44,0,0,0-.23,1.48,3.23,3.23,0,0,0,1.28,1,2.58,2.58,0,0,1,1.23,1c.39.78-.42,3.29-.51,3.57,0,.09,0,.15.2.42a2,2,0,0,1,.39.63c.2.56-.16,1.25-.57,2.06-.13.25-.25.49-.36.73s.33.71.71,1.13a5,5,0,0,1,.94,1.27.7.7,0,0,0,.43.42c.39.17.76.41.74,1.3a6.78,6.78,0,0,0,.85,2.66l.13.24-.13.23s-.84,1.62-1.39,2.82a3.6,3.6,0,0,0-.29,1,5.25,5.25,0,0,1-.9,2.27,7,7,0,0,0-1,3,18.53,18.53,0,0,1-.35,1.84,3,3,0,0,0,.53,2.53,2,2,0,0,0,1.4.85,2.2,2.2,0,0,0,.84-.14.8.8,0,0,1,.75,0c.3.21.33.59.35,1.11a19.79,19.79,0,0,1-1.55,6.16,13.26,13.26,0,0,0-.63,5.45,4.59,4.59,0,0,0,.39,1.15,1.94,1.94,0,0,1,.23.83,15.31,15.31,0,0,0,.35,2l0,.15a3.78,3.78,0,0,0,.18.54,2.5,2.5,0,0,1,.25,1.14c0,.66.25,3.63.42,4.68.09.56.12,1.45.16,2.32a17.46,17.46,0,0,0,.14,2,4.77,4.77,0,0,1-.35,2.38c-.08.28-.17.56-.24.85a4.91,4.91,0,0,0-.18,1.48c0,.37,0,.79-.09,1.4a.85.85,0,0,0,.18.77,2,2,0,0,1,.22,2.08,19,19,0,0,0-.51,2.83,13.34,13.34,0,0,1-.29,1.82,8,8,0,0,0-.08,2.26,9.13,9.13,0,0,1,0,1.56c0,.18,0,.37-.06.57a7.3,7.3,0,0,0,.11,3.13l.21.67c.46,1.4,1,3,.14,4.13l-.24.31a2.13,2.13,0,0,0-.22.31,2.54,2.54,0,0,0,.08.43c.06.27.14.63.22,1.16l.08.42c.31,1.87.49,2.9-.55,4.31a5.45,5.45,0,0,0-.72,1.95,4.2,4.2,0,0,1-1.37,2.69,2.29,2.29,0,0,0-.81,2l0,.53h-3.33l-2.52,2.14v3.87l-1.09,1.51,1,1.66Zm57.35-97.14ZM330.05,59a1.49,1.49,0,0,0,0,.18,1.66,1.66,0,0,0,.4.57,2.16,2.16,0,0,1,.69,1.39,5,5,0,0,0,0,.6,2.35,2.35,0,0,1-.07,1c-.15.54-.16.86,0,1s.31.33.52.53l.34.35a2.9,2.9,0,0,1,.86-1.51,1.16,1.16,0,0,1,0-1c.5-1.2.44-1.52.39-1.6l-.16-.25a2.11,2.11,0,0,1-.44-1.11Zm17.81,3Zm9.48-4.6v.33h.13v-.31Zm-29.53-1.69,0,.07c.08.29.3.48.69.79a4.67,4.67,0,0,1,.86.82L332.6,57a4.43,4.43,0,0,1,.06-.51Zm27.88-3.45.1.31.11-.05-.09-.29Zm-26.08-5.07.09.09.21-.25-.1-.07Zm20.73-.56.23.23.07-.09-.21-.21Z" transform="translate(-3.01 -4.71)"/><rect class="cls-3" x="34.64" y="174.78" width="326.76" height="10.89"/><path class="cls-2" d="M364.91,190.87H37.14V179H364.91Zm-326.77-1H363.91V180H38.14Z" transform="translate(-3.01 -4.71)"/><rect class="cls-3" x="24.45" y="182.34" width="358.04" height="8.02"/><path class="cls-2" d="M386,195.57H27v-9H386Zm-358-1H385v-7H28Z" transform="translate(-3.01 -4.71)"/><rect class="cls-3" x="0.5" y="190.36" width="405.94" height="8.02"/><path class="cls-2" d="M410,203.58H3v-9H410ZM4,202.58H409v-7H4Z" transform="translate(-3.01 -4.71)"/></svg>