<?xml version="1.0" encoding="utf-8"?>
<!-- Generator: Adobe Illustrator 24.0.2, SVG Export Plug-In . SVG Version: 6.00 Build 0)  -->
<svg version="1.1" id="Layer_1" xmlns="http://www.w3.org/2000/svg" xmlns:xlink="http://www.w3.org/1999/xlink" x="0px" y="0px"
	 viewBox="0 0 260 260" style="enable-background:new 0 0 260 260;" xml:space="preserve">
<style type="text/css">
	.st0{fill:#FFFFFF;}
	.st1{fill:#2E3191;}
	.st2{fill:#F7981D;}
</style>
<path class="st0" d="M130,260L130,260C58.2,260,0,201.8,0,130v0C0,58.2,58.2,0,130,0h0c71.8,0,130,58.2,130,130v0
	C260,201.8,201.8,260,130,260z"/>
<g>
	<g>
		<g>
			<g>
				<path class="st1" d="M63.5,127.2v6.4h-9.4v27.9h-8.3v-27.9h-9.2v-6.4H63.5z"/>
				<path class="st1" d="M87.5,150.8H70.6v0.2c0,1.8,0.7,3.1,2.1,4c1.4,0.8,3.2,1.3,5.3,1.3c1.5,0,2.8-0.1,3.9-0.4
					c1.1-0.3,2.1-0.6,2.8-1l1.5,5.6c-1,0.5-2.2,0.9-3.7,1.3c-1.5,0.4-3.4,0.5-5.5,0.5c-2,0-3.8-0.3-5.6-0.8
					c-1.8-0.5-3.3-1.3-4.6-2.4c-1.3-1.1-2.4-2.5-3.2-4.1c-0.8-1.7-1.2-3.7-1.2-6c0-2.1,0.3-4,1-5.7c0.6-1.7,1.5-3.2,2.7-4.4
					c1.2-1.2,2.6-2.2,4.2-2.9c1.6-0.7,3.4-1,5.4-1c3.6,0,6.5,1.1,8.6,3.3c2.1,2.2,3.2,5.3,3.2,9.3V150.8z M79.3,145.3
					c0-0.6-0.1-1.2-0.2-1.8c-0.1-0.6-0.4-1.1-0.7-1.6c-0.3-0.5-0.7-0.8-1.2-1.1c-0.5-0.3-1.1-0.4-1.8-0.4c-1.3,0-2.3,0.4-3.2,1.3
					c-0.8,0.9-1.3,2.1-1.5,3.6L79.3,145.3z"/>
				<path class="st1" d="M100.6,153v8.5h-8v-39h8v22.7l8.2-9.9h9.8l-9.9,11l10.3,15.1h-9.5l-6.9-10.5L100.6,153z"/>
				<path class="st2" d="M134.3,126.6c2.4,0,4.5,0.2,6.2,0.7c1.7,0.5,3.3,1.1,4.5,1.8l-1.9,6c-1.4-0.7-2.8-1.3-4.3-1.7
					c-1.4-0.4-2.8-0.6-4.1-0.6c-1.7,0-2.9,0.3-3.8,0.9c-0.9,0.6-1.3,1.4-1.3,2.5c0,1.2,0.4,2,1.3,2.5c0.8,0.5,2.1,1.1,3.9,1.7l3.2,1
					c1.3,0.4,2.5,1,3.5,1.6c1.1,0.6,2,1.4,2.8,2.2c0.8,0.8,1.4,1.8,1.8,2.8c0.4,1.1,0.7,2.2,0.7,3.4c0,1.5-0.3,2.8-0.8,4.1
					c-0.5,1.3-1.4,2.4-2.5,3.4c-1.1,1-2.5,1.8-4.2,2.3c-1.7,0.6-3.7,0.8-6,0.8c-2.1,0-4.2-0.2-6.1-0.7c-1.9-0.5-3.7-1.1-5.4-1.9
					l1.9-6c1.6,0.8,3.1,1.4,4.6,1.8c1.5,0.4,3.1,0.7,4.7,0.7c1.9,0,3.3-0.3,4.2-1c0.9-0.6,1.3-1.5,1.3-2.6c0-0.4-0.1-0.7-0.2-1.1
					c-0.1-0.4-0.4-0.7-0.8-1.1c-0.4-0.4-1-0.7-1.7-1.1c-0.7-0.3-1.7-0.7-2.9-1.1l-2.7-0.9c-1.3-0.5-2.5-1-3.5-1.6
					c-1.1-0.6-2-1.3-2.8-2.1c-0.8-0.8-1.4-1.7-1.8-2.8c-0.4-1.1-0.7-2.3-0.7-3.8c0-1.5,0.3-2.9,0.8-4.1c0.6-1.3,1.4-2.4,2.5-3.3
					c1.1-0.9,2.5-1.7,4.1-2.2C130.4,126.8,132.2,126.6,134.3,126.6z"/>
				<path class="st2" d="M152.3,161.5v-39h8v39H152.3z"/>
				<path class="st2" d="M167.3,137.7c1.5-0.9,3.2-1.6,5-2.1c1.9-0.5,3.8-0.8,5.7-0.8c3.2,0,5.8,0.8,7.8,2.3c2,1.6,2.9,4.1,2.9,7.5
					v16.9h-6.2l-0.7-2.6h-0.2c-0.7,0.9-1.7,1.7-3,2.3c-1.3,0.6-2.8,0.9-4.5,0.9c-1.5,0-2.8-0.2-3.9-0.7c-1.1-0.4-2-1-2.8-1.7
					c-0.7-0.7-1.3-1.6-1.7-2.6c-0.4-1-0.6-2.1-0.6-3.2c0-1.5,0.3-2.8,1-3.9c0.7-1.1,1.6-2,2.7-2.7c1.1-0.7,2.5-1.2,4-1.5
					c1.5-0.3,3.2-0.5,4.9-0.5h2.7v-1.4c0-1-0.3-1.7-1-2.3c-0.7-0.5-1.7-0.8-2.9-0.8c-1.1,0-2.2,0.2-3.2,0.5
					c-1.1,0.3-2.2,0.9-3.5,1.6L167.3,137.7z M180.7,150.3l-1.8,0.1c-1,0-1.9,0.1-2.6,0.3c-0.7,0.2-1.2,0.4-1.7,0.7
					c-0.4,0.3-0.7,0.6-0.9,1c-0.2,0.4-0.3,0.8-0.3,1.2c0,1.1,0.3,1.9,1,2.3c0.7,0.4,1.4,0.6,2.3,0.6c0.9,0,1.7-0.3,2.4-0.8
					c0.7-0.5,1.2-1.1,1.5-1.7V150.3z"/>
				<path class="st2" d="M211.4,141.2h-6.7v11.1c0,1.2,0.3,2,0.8,2.5c0.5,0.5,1.3,0.7,2.2,0.7c0.7,0,1.5-0.1,2.2-0.2
					c0.7-0.1,1.3-0.3,1.7-0.6l1.2,5.5c-0.6,0.3-1.6,0.6-2.8,1c-1.3,0.3-2.6,0.5-4,0.5c-3.4,0-5.8-0.7-7.2-2
					c-1.4-1.3-2.1-3.3-2.1-5.9v-12.5h-4.1v-5.8h4.1v-8h8v8h6.7V141.2z"/>
				<path class="st2" d="M239.9,150.8h-16.9v0.2c0,1.8,0.7,3.1,2.1,4c1.4,0.8,3.2,1.3,5.3,1.3c1.5,0,2.8-0.1,3.9-0.4
					c1.1-0.3,2.1-0.6,2.8-1l1.5,5.6c-1,0.5-2.2,0.9-3.7,1.3c-1.5,0.4-3.4,0.5-5.5,0.5c-2,0-3.8-0.3-5.6-0.8
					c-1.8-0.5-3.3-1.3-4.6-2.4c-1.3-1.1-2.4-2.5-3.2-4.1c-0.8-1.7-1.2-3.7-1.2-6c0-2.1,0.3-4,1-5.7c0.6-1.7,1.5-3.2,2.7-4.4
					c1.2-1.2,2.6-2.2,4.2-2.9c1.6-0.7,3.4-1,5.4-1c3.6,0,6.5,1.1,8.6,3.3c2.1,2.2,3.2,5.3,3.2,9.3V150.8z M231.7,145.3
					c0-0.6-0.1-1.2-0.2-1.8c-0.1-0.6-0.4-1.1-0.7-1.6c-0.3-0.5-0.7-0.8-1.2-1.1c-0.5-0.3-1.1-0.4-1.8-0.4c-1.3,0-2.3,0.4-3.2,1.3
					c-0.8,0.9-1.3,2.1-1.5,3.6L231.7,145.3z"/>
			</g>
		</g>
	</g>
	<polygon class="st1" points="160.2,61.3 160.2,109.3 152.3,109.3 152.3,69.2 28,69.2 28,190.8 152.3,190.8 152.3,174.6 
		160.2,174.6 160.2,198.7 20.1,198.7 20.1,61.3 	"/>
</g>
</svg>
