<svg id="Layer_1" data-name="Layer 1" xmlns="http://www.w3.org/2000/svg" viewBox="0 0 1838.6 1677.3"><defs><style>.cls-1{fill:#dee5f8;}.cls-1,.cls-10,.cls-11,.cls-12,.cls-13,.cls-2,.cls-3,.cls-4,.cls-5,.cls-8,.cls-9{isolation:isolate;}.cls-1,.cls-10,.cls-11,.cls-12,.cls-13,.cls-2,.cls-3,.cls-4,.cls-5,.cls-6,.cls-8,.cls-9{opacity:0.38;}.cls-2{fill:#fff;}.cls-3,.cls-7{fill:#1f3c88;}.cls-4{fill:#102048;}.cls-5{fill:#f9b384;}.cls-8{fill:#e28b6d;}.cls-9{fill:#acbfee;}.cls-10{fill:#6f3428;}.cls-11{fill:#bb9132;}.cls-12{fill:#fbc343;}.cls-13{fill:#708cd5;}</style></defs><path class="cls-1" d="M1838.6,472.9a30.42,30.42,0,0,1-2,10.8H1720.3c-.1-.1-.1-.2-.2-.2s0,.2-.1.2-3.1,0-8.8.1c-57.6.3-379.3,2.1-379.3-.7,0-32.8,25.1-59.4,56-59.4a53.58,53.58,0,0,1,20.5,4.1,32.72,32.72,0,0,1,21.5-8,33.79,33.79,0,0,1,28.4,15.8,1.69,1.69,0,0,0,.2-.5c6-12.8,17.7-23.5,32.8-30.6a98.55,98.55,0,0,1,41.8-9,113.4,113.4,0,0,1,13,.8c16.3-31.8,48.1-53.4,84.6-53.4,46.8,0,85.8,35.4,94.5,82.2a33.36,33.36,0,0,1,18.1-5.4c13.3,0,24.9,8,30.6,19.7a52.37,52.37,0,0,1,18.8-3.2c18.1,0,33.7,8.4,41.1,20.6A29.75,29.75,0,0,1,1838.6,472.9Z" transform="translate(0 0)"/><path class="cls-2" d="M1834,456.8c-14.8-4-30.7-3.8-46.2-3.6l-103.9,1.2c-41.5.5-78.4-23.2-120.8-19.4-20.3,1.9-41,10.2-60.5,11.3-15.5.9-34.3-1.8-43.9-11.2,6-12.8,17.7-23.5,32.8-30.6a98.55,98.55,0,0,1,41.8-9,113.4,113.4,0,0,1,13,.8c16.3-31.8,48.1-53.4,84.6-53.4,46.8,0,85.8,35.4,94.5,82.2a33.36,33.36,0,0,1,18.1-5.4c13.3,0,24.9,8,30.6,19.7a52.37,52.37,0,0,1,18.8-3.2C1810.9,436.3,1826.5,444.6,1834,456.8Z" transform="translate(0 0)"/><path class="cls-1" d="M332.7,694.9a19.11,19.11,0,0,1-1.4,7.1H255c-.1,0-.1-.1-.2-.2v.2c0,.1-254.8,1.6-254.8-.4,0-21.5,16.4-39,36.8-39a34.13,34.13,0,0,1,13.4,2.7,21.37,21.37,0,0,1,14.1-5.2A22.53,22.53,0,0,1,83,670.5c5.5-12.2,18.8-21.6,35.5-24.9a69.76,69.76,0,0,1,13.6-1.4,82.65,82.65,0,0,1,8.6.5c10.7-20.8,31.6-35,55.6-35,30.7,0,56.3,23.2,62,54a21.88,21.88,0,0,1,11.9-3.6A22.54,22.54,0,0,1,290.3,673a37.67,37.67,0,0,1,12.4-2.2C319.2,670.8,332.7,681.6,332.7,694.9Z" transform="translate(0 0)"/><path class="cls-2" d="M332.7,694.9a19.11,19.11,0,0,1-1.4,7.1H287.1c-2.7-4.2-4.6-9-8-12.8-15.1-17.3-46.6-3.4-64.8-17.4-3.3-2.5-6-5.8-9.4-8.2-10.6-7-24.7-2.6-37,.7-12.6,3.4-26.7,5.3-38-1.2a24.17,24.17,0,0,1-11.4-17.6,69.76,69.76,0,0,1,13.6-1.4,82.65,82.65,0,0,1,8.6.5c10.7-20.8,31.6-35,55.6-35,30.7,0,56.3,23.2,62,54a21.88,21.88,0,0,1,11.9-3.6,22.54,22.54,0,0,1,20.1,12.9,37.67,37.67,0,0,1,12.4-2.2C319.2,670.8,332.7,681.6,332.7,694.9Z" transform="translate(0 0)"/><path class="cls-1" d="M572.4,135.8c0,3-376.2.6-376.2.6v-.2c-.1.1-.2.1-.2.2H83.2a28.82,28.82,0,0,1-2-10.5c0-19.6,19.8-35.5,44.3-35.5a54.55,54.55,0,0,1,18.3,3.1c5.6-11.3,16.8-19,29.7-19A32,32,0,0,1,191,79.7C199.4,34.3,237.3,0,282.6,0h1c35,.3,65.4,21.2,81.1,51.7a106.57,106.57,0,0,1,12.6-.8c33.6,0,62.2,16.2,72.5,38.8a33.15,33.15,0,0,1,27.6-15.3,32,32,0,0,1,20.9,7.8,51.87,51.87,0,0,1,19.8-4c21.7,0,40.4,13.5,49.1,33A61,61,0,0,1,572.4,135.8Z" transform="translate(0 0)"/><path class="cls-2" d="M567.2,111.3c-16.9,5.7-36,6.4-54.1,6.8-42.3.9-87.2,1.2-123.2-21-12.5-7.7-23.5-17.9-36.9-23.7-22.5-9.8-51.4-7.1-67.9-25.1-10.7-11.6-12.6-30.5-4.4-44.1a30.83,30.83,0,0,1,3-4.1c35,.3,65.4,21.2,81.1,51.7a106.57,106.57,0,0,1,12.6-.8c33.6,0,62.2,16.2,72.5,38.8a33.15,33.15,0,0,1,27.6-15.3,32,32,0,0,1,20.9,7.8,51.87,51.87,0,0,1,19.8-4C539.8,78.3,558.5,91.8,567.2,111.3Z" transform="translate(0 0)"/><polygon class="cls-3" points="1644.9 1677.3 357.9 1677.3 63.8 1677.3 194.1 1416.6 328.6 1298.5 511.9 1241.4 596.7 1126.1 982.3 1126.1 1133.4 1251.9 1359.4 1325.3 1491.5 1449.2 1494.6 1453.8 1636.5 1663.3 1644.9 1677.3"/><polygon class="cls-1" points="1634.4 1663.3 1536.3 1652.8 1305.4 1500.8 1016.9 1457.3 927.3 1333.1 914.4 1242.8 797.3 1213.2 751.9 1126.1 980.3 1126.1 1131.3 1251.9 1357.4 1325.3 1489.4 1449.2 1492.6 1453.8 1634.4 1663.3"/><polygon class="cls-4" points="600.1 1318.8 410 1430.2 355.6 1675.8 61.8 1677.3 192.1 1416.6 326.5 1298.5 509.8 1241.4 594.7 1126.1 600.1 1318.8"/><path class="cls-5" d="M905.5,1082.9l.4-31.7-45.9,3.2-1.3,26.2A159.81,159.81,0,0,0,905.5,1082.9Z" transform="translate(0 0)"/><path class="cls-4" d="M955.2,1125.9c-12.4-20.4-29.5-27.2-49.8-29.8l.1-13.2a157,157,0,0,1-46.9-2.3l-2.3,45.2h98.9Z" transform="translate(0 0)"/><path class="cls-4" d="M677.6,1086l-4.2,9.6c-20.3,2.6-38.5,13.5-55.2,30.3h96.3l10.2-39.8A135.49,135.49,0,0,1,677.6,1086Z" transform="translate(0 0)"/><path class="cls-5" d="M724.8,1086.1l8.2-31.7-40.6-2.2-14.8,33.7A133.66,133.66,0,0,0,724.8,1086.1Z" transform="translate(0 0)"/><path class="cls-4" d="M930.9,619.8c24.2,157.3,13.2,284.7-20.4,442.7H852.8c6.9-102.6,12.2-224.5-4-305.3L738.7,1063.8h-63L778,650.4l46.9-8.9,88.6-16.2Z" transform="translate(0 0)"/><path class="cls-5" d="M1003.6,255l15.5-46.5,42,9.8c3.2,15.6-15.7,39.2-29.7,57Z" transform="translate(0 0)"/><polygon class="cls-5" points="861.9 421.1 813.6 421.7 808.8 358.3 808.2 350.8 856.8 350.3 858.5 374.4 861.9 421.1"/><path class="cls-4" d="M858.2,370c-15.8,11.3-36.5,4.3-49.5-11.7l-.6-7.6,48.6-.4Z" transform="translate(0 0)"/><path class="cls-5" d="M846.9,364.7c-24.5,5.6-51.9-10.1-62.8-31l-1.5-37.5,13.7-19.5,58.4,5c-.3.1-.2.9,0,2.3.7,3.6,2.9,11.4,5,20.7C865,327.4,869.1,359.6,846.9,364.7Z" transform="translate(0 0)"/><path class="cls-2" d="M805.8,397.1s36.1,28.9,67.5-12.3l59.5,197.7c-36.5,25.8-82.5,34.7-137.8,27.4Z" transform="translate(0 0)"/><g class="cls-6"><path class="cls-7" d="M813.6,421.7a71.4,71.4,0,0,0,15.2,3.5,51.32,51.32,0,0,0,29.5-5.6,65.77,65.77,0,0,0,6.7-4c2.2-1.4,4.1-3.2,6.4-4.7a75.73,75.73,0,0,1-5.3,6,43.24,43.24,0,0,1-6.3,5,41.91,41.91,0,0,1-46.2-.2Z" transform="translate(0 0)"/></g><path class="cls-3" d="M1001.9,246.3c-32.7,55.1-64.5,103.6-93.3,126.7a22.42,22.42,0,0,1-15.2,4.7c-10.8-.6-22,.8-34.4,3.7,2.6,98.9,12,190.6,45.6,246.7,20.3-5.8,44.9-15.2,58.5-26.7-11.1-37.6-24.2-91.5-33.9-138.6l107.9-192.7Z" transform="translate(0 0)"/><path class="cls-8" d="M859.9,304.7c-37.2,21.2-68-17.4-68-17.4l63-3.3C855.6,287.6,857.8,295.3,859.9,304.7Z" transform="translate(0 0)"/><path class="cls-4" d="M792.5,326.4c4.6-5.9,6.6-15.8,2.5-35.7,13.5,15.3,33.7,18.9,63.2,5.8,0,0,19.2-7.5,14.8-27.1-4-17.7-18.8-27.1-30.3-12.6-26.2-7.7-52-9-63.5,14.8,0,0-36.8,19.1-5.4,50.2Z" transform="translate(0 0)"/><polygon class="cls-3" points="738.8 735 732.5 733.6 739.1 703.9 695.4 693.3 689.6 720.3 683.2 719 690.4 685.4 746.8 699.1 738.8 735"/><path class="cls-5" d="M713.1,641.5c-1.1,1.5-5,32-5,32s-17.7,16.6-5.8,26.8,26.3,9.8,33.2,2.3c2.4-7.4,2.6-16-.4-26.4l6.9-33.9Z" transform="translate(0 0)"/><polygon class="cls-9" points="771.2 732.9 753.7 806.8 747 835.4 633.7 792.8 648.6 730.5 655.7 700.8 771.2 732.9"/><polygon class="cls-10" points="1088.7 241.5 1028.6 278 1025.9 256.8 1071.2 229.3 1088.7 241.5"/><polygon class="cls-11" points="1056.3 238.4 1040.8 247.7 1004.2 195.7 1027 181.8 1056.3 238.4"/><path class="cls-12" d="M1030.1,180l-29,17.6a15.35,15.35,0,0,1-19.7-3.3l-48.5-58.6L1006.7,91l29.6,70.1A15.22,15.22,0,0,1,1030.1,180Z" transform="translate(0 0)"/><path class="cls-12" d="M1026.6,143l-4-1.7c11.1-26.8,9.2-48.6,1-53.4-4.3-2.5-10.2.5-16.2,8.1l-3.4-2.7c10.7-13.5,18.8-10.9,21.8-9.1C1035.8,90.1,1038.8,113.6,1026.6,143Z" transform="translate(0 0)"/><path class="cls-12" d="M968.8,178c-31.7-2.8-51.2-16.4-51.8-27.9-.2-3.5,1.2-11.9,18.2-15.1l.8,4.3c-9.6,1.8-14.9,5.7-14.7,10.6.5,9.5,18.9,21.3,47.8,23.8Z" transform="translate(0 0)"/><path class="cls-2" d="M995.7,128.8c-2.5-4.4-2.4-9.2.3-10.8s6.9.8,9.5,5.1,2.4,9.2-.3,10.8S998.3,133.3,995.7,128.8Z" transform="translate(0 0)"/><path class="cls-5" d="M1061.1,217.1c1,7.5-3.7,14.2-13.7,14.2-6.2,0-15-8.6-16.8-18.8-1.5-8.4,1.7-13.9,7.6-16.3S1059.1,203,1061.1,217.1Z" transform="translate(0 0)"/><rect class="cls-12" x="891.59" y="64.66" width="6.8" height="55.2" transform="translate(538.06 918.16) rotate(-72.51)"/><rect class="cls-12" x="953.17" y="36.06" width="55.2" height="6.8" transform="matrix(0.17, -0.98, 0.98, 0.17, 771.46, 998.45)"/><rect class="cls-12" x="924.82" y="23.58" width="6.8" height="55.2" transform="matrix(0.84, -0.54, 0.54, 0.84, 118.83, 508.45)"/><path class="cls-3" d="M775.5,520.6l-8.7,130.6c48.4-2.2,80.8-18,80.8-18,4.2-78-5.8-165.2-36.7-243.7-78.4,29.1-100.5,125.6-112.1,269l45.9,5.3Z" transform="translate(0 0)"/><path class="cls-5" d="M793.2,339.4c-14.8,5.3-24.2,4.1-25-10-.4-8.1,7.9-14.5,15.2-11.1,3.2,1.5,6.2,4.3,9,8.2Z" transform="translate(0 0)"/><path class="cls-4" d="M753.7,806.8,747,835.3,633.7,792.7l14.9-62.3C662.6,759.3,692.1,795.1,753.7,806.8Z" transform="translate(0 0)"/><path class="cls-4" d="M919.4,418.3c2,6.2,3.7,12.5,5.3,18.7s3.2,12.6,4.7,18.9,2.8,12.6,4.1,19,2.4,12.7,3.3,19.2l-1.7.4c-2-6.2-3.7-12.5-5.3-18.7s-3.2-12.6-4.6-18.9-2.8-12.7-4-19-2.4-12.7-3.4-19.2Z" transform="translate(0 0)"/><path class="cls-4" d="M777.8,476.6c.2,6.3.2,12.5.1,18.8s-.3,12.5-.6,18.8-.7,12.5-1.2,18.8-1.1,12.5-2,18.7l-1.7-.1c-.3-6.3-.2-12.5-.1-18.8s.3-12.5.6-18.8.7-12.5,1.2-18.8,1.1-12.5,1.9-18.7Z" transform="translate(0 0)"/><path class="cls-13" d="M838.2,784.4c1.9-7.2,4.1-14.2,6.4-21.2s4.7-14,7-21,5-13.9,7.6-20.8,5.3-13.8,8.3-20.6l1.6.6c-1.9,7.2-4.1,14.2-6.3,21.3s-4.7,14-7.1,21-4.9,13.9-7.6,20.8-5.3,13.8-8.2,20.6Z" transform="translate(0 0)"/><path class="cls-4" d="M784.4,331.6c-.8-1.1-1.5-2.2-2.2-3.2a20.41,20.41,0,0,0-2.3-2.7,2.72,2.72,0,0,0-2.4-.9c-.9.1-1.8,1.1-2.8,1.9l-.8-.5a5.75,5.75,0,0,1,2.9-3.4,4.53,4.53,0,0,1,4.8,1.1,13.89,13.89,0,0,1,3.8,7.4Z" transform="translate(0 0)"/><path class="cls-5" d="M1029.9,219.4c1.6-6,.8-11.4-1.8-12s-6.5,2.1-8.1,8.1-3.4,14.6.7,16.5C1027.9,235.3,1028.3,225.4,1029.9,219.4Z" transform="translate(0 0)"/></svg>