<svg id="Layer_1" data-name="Layer 1" xmlns="http://www.w3.org/2000/svg" viewBox="0 0 1838.6 1677.28"><defs><style>.cls-1{opacity:0.17;}.cls-2,.cls-6{fill:#dee5f8;}.cls-14,.cls-3,.cls-4{fill:#fff;}.cls-3{opacity:0.4;}.cls-5{fill:#1f3c88;}.cls-6{opacity:0.1;}.cls-15,.cls-7{fill:#102048;}.cls-8{fill:#f9b384;}.cls-9{fill:#e28b6d;}.cls-10{fill:#acbfee;}.cls-11{fill:#6f3428;}.cls-12{fill:#bb9132;}.cls-13{fill:#fbc343;}.cls-14{opacity:0.6;}.cls-15{opacity:0.15;}.cls-16{fill:#708cd5;}</style></defs><g class="cls-1"><path class="cls-2" d="M2504,795.6a30.15,30.15,0,0,1-2,10.84H2385.68c-.08-.08-.12-.16-.2-.24a.57.57,0,0,1-.08.24s-3.12,0-8.76.08c-57.56.32-379.32,2.12-379.32-.72,0-32.8,25.08-59.36,56-59.36a53,53,0,0,1,20.48,4.08,33,33,0,0,1,21.52-8,34,34,0,0,1,28.44,15.8c.08-.16.16-.36.24-.52,6-12.76,17.68-23.52,32.8-30.56a98.6,98.6,0,0,1,41.76-9,107.18,107.18,0,0,1,13,.8c16.28-31.76,48.08-53.36,84.64-53.36,46.76,0,85.8,35.36,94.48,82.24a32.82,32.82,0,0,1,18.08-5.44c13.32,0,24.88,8,30.6,19.68a55.44,55.44,0,0,1,18.84-3.24c18.08,0,33.68,8.4,41.12,20.56A30.71,30.71,0,0,1,2504,795.6Z" transform="translate(-665.4 -322.72)"/><path class="cls-3" d="M2499.36,779.52c-14.84-4-30.72-3.84-46.24-3.64l-103.88,1.2c-41.48.48-78.44-23.24-120.84-19.4-20.32,1.88-41,10.16-60.52,11.32-15.48.92-34.32-1.84-43.88-11.2,6-12.76,17.68-23.52,32.8-30.56a98.6,98.6,0,0,1,41.76-9,107.18,107.18,0,0,1,13,.8c16.28-31.76,48.08-53.36,84.64-53.36,46.76,0,85.8,35.36,94.48,82.24a32.82,32.82,0,0,1,18.08-5.44c13.32,0,24.88,8,30.6,19.68a55.44,55.44,0,0,1,18.84-3.24C2476.32,759,2491.92,767.36,2499.36,779.52Z" transform="translate(-665.4 -322.72)"/><path class="cls-2" d="M998.08,1017.6a19.43,19.43,0,0,1-1.36,7.12H920.4a.31.31,0,0,1-.16-.16c0,.08,0,.12,0,.16s-254.8,1.64-254.8-.44c0-21.52,16.44-39,36.76-39A35,35,0,0,1,715.6,988a21.81,21.81,0,0,1,14.12-5.24,22.37,22.37,0,0,1,18.68,10.36c5.52-12.16,18.84-21.56,35.48-24.88a65.71,65.71,0,0,1,13.64-1.4,66.93,66.93,0,0,1,8.56.52c10.68-20.84,31.56-35,55.56-35,30.72,0,56.32,23.24,62,54a21.4,21.4,0,0,1,11.88-3.56,22.5,22.5,0,0,1,20.08,12.92,36.51,36.51,0,0,1,12.4-2.16C984.6,993.52,998.08,1004.32,998.08,1017.6Z" transform="translate(-665.4 -322.72)"/><path class="cls-3" d="M998.08,1017.6a19.43,19.43,0,0,1-1.36,7.12H952.48c-2.72-4.24-4.64-9-8-12.84-15.12-17.28-46.6-3.44-64.84-17.36-3.32-2.52-6-5.84-9.44-8.16-10.6-7-24.68-2.64-37,.72-12.56,3.44-26.72,5.32-38-1.2a24.37,24.37,0,0,1-11.4-17.64,65.71,65.71,0,0,1,13.64-1.4,66.93,66.93,0,0,1,8.56.52c10.68-20.84,31.56-35,55.56-35,30.72,0,56.32,23.24,62,54a21.4,21.4,0,0,1,11.88-3.56,22.5,22.5,0,0,1,20.08,12.92,36.51,36.51,0,0,1,12.4-2.16C984.6,993.52,998.08,1004.32,998.08,1017.6Z" transform="translate(-665.4 -322.72)"/><path class="cls-2" d="M1237.76,458.48c0,3-376.16.6-376.16.6a.36.36,0,0,1,0-.2c-.08.08-.16.12-.24.2H748.64a29,29,0,0,1-2-10.48c0-19.64,19.84-35.52,44.32-35.52a54.11,54.11,0,0,1,18.28,3.12c5.56-11.32,16.76-19,29.68-19a31.85,31.85,0,0,1,17.48,5.24c8.44-45.44,46.28-79.68,91.6-79.68a7.71,7.71,0,0,1,1,0c35,.32,65.44,21.16,81.08,51.68a100.19,100.19,0,0,1,12.64-.8c33.6,0,62.2,16.2,72.48,38.8a33,33,0,0,1,27.56-15.28,32,32,0,0,1,20.88,7.76,51.35,51.35,0,0,1,19.84-4c21.72,0,40.44,13.52,49.12,33A59.76,59.76,0,0,1,1237.76,458.48Z" transform="translate(-665.4 -322.72)"/><path class="cls-3" d="M1232.6,434c-16.92,5.68-36,6.4-54.08,6.8-42.28.92-87.24,1.16-123.2-21-12.48-7.68-23.48-17.88-36.92-23.68C995.92,386.36,967,389,950.48,371c-10.72-11.64-12.64-30.52-4.44-44.08a29.81,29.81,0,0,1,3-4.12c35,.32,65.44,21.16,81.08,51.68a100.19,100.19,0,0,1,12.64-.8c33.6,0,62.2,16.2,72.48,38.8a33,33,0,0,1,27.56-15.28,32,32,0,0,1,20.88,7.76,51.35,51.35,0,0,1,19.84-4C1205.2,401,1223.92,414.48,1232.6,434Z" transform="translate(-665.4 -322.72)"/><path class="cls-4" d="M1599.39,497.06c.52,10.47,19.64,23.33,50.13,27.33l-32.91-39.8C1605.37,486.72,1599.1,491.26,1599.39,497.06Z" transform="translate(-665.4 -322.72)"/><path class="cls-4" d="M1719.62,424.12c-4.74-2.78-11.2.18-17.88,8.09L1721.45,479C1731.07,451.15,1728.41,429.29,1719.62,424.12Z" transform="translate(-665.4 -322.72)"/><path class="cls-5" d="M1229.12,1911.57c-10.34,46.38-59.51,77.84-123.73,85.92l0,2.51h581l-80-111-15.19-106.25L1453.33,1748,1400,1645.46H1215l5.82,205.81C1230.32,1871,1233.59,1891.55,1229.12,1911.57Z" transform="translate(-665.4 -322.72)"/><path class="cls-5" d="M1229.12,1911.57c4.47-20,1.2-40.59-8.33-60.3l.59,21L1003.31,2000h102l0-2.51C1169.61,1989.41,1218.78,1958,1229.12,1911.57Z" transform="translate(-665.4 -322.72)"/><path class="cls-5" d="M1591.16,1782.8l15.19,106.25,80,111h226.07l-3.33-55.45c-64.55-4.84-115.24-33.79-127.9-79.59-9.15-33.06,3.2-68.77,30.67-100.12l-143.25-119.38H1400L1453.33,1748Z" transform="translate(-665.4 -322.72)"/><path class="cls-6" d="M1591.16,1782.8l15.19,106.25,80,111h226.07l-3.33-55.45c-64.55-4.84-115.24-33.79-127.9-79.59-9.15-33.06,3.2-68.77,30.67-100.12l-143.25-119.38H1400L1453.33,1748Z" transform="translate(-665.4 -322.72)"/><path class="cls-5" d="M1781.23,1865c12.66,45.8,63.35,74.75,127.9,79.59l3.33,55.45h327.91l-128-120.15-265.92-86.26-34.5-28.75C1784.43,1796.19,1772.08,1831.9,1781.23,1865Z" transform="translate(-665.4 -322.72)"/><path class="cls-6" d="M1781.23,1865c12.66,45.8,63.35,74.75,127.9,79.59l3.33,55.45h327.91l-128-120.15-265.92-86.26-34.5-28.75C1784.43,1796.19,1772.08,1831.9,1781.23,1865Z" transform="translate(-665.4 -322.72)"/><path class="cls-7" d="M1220.79,1851.27,1215,1645.46l-88.67,120.6C1171,1787.49,1204.76,1818.15,1220.79,1851.27Z" transform="translate(-665.4 -322.72)"/><path class="cls-7" d="M1221.38,1872.28l-.59-21c-16-33.12-49.79-63.78-94.49-85.21l-11.15,15.16L899.5,1848.31l-158.14,139L735,2000h268.31Z" transform="translate(-665.4 -322.72)"/><path class="cls-8" d="M1525.55,1592a187.14,187.14,0,0,0,55.15,2.66l.27-23.92h-54.35Z" transform="translate(-665.4 -322.72)"/><path class="cls-7" d="M1525.55,1592l-2.69,53.24h116.32c-14.65-24-34.68-32-58.59-35l.11-15.56A187.14,187.14,0,0,1,1525.55,1592Z" transform="translate(-665.4 -322.72)"/><path class="cls-7" d="M1312.56,1598.29l-4.94,11.29c-23.91,3-45.31,15.91-64.95,35.66H1356l12.06-46.81A159.6,159.6,0,0,1,1312.56,1598.29Z" transform="translate(-665.4 -322.72)"/><path class="cls-8" d="M1312.56,1598.29a159.6,159.6,0,0,0,55.52.14l6.72-26.1h-50.88Z" transform="translate(-665.4 -322.72)"/><path class="cls-7" d="M1610.41,1049.15c-10.25,4.11-20.88,7.63-30.67,10.46a230.12,230.12,0,0,1-14.69-29.39,215.21,215.21,0,0,1-51.46,10.19q-.25,12.69-.92,25.14s-34.53,16.86-86.79,20.72l-21.79,91.52,18.56,5.17-20.53,87-7.9,33.57-18.4-6.92L1330,1488.91l.81.08a161.2,161.2,0,0,1,73.42,27.92l98.11-273.1-.83-.29c2.29-8.41,4.86-16.71,7.51-25s5.5-16.49,8.24-24.75q4.34-12.3,8.88-24.52c3.11-8.12,6.25-16.23,9.76-24.22l1.88.66c-2.23,8.43-4.83,16.73-7.44,25s-5.47,16.5-8.31,24.72c-2.47,6.72-4.82,13.49-7.33,20.2,14.48,76.41,13.35,182.66,8.19,283.22a158.09,158.09,0,0,1,84.5-46.69C1626.21,1317.54,1627.87,1183.53,1610.41,1049.15Z" transform="translate(-665.4 -322.72)"/><path class="cls-7" d="M1522.92,1498.86c-1.25,24.47-2.74,48.6-4.31,71.88h8l.48-9.55,54-3.82-.15,13.37h5.57q12.6-59.38,20.88-118.57A158.09,158.09,0,0,0,1522.92,1498.86Z" transform="translate(-665.4 -322.72)"/><path class="cls-7" d="M1330,1488.91l-19.86,83.42h13.75l6-13.69,47.76,2.55-2.87,11.14h9.55l19.91-55.42a161.2,161.2,0,0,0-73.42-27.92Z" transform="translate(-665.4 -322.72)"/><polygon class="cls-7" points="861.7 1238.47 861.22 1248.02 915.57 1248.02 915.72 1234.65 861.7 1238.47"/><polygon class="cls-7" points="664.51 1235.92 658.52 1249.61 709.4 1249.61 712.27 1238.47 664.51 1235.92"/><path class="cls-8" d="M1722.29,622.79,1749,606.62l-9.08,5.5-15.64-22.24c-1.42,3.54-3.69,5.7-8.09,3.62s-3-10.32-1.38-17.08l-2.7-3.83-13.6,40.8,24.74,16.74Z" transform="translate(-665.4 -322.72)"/><path class="cls-8" d="M1753.38,592.09l4.67,9,.89-.55c3.89-8.14,6-15.86,4.91-22.42A13.61,13.61,0,0,1,1753.38,592.09Z" transform="translate(-665.4 -322.72)"/><path class="cls-8" d="M1526.66,789.59q-.33-9.71-.6-19.51l-.66-9L1525,756c-18.62,13.25-43,5-58.17-13.74l2.81,37q3,7.71,5.81,15.5C1487.48,799.93,1506.88,803.88,1526.66,789.59Z" transform="translate(-665.4 -322.72)"/><path class="cls-7" d="M1525,756l0,0-1-13.48,0,0Z" transform="translate(-665.4 -322.72)"/><path class="cls-7" d="M1525,756l-1-13.49a22.25,22.25,0,0,1-12.26,7.22c-15.16,3.46-31.24,0-44.94-7.62v.15C1482.09,761,1506.42,769.24,1525,756Z" transform="translate(-665.4 -322.72)"/><path class="cls-8" d="M1523.37,732.82l.71,9.66c11.74-13.67,7.74-42,3-63.36-28.56,16.26-54,2.54-68.15-8.92a50.94,50.94,0,0,1-7.41-6.67l-.78-.78c4.82,23.4,2.37,35-3,42l.85,15.28c-1.83.66-3.58,1.22-5.27,1.69a75.07,75.07,0,0,0,23.57,20.43l-.65-8.77Z" transform="translate(-665.4 -322.72)"/><path class="cls-8" d="M1524.06,742.5l0,0-.71-9.66Z" transform="translate(-665.4 -322.72)"/><path class="cls-8" d="M1511.8,749.72a22.25,22.25,0,0,0,12.26-7.22l-.69-9.68-57.16.51.65,8.77C1480.56,749.72,1496.64,753.18,1511.8,749.72Z" transform="translate(-665.4 -322.72)"/><path class="cls-4" d="M1526.82,817.1a47.24,47.24,0,0,1-17.76,7.2,49.3,49.3,0,0,1-24.31-1.54c14.82,48.82,23.48,99.49,27,149.13l34-4.1c-10-44.9-15.28-96.56-18-151.29C1527.48,816.71,1527.15,816.91,1526.82,817.1Z" transform="translate(-665.4 -322.72)"/><path class="cls-4" d="M1490.41,820.84a59.47,59.47,0,0,0,17.88-.71,61.66,61.66,0,0,0,12.85-3.92l-38.29.45c.34,1.06.67,2.13,1,3.2C1486,820.28,1488.22,820.6,1490.41,820.84Z" transform="translate(-665.4 -322.72)"/><path class="cls-4" d="M1511.8,971.89c1.66,23.16,2.23,46.1,1.79,68.52a215.21,215.21,0,0,0,51.46-10.19c-7.85-18.75-14.16-39.73-19.25-62.43Z" transform="translate(-665.4 -322.72)"/><path class="cls-4" d="M1521.14,816.21c1.36-.6,2.69-1.25,4-2a21.75,21.75,0,0,0,2.49-1.29q-.56-11.58-1-23.35c-19.78,14.29-39.18,10.34-51.17,5.2q3.9,10.86,7.36,21.87Z" transform="translate(-665.4 -322.72)"/><path class="cls-5" d="M1509.06,824.3a47.24,47.24,0,0,0,17.76-7.2c.33-.19.66-.39,1-.6,0-.12,0-.24,0-.37l-6.64.08a61.66,61.66,0,0,1-12.85,3.92,59.47,59.47,0,0,1-17.88.71c-2.19-.24-4.38-.56-6.56-1,.3,1,.61,1.93.9,2.9A49.3,49.3,0,0,0,1509.06,824.3Z" transform="translate(-665.4 -322.72)"/><path class="cls-5" d="M1527.63,812.94a21.75,21.75,0,0,1-2.49,1.29c-1.31.73-2.64,1.38-4,2l6.64-.08Z" transform="translate(-665.4 -322.72)"/><path class="cls-5" d="M1542.81,773.47l70,232.65c-3,2.14-6.14,4.17-9.28,6.12l2.06,3.22q2.59,16.85,4.77,33.69c14.74-5.9,28.67-13,38.11-21-10.21-34.63-21.87-81-32-126.11l-1.08.25c-2.35-7.28-4.33-14.65-6.29-22s-3.71-14.78-5.39-22.21-3.31-14.88-4.72-22.38-2.87-15-4-22.54l1.94-.45c2.29,7.3,4.29,14.66,6.22,22s3.73,14.79,5.47,22.21q.64,2.82,1.28,5.66l122.9-219.48-7.47,4.53-.8-6.24-28.6-20.8,2.42-7.25-4.33-2.94c-38.41,64.86-75.87,121.86-109.73,149a26.21,26.21,0,0,1-17.86,5.5c-12.74-.65-25.88.9-40.52,4.37,0,.25,0,.5,0,.75l1.39,18.93A78.62,78.62,0,0,0,1542.81,773.47Z" transform="translate(-665.4 -322.72)"/><path class="cls-5" d="M1603.58,1012.24a183.78,183.78,0,0,1-38.53,18,230.12,230.12,0,0,0,14.69,29.39c9.79-2.83,20.42-6.35,30.67-10.46q-2.19-16.85-4.77-33.69Z" transform="translate(-665.4 -322.72)"/><polygon class="cls-5" points="1059.26 318.72 1057.82 307.41 1033.08 290.67 1030.66 297.92 1059.26 318.72"/><path class="cls-5" d="M1527.45,789l-1.39-18.93q.27,9.79.6,19.51Z" transform="translate(-665.4 -322.72)"/><path class="cls-5" d="M1533,809.59c2.61-1.64,4.88-3.73,7.52-5.47a90,90,0,0,1-6.21,7.09c-1.63,1.37-3.2,2.86-4.92,4.17l.06.73-1.07,0-.56.37c2.72,54.73,8,106.39,18,151.29l27.15-3.28,30.63,47.73c3.14-2,6.24-4,9.28-6.12l-70-232.65A78.62,78.62,0,0,1,1527.45,789l1.68,23C1530.41,811.22,1531.66,810.37,1533,809.59Z" transform="translate(-665.4 -322.72)"/><path class="cls-5" d="M1573,964.51l-27.15,3.28c5.09,22.7,11.4,43.68,19.25,62.43a183.78,183.78,0,0,0,38.53-18Z" transform="translate(-665.4 -322.72)"/><path class="cls-5" d="M1529.13,812l-1.68-23-.79.58q.42,11.76,1,23.35C1528.13,812.65,1528.63,812.34,1529.13,812Z" transform="translate(-665.4 -322.72)"/><path class="cls-5" d="M1529.43,816.11l-.06-.73c-.33.26-.67.51-1,.75Z" transform="translate(-665.4 -322.72)"/><path class="cls-5" d="M1534.29,811.21a90,90,0,0,0,6.21-7.09c-2.64,1.74-4.91,3.83-7.52,5.47-1.32.78-2.57,1.63-3.85,2.44l.24,3.35C1531.09,814.07,1532.66,812.58,1534.29,811.21Z" transform="translate(-665.4 -322.72)"/><path class="cls-5" d="M1527.8,816.5l.56-.37h-.58C1527.79,816.26,1527.79,816.38,1527.8,816.5Z" transform="translate(-665.4 -322.72)"/><path class="cls-5" d="M1528.36,816.13c.34-.24.68-.49,1-.75l-.24-3.35c-.5.31-1,.62-1.5.91l.15,3.19Z" transform="translate(-665.4 -322.72)"/><path class="cls-9" d="M1458.89,670.2c14.19,11.46,39.59,25.18,68.15,8.92-.75-3.4-1.53-6.62-2.26-9.57C1495.71,682.43,1474.39,681.49,1458.89,670.2Z" transform="translate(-665.4 -322.72)"/><path class="cls-9" d="M1450.7,662.75l.78.78-.79-.86Z" transform="translate(-665.4 -322.72)"/><path class="cls-7" d="M1437.12,695.12l.14.07-1-26.15,16.16-22.92,68.76,5.92c-.32.08-.28,1,0,2.68.55,3,2,8.23,3.62,14.83l.2-.09s22.57-8.83,17.4-31.84c-4.66-20.8-22.07-31.84-35.66-14.85-30.82-9-61.13-10.62-74.71,17.4,0,0-41.83,21.74-8.19,57.15A12.15,12.15,0,0,1,1437.12,695.12Z" transform="translate(-665.4 -322.72)"/><path class="cls-7" d="M1521.16,654.72c-.28-1.64-.32-2.6,0-2.68l-68.76-5.92L1436.24,669l1,26.15c3.69,1.76,7.15,5,10.45,9.51,5.36-6.92,7.81-18.55,3-42-2.4-2.46-3.7-4.08-3.7-4.08Z" transform="translate(-665.4 -322.72)"/><path class="cls-7" d="M1458.89,670.2a94,94,0,0,1-7.41-6.67A50.94,50.94,0,0,0,1458.89,670.2Z" transform="translate(-665.4 -322.72)"/><path class="cls-7" d="M1447,658.67s1.3,1.62,3.7,4.08v-.08l.79.86a94,94,0,0,0,7.41,6.67c15.5,11.29,36.82,12.23,65.89-.65-1.64-6.6-3.07-11.87-3.62-14.83Z" transform="translate(-665.4 -322.72)"/><path class="cls-5" d="M1333.46,1136.31l3.54.86a15.56,15.56,0,0,1,.55-7.73l-9.92-2.41-6,27.82,7.38,2.05Z" transform="translate(-665.4 -322.72)"/><path class="cls-5" d="M1382.26,1140.32a43.26,43.26,0,0,1-1.62,6.91c-.14.16-.29.3-.43.45l4.69,1.14-5,22.25,7.37,2,6.68-29.95Z" transform="translate(-665.4 -322.72)"/><path class="cls-8" d="M1341.58,1144.58c13.77,11.76,30.4,11.53,38.63,3.1L1337,1137.17A13.12,13.12,0,0,0,1341.58,1144.58Z" transform="translate(-665.4 -322.72)"/><path class="cls-8" d="M1380.21,1116.21l3.14-15.52-32.76-3.8c-1.21,8.47-2.21,16.21-2.21,16.21s-8.18,7.67-10.83,16.34l44.71,10.88C1383.32,1133.27,1382.79,1125.32,1380.21,1116.21Z" transform="translate(-665.4 -322.72)"/><path class="cls-8" d="M1337,1137.17l43.21,10.51c.14-.15.29-.29.43-.45a43.26,43.26,0,0,0,1.62-6.91l-44.71-10.88A15.56,15.56,0,0,0,1337,1137.17Z" transform="translate(-665.4 -322.72)"/><path class="cls-10" d="M1383.22,1265.46l20.87-87.67-16.78-4.67-2.73,12.23-7.46-1.66,2.82-12.62-50.89-14.17-2.41,11.23-7.47-1.6,2.5-11.68-34.83-9.69-8.36,34.94C1293.39,1210.94,1323.41,1248.5,1383.22,1265.46Z" transform="translate(-665.4 -322.72)"/><path class="cls-10" d="M1402.12,1269.92l20.53-87-18.56-5.17-20.87,87.67C1389.22,1267.16,1395.51,1268.66,1402.12,1269.92Z" transform="translate(-665.4 -322.72)"/><polygon class="cls-10" points="661.24 845.41 663.64 834.18 656.27 832.13 653.77 843.81 661.24 845.41"/><polygon class="cls-10" points="711.72 860.97 719.18 862.63 721.91 850.4 714.54 848.35 711.72 860.97"/><path class="cls-11" d="M1735.55,638.47l-2.62,4.68,63.32-38.39-20.6-14.32-16.71,10.13c-5.81,12.17-15.61,25.3-24.76,37Z" transform="translate(-665.4 -322.72)"/><path class="cls-11" d="M1758.05,601.12l-9.08,5.5-26.68,16.17.93,7.34,11,7.42c9.15-11.68,19-24.81,24.76-37l-.89.55Z" transform="translate(-665.4 -322.72)"/><path class="cls-11" d="M1734.18,637.55l-5.43,6.87-4.09-3,.8,6.24,7.47-4.53,2.62-4.68Z" transform="translate(-665.4 -322.72)"/><path class="cls-11" d="M1734.18,637.55l-11-7.42,1.44,11.31,4.09,3Z" transform="translate(-665.4 -322.72)"/><path class="cls-12" d="M1719.11,567c1.93-2,4.12-2.85,5.81-2.41,1.11.29,1.93,1.33,2.45,2.85-.36-6.42,1.93-11.12,6-14.05l-9.7-18.77-26.86,16.28,15.25,21.69,2.24-6.71Z" transform="translate(-665.4 -322.72)"/><path class="cls-12" d="M1753.38,592.09a21.49,21.49,0,0,1-5.79.75c-7.12,0-17-9.46-19.59-20.94a27.42,27.42,0,0,1-.94,6.86c-.9,3.38-1.49,7.84-2.81,11.12l15.64,22.24,9.08-5.5,9.08-5.5Z" transform="translate(-665.4 -322.72)"/><path class="cls-12" d="M1715.37,574.1a16.08,16.08,0,0,1,3.74-7.1l-4.79-1.12-2.24,6.71,2.7,3.83C1715,575.62,1715.17,574.84,1715.37,574.1Z" transform="translate(-665.4 -322.72)"/><polygon class="cls-12" points="1092.65 278.39 1083.57 283.9 1092.65 278.39 1092.65 278.39"/><path class="cls-13" d="M1723.67,534.58l0,0,3.62-2.2a18,18,0,0,0,7.25-22.38l-10.21-24.2c-.39,1-.8,2-1.23,3.05l-4.7-1.95c1.13-2.71,2.13-5.37,3-8l-19.71-46.75c-.38.46-.77.93-1.16,1.42l-4-3.16c.56-.7,1.11-1.36,1.66-2L1613,480.16c.86-.2,1.76-.4,2.7-.58l.95,5h0l32.91,39.8q3,.39,6.11.67l-.44,5.07-1-.1L1670,549.17a18,18,0,0,0,23.2,3.92l3.62-2.19,0,0Zm-36.85-62.36c-3-5.18-2.84-10.87.34-12.7s8.18.88,11.17,6.05,2.84,10.87-.34,12.7S1689.81,477.4,1686.82,472.22Z" transform="translate(-665.4 -322.72)"/><polygon class="cls-13" points="1058.27 211.86 1031.4 228.15 1031.43 228.18 1058.29 211.9 1058.27 211.86"/><path class="cls-13" d="M1701.74,432.21c6.68-7.91,13.14-10.87,17.88-8.09,8.79,5.17,11.45,27,1.83,54.84l2.9,6.88c12.9-33.11,9.22-59.44-2.16-66.11-3.36-2-12.22-4.87-24,8.74l1.53-.93Z" transform="translate(-665.4 -322.72)"/><path class="cls-13" d="M1718.42,486.94l4.7,1.95c.43-1,.84-2,1.23-3.05l-2.9-6.88C1720.55,481.57,1719.55,484.23,1718.42,486.94Z" transform="translate(-665.4 -322.72)"/><path class="cls-13" d="M1700.58,433.63c.39-.49.78-1,1.16-1.42l-2-4.67-1.53.93c-.55.64-1.1,1.3-1.66,2Z" transform="translate(-665.4 -322.72)"/><path class="cls-13" d="M1599.39,497.06c-.29-5.8,6-10.34,17.22-12.47l-3.66-4.42h0c-17.34,4.12-18.86,13.27-18.67,17.15.67,13.46,23.23,29.27,59.88,32.72l-4.66-5.64C1619,520.39,1599.91,507.53,1599.39,497.06Z" transform="translate(-665.4 -322.72)"/><path class="cls-13" d="M1655.63,525.06q-3.12-.28-6.11-.67l4.66,5.64,1,.1Z" transform="translate(-665.4 -322.72)"/><path class="cls-13" d="M1616.61,484.59h0l-.95-5c-.94.18-1.84.38-2.7.58h0Z" transform="translate(-665.4 -322.72)"/><path class="cls-13" d="M1698.33,465.57c-3-5.17-8-7.89-11.17-6.05s-3.33,7.52-.34,12.7,8,7.89,11.17,6S1701.32,470.75,1698.33,465.57Z" transform="translate(-665.4 -322.72)"/><path class="cls-14" d="M1698.33,465.57c-3-5.17-8-7.89-11.17-6.05s-3.33,7.52-.34,12.7,8,7.89,11.17,6S1701.32,470.75,1698.33,465.57Z" transform="translate(-665.4 -322.72)"/><path class="cls-8" d="M1763.74,577.42c0,.24.07.49.11.73a17.32,17.32,0,0,0-.15-2c-2.34-16.65-19.79-27.54-27-24.59a16.46,16.46,0,0,0-3.36,1.85l9.95,19.27Z" transform="translate(-665.4 -322.72)"/><path class="cls-8" d="M1743.34,572.66l10,19.43a13.61,13.61,0,0,0,10.47-13.94c0-.24-.07-.49-.11-.73Z" transform="translate(-665.4 -322.72)"/><path class="cls-8" d="M1727.37,567.44a11.06,11.06,0,0,1,.39,1.58l15.58,3.64-9.95-19.27C1729.3,556.32,1727,561,1727.37,567.44Z" transform="translate(-665.4 -322.72)"/><path class="cls-8" d="M1728,571.9c2.58,11.48,12.47,20.94,19.59,20.94a21.49,21.49,0,0,0,5.79-.75l-10-19.43L1727.76,569A17,17,0,0,1,1728,571.9Z" transform="translate(-665.4 -322.72)"/><rect class="cls-13" x="1564.28" y="396.69" width="8" height="64.99" transform="translate(22.26 1473.28) rotate(-72.51)"/><rect class="cls-13" x="1636.97" y="363.11" width="64.98" height="8" transform="translate(352.24 1624.58) rotate(-79.99)"/><rect class="cls-13" x="1603.34" y="348.29" width="8" height="64.98" transform="translate(-617.09 603.94) rotate(-32.63)"/><path class="cls-5" d="M1388.28,1076.31l-4.93,24.38,8.3,1L1424,950.55l0-3.13c.1-7.37.39-14.73.76-22.09s.79-14.71,1.44-22.05,1.25-14.69,2.22-22l2,.09c.26,7.39.21,14.76.1,22.13s-.37,14.74-.68,22.1-.76,14.71-1.37,22.06-1.26,14.69-2.29,22l-.87,0-7.77,117.17c2.82-.13,5.58-.31,8.31-.51l6.55-27.51,19.13-37.48,11.86-233.37a51,51,0,0,0,7.26,4.57l-1-13.19-.15-.4c-92.21,34.26-118.22,147.79-131.9,316.5l13,1.5c1.39-9.77,3.05-20.51,3.73-21.46Z" transform="translate(-665.4 -322.72)"/><path class="cls-5" d="M1450.69,1038.38l.87-17.1-19.13,37.48-6.55,27.51c52.26-3.86,86.79-20.72,86.79-20.72q.66-12.43.92-25.14A301.55,301.55,0,0,1,1450.69,1038.38Z" transform="translate(-665.4 -322.72)"/><path class="cls-5" d="M1475.49,794.79q-2.79-7.78-5.81-15.5l1,13.19C1472.11,793.24,1473.72,794,1475.49,794.79Z" transform="translate(-665.4 -322.72)"/><path class="cls-5" d="M1482.85,816.66l-10.33.12a76.14,76.14,0,0,0,11.33,3.08C1483.52,818.79,1483.19,817.72,1482.85,816.66Z" transform="translate(-665.4 -322.72)"/><path class="cls-5" d="M1511.8,971.89c-3.57-49.64-12.23-100.31-27-149.13a46.93,46.93,0,0,1-12.23-6l-1.84-24.3a51,51,0,0,1-7.26-4.57l-11.86,233.37,22.9-44.88Z" transform="translate(-665.4 -322.72)"/><path class="cls-5" d="M1511.8,971.89l-37.34,4.51-22.9,44.88-.87,17.1a301.55,301.55,0,0,0,62.9,2C1514,1018,1513.46,995.05,1511.8,971.89Z" transform="translate(-665.4 -322.72)"/><path class="cls-5" d="M1482.85,816.66q-3.46-11-7.36-21.87c-1.77-.76-3.38-1.55-4.81-2.31l1.84,24.3Z" transform="translate(-665.4 -322.72)"/><path class="cls-5" d="M1472.52,816.78a46.93,46.93,0,0,0,12.23,6c-.29-1-.6-1.93-.9-2.9A76.14,76.14,0,0,1,1472.52,816.78Z" transform="translate(-665.4 -322.72)"/><path class="cls-5" d="M1388.28,1076.31l-34-.88c-.68,1-2.34,11.69-3.73,21.46l32.76,3.8Z" transform="translate(-665.4 -322.72)"/><path class="cls-8" d="M1437.85,710.32c-.77-1.11-1.51-2.22-2.28-3.26a18.39,18.39,0,0,0-2.75-3.17,3.06,3.06,0,0,0-2.84-1.06c-1,.13-2.1,1.26-3.27,2.2l-1-.62c.65-1.48,1.41-3.14,3.39-4a2.84,2.84,0,0,1,.56-.19l-4-1c-.63-.62-1.23-1.24-1.82-1.86a13.56,13.56,0,0,0-4.61,10.87c.82,14.83,9.78,17.51,24.08,13.48a61.52,61.52,0,0,1-5.33-8.47Z" transform="translate(-665.4 -322.72)"/><path class="cls-8" d="M1434.76,701.67a15.93,15.93,0,0,1,2.91,4l-.14-3.49-3.12-.78C1434.53,701.47,1434.66,701.57,1434.76,701.67Z" transform="translate(-665.4 -322.72)"/><path class="cls-8" d="M1447.71,704.7l-10.18-2.55.14,3.49a17,17,0,0,1,1.58,4.72l-1.08.42-.32-.46.11,2.88a61.52,61.52,0,0,0,5.33,8.47c1.69-.47,3.44-1,5.27-1.69Z" transform="translate(-665.4 -322.72)"/><path class="cls-8" d="M1429.68,700.19a5.47,5.47,0,0,1,4.73,1.18l3.12.78-.27-7-.14-.07a12.15,12.15,0,0,0-13.3,2.2c.59.62,1.19,1.24,1.82,1.86Z" transform="translate(-665.4 -322.72)"/><path class="cls-8" d="M1437.26,695.19l.27,7,10.18,2.55C1444.41,700.22,1441,697,1437.26,695.19Z" transform="translate(-665.4 -322.72)"/><path class="cls-10" d="M1278.48,1180.1l-17.57,73.31,114.91,43.16,7.4-31.11C1323.41,1248.5,1293.39,1210.94,1278.48,1180.1Z" transform="translate(-665.4 -322.72)"/><path class="cls-15" d="M1278.48,1180.1l-17.57,73.31,114.91,43.16,7.4-31.11C1323.41,1248.5,1293.39,1210.94,1278.48,1180.1Z" transform="translate(-665.4 -322.72)"/><path class="cls-10" d="M1402.12,1269.92c-6.61-1.26-12.9-2.76-18.9-4.46l-7.4,31.11,18.4,6.92Z" transform="translate(-665.4 -322.72)"/><path class="cls-15" d="M1402.12,1269.92c-6.61-1.26-12.9-2.76-18.9-4.46l-7.4,31.11,18.4,6.92Z" transform="translate(-665.4 -322.72)"/><path class="cls-7" d="M1616.57,902.08l.87-.2c-1-7.58-2.46-15.07-3.9-22.56-1.08-5.58-2.27-11.14-3.51-16.69l-1.42,2.54C1611.1,877.19,1613.77,889.59,1616.57,902.08Z" transform="translate(-665.4 -322.72)"/><path class="cls-7" d="M1603.28,834.76c-1.93-7.37-3.93-14.73-6.22-22l-1.94.45c1.1,7.56,2.5,15.06,4,22.54s3.06,14.94,4.72,22.38,3.45,14.84,5.39,22.21,3.94,14.74,6.29,22l1.08-.25c-2.8-12.49-5.47-24.89-8-36.91l1.42-2.54q-.63-2.83-1.28-5.66C1607,849.55,1605.26,842.13,1603.28,834.76Z" transform="translate(-665.4 -322.72)"/><path class="cls-7" d="M1424.22,969.56l1.12.05,2.42-36.51L1424,950.55C1424,956.88,1424,963.21,1424.22,969.56Z" transform="translate(-665.4 -322.72)"/><path class="cls-7" d="M1425.34,969.61l.87,0c1-7.32,1.67-14.67,2.29-22s1-14.7,1.37-22.06.62-14.72.68-22.1.16-14.74-.1-22.13l-2-.09c-1,7.33-1.63,14.67-2.22,22s-1,14.7-1.44,22.05-.66,14.72-.76,22.09l0,3.13,3.74-17.45Z" transform="translate(-665.4 -322.72)"/><path class="cls-16" d="M1513.11,1219.94c.55-1.43,1.08-2.86,1.62-4.3-.26-1.36-.52-2.71-.79-4.05l-11.57,32.22,1.05.37C1506.86,1236.17,1510,1228.07,1513.11,1219.94Z" transform="translate(-665.4 -322.72)"/><path class="cls-16" d="M1514.73,1215.64c2.51-6.71,4.86-13.48,7.33-20.2q4.26-12.33,8.31-24.72c2.61-8.3,5.21-16.6,7.44-25l-1.88-.66c-3.51,8-6.65,16.1-9.76,24.22s-6,16.32-8.88,24.52c-2.74,8.26-5.66,16.44-8.24,24.75s-5.22,16.59-7.51,25l.83.29,11.57-32.22C1514.21,1212.93,1514.47,1214.28,1514.73,1215.64Z" transform="translate(-665.4 -322.72)"/><path class="cls-7" d="M1434.41,701.37l-4.73-1.18a2.84,2.84,0,0,0-.56.19c-2,.89-2.74,2.55-3.39,4l1,.62c1.17-.94,2.22-2.07,3.27-2.2a3.06,3.06,0,0,1,2.84,1.06,18.39,18.39,0,0,1,2.75,3.17c.77,1,1.51,2.15,2.28,3.26l-.18-4.68a15.93,15.93,0,0,0-2.91-4C1434.66,701.57,1434.53,701.47,1434.41,701.37Z" transform="translate(-665.4 -322.72)"/><path class="cls-7" d="M1438.17,710.78l1.08-.42a17,17,0,0,0-1.58-4.72l.18,4.68Z" transform="translate(-665.4 -322.72)"/><path class="cls-7" d="M1429.68,700.19l4.73,1.18A5.47,5.47,0,0,0,1429.68,700.19Z" transform="translate(-665.4 -322.72)"/><path class="cls-8" d="M1716.16,593.5c4.4,2.08,6.67-.08,8.09-3.62l-9.47-13.46C1713.14,583.18,1711.89,591.48,1716.16,593.5Z" transform="translate(-665.4 -322.72)"/><path class="cls-8" d="M1727.37,567.44c-.52-1.52-1.34-2.56-2.45-2.85-1.69-.44-3.88.38-5.81,2.41l8.39,2C1727.44,568.44,1727.4,567.94,1727.37,567.44Z" transform="translate(-665.4 -322.72)"/><path class="cls-8" d="M1728,571.9c-.09-.38-.17-.75-.23-1.13-.12-.62-.21-1.22-.27-1.81l-8.39-2a16.08,16.08,0,0,0-3.74,7.1c-.2.74-.4,1.52-.59,2.32l9.47,13.46c1.32-3.28,1.91-7.74,2.81-11.12A27.42,27.42,0,0,0,1728,571.9Z" transform="translate(-665.4 -322.72)"/><path class="cls-8" d="M1727.76,569a11.06,11.06,0,0,0-.39-1.58c0,.5.07,1,.13,1.52Z" transform="translate(-665.4 -322.72)"/><path class="cls-8" d="M1727.77,570.77c.06.38.14.75.23,1.13a17,17,0,0,0-.24-2.88l-.26-.06C1727.56,569.55,1727.65,570.15,1727.77,570.77Z" transform="translate(-665.4 -322.72)"/></g></svg>