<?xml version="1.0" encoding="utf-8"?>
<!-- Generator: Adobe Illustrator 25.4.1, SVG Export Plug-In . SVG Version: 6.00 Build 0)  -->
<svg version="1.1" id="Layer_1" xmlns="http://www.w3.org/2000/svg" xmlns:xlink="http://www.w3.org/1999/xlink" x="0px" y="0px"
	 viewBox="0 0 1838.6 1677.3" style="enable-background:new 0 0 1838.6 1677.3;" xml:space="preserve">
<style type="text/css">
	.st0{opacity:0.38;fill:#DEE5F8;}
	.st1{opacity:0.38;fill:#FFFFFF;enable-background:new    ;}
	.st2{opacity:0.38;fill:#1F3C88;}
	.st3{opacity:0.38;fill:#DEE5F8;enable-background:new    ;}
	.st4{opacity:0.38;fill:#102048;}
	.st5{opacity:0.38;fill:#F9B384;}
	.st6{opacity:0.38;fill:#FFFFFF;}
	.st7{opacity:0.38;}
	.st8{fill:#1F3C88;}
	.st9{opacity:0.38;fill:#E28B6D;}
	.st10{opacity:0.38;fill:#ACBFEE;}
	.st11{opacity:0.38;fill:#6F3428;}
	.st12{opacity:0.38;fill:#BB9132;}
	.st13{opacity:0.38;fill:#FBC343;}
	.st14{opacity:0.38;fill:#102048;enable-background:new    ;}
	.st15{opacity:0.38;fill:#708CD5;}
</style>
<path class="st0" d="M1838.6,472.9c0,3.7-0.7,7.4-2,10.8h-116.3c-0.1-0.1-0.1-0.2-0.2-0.2c0,0.1,0,0.2-0.1,0.2c0,0-3.1,0-8.8,0.1
	c-57.6,0.3-379.3,2.1-379.3-0.7c0-32.8,25.1-59.4,56-59.4c7,0,14,1.4,20.5,4.1c6-5.2,13.6-8,21.5-8c11.5,0.1,22.3,6,28.4,15.8
	c0.1-0.2,0.2-0.4,0.2-0.5c6-12.8,17.7-23.5,32.8-30.6c13.1-6,27.3-9.1,41.8-9c4.3,0,8.7,0.3,13,0.8c16.3-31.8,48.1-53.4,84.6-53.4
	c46.8,0,85.8,35.4,94.5,82.2c5.4-3.5,11.7-5.4,18.1-5.4c13.3,0,24.9,8,30.6,19.7c6-2.2,12.4-3.3,18.8-3.2c18.1,0,33.7,8.4,41.1,20.6
	C1836.9,461.6,1838.6,467.2,1838.6,472.9z"/>
<path class="st1" d="M1834,456.8c-14.8-4-30.7-3.8-46.2-3.6l-103.9,1.2c-41.5,0.5-78.4-23.2-120.8-19.4c-20.3,1.9-41,10.2-60.5,11.3
	c-15.5,0.9-34.3-1.8-43.9-11.2c6-12.8,17.7-23.5,32.8-30.6c13.1-6,27.3-9.1,41.8-9c4.3,0,8.7,0.3,13,0.8
	c16.3-31.8,48.1-53.4,84.6-53.4c46.8,0,85.8,35.4,94.5,82.2c5.4-3.5,11.7-5.4,18.1-5.4c13.3,0,24.9,8,30.6,19.7
	c6-2.2,12.4-3.3,18.8-3.2C1810.9,436.3,1826.5,444.6,1834,456.8z"/>
<path class="st0" d="M332.7,694.9c0,2.4-0.5,4.9-1.4,7.1H255c-0.1,0-0.1-0.1-0.2-0.2c0,0.1,0,0.1,0,0.2S0,703.6,0,701.6
	c0-21.5,16.4-39,36.8-39c4.6,0,9.2,0.9,13.4,2.7c3.9-3.4,8.9-5.2,14.1-5.2c7.6,0.1,14.6,4,18.7,10.4c5.5-12.2,18.8-21.6,35.5-24.9
	c4.5-0.9,9.1-1.4,13.6-1.4c2.9,0,5.7,0.2,8.6,0.5c10.7-20.8,31.6-35,55.6-35c30.7,0,56.3,23.2,62,54c3.5-2.3,7.7-3.6,11.9-3.6
	c8.6,0.1,16.4,5.1,20.1,12.9c4-1.4,8.2-2.2,12.4-2.2C319.2,670.8,332.7,681.6,332.7,694.9z"/>
<path class="st1" d="M332.7,694.9c0,2.4-0.5,4.9-1.4,7.1h-44.2c-2.7-4.2-4.6-9-8-12.8c-15.1-17.3-46.6-3.4-64.8-17.4
	c-3.3-2.5-6-5.8-9.4-8.2c-10.6-7-24.7-2.6-37,0.7c-12.6,3.4-26.7,5.3-38-1.2c-6.3-3.9-10.5-10.3-11.4-17.6c4.5-0.9,9.1-1.4,13.6-1.4
	c2.9,0,5.7,0.2,8.6,0.5c10.7-20.8,31.6-35,55.6-35c30.7,0,56.3,23.2,62,54c3.5-2.3,7.7-3.6,11.9-3.6c8.6,0.1,16.4,5.1,20.1,12.9
	c4-1.4,8.2-2.2,12.4-2.2C319.2,670.8,332.7,681.6,332.7,694.9z"/>
<path class="st0" d="M572.4,135.8c0,3-376.2,0.6-376.2,0.6c0-0.1,0-0.1,0-0.2c-0.1,0.1-0.2,0.1-0.2,0.2H83.2c-1.3-3.3-2-6.9-2-10.5
	c0-19.6,19.8-35.5,44.3-35.5c6.2,0,12.4,1,18.3,3.1c5.6-11.3,16.8-19,29.7-19c6.2,0,12.3,1.8,17.5,5.2C199.4,34.3,237.3,0,282.6,0
	c0.3,0,0.7,0,1,0c35,0.3,65.4,21.2,81.1,51.7c4.2-0.5,8.4-0.8,12.6-0.8c33.6,0,62.2,16.2,72.5,38.8c6-9.4,16.4-15.2,27.6-15.3
	c7.7,0,15.1,2.8,20.9,7.8c6.3-2.6,13-4,19.8-4c21.7,0,40.4,13.5,49.1,33C570.6,118.9,572.4,127.3,572.4,135.8z"/>
<path class="st1" d="M567.2,111.3c-16.9,5.7-36,6.4-54.1,6.8c-42.3,0.9-87.2,1.2-123.2-21c-12.5-7.7-23.5-17.9-36.9-23.7
	c-22.5-9.8-51.4-7.1-67.9-25.1c-10.7-11.6-12.6-30.5-4.4-44.1c0.9-1.5,1.9-2.8,3-4.1c35,0.3,65.4,21.2,81.1,51.7
	c4.2-0.5,8.4-0.8,12.6-0.8c33.6,0,62.2,16.2,72.5,38.8c6-9.4,16.4-15.2,27.6-15.3c7.7,0,15.1,2.8,20.9,7.8c6.3-2.6,13-4,19.8-4
	C539.8,78.3,558.5,91.8,567.2,111.3z"/>
<polygon class="st2" points="1644.9,1677.3 357.9,1677.3 63.8,1677.3 194.1,1416.6 328.6,1298.5 511.9,1241.4 596.7,1126.1 
	982.3,1126.1 1133.4,1251.9 1359.4,1325.3 1491.5,1449.2 1494.6,1453.8 1636.5,1663.3 "/>
<polygon class="st3" points="1634.4,1663.3 1536.3,1652.8 1305.4,1500.8 1016.9,1457.3 927.3,1333.1 914.4,1242.8 797.3,1213.2 
	751.9,1126.1 980.3,1126.1 1131.3,1251.9 1357.4,1325.3 1489.4,1449.2 1492.6,1453.8 "/>
<polygon class="st4" points="600.1,1318.8 410,1430.2 355.6,1675.8 61.8,1677.3 192.1,1416.6 326.5,1298.5 509.8,1241.4 
	594.7,1126.1 "/>
<path class="st5" d="M905.5,1082.9l0.4-31.7l-45.9,3.2l-1.3,26.2C874.1,1083.7,889.9,1084.4,905.5,1082.9z"/>
<path class="st4" d="M955.2,1125.9c-12.4-20.4-29.5-27.2-49.8-29.8l0.1-13.2c-15.7,1.6-31.5,0.8-46.9-2.3l-2.3,45.2H955.2z"/>
<path class="st4" d="M677.6,1086l-4.2,9.6c-20.3,2.6-38.5,13.5-55.2,30.3h96.3l10.2-39.8C709.2,1088.8,693.2,1088.8,677.6,1086z"/>
<path class="st5" d="M724.8,1086.1l8.2-31.7l-40.6-2.2l-14.8,33.7C693.2,1088.8,709.2,1088.8,724.8,1086.1z"/>
<path class="st4" d="M930.9,619.8c24.2,157.3,13.2,284.7-20.4,442.7h-57.7c6.9-102.6,12.2-224.5-4-305.3l-110.1,306.6h-63L778,650.4
	l46.9-8.9l88.6-16.2L930.9,619.8z"/>
<path class="st5" d="M1003.6,255l15.5-46.5l42,9.8c3.2,15.6-15.7,39.2-29.7,57L1003.6,255z"/>
<polygon class="st5" points="861.9,421.1 813.6,421.7 808.8,358.3 808.2,350.8 856.8,350.3 858.5,374.4 "/>
<path class="st4" d="M858.2,370c-15.8,11.3-36.5,4.3-49.5-11.7l-0.6-7.6l48.6-0.4L858.2,370z"/>
<path class="st5" d="M846.9,364.7c-24.5,5.6-51.9-10.1-62.8-31l-1.5-37.5l13.7-19.5l58.4,5c-0.3,0.1-0.2,0.9,0,2.3
	c0.7,3.6,2.9,11.4,5,20.7C865,327.4,869.1,359.6,846.9,364.7z"/>
<path class="st6" d="M805.8,397.1c0,0,36.1,28.9,67.5-12.3l59.5,197.7c-36.5,25.8-82.5,34.7-137.8,27.4L805.8,397.1z"/>
<g class="st7">
	<path class="st8" d="M813.6,421.7c4.9,1.7,10,2.9,15.2,3.5c5.1,0.6,10.2,0.4,15.2-0.6c5-0.9,9.8-2.6,14.3-5c2.3-1.2,4.5-2.5,6.7-4
		c2.2-1.4,4.1-3.2,6.4-4.7c-1.7,2.1-3.4,4.1-5.3,6c-2,1.7-4,3.7-6.3,5c-4.6,3-9.7,5.1-15.1,6.1C833.9,430.1,822.7,427.8,813.6,421.7
		z"/>
</g>
<path class="st2" d="M1001.9,246.3c-32.7,55.1-64.5,103.6-93.3,126.7c-4.3,3.4-9.7,5-15.2,4.7c-10.8-0.6-22,0.8-34.4,3.7
	c2.6,98.9,12,190.6,45.6,246.7c20.3-5.8,44.9-15.2,58.5-26.7c-11.1-37.6-24.2-91.5-33.9-138.6l107.9-192.7L1001.9,246.3z"/>
<path class="st9" d="M859.9,304.7c-37.2,21.2-68-17.4-68-17.4l63-3.3C855.6,287.6,857.8,295.3,859.9,304.7z"/>
<path class="st4" d="M792.5,326.4c4.6-5.9,6.6-15.8,2.5-35.7c13.5,15.3,33.7,18.9,63.2,5.8c0,0,19.2-7.5,14.8-27.1
	c-4-17.7-18.8-27.1-30.3-12.6c-26.2-7.7-52-9-63.5,14.8c0,0-36.8,19.1-5.4,50.2L792.5,326.4z"/>
<polygon class="st2" points="738.8,735 732.5,733.6 739.1,703.9 695.4,693.3 689.6,720.3 683.2,719 690.4,685.4 746.8,699.1 "/>
<path class="st5" d="M713.1,641.5c-1.1,1.5-5,32-5,32s-17.7,16.6-5.8,26.8c11.9,10.2,26.3,9.8,33.2,2.3c2.4-7.4,2.6-16-0.4-26.4
	l6.9-33.9L713.1,641.5z"/>
<polygon class="st10" points="771.2,732.9 753.7,806.8 747,835.4 633.7,792.8 648.6,730.5 655.7,700.8 "/>
<polygon class="st11" points="1088.7,241.5 1028.6,278 1025.9,256.8 1071.2,229.3 "/>
<polygon class="st12" points="1056.3,238.4 1040.8,247.7 1004.2,195.7 1027,181.8 "/>
<path class="st13" d="M1030.1,180l-29,17.6c-6.5,3.9-14.9,2.5-19.7-3.3l-48.5-58.6l73.8-44.7l29.6,70.1
	C1039.2,168,1036.6,176.1,1030.1,180z"/>
<path class="st13" d="M1026.6,143l-4-1.7c11.1-26.8,9.2-48.6,1-53.4c-4.3-2.5-10.2,0.5-16.2,8.1l-3.4-2.7
	c10.7-13.5,18.8-10.9,21.8-9.1C1035.8,90.1,1038.8,113.6,1026.6,143z"/>
<path class="st13" d="M968.8,178c-31.7-2.8-51.2-16.4-51.8-27.9c-0.2-3.5,1.2-11.9,18.2-15.1l0.8,4.3c-9.6,1.8-14.9,5.7-14.7,10.6
	c0.5,9.5,18.9,21.3,47.8,23.8L968.8,178z"/>
<path class="st1" d="M995.7,128.8c-2.5-4.4-2.4-9.2,0.3-10.8s6.9,0.8,9.5,5.1s2.4,9.2-0.3,10.8S998.3,133.3,995.7,128.8z"/>
<path class="st5" d="M1061.1,217.1c1,7.5-3.7,14.2-13.7,14.2c-6.2,0-15-8.6-16.8-18.8c-1.5-8.4,1.7-13.9,7.6-16.3
	S1059.1,203,1061.1,217.1z"/>
<rect x="891.6" y="64.7" transform="matrix(0.3005 -0.9538 0.9538 0.3005 538.0092 918.174)" class="st13" width="6.8" height="55.2"/>
<rect x="953.2" y="36" transform="matrix(0.1738 -0.9848 0.9848 0.1738 771.5112 998.5031)" class="st13" width="55.2" height="6.8"/>
<rect x="924.8" y="23.6" transform="matrix(0.8423 -0.5391 0.5391 0.8423 118.7908 508.4444)" class="st13" width="6.8" height="55.2"/>
<path class="st2" d="M775.5,520.6l-8.7,130.6c48.4-2.2,80.8-18,80.8-18c4.2-78-5.8-165.2-36.7-243.7
	c-78.4,29.1-100.5,125.6-112.1,269l45.9,5.3L775.5,520.6z"/>
<path class="st5" d="M793.2,339.4c-14.8,5.3-24.2,4.1-25-10c-0.4-8.1,7.9-14.5,15.2-11.1c3.2,1.5,6.2,4.3,9,8.2L793.2,339.4z"/>
<path class="st14" d="M753.7,806.8l-6.7,28.5l-113.3-42.6l14.9-62.3C662.6,759.3,692.1,795.1,753.7,806.8z"/>
<path class="st4" d="M919.4,418.3c2,6.2,3.7,12.5,5.3,18.7s3.2,12.6,4.7,18.9s2.8,12.6,4.1,19s2.4,12.7,3.3,19.2l-1.7,0.4
	c-2-6.2-3.7-12.5-5.3-18.7s-3.2-12.6-4.6-18.9s-2.8-12.7-4-19s-2.4-12.7-3.4-19.2L919.4,418.3z"/>
<path class="st4" d="M777.8,476.6c0.2,6.3,0.2,12.5,0.1,18.8s-0.3,12.5-0.6,18.8c-0.3,6.3-0.7,12.5-1.2,18.8s-1.1,12.5-2,18.7
	l-1.7-0.1c-0.3-6.3-0.2-12.5-0.1-18.8s0.3-12.5,0.6-18.8c0.3-6.3,0.7-12.5,1.2-18.8s1.1-12.5,1.9-18.7L777.8,476.6z"/>
<path class="st15" d="M838.2,784.4c1.9-7.2,4.1-14.2,6.4-21.2s4.7-14,7-21s5-13.9,7.6-20.8s5.3-13.8,8.3-20.6l1.6,0.6
	c-1.9,7.2-4.1,14.2-6.3,21.3s-4.7,14-7.1,21s-4.9,13.9-7.6,20.8s-5.3,13.8-8.2,20.6L838.2,784.4z"/>
<path class="st4" d="M784.4,331.6c-0.8-1.1-1.5-2.2-2.2-3.2c-0.7-1-1.5-1.9-2.3-2.7c-0.6-0.7-1.5-1-2.4-0.9
	c-0.9,0.1-1.8,1.1-2.8,1.9l-0.8-0.5c0.5-1.5,1.5-2.7,2.9-3.4c1.7-0.6,3.5-0.2,4.8,1.1c2,2,3.3,4.6,3.8,7.4L784.4,331.6z"/>
<path class="st5" d="M1029.9,219.4c1.6-6,0.8-11.4-1.8-12s-6.5,2.1-8.1,8.1s-3.4,14.6,0.7,16.5
	C1027.9,235.3,1028.3,225.4,1029.9,219.4z"/>
</svg>
