<svg id="Layer_1" data-name="Layer 1" xmlns="http://www.w3.org/2000/svg" xmlns:xlink="http://www.w3.org/1999/xlink" viewBox="0 0 1081.63 611.49"><defs><style>.cls-1,.cls-10,.cls-11,.cls-12,.cls-13,.cls-14,.cls-15,.cls-16,.cls-17,.cls-18,.cls-19,.cls-2,.cls-20,.cls-21,.cls-22,.cls-23,.cls-24,.cls-25,.cls-26,.cls-27,.cls-28,.cls-29,.cls-3,.cls-30,.cls-31,.cls-32,.cls-33,.cls-34,.cls-35,.cls-36,.cls-37,.cls-38,.cls-39,.cls-4,.cls-40,.cls-41,.cls-42,.cls-43,.cls-44,.cls-45,.cls-46,.cls-47,.cls-48,.cls-49,.cls-5,.cls-50,.cls-51,.cls-52,.cls-53,.cls-54,.cls-55,.cls-56,.cls-57,.cls-58,.cls-59,.cls-6,.cls-60,.cls-61,.cls-62,.cls-63,.cls-64,.cls-65,.cls-66,.cls-67,.cls-68,.cls-69,.cls-7,.cls-70,.cls-71,.cls-72,.cls-73,.cls-74,.cls-75,.cls-76,.cls-77,.cls-78,.cls-79,.cls-8,.cls-80,.cls-81,.cls-82,.cls-83,.cls-84,.cls-85,.cls-86,.cls-87,.cls-9{fill:none;stroke-linecap:round;stroke-miterlimit:10;}.cls-1,.cls-2,.cls-3{stroke-width:3px;}.cls-1{stroke:url(#linear-gradient);}.cls-2{stroke-dasharray:0 9.02;stroke:url(#linear-gradient-2);}.cls-3{stroke:url(#linear-gradient-3);}.cls-4,.cls-5,.cls-6{stroke-width:2.9px;}.cls-4{stroke:url(#linear-gradient-4);}.cls-5{stroke-dasharray:0 8.81;stroke:url(#linear-gradient-5);}.cls-6{stroke:url(#linear-gradient-6);}.cls-7,.cls-8,.cls-9{stroke-width:2.8px;}.cls-7{stroke:url(#linear-gradient-7);}.cls-8{stroke-dasharray:0 8.62;stroke:url(#linear-gradient-8);}.cls-9{stroke:url(#linear-gradient-9);}.cls-10,.cls-11,.cls-12{stroke-width:2.71px;}.cls-10{stroke:url(#linear-gradient-10);}.cls-11{stroke-dasharray:0 8.49;stroke:url(#linear-gradient-11);}.cls-12{stroke:url(#linear-gradient-12);}.cls-13,.cls-14,.cls-15{stroke-width:2.61px;}.cls-13{stroke:url(#linear-gradient-13);}.cls-14{stroke-dasharray:0 8.31;stroke:url(#linear-gradient-14);}.cls-15{stroke:url(#linear-gradient-15);}.cls-16,.cls-17,.cls-18{stroke-width:2.51px;}.cls-16{stroke:url(#linear-gradient-16);}.cls-17{stroke-dasharray:0 8.08;stroke:url(#linear-gradient-17);}.cls-18{stroke:url(#linear-gradient-18);}.cls-19,.cls-20,.cls-21{stroke-width:2.41px;}.cls-19{stroke:url(#linear-gradient-19);}.cls-20{stroke-dasharray:0 7.92;stroke:url(#linear-gradient-20);}.cls-21{stroke:url(#linear-gradient-21);}.cls-22,.cls-23,.cls-24{stroke-width:2.31px;}.cls-22{stroke:url(#linear-gradient-22);}.cls-23{stroke-dasharray:0 7.77;stroke:url(#linear-gradient-23);}.cls-24{stroke:url(#linear-gradient-24);}.cls-25,.cls-26,.cls-27{stroke-width:2.21px;}.cls-25{stroke:url(#linear-gradient-25);}.cls-26{stroke-dasharray:0 7.57;stroke:url(#linear-gradient-26);}.cls-27{stroke:url(#linear-gradient-27);}.cls-28,.cls-29,.cls-30{stroke-width:2.12px;}.cls-28{stroke:url(#linear-gradient-28);}.cls-29{stroke-dasharray:0 7.39;stroke:url(#linear-gradient-29);}.cls-30{stroke:url(#linear-gradient-30);}.cls-31,.cls-32,.cls-33{stroke-width:2.02px;}.cls-31{stroke:url(#linear-gradient-31);}.cls-32{stroke-dasharray:0 7.22;stroke:url(#linear-gradient-32);}.cls-33{stroke:url(#linear-gradient-33);}.cls-34,.cls-35,.cls-36{stroke-width:1.92px;}.cls-34{stroke:url(#linear-gradient-34);}.cls-35{stroke-dasharray:0 7.01;stroke:url(#linear-gradient-35);}.cls-36{stroke:url(#linear-gradient-36);}.cls-37,.cls-38,.cls-39{stroke-width:1.82px;}.cls-37{stroke:url(#linear-gradient-37);}.cls-38{stroke-dasharray:0 6.87;stroke:url(#linear-gradient-38);}.cls-39{stroke:url(#linear-gradient-39);}.cls-40,.cls-41,.cls-42{stroke-width:1.72px;}.cls-40{stroke:url(#linear-gradient-40);}.cls-41{stroke-dasharray:0 6.69;stroke:url(#linear-gradient-41);}.cls-42{stroke:url(#linear-gradient-42);}.cls-43,.cls-44,.cls-45{stroke-width:1.63px;}.cls-43{stroke:url(#linear-gradient-43);}.cls-44{stroke-dasharray:0 6.49;stroke:url(#linear-gradient-44);}.cls-45{stroke:url(#linear-gradient-45);}.cls-46,.cls-47,.cls-48{stroke-width:1.53px;}.cls-46{stroke:url(#linear-gradient-46);}.cls-47{stroke-dasharray:0 6.31;stroke:url(#linear-gradient-47);}.cls-48{stroke:url(#linear-gradient-48);}.cls-49,.cls-50,.cls-51{stroke-width:1.43px;}.cls-49{stroke:url(#linear-gradient-49);}.cls-50{stroke-dasharray:0 6.15;stroke:url(#linear-gradient-50);}.cls-51{stroke:url(#linear-gradient-51);}.cls-52,.cls-53,.cls-54{stroke-width:1.33px;}.cls-52{stroke:url(#linear-gradient-52);}.cls-53{stroke-dasharray:0 5.97;stroke:url(#linear-gradient-53);}.cls-54{stroke:url(#linear-gradient-54);}.cls-55,.cls-56,.cls-57{stroke-width:1.23px;}.cls-55{stroke:url(#linear-gradient-55);}.cls-56{stroke-dasharray:0 5.77;stroke:url(#linear-gradient-56);}.cls-57{stroke:url(#linear-gradient-57);}.cls-58,.cls-59,.cls-60{stroke-width:1.13px;}.cls-58{stroke:url(#linear-gradient-58);}.cls-59{stroke-dasharray:0 5.6;stroke:url(#linear-gradient-59);}.cls-60{stroke:url(#linear-gradient-60);}.cls-61,.cls-62,.cls-63{stroke-width:1.04px;}.cls-61{stroke:url(#linear-gradient-61);}.cls-62{stroke-dasharray:0 5.44;stroke:url(#linear-gradient-62);}.cls-63{stroke:url(#linear-gradient-63);}.cls-64,.cls-65,.cls-66{stroke-width:0.94px;}.cls-64{stroke:url(#linear-gradient-64);}.cls-65{stroke-dasharray:0 5.25;stroke:url(#linear-gradient-65);}.cls-66{stroke:url(#linear-gradient-66);}.cls-67,.cls-68,.cls-69{stroke-width:0.84px;}.cls-67{stroke:url(#linear-gradient-67);}.cls-68{stroke-dasharray:0 5.07;stroke:url(#linear-gradient-68);}.cls-69{stroke:url(#linear-gradient-69);}.cls-70,.cls-71,.cls-72{stroke-width:0.74px;}.cls-70{stroke:url(#linear-gradient-70);}.cls-71{stroke-dasharray:0 4.9;stroke:url(#linear-gradient-71);}.cls-72{stroke:url(#linear-gradient-72);}.cls-73,.cls-74,.cls-75{stroke-width:0.64px;}.cls-73{stroke:url(#linear-gradient-73);}.cls-74{stroke-dasharray:0 4.72;stroke:url(#linear-gradient-74);}.cls-75{stroke:url(#linear-gradient-75);}.cls-76,.cls-77,.cls-78{stroke-width:0.54px;}.cls-76{stroke:url(#linear-gradient-76);}.cls-77{stroke-dasharray:0 4.53;stroke:url(#linear-gradient-77);}.cls-78{stroke:url(#linear-gradient-78);}.cls-79,.cls-80,.cls-81{stroke-width:0.45px;}.cls-79{stroke:url(#linear-gradient-79);}.cls-80{stroke-dasharray:0 4.36;stroke:url(#linear-gradient-80);}.cls-81{stroke:url(#linear-gradient-81);}.cls-82,.cls-83,.cls-84{stroke-width:0.35px;}.cls-82{stroke:url(#linear-gradient-82);}.cls-83{stroke-dasharray:0 4.17;stroke:url(#linear-gradient-83);}.cls-84{stroke:url(#linear-gradient-84);}.cls-85,.cls-86,.cls-87{stroke-width:0.25px;}.cls-85{stroke:url(#linear-gradient-85);}.cls-86{stroke-dasharray:0 4;stroke:url(#linear-gradient-86);}.cls-87{stroke:url(#linear-gradient-87);}</style><linearGradient id="linear-gradient" x1="22.99" y1="609.99" x2="1081.62" y2="609.99" gradientUnits="userSpaceOnUse"><stop offset="0" stop-color="#ff0fa3"/><stop offset="0.12" stop-color="#e618ac"/><stop offset="0.39" stop-color="#a730c3"/><stop offset="0.77" stop-color="#4256e7"/><stop offset="1" stop-color="#006fff"/></linearGradient><linearGradient id="linear-gradient-2" x1="22.86" y1="386.49" x2="1081.5" y2="386.49" xlink:href="#linear-gradient"/><linearGradient id="linear-gradient-3" x1="22.99" y1="417.4" x2="1081.63" y2="417.4" xlink:href="#linear-gradient"/><linearGradient id="linear-gradient-4" x1="22.17" y1="590.46" x2="1081.11" y2="590.46" gradientUnits="userSpaceOnUse"><stop offset="0" stop-color="#f817a6"/><stop offset="0.13" stop-color="#df20af"/><stop offset="0.4" stop-color="#a036c5"/><stop offset="0.8" stop-color="#3c58e9"/><stop offset="1" stop-color="#076bfc"/></linearGradient><linearGradient id="linear-gradient-5" x1="22.04" y1="377.79" x2="1080.99" y2="377.79" xlink:href="#linear-gradient-4"/><linearGradient id="linear-gradient-6" x1="22.17" y1="408.55" x2="1081.11" y2="408.55" xlink:href="#linear-gradient-4"/><linearGradient id="linear-gradient-7" x1="21.35" y1="570.94" x2="1080.6" y2="570.94" gradientUnits="userSpaceOnUse"><stop offset="0" stop-color="#f01faa"/><stop offset="0.14" stop-color="#d827b2"/><stop offset="0.42" stop-color="#993ac8"/><stop offset="0.84" stop-color="#365aea"/><stop offset="1" stop-color="#0d67f8"/></linearGradient><linearGradient id="linear-gradient-8" x1="21.22" y1="369.05" x2="1080.48" y2="369.05" xlink:href="#linear-gradient-7"/><linearGradient id="linear-gradient-9" x1="21.35" y1="399.7" x2="1080.6" y2="399.7" xlink:href="#linear-gradient-7"/><linearGradient id="linear-gradient-10" x1="20.53" y1="551.41" x2="1080.09" y2="551.41" gradientUnits="userSpaceOnUse"><stop offset="0" stop-color="#e926ad"/><stop offset="0.14" stop-color="#d12db5"/><stop offset="0.44" stop-color="#933fca"/><stop offset="0.88" stop-color="#315beb"/><stop offset="1" stop-color="#1463f5"/></linearGradient><linearGradient id="linear-gradient-11" x1="20.4" y1="360.28" x2="1079.96" y2="360.28" xlink:href="#linear-gradient-10"/><linearGradient id="linear-gradient-12" x1="20.53" y1="390.86" x2="1080.09" y2="390.86" xlink:href="#linear-gradient-10"/><linearGradient id="linear-gradient-13" x1="19.71" y1="531.88" x2="1079.58" y2="531.88" gradientUnits="userSpaceOnUse"><stop offset="0" stop-color="#e12eb0"/><stop offset="0.15" stop-color="#c934b8"/><stop offset="0.47" stop-color="#8c43cc"/><stop offset="0.93" stop-color="#2b5bed"/><stop offset="1" stop-color="#1b5ff2"/></linearGradient><linearGradient id="linear-gradient-14" x1="19.58" y1="351.47" x2="1079.45" y2="351.47" xlink:href="#linear-gradient-13"/><linearGradient id="linear-gradient-15" x1="19.71" y1="382.01" x2="1079.58" y2="382.01" xlink:href="#linear-gradient-13"/><linearGradient id="linear-gradient-16" x1="18.88" y1="512.36" x2="1079.07" y2="512.36" gradientUnits="userSpaceOnUse"><stop offset="0" stop-color="#da36b3"/><stop offset="0.16" stop-color="#c23bba"/><stop offset="0.5" stop-color="#8647ce"/><stop offset="0.98" stop-color="#265aec"/><stop offset="1" stop-color="#215bee"/></linearGradient><linearGradient id="linear-gradient-17" x1="18.76" y1="342.63" x2="1078.94" y2="342.63" xlink:href="#linear-gradient-16"/><linearGradient id="linear-gradient-18" x1="18.88" y1="373.16" x2="1079.07" y2="373.16" xlink:href="#linear-gradient-16"/><linearGradient id="linear-gradient-19" x1="18.06" y1="492.83" x2="1078.55" y2="492.83" gradientUnits="userSpaceOnUse"><stop offset="0" stop-color="#d33eb7"/><stop offset="0.17" stop-color="#bc41be"/><stop offset="0.53" stop-color="#804ad0"/><stop offset="1" stop-color="#2857eb"/></linearGradient><linearGradient id="linear-gradient-20" x1="17.94" y1="333.72" x2="1078.43" y2="333.72" xlink:href="#linear-gradient-19"/><linearGradient id="linear-gradient-21" x1="18.06" y1="364.32" x2="1078.55" y2="364.32" xlink:href="#linear-gradient-19"/><linearGradient id="linear-gradient-22" x1="17.24" y1="473.3" x2="1078.04" y2="473.3" gradientUnits="userSpaceOnUse"><stop offset="0" stop-color="#cb46ba"/><stop offset="0.18" stop-color="#b448c1"/><stop offset="0.57" stop-color="#794dd2"/><stop offset="1" stop-color="#2f53e8"/></linearGradient><linearGradient id="linear-gradient-23" x1="17.12" y1="324.72" x2="1077.92" y2="324.72" xlink:href="#linear-gradient-22"/><linearGradient id="linear-gradient-24" x1="17.24" y1="355.47" x2="1078.04" y2="355.47" xlink:href="#linear-gradient-22"/><linearGradient id="linear-gradient-25" x1="16.42" y1="453.78" x2="1077.53" y2="453.78" gradientUnits="userSpaceOnUse"><stop offset="0" stop-color="#c44ebd"/><stop offset="0.2" stop-color="#ad4ec3"/><stop offset="0.6" stop-color="#734fd3"/><stop offset="1" stop-color="#354fe4"/></linearGradient><linearGradient id="linear-gradient-26" x1="16.3" y1="315.63" x2="1077.41" y2="315.63" xlink:href="#linear-gradient-25"/><linearGradient id="linear-gradient-27" x1="16.42" y1="346.62" x2="1077.53" y2="346.62" xlink:href="#linear-gradient-25"/><linearGradient id="linear-gradient-28" x1="15.6" y1="434.25" x2="1077.02" y2="434.25" gradientUnits="userSpaceOnUse"><stop offset="0" stop-color="#bc55c1"/><stop offset="0.21" stop-color="#a553c7"/><stop offset="0.66" stop-color="#6c4fd5"/><stop offset="1" stop-color="#3c4be1"/></linearGradient><linearGradient id="linear-gradient-29" x1="15.47" y1="306.41" x2="1076.89" y2="306.41" xlink:href="#linear-gradient-28"/><linearGradient id="linear-gradient-30" x1="15.6" y1="337.78" x2="1077.02" y2="337.78" xlink:href="#linear-gradient-28"/><linearGradient id="linear-gradient-31" x1="14.78" y1="414.72" x2="1076.51" y2="414.72" gradientUnits="userSpaceOnUse"><stop offset="0" stop-color="#b55dc4"/><stop offset="0.23" stop-color="#9f59c9"/><stop offset="0.72" stop-color="#654ed5"/><stop offset="1" stop-color="#4247dd"/></linearGradient><linearGradient id="linear-gradient-32" x1="14.65" y1="297.01" x2="1076.38" y2="297.01" xlink:href="#linear-gradient-31"/><linearGradient id="linear-gradient-33" x1="14.78" y1="328.93" x2="1076.51" y2="328.93" xlink:href="#linear-gradient-31"/><linearGradient id="linear-gradient-34" x1="13.96" y1="395.2" x2="1076" y2="395.2" gradientUnits="userSpaceOnUse"><stop offset="0" stop-color="#ae65c7"/><stop offset="0.26" stop-color="#985ecb"/><stop offset="0.8" stop-color="#5f4ad6"/><stop offset="1" stop-color="#4943da"/></linearGradient><linearGradient id="linear-gradient-35" x1="13.83" y1="287.36" x2="1075.87" y2="287.36" xlink:href="#linear-gradient-34"/><linearGradient id="linear-gradient-36" x1="13.96" y1="320.09" x2="1076" y2="320.09" xlink:href="#linear-gradient-34"/><linearGradient id="linear-gradient-37" x1="13.14" y1="375.67" x2="1075.48" y2="375.67" gradientUnits="userSpaceOnUse"><stop offset="0" stop-color="#a66dca"/><stop offset="0.3" stop-color="#9061cd"/><stop offset="0.92" stop-color="#5843d6"/><stop offset="1" stop-color="#503fd7"/></linearGradient><linearGradient id="linear-gradient-38" x1="13.01" y1="277.37" x2="1075.36" y2="277.37" xlink:href="#linear-gradient-37"/><linearGradient id="linear-gradient-39" x1="13.14" y1="311.24" x2="1075.48" y2="311.24" xlink:href="#linear-gradient-37"/><linearGradient id="linear-gradient-40" x1="12.32" y1="356.14" x2="1074.97" y2="356.14" gradientUnits="userSpaceOnUse"><stop offset="0" stop-color="#9f75ce"/><stop offset="0.34" stop-color="#8964cf"/><stop offset="1" stop-color="#563bd3"/></linearGradient><linearGradient id="linear-gradient-41" x1="12.19" y1="266.9" x2="1074.85" y2="266.9" xlink:href="#linear-gradient-40"/><linearGradient id="linear-gradient-42" x1="12.32" y1="302.39" x2="1074.97" y2="302.39" xlink:href="#linear-gradient-40"/><linearGradient id="linear-gradient-43" x1="11.5" y1="336.62" x2="1074.46" y2="336.62" gradientUnits="userSpaceOnUse"><stop offset="0" stop-color="#977dd1"/><stop offset="0.35" stop-color="#8567d1"/><stop offset="1" stop-color="#5d37d0"/></linearGradient><linearGradient id="linear-gradient-44" x1="11.37" y1="255.81" x2="1074.33" y2="255.81" xlink:href="#linear-gradient-43"/><linearGradient id="linear-gradient-45" x1="11.5" y1="293.55" x2="1074.46" y2="293.55" xlink:href="#linear-gradient-43"/><linearGradient id="linear-gradient-46" x1="10.67" y1="317.09" x2="1073.95" y2="317.09" gradientUnits="userSpaceOnUse"><stop offset="0" stop-color="#9084d4"/><stop offset="0.31" stop-color="#846fd2"/><stop offset="0.96" stop-color="#6638cd"/><stop offset="1" stop-color="#6434cd"/></linearGradient><linearGradient id="linear-gradient-47" x1="10.55" y1="243.92" x2="1073.82" y2="243.92" xlink:href="#linear-gradient-46"/><linearGradient id="linear-gradient-48" x1="10.67" y1="284.7" x2="1073.95" y2="284.7" xlink:href="#linear-gradient-46"/><linearGradient id="linear-gradient-49" x1="9.85" y1="297.56" x2="1073.43" y2="297.56" gradientUnits="userSpaceOnUse"><stop offset="0" stop-color="#898cd8"/><stop offset="0.27" stop-color="#8277d5"/><stop offset="0.84" stop-color="#7041cc"/><stop offset="1" stop-color="#6a30c9"/></linearGradient><linearGradient id="linear-gradient-50" x1="9.73" y1="231.12" x2="1073.31" y2="231.12" xlink:href="#linear-gradient-49"/><linearGradient id="linear-gradient-51" x1="9.85" y1="275.85" x2="1073.43" y2="275.85" xlink:href="#linear-gradient-49"/><linearGradient id="linear-gradient-52" x1="9.03" y1="278.04" x2="1072.92" y2="278.04" gradientUnits="userSpaceOnUse"><stop offset="0" stop-color="#8194db"/><stop offset="0.25" stop-color="#7e7fd7"/><stop offset="0.75" stop-color="#7549cc"/><stop offset="1" stop-color="#712cc6"/></linearGradient><linearGradient id="linear-gradient-53" x1="8.91" y1="217.39" x2="1072.8" y2="217.39" xlink:href="#linear-gradient-52"/><linearGradient id="linear-gradient-54" x1="9.03" y1="267.01" x2="1072.92" y2="267.01" xlink:href="#linear-gradient-52"/><linearGradient id="linear-gradient-55" x1="8.21" y1="258.51" x2="1072.41" y2="258.51" gradientUnits="userSpaceOnUse"><stop offset="0" stop-color="#7a9cde"/><stop offset="0.22" stop-color="#7a87d9"/><stop offset="0.67" stop-color="#7952cd"/><stop offset="1" stop-color="#7828c3"/></linearGradient><linearGradient id="linear-gradient-56" x1="8.09" y1="203.72" x2="1072.29" y2="203.72" xlink:href="#linear-gradient-55"/><linearGradient id="linear-gradient-57" x1="8.21" y1="258.16" x2="1072.41" y2="258.16" xlink:href="#linear-gradient-55"/><linearGradient id="linear-gradient-58" x1="7.39" y1="238.98" x2="1071.9" y2="238.98" gradientUnits="userSpaceOnUse"><stop offset="0" stop-color="#73a4e1"/><stop offset="0.2" stop-color="#758fdc"/><stop offset="0.61" stop-color="#795bcd"/><stop offset="1" stop-color="#7e24bf"/></linearGradient><linearGradient id="linear-gradient-59" x1="7.26" y1="194.29" x2="1071.77" y2="194.29" xlink:href="#linear-gradient-58"/><linearGradient id="linear-gradient-60" x1="7.39" y1="249.31" x2="1071.9" y2="249.31" xlink:href="#linear-gradient-58"/><linearGradient id="linear-gradient-61" x1="6.57" y1="219.46" x2="1071.39" y2="219.46" gradientUnits="userSpaceOnUse"><stop offset="0" stop-color="#6babe5"/><stop offset="0.19" stop-color="#6f97df"/><stop offset="0.57" stop-color="#7962cf"/><stop offset="1" stop-color="#8520bc"/></linearGradient><linearGradient id="linear-gradient-62" x1="6.44" y1="186.01" x2="1071.26" y2="186.01" xlink:href="#linear-gradient-61"/><linearGradient id="linear-gradient-63" x1="6.57" y1="240.47" x2="1071.39" y2="240.47" xlink:href="#linear-gradient-61"/><linearGradient id="linear-gradient-64" x1="5.75" y1="199.93" x2="1070.88" y2="199.93" gradientUnits="userSpaceOnUse"><stop offset="0" stop-color="#64b3e8"/><stop offset="0.17" stop-color="#699fe2"/><stop offset="0.53" stop-color="#776ad1"/><stop offset="1" stop-color="#8c1cb9"/></linearGradient><linearGradient id="linear-gradient-65" x1="5.62" y1="178.29" x2="1070.75" y2="178.29" xlink:href="#linear-gradient-64"/><linearGradient id="linear-gradient-66" x1="5.75" y1="231.62" x2="1070.88" y2="231.62" xlink:href="#linear-gradient-64"/><linearGradient id="linear-gradient-67" x1="4.93" y1="180.4" x2="1070.36" y2="180.4" gradientUnits="userSpaceOnUse"><stop offset="0" stop-color="#5cbbeb"/><stop offset="0.16" stop-color="#63a7e4"/><stop offset="0.49" stop-color="#7473d3"/><stop offset="0.96" stop-color="#8f20b8"/><stop offset="1" stop-color="#9218b5"/></linearGradient><linearGradient id="linear-gradient-68" x1="4.8" y1="170.78" x2="1070.24" y2="170.78" xlink:href="#linear-gradient-67"/><linearGradient id="linear-gradient-69" x1="4.93" y1="222.78" x2="1070.36" y2="222.78" xlink:href="#linear-gradient-67"/><linearGradient id="linear-gradient-70" x1="4.11" y1="160.88" x2="1069.85" y2="160.88" gradientUnits="userSpaceOnUse"><stop offset="0" stop-color="#55c3ef"/><stop offset="0.15" stop-color="#5dafe8"/><stop offset="0.46" stop-color="#717bd6"/><stop offset="0.89" stop-color="#9129b9"/><stop offset="1" stop-color="#9914b2"/></linearGradient><linearGradient id="linear-gradient-71" x1="3.98" y1="163.31" x2="1069.73" y2="163.31" xlink:href="#linear-gradient-70"/><linearGradient id="linear-gradient-72" x1="4.11" y1="213.93" x2="1069.85" y2="213.93" xlink:href="#linear-gradient-70"/><linearGradient id="linear-gradient-73" x1="3.28" y1="141.35" x2="1069.34" y2="141.35" gradientUnits="userSpaceOnUse"><stop offset="0" stop-color="#4ecbf2"/><stop offset="0.14" stop-color="#57b7eb"/><stop offset="0.43" stop-color="#6d84d8"/><stop offset="0.84" stop-color="#9032bb"/><stop offset="1" stop-color="#9f10ae"/></linearGradient><linearGradient id="linear-gradient-74" x1="3.16" y1="155.82" x2="1069.22" y2="155.82" xlink:href="#linear-gradient-73"/><linearGradient id="linear-gradient-75" x1="3.28" y1="205.08" x2="1069.34" y2="205.08" xlink:href="#linear-gradient-73"/><linearGradient id="linear-gradient-76" x1="2.46" y1="121.82" x2="1068.83" y2="121.82" gradientUnits="userSpaceOnUse"><stop offset="0" stop-color="#46d3f5"/><stop offset="0.13" stop-color="#4fbfee"/><stop offset="0.41" stop-color="#688ddb"/><stop offset="0.79" stop-color="#8f3cbd"/><stop offset="1" stop-color="#a60cab"/></linearGradient><linearGradient id="linear-gradient-77" x1="2.34" y1="148.28" x2="1068.7" y2="148.28" xlink:href="#linear-gradient-76"/><linearGradient id="linear-gradient-78" x1="2.46" y1="196.24" x2="1068.83" y2="196.24" xlink:href="#linear-gradient-76"/><linearGradient id="linear-gradient-79" x1="1.64" y1="102.3" x2="1068.32" y2="102.3" gradientUnits="userSpaceOnUse"><stop offset="0" stop-color="#3fdaf8"/><stop offset="0.13" stop-color="#49c7f1"/><stop offset="0.38" stop-color="#6494dd"/><stop offset="0.75" stop-color="#8e44bf"/><stop offset="1" stop-color="#ad08a8"/></linearGradient><linearGradient id="linear-gradient-80" x1="1.52" y1="140.67" x2="1068.19" y2="140.67" xlink:href="#linear-gradient-79"/><linearGradient id="linear-gradient-81" x1="1.64" y1="187.39" x2="1068.32" y2="187.39" xlink:href="#linear-gradient-79"/><linearGradient id="linear-gradient-82" x1="0.82" y1="82.77" x2="1067.8" y2="82.77" gradientUnits="userSpaceOnUse"><stop offset="0" stop-color="#37e2fc"/><stop offset="0.12" stop-color="#42cff4"/><stop offset="0.36" stop-color="#5e9de1"/><stop offset="0.71" stop-color="#8a4dc1"/><stop offset="1" stop-color="#b304a4"/></linearGradient><linearGradient id="linear-gradient-83" x1="0.7" y1="132.99" x2="1067.68" y2="132.99" xlink:href="#linear-gradient-82"/><linearGradient id="linear-gradient-84" x1="0.82" y1="178.55" x2="1067.8" y2="178.55" xlink:href="#linear-gradient-82"/><linearGradient id="linear-gradient-85" y1="63.24" x2="1067.29" y2="63.24" gradientUnits="userSpaceOnUse"><stop offset="0" stop-color="#30eaff"/><stop offset="0.11" stop-color="#3bd7f7"/><stop offset="0.35" stop-color="#59a5e3"/><stop offset="0.67" stop-color="#8756c3"/><stop offset="1" stop-color="#ba00a1"/></linearGradient><linearGradient id="linear-gradient-86" x1="-0.13" y1="125.24" x2="1067.17" y2="125.24" xlink:href="#linear-gradient-85"/><linearGradient id="linear-gradient-87" y1="169.7" x2="1067.29" y2="169.7" xlink:href="#linear-gradient-85"/></defs><line class="cls-1" x1="24.49" y1="609.99" x2="24.49" y2="609.99"/><path class="cls-2" d="M32.94,607.07c587.05-194,825.86-765,1045.45-194" transform="translate(0.13 0.12)"/><line class="cls-3" x1="1080.13" y1="417.4" x2="1080.13" y2="417.4"/><line class="cls-4" x1="23.62" y1="590.46" x2="23.62" y2="590.46"/><path class="cls-5" d="M31.86,587.56c584.43-196.14,820.6-723.06,1046-183.21" transform="translate(0.13 0.12)"/><line class="cls-6" x1="1079.66" y1="408.55" x2="1079.66" y2="408.55"/><line class="cls-7" x1="22.75" y1="570.94" x2="22.75" y2="570.94"/><path class="cls-8" d="M30.79,568.06C612.59,369.78,846.11-113,1077.3,395.65" transform="translate(0.13 0.12)"/><line class="cls-9" x1="1079.2" y1="399.7" x2="1079.2" y2="399.7"/><line class="cls-10" x1="21.88" y1="551.41" x2="21.88" y2="551.41"/><path class="cls-11" d="M29.78,548.53c579.11-200.42,810-639.1,1047-161.61" transform="translate(0.13 0.12)"/><line class="cls-12" x1="1078.74" y1="390.86" x2="1078.74" y2="390.86"/><line class="cls-13" x1="21.01" y1="531.88" x2="21.01" y2="531.88"/><path class="cls-14" d="M28.73,529C605.19,326.44,833.41-68.12,1076.17,378.23" transform="translate(0.13 0.12)"/><line class="cls-15" x1="1078.27" y1="382.01" x2="1078.27" y2="382.01"/><line class="cls-16" x1="20.14" y1="512.36" x2="20.14" y2="512.36"/><path class="cls-17" d="M27.63,509.53c573.85-204.75,799.43-555.23,1048-140" transform="translate(0.13 0.12)"/><line class="cls-18" x1="1077.81" y1="373.16" x2="1077.81" y2="373.16"/><line class="cls-19" x1="19.27" y1="492.83" x2="19.27" y2="492.83"/><path class="cls-20" d="M26.6,490C597.78,283.08,820.7-23.25,1075,360.88" transform="translate(0.13 0.12)"/><line class="cls-21" x1="1077.35" y1="364.32" x2="1077.35" y2="364.32"/><line class="cls-22" x1="18.4" y1="473.3" x2="18.4" y2="473.3"/><path class="cls-23" d="M25.57,470.51C594.08,261.37,814.35-.81,1074.46,352.21" transform="translate(0.13 0.12)"/><line class="cls-24" x1="1076.89" y1="355.47" x2="1076.89" y2="355.47"/><line class="cls-25" x1="17.53" y1="453.78" x2="17.53" y2="453.78"/><path class="cls-26" d="M24.5,451C590.38,239.65,808,21.6,1073.89,343.57" transform="translate(0.13 0.12)"/><line class="cls-27" x1="1076.42" y1="346.62" x2="1076.42" y2="346.62"/><line class="cls-28" x1="16.66" y1="434.25" x2="16.66" y2="434.25"/><path class="cls-29" d="M23.44,431.51C586.68,217.91,801.64,44,1073.32,335" transform="translate(0.13 0.12)"/><line class="cls-30" x1="1075.96" y1="337.78" x2="1075.96" y2="337.78"/><line class="cls-31" x1="15.79" y1="414.72" x2="15.79" y2="414.72"/><path class="cls-32" d="M22.4,412C583,196.15,795.29,66.42,1072.74,326.33" transform="translate(0.13 0.12)"/><line class="cls-33" x1="1075.5" y1="328.93" x2="1075.5" y2="328.93"/><line class="cls-34" x1="14.92" y1="395.2" x2="14.92" y2="395.2"/><path class="cls-35" d="M21.33,392.52c558-218.14,767.61-303.72,1050.86-74.77" transform="translate(0.13 0.12)"/><line class="cls-36" x1="1075.04" y1="320.09" x2="1075.04" y2="320.09"/><line class="cls-37" x1="14.05" y1="375.67" x2="14.05" y2="375.67"/><path class="cls-38" d="M20.31,373C575.62,152.59,782.6,111.2,1071.62,309.17" transform="translate(0.13 0.12)"/><line class="cls-39" x1="1074.57" y1="311.24" x2="1074.57" y2="311.24"/><line class="cls-40" x1="13.18" y1="356.14" x2="13.18" y2="356.14"/><path class="cls-41" d="M19.26,353.51c552.7-222.73,757-219.93,1051.82-52.89" transform="translate(0.13 0.12)"/><line class="cls-42" x1="1074.11" y1="302.39" x2="1074.11" y2="302.39"/><line class="cls-43" x1="12.31" y1="336.62" x2="12.31" y2="336.62"/><path class="cls-44" d="M18.19,334C568.31,109,769.94,156,1070.57,292.08" transform="translate(0.13 0.12)"/><line class="cls-45" x1="1073.65" y1="293.55" x2="1073.65" y2="293.55"/><line class="cls-46" x1="11.44" y1="317.09" x2="11.44" y2="317.09"/><path class="cls-47" d="M17.14,314.54c547.53-227.45,746.49-136.17,1052.94-31" transform="translate(0.13 0.12)"/><line class="cls-48" x1="1073.18" y1="284.7" x2="1073.18" y2="284.7"/><line class="cls-49" x1="10.57" y1="297.56" x2="10.57" y2="297.56"/><path class="cls-50" d="M16.1,295c544.95-229.82,741.22-94.25,1053.51-20" transform="translate(0.13 0.12)"/><line class="cls-51" x1="1072.72" y1="275.85" x2="1072.72" y2="275.85"/><line class="cls-52" x1="9.7" y1="278.04" x2="9.7" y2="278.04"/><path class="cls-53" d="M15.05,275.56c542.4-232.24,736-52.32,1054.13-9.07" transform="translate(0.13 0.12)"/><line class="cls-54" x1="1072.26" y1="267.01" x2="1072.26" y2="267.01"/><line class="cls-55" x1="8.83" y1="258.51" x2="8.83" y2="258.51"/><path class="cls-56" d="M14,256.08c539.88-234.69,730.75-10.36,1054.8,1.85" transform="translate(0.13 0.12)"/><line class="cls-57" x1="1071.8" y1="258.16" x2="1071.8" y2="258.16"/><line class="cls-58" x1="7.96" y1="238.98" x2="7.96" y2="238.98"/><path class="cls-59" d="M13,236.59C550.3-.56,738.46,268.24,1068.42,249.36" transform="translate(0.13 0.12)"/><line class="cls-60" x1="1071.33" y1="249.31" x2="1071.33" y2="249.31"/><line class="cls-61" x1="7.09" y1="219.46" x2="7.09" y2="219.46"/><path class="cls-62" d="M11.92,217.1c534.82-239.62,720.26,73.7,1056.14,23.65" transform="translate(0.13 0.12)"/><line class="cls-63" x1="1070.87" y1="240.47" x2="1070.87" y2="240.47"/><line class="cls-64" x1="6.22" y1="199.93" x2="6.22" y2="199.93"/><path class="cls-65" d="M10.86,197.62C543.18-44.52,725.91,313.41,1067.73,232.11" transform="translate(0.13 0.12)"/><line class="cls-66" x1="1070.41" y1="231.62" x2="1070.41" y2="231.62"/><line class="cls-67" x1="5.35" y1="180.4" x2="5.35" y2="180.4"/><path class="cls-68" d="M9.82,178.14c529.81-244.67,709.81,157.92,1057.59,45.3" transform="translate(0.13 0.12)"/><line class="cls-69" x1="1069.94" y1="222.78" x2="1069.94" y2="222.78"/><line class="cls-70" x1="4.48" y1="160.88" x2="4.48" y2="160.88"/><path class="cls-71" d="M8.78,158.66C536.07-88.55,713.35,358.74,1067.09,214.74" transform="translate(0.13 0.12)"/><line class="cls-72" x1="1069.48" y1="213.93" x2="1069.48" y2="213.93"/><line class="cls-73" x1="3.61" y1="141.35" x2="3.61" y2="141.35"/><path class="cls-74" d="M7.74,139.18c524.77-249.77,699.33,242.27,1059,66.82" transform="translate(0.13 0.12)"/><line class="cls-75" x1="1069.02" y1="205.08" x2="1069.02" y2="205.08"/><line class="cls-76" x1="2.73" y1="121.82" x2="2.73" y2="121.82"/><path class="cls-77" d="M6.68,119.72C529-132.66,700.77,404.21,1066.46,197.23" transform="translate(0.13 0.12)"/><line class="cls-78" x1="1068.56" y1="196.24" x2="1068.56" y2="196.24"/><line class="cls-79" x1="1.87" y1="102.3" x2="1.87" y2="102.3"/><path class="cls-80" d="M5.65,100.24c519.73-255,688.83,326.73,1060.49,88.21" transform="translate(0.13 0.12)"/><line class="cls-81" x1="1068.09" y1="187.39" x2="1068.09" y2="187.39"/><line class="cls-82" x1="1" y1="82.77" x2="1" y2="82.77"/><path class="cls-83" d="M4.6,80.77c517.21-257.6,683.57,369,1061.21,98.87" transform="translate(0.13 0.12)"/><line class="cls-84" x1="1067.63" y1="178.55" x2="1067.63" y2="178.55"/><line class="cls-85" x1="0.13" y1="63.24" x2="0.13" y2="63.24"/><path class="cls-86" d="M3.56,61.3c514.68-260.24,678.3,411.27,1061.91,109.51" transform="translate(0.13 0.12)"/><line class="cls-87" x1="1067.17" y1="169.7" x2="1067.17" y2="169.7"/></svg>