<?xml version="1.0" encoding="utf-8"?>
<!-- Generator: Adobe Illustrator 24.0.2, SVG Export Plug-In . SVG Version: 6.00 Build 0)  -->
<svg version="1.1" xmlns="http://www.w3.org/2000/svg" xmlns:xlink="http://www.w3.org/1999/xlink" x="0px" y="0px"
	 viewBox="0 0 7842.73 2755.24" style="enable-background:new 0 0 7842.73 2755.24;" xml:space="preserve">
<style type="text/css">
	.st0{fill-rule:evenodd;clip-rule:evenodd;fill:#FFFFFF;}
	.st1{fill:#EC8B5D;}
	.st2{fill:#161B45;}
	.st3{fill:#71BF48;}
	.st4{fill:#293991;}
	.st5{fill:#FFF200;}
	.st6{fill:#2C3761;}
	.st7{fill:#648AC7;}
	.st8{fill:url(#SVGID_1_);}
	.st9{fill:url(#SVGID_2_);}
	.st10{fill:url(#SVGID_3_);}
	.st11{fill:url(#SVGID_4_);}
	.st12{fill:url(#SVGID_5_);}
	.st13{fill:url(#SVGID_6_);}
	.st14{fill:url(#SVGID_7_);}
	.st15{fill:url(#SVGID_8_);}
	.st16{fill:url(#SVGID_9_);}
	.st17{fill:url(#SVGID_10_);}
	.st18{fill:url(#SVGID_11_);}
	.st19{fill:url(#SVGID_12_);}
	.st20{fill:url(#SVGID_13_);}
	.st21{fill:url(#SVGID_14_);}
	.st22{fill:url(#SVGID_15_);}
	.st23{fill:url(#SVGID_16_);}
	.st24{fill:url(#SVGID_17_);}
	.st25{fill:url(#SVGID_18_);}
	.st26{fill:url(#SVGID_19_);}
	.st27{fill:url(#SVGID_20_);}
	.st28{fill:url(#SVGID_21_);}
	.st29{fill:url(#SVGID_22_);}
	.st30{fill:url(#SVGID_23_);}
	.st31{fill:url(#SVGID_24_);}
	.st32{fill:url(#SVGID_25_);}
	.st33{fill:url(#SVGID_26_);}
	.st34{fill:url(#SVGID_27_);}
	.st35{fill:url(#SVGID_28_);}
	.st36{fill:url(#SVGID_29_);}
	.st37{fill:url(#SVGID_30_);}
	.st38{fill:#FFFFFF;}
	.st39{fill:#9D9FA2;}
</style>
<g id="Layer_3">
</g>
<g id="Bg">
</g>
<g id="TekSlate_Logo">
	<g>
		<g>
			<g>
				<g>
					<linearGradient id="SVGID_1_" gradientUnits="userSpaceOnUse" x1="2568.3879" y1="1858.5153" x2="2568.3879" y2="906.4044">
						<stop  offset="0" style="stop-color:#293793"/>
						<stop  offset="1" style="stop-color:#3AC0F0"/>
					</linearGradient>
					<path class="st8" d="M2469.33,1858.52v-798.35H2176.6V906.4h783.57v153.76h-291.25v798.35H2469.33z"/>
					<linearGradient id="SVGID_2_" gradientUnits="userSpaceOnUse" x1="3245.5229" y1="1873.2969" x2="3245.5229" y2="1142.9548">
						<stop  offset="0" style="stop-color:#293793"/>
						<stop  offset="1" style="stop-color:#3AC0F0"/>
					</linearGradient>
					<path class="st9" d="M3294.31,1873.3c-121.23,0-217.33-30.31-288.3-90.92c-70.96-60.61-106.44-152.51-106.44-275.72
						c0-111.37,29.8-199.82,89.44-265.38c59.62-65.53,148.58-98.31,266.86-98.31c108.41,0,191.46,28.34,249.12,85.01
						c57.66,56.69,86.49,130.84,86.49,222.51v127.14h-507.1c10.83,56.18,36.71,94.62,77.62,115.31
						c40.89,20.7,98.8,31.05,173.72,31.05c37.45,0,75.63-3.44,114.58-10.35c38.92-6.88,72.19-15.75,99.79-26.61v141.93
						c-32.53,14.78-70.48,25.87-113.84,33.27C3392.86,1869.6,3345.55,1873.3,3294.31,1873.3z M3084.37,1454.9h332.65v-38.44
						c0-40.4-11.83-72.19-35.48-95.36c-23.65-23.14-63.57-34.74-119.75-34.74c-66.04,0-112.13,13.31-138.23,39.92
						C3097.43,1352.89,3084.37,1395.76,3084.37,1454.9z"/>
					<linearGradient id="SVGID_3_" gradientUnits="userSpaceOnUse" x1="4083.0417" y1="1858.5153" x2="4083.0417" y2="862.0531">
						<stop  offset="0" style="stop-color:#293793"/>
						<stop  offset="1" style="stop-color:#3AC0F0"/>
					</linearGradient>
					<path class="st10" d="M3730.44,1858.52V862.05h199.59v548.5l261.68-252.81h227.68l-282.38,286.82l298.64,413.96h-211.41
						l-212.9-309l-81.31,78.36v230.64H3730.44z"/>
					<linearGradient id="SVGID_4_" gradientUnits="userSpaceOnUse" x1="4838.5308" y1="1873.2969" x2="4838.5308" y2="891.6196">
						<stop  offset="0" style="stop-color:#186634"/>
						<stop  offset="1" style="stop-color:#CDDC29"/>
					</linearGradient>
					<path class="st11" d="M4808.22,1873.3c-61.12,0-118.04-4.43-170.76-13.31c-52.74-8.87-98.32-21.67-136.76-38.44v-175.94
						c43.36,17.74,90.18,32.04,140.45,42.88c50.27,10.86,99.54,16.26,147.85,16.26c68.98,0,119.75-6.4,152.28-19.22
						c32.52-12.8,48.79-41.88,48.79-87.23c0-28.57-6.91-51.24-20.7-68.01c-13.82-16.75-37.7-31.79-71.7-45.1
						c-34.01-13.31-82.05-28.32-144.15-45.09c-99.56-27.58-169.53-62.1-209.94-103.49c-40.43-41.4-60.61-98.55-60.61-171.5
						c0-87.71,32.02-155.23,96.1-202.54c64.06-47.31,157.2-70.97,279.42-70.97c57.15,0,110.37,3.95,159.67,11.83
						c49.27,7.9,89.19,17.26,119.75,28.09v175.93c-80.83-30.54-165.1-45.83-252.81-45.83c-62.09,0-110.88,6.65-146.36,19.96
						c-35.48,13.31-53.22,41.17-53.22,83.53c0,24.65,6.4,44.36,19.22,59.14c12.8,14.78,34.74,28.09,65.79,39.92
						c31.05,11.83,74.66,25.13,130.84,39.92c77.85,20.7,137.98,45.35,180.37,73.92c42.37,28.6,71.7,61.13,87.97,97.58
						c16.26,36.47,24.39,77.39,24.39,122.71c0,82.79-31.56,149.32-94.62,199.59C5036.39,1848.17,4939.3,1873.3,4808.22,1873.3z"/>
					<linearGradient id="SVGID_5_" gradientUnits="userSpaceOnUse" x1="5496.4229" y1="1873.2969" x2="5496.4229" y2="862.0531">
						<stop  offset="0" style="stop-color:#186634"/>
						<stop  offset="1" style="stop-color:#CDDC29"/>
					</linearGradient>
					<path class="st12" d="M5528.21,1873.3c-68.01,0-117.53-15.75-148.58-47.31c-31.04-31.53-46.57-81.8-46.57-150.8V862.05h199.59
						v796.87c0,24.65,4.92,41.65,14.79,51c9.84,9.38,24.14,14.05,42.87,14.05c25.62,0,48.79-3.44,69.49-10.35v137.5
						C5622.32,1865.91,5578.48,1873.3,5528.21,1873.3z"/>
					<linearGradient id="SVGID_6_" gradientUnits="userSpaceOnUse" x1="6087.7793" y1="1873.2969" x2="6087.7793" y2="1142.9548">
						<stop  offset="0" style="stop-color:#186634"/>
						<stop  offset="1" style="stop-color:#CDDC29"/>
					</linearGradient>
					<path class="st13" d="M5993.9,1873.3c-44.35,0-85.52-8.13-123.45-24.39c-37.95-16.26-68.52-40.4-91.66-72.45
						c-23.17-32.02-34.74-72.19-34.74-120.49c0-68.98,24.39-124.19,73.18-165.58c48.79-41.4,120.97-62.1,216.59-62.1h206.98v-19.22
						c0-43.36-12.08-73.92-36.22-91.66c-24.16-17.74-72.7-26.61-145.63-26.61c-79.84,0-156.71,12.33-230.64,36.96v-140.45
						c32.53-12.8,72.19-23.4,119.01-31.79c46.8-8.36,97.81-12.56,153.02-12.56c105.45,0,187.02,21.43,244.68,64.31
						c57.66,42.88,86.49,111.62,86.49,206.24v445.01h-172.98l-10.35-63.57c-27.6,24.64-61.61,43.87-102.01,57.66
						C6105.75,1866.39,6055,1873.3,5993.9,1873.3z M6048.6,1741.72c44.35,0,82.79-7.39,115.32-22.18
						c32.52-14.78,58.14-33.49,76.88-56.18v-110.88h-202.54c-77.87,0-116.8,32.04-116.8,96.1
						C5921.46,1710.67,5963.82,1741.72,6048.6,1741.72z"/>
					<linearGradient id="SVGID_7_" gradientUnits="userSpaceOnUse" x1="6780.4014" y1="1873.2969" x2="6780.4014" y2="947.7982">
						<stop  offset="0" style="stop-color:#186634"/>
						<stop  offset="1" style="stop-color:#CDDC29"/>
					</linearGradient>
					<path class="st14" d="M6870.59,1873.3c-80.83,0-140.71-21.18-179.63-63.57c-38.95-42.37-58.4-100.02-58.4-172.98v-325.25
						h-99.05v-153.76h99.05v-150.8l199.59-59.14v209.94h177.41l-11.83,153.76h-165.58v311.95c0,38.44,8.87,64.82,26.61,79.1
						c17.74,14.3,45.32,21.44,82.79,21.44c27.58,0,56.18-4.93,85.75-14.79v137.49c-21.69,8.87-45.34,15.53-70.96,19.96
						C6930.69,1871.08,6902.12,1873.3,6870.59,1873.3z"/>
					<linearGradient id="SVGID_8_" gradientUnits="userSpaceOnUse" x1="7445.6846" y1="1873.2969" x2="7445.6846" y2="1142.9548">
						<stop  offset="0" style="stop-color:#186634"/>
						<stop  offset="1" style="stop-color:#CDDC29"/>
					</linearGradient>
					<path class="st15" d="M7494.47,1873.3c-121.23,0-217.33-30.31-288.3-90.92c-70.96-60.61-106.45-152.51-106.45-275.72
						c0-111.37,29.8-199.82,89.44-265.38c59.62-65.53,148.58-98.31,266.86-98.31c108.41,0,191.46,28.34,249.12,85.01
						c57.66,56.69,86.49,130.84,86.49,222.51v127.14h-507.1c10.83,56.18,36.71,94.62,77.62,115.31
						c40.89,20.7,98.8,31.05,173.72,31.05c37.45,0,75.63-3.44,114.58-10.35c38.92-6.88,72.19-15.75,99.79-26.61v141.93
						c-32.53,14.78-70.48,25.87-113.84,33.27C7593.02,1869.6,7545.71,1873.3,7494.47,1873.3z M7284.53,1454.9h332.65v-38.44
						c0-40.4-11.83-72.19-35.48-95.36c-23.65-23.14-63.57-34.74-119.75-34.74c-66.04,0-112.13,13.31-138.23,39.92
						C7297.59,1352.89,7284.53,1395.76,7284.53,1454.9z"/>
				</g>
			</g>
			<g>
				<g>
					<g>
						<linearGradient id="SVGID_9_" gradientUnits="userSpaceOnUse" x1="97.0612" y1="1740.6577" x2="2063.3767" y2="1740.6577">
							<stop  offset="0" style="stop-color:#CDDC29"/>
							<stop  offset="1" style="stop-color:#186634"/>
						</linearGradient>
						<path class="st16" d="M2063.38,1377.54c0,555.82-454.5,1006.23-1015.2,1006.23c-435.3,0-806.83-271.55-951.12-653.22H328.8
							c0,0.02,0.02,0.02,0.02,0.05H1402.1c20.11,0,44.74-1.67,59.79-4.59c14.3-2.72,25.66-7.15,33.81-13.7
							c15.39-10.97,23.06-29.09,23.06-54.23c0-25.74-7.07-44.94-21.51-57.89c-7.69-5.47-17.37-9.44-29.06-11.43
							c-12.13-2.13-35.65-3.18-55.5-3.18H1218.7c-87,0-153.25-18.45-198.43-55.45c-42.43-37.48-63.65-95.37-63.65-173.5
							c0-82.56,22.6-160.67,67.8-200.44c44.43-39.13,113.89-58.63,207.96-58.63l506.62,0.02v158.61
							c-141.97,0.62-342.2,1.74-482.94,1.91c-40.42,0-68.4,6.86-84.22,20.41c-15.68,11.57-23.54,49.62-23.54,80.1
							c0,21.49,6.46,38.39,19.54,50.41c15.68,11.9,37.65,17.83,65.48,17.83h223.06c91.29,0,156.17,17.52,194.91,52.7
							c38.74,35.35,58.1,93.07,58.1,173.65c0,80.88-22.6,140.76-67.8,179.29c-45.18,38.7-148.29,58.2-241.26,58.2H712.53
							c-0.17-0.17-0.17-0.48-0.31-0.76l-280.31-2.87c147.08,174.77,368.52,285.92,616.27,285.92
							c443.04,0,802.52-356.07,802.52-795.44c0-98.43-18.14-192.77-51.2-279.96h224.07
							C2049.53,1186.42,2063.38,1280.35,2063.38,1377.54z"/>
					</g>
					<linearGradient id="SVGID_10_" gradientUnits="userSpaceOnUse" x1="51.09" y1="1013.1641" x2="2016.4891" y2="1013.1641">
						<stop  offset="0" style="stop-color:#293793"/>
						<stop  offset="1" style="stop-color:#3AC0F0"/>
					</linearGradient>
					<path class="st17" d="M2016.49,1022.4h-221.97v0.02H880.07v632.42H690.71l-0.63-632.28c-97.3,0-185.69,0.45-190.44,0.45v-158.4
						h1180.08c-147.37-172.69-367.31-282.38-613.25-282.38c-443.36,0-802.52,356.07-802.52,795.29
						c0,96.95,17.44,189.76,49.49,275.59H89.75c-25.18-87.55-38.66-179.98-38.66-275.59c0-555.65,454.65-1006.06,1015.37-1006.06
						C1500.99,371.48,1871.75,641.93,2016.49,1022.4z"/>
				</g>
			</g>
		</g>
	</g>
	<polygon class="st39" points="7083.67,1544.33 7083.67,1544.42 7073.99,1544.33 	"/>
</g>
</svg>
