<?xml version="1.0" encoding="utf-8"?>
<!-- Generator: Adobe Illustrator 24.0.2, SVG Export Plug-In . SVG Version: 6.00 Build 0)  -->
<svg version="1.1" xmlns="http://www.w3.org/2000/svg" xmlns:xlink="http://www.w3.org/1999/xlink" x="0px" y="0px"
	 viewBox="0 0 7842.73 2755.24" style="enable-background:new 0 0 7842.73 2755.24;" xml:space="preserve">
<style type="text/css">
	.st0{fill-rule:evenodd;clip-rule:evenodd;fill:#FFFFFF;}
	.st1{fill:#EC8B5D;}
	.st2{fill:#161B45;}
	.st3{fill:#71BF48;}
	.st4{fill:#293991;}
	.st5{fill:#FFF200;}
	.st6{fill:#2C3761;}
	.st7{fill:#648AC7;}
	.st8{fill:url(#SVGID_1_);}
	.st9{fill:url(#SVGID_2_);}
	.st10{fill:url(#SVGID_3_);}
	.st11{fill:url(#SVGID_4_);}
	.st12{fill:url(#SVGID_5_);}
	.st13{fill:url(#SVGID_6_);}
	.st14{fill:url(#SVGID_7_);}
	.st15{fill:url(#SVGID_8_);}
	.st16{fill:url(#SVGID_9_);}
	.st17{fill:url(#SVGID_10_);}
	.st18{fill:url(#SVGID_11_);}
	.st19{fill:url(#SVGID_12_);}
	.st20{fill:url(#SVGID_13_);}
	.st21{fill:url(#SVGID_14_);}
	.st22{fill:url(#SVGID_15_);}
	.st23{fill:url(#SVGID_16_);}
	.st24{fill:url(#SVGID_17_);}
	.st25{fill:url(#SVGID_18_);}
	.st26{fill:url(#SVGID_19_);}
	.st27{fill:url(#SVGID_20_);}
	.st28{fill:url(#SVGID_21_);}
	.st29{fill:url(#SVGID_22_);}
	.st30{fill:url(#SVGID_23_);}
	.st31{fill:url(#SVGID_24_);}
	.st32{fill:url(#SVGID_25_);}
	.st33{fill:url(#SVGID_26_);}
	.st34{fill:url(#SVGID_27_);}
	.st35{fill:url(#SVGID_28_);}
	.st36{fill:url(#SVGID_29_);}
	.st37{fill:url(#SVGID_30_);}
	.st38{fill:#FFFFFF;}
	.st39{fill:#9D9FA2;}
</style>
<g id="Layer_3">
</g>
<g id="Bg">
</g>
<g id="TekSlate_Logo">
	<g>
		<g>
			<g>
				<g>
					<path class="st6" d="M2488.31,1852.23v-787.92h-288.9V912.56h773.33v151.75h-287.44v787.92H2488.31z"/>
					<path class="st6" d="M3302.5,1866.82c-119.65,0-214.49-29.91-284.53-89.73c-70.04-59.82-105.05-150.52-105.05-272.12
						c0-109.92,29.41-197.21,88.27-261.91c58.84-64.68,146.64-97.03,263.37-97.03c106.99,0,188.95,27.97,245.86,83.9
						c56.9,55.95,85.36,129.13,85.36,219.6V1575h-500.48c10.69,55.45,36.23,93.38,76.6,113.81c40.35,20.43,97.51,30.65,171.45,30.65
						c36.96,0,74.64-3.4,113.08-10.22c38.42-6.79,71.25-15.55,98.49-26.26v140.08c-32.1,14.59-69.56,25.54-112.35,32.83
						C3399.76,1863.17,3353.07,1866.82,3302.5,1866.82z M3095.31,1453.89h328.3v-37.93c0-39.88-11.67-71.25-35.02-94.12
						c-23.35-22.84-62.74-34.29-118.19-34.29c-65.18,0-110.66,13.13-136.42,39.4C3108.19,1353.22,3095.31,1395.53,3095.31,1453.89z"
						/>
					<path class="st6" d="M3732.93,1852.23V868.79h196.98v541.33l258.26-249.51h224.71l-278.69,283.07l294.74,408.55h-208.65
						l-210.11-304.96l-80.25,77.34v227.62H3732.93z"/>
					<path class="st7" d="M4796.63,1866.82c-60.32,0-116.5-4.38-168.53-13.13c-52.05-8.75-97.03-21.39-134.97-37.93v-173.64
						c42.79,17.51,89.01,31.62,138.62,42.32c49.61,10.72,98.24,16.05,145.91,16.05c68.08,0,118.19-6.32,150.29-18.97
						c32.1-12.63,48.15-41.33,48.15-86.09c0-28.2-6.82-50.57-20.43-67.12c-13.64-16.53-37.21-31.37-70.77-44.51
						c-33.56-13.13-80.98-27.95-142.26-44.5c-98.26-27.22-167.32-61.29-207.19-102.14c-39.9-40.86-59.82-97.26-59.82-169.26
						c0-86.57,31.6-153.2,94.84-199.89c63.22-46.69,155.15-70.04,275.77-70.04c56.41,0,108.93,3.9,157.59,11.67
						c48.63,7.8,88.03,17.03,118.19,27.72V1111c-79.77-30.14-162.94-45.23-249.51-45.23c-61.28,0-109.43,6.56-144.45,19.7
						c-35.02,13.13-52.53,40.63-52.53,82.44c0,24.33,6.31,43.78,18.97,58.37c12.63,14.59,34.29,27.72,64.93,39.4
						c30.64,11.68,73.68,24.8,129.13,39.4c76.83,20.43,136.18,44.75,178.01,72.95c41.81,28.22,70.77,60.33,86.82,96.3
						c16.05,36,24.07,76.38,24.07,121.11c0,81.71-31.14,147.37-93.38,196.98C5021.81,1842.02,4925.99,1866.82,4796.63,1866.82z"/>
					<path class="st7" d="M5507.21,1866.82c-67.12,0-116-15.55-146.64-46.69c-30.64-31.12-45.96-80.73-45.96-148.83V868.79h196.98
						v786.46c0,24.33,4.85,41.11,14.59,50.34c9.71,9.26,23.82,13.87,42.31,13.87c25.28,0,48.15-3.4,68.58-10.22v135.7
						C5600.09,1859.53,5556.82,1866.82,5507.21,1866.82z"/>
					<path class="st7" d="M5966.81,1866.82c-43.77,0-84.4-8.02-121.84-24.07c-37.46-16.05-67.62-39.88-90.46-71.5
						c-22.87-31.6-34.29-71.24-34.29-118.92c0-68.08,24.07-122.56,72.23-163.42c48.15-40.86,119.39-61.29,213.76-61.29h204.28
						v-18.97c0-42.79-11.92-72.95-35.75-90.46c-23.85-17.51-71.75-26.26-143.72-26.26c-78.79,0-154.67,12.17-227.62,36.48v-138.62
						c32.1-12.63,71.25-23.1,117.46-31.37c46.19-8.25,96.53-12.4,151.02-12.4c104.07,0,184.58,21.15,241.48,63.47
						c56.91,42.32,85.36,110.16,85.36,203.55v439.19H6228l-10.22-62.74c-27.24,24.32-60.8,43.29-100.68,56.9
						C6077.21,1860,6027.12,1866.82,5966.81,1866.82z M6020.8,1736.96c43.77,0,81.71-7.29,113.81-21.89
						c32.1-14.59,57.38-33.05,75.87-55.45v-109.43h-199.9c-76.85,0-115.27,31.62-115.27,94.84
						C5895.32,1706.32,5937.13,1736.96,6020.8,1736.96z"/>
					<path class="st7" d="M6832.05,1866.82c-79.77,0-138.87-20.91-177.28-62.74c-38.44-41.81-57.64-98.72-57.64-170.72v-321h-97.76
						v-151.75h97.76v-148.83l196.98-58.37v207.2h175.09l-11.67,151.75h-163.42v307.87c0,37.94,8.75,63.97,26.26,78.06
						c17.51,14.12,44.73,21.16,81.71,21.16c27.22,0,55.45-4.86,84.63-14.59v135.7c-21.41,8.76-44.75,15.32-70.04,19.7
						C6891.37,1864.63,6863.17,1866.82,6832.05,1866.82z"/>
					<path class="st7" d="M7447.78,1866.82c-119.65,0-214.49-29.91-284.53-89.73c-70.04-59.82-105.05-150.52-105.05-272.12
						c0-109.92,29.41-197.21,88.27-261.91c58.84-64.68,146.64-97.03,263.37-97.03c106.99,0,188.95,27.97,245.86,83.9
						c56.9,55.95,85.36,129.13,85.36,219.6V1575h-500.48c10.69,55.45,36.23,93.38,76.6,113.81c40.35,20.43,97.51,30.65,171.45,30.65
						c36.96,0,74.64-3.4,113.08-10.22c38.42-6.79,71.25-15.55,98.49-26.26v140.08c-32.1,14.59-69.56,25.54-112.35,32.83
						C7545.04,1863.17,7498.35,1866.82,7447.78,1866.82z M7240.58,1453.89h328.3v-37.93c0-39.88-11.67-71.25-35.02-94.12
						c-23.35-22.84-62.74-34.29-118.19-34.29c-65.18,0-110.66,13.13-136.42,39.4C7253.47,1353.22,7240.58,1395.53,7240.58,1453.89z"
						/>
				</g>
			</g>
			<g>
				<g>
					<g>
						<path class="st7" d="M2087.66,1377.54c0,548.55-448.56,993.08-1001.93,993.08c-429.61,0-796.29-268-938.69-644.68h228.71
							c0,0.02,0.02,0.02,0.02,0.05h1059.25c19.85,0,44.16-1.65,59.01-4.53c14.12-2.69,25.33-7.05,33.37-13.52
							c15.19-10.83,22.76-28.71,22.76-53.52c0-25.41-6.97-44.35-21.23-57.13c-7.59-5.4-17.14-9.32-28.68-11.28
							c-11.97-2.1-35.18-3.14-54.77-3.14h-191.45c-85.86,0-151.25-18.21-195.84-54.73c-41.87-36.99-62.82-94.12-62.82-171.24
							c0-81.48,22.3-158.57,66.91-197.82c43.85-38.62,112.4-57.87,205.24-57.87l500,0.02v156.54
							c-140.11,0.61-337.73,1.72-476.63,1.89c-39.9,0-67.51,6.77-83.12,20.15c-15.47,11.42-23.23,48.97-23.23,79.05
							c0,21.21,6.38,37.89,19.28,49.75c15.47,11.75,37.16,17.6,64.63,17.6h220.14c90.1,0,154.13,17.29,192.36,52.02
							c38.23,34.89,57.34,91.86,57.34,171.38c0,79.83-22.3,138.92-66.91,176.95c-44.59,38.19-146.35,57.44-238.11,57.44H754.47
							c-0.17-0.17-0.17-0.47-0.31-0.76l-276.65-2.83c145.16,172.49,363.7,282.18,608.22,282.18
							c437.26,0,792.03-351.42,792.03-785.04c0-97.14-17.9-190.25-50.54-276.31h221.14
							C2073.99,1188.92,2087.66,1281.62,2087.66,1377.54z"/>
					</g>
					<path class="st6" d="M2041.38,1027.04h-219.07v0.02h-902.5v624.16H732.92l-0.62-624.02c-96.03,0-183.27,0.45-187.96,0.45
						V871.33h1164.66c-145.44-170.44-362.51-278.69-605.24-278.69c-437.57,0-792.03,351.42-792.03,784.9
						c0,95.68,17.21,187.28,48.85,271.99H139.82c-24.85-86.41-38.16-177.63-38.16-271.99c0-548.39,448.71-992.91,1002.1-992.91
						C1532.62,384.63,1898.53,651.54,2041.38,1027.04z"/>
				</g>
			</g>
		</g>
	</g>
	<polygon class="st39" points="7083.67,1544.33 7083.67,1544.42 7073.99,1544.33 	"/>
</g>
</svg>
