<?xml version="1.0" encoding="utf-8"?>
<!-- Generator: Adobe Illustrator 24.0.2, SVG Export Plug-In . SVG Version: 6.00 Build 0)  -->
<svg version="1.1" xmlns="http://www.w3.org/2000/svg" xmlns:xlink="http://www.w3.org/1999/xlink" x="0px" y="0px"
	 viewBox="0 0 512 512" style="enable-background:new 0 0 512 512;" xml:space="preserve">
<style type="text/css">
	.st0{display:none;}
	.st1{display:inline;fill:#FFFFFF;}
	.st2{fill:url(#SVGID_1_);}
	.st3{fill:url(#SVGID_2_);}
	.st4{fill:url(#SVGID_3_);}
	.st5{fill:url(#SVGID_4_);}
	.st6{fill:url(#SVGID_5_);}
	.st7{fill:url(#SVGID_6_);}
	.st8{fill:url(#SVGID_7_);}
	.st9{fill:url(#SVGID_8_);}
	.st10{fill:url(#SVGID_9_);}
	.st11{fill:url(#SVGID_10_);}
	.st12{fill:url(#SVGID_11_);}
	.st13{fill:url(#SVGID_12_);}
	.st14{fill:url(#SVGID_13_);}
	.st15{fill:url(#SVGID_14_);}
	.st16{fill:url(#SVGID_15_);}
	.st17{fill:url(#SVGID_16_);}
	.st18{fill:url(#SVGID_17_);}
	.st19{fill:url(#SVGID_18_);}
	.st20{fill:url(#SVGID_19_);}
	.st21{fill:url(#SVGID_20_);}
	.st22{fill:url(#SVGID_21_);}
	.st23{fill:url(#SVGID_22_);}
	.st24{fill:url(#SVGID_23_);}
	.st25{fill:url(#SVGID_24_);}
	.st26{fill:url(#SVGID_25_);}
	.st27{fill:url(#SVGID_26_);}
	.st28{fill:url(#SVGID_27_);}
	.st29{fill:url(#SVGID_28_);}
	.st30{fill:url(#SVGID_29_);}
	.st31{fill:url(#SVGID_30_);}
	.st32{fill:url(#Shape_1_);}
	.st33{fill:url(#Shape_2_);}
	.st34{fill:url(#Shape_3_);}
	.st35{fill:url(#Shape_4_);}
	.st36{fill:url(#Shape_5_);}
	.st37{fill:url(#Shape_6_);}
	.st38{fill:url(#Shape_34_);}
	.st39{fill:url(#Shape_35_);}
	.st40{fill:url(#Shape_36_);}
	.st41{fill:url(#Oval_1_);}
	.st42{fill:url(#SVGID_31_);}
	.st43{fill:url(#SVGID_32_);}
	.st44{fill:url(#SVGID_33_);}
	.st45{fill:url(#SVGID_34_);}
	.st46{fill:url(#SVGID_35_);}
	.st47{fill:url(#SVGID_36_);}
	.st48{fill:url(#SVGID_37_);}
	.st49{fill:url(#SVGID_38_);}
	.st50{fill:url(#SVGID_39_);}
	.st51{fill:url(#SVGID_40_);}
	.st52{fill:url(#SVGID_41_);}
	.st53{fill:url(#SVGID_42_);}
	.st54{fill:url(#SVGID_43_);}
	.st55{fill:url(#SVGID_44_);}
	.st56{fill:url(#SVGID_45_);}
	.st57{fill:url(#SVGID_46_);}
	.st58{fill:url(#SVGID_47_);}
	.st59{fill:url(#SVGID_48_);}
	.st60{fill:url(#SVGID_49_);}
	.st61{fill:url(#SVGID_50_);}
	.st62{fill:url(#SVGID_51_);}
	.st63{fill:url(#SVGID_52_);}
	.st64{fill:url(#SVGID_53_);}
	.st65{fill:url(#SVGID_54_);}
	.st66{fill:url(#SVGID_55_);}
	.st67{fill:url(#SVGID_56_);}
	.st68{fill:url(#SVGID_57_);}
	.st69{fill:url(#SVGID_58_);}
	.st70{fill:url(#SVGID_59_);}
	.st71{fill:url(#SVGID_60_);}
	.st72{fill:url(#SVGID_61_);}
	.st73{fill:url(#SVGID_62_);}
	.st74{fill:url(#SVGID_63_);}
	.st75{fill:url(#SVGID_64_);}
	.st76{fill:url(#SVGID_65_);}
	.st77{fill:url(#SVGID_66_);}
	.st78{fill:url(#SVGID_67_);}
	.st79{fill:url(#SVGID_68_);}
	.st80{fill:url(#SVGID_69_);}
	.st81{fill:url(#Shape_37_);}
	.st82{fill:url(#Shape_38_);}
	.st83{fill:url(#Oval_2_);}
	.st84{fill:url(#Oval_9_);}
	.st85{fill:url(#Shape_39_);}
	.st86{fill:url(#Shape_40_);}
	.st87{fill:url(#Shape_41_);}
	.st88{fill:url(#Shape_42_);}
	.st89{fill:url(#Shape_43_);}
	.st90{fill:url(#SVGID_70_);}
	.st91{fill:url(#SVGID_71_);}
	.st92{fill:url(#SVGID_72_);}
	.st93{fill:url(#SVGID_73_);}
	.st94{fill:url(#SVGID_74_);}
	.st95{fill:url(#SVGID_75_);}
	.st96{fill:url(#SVGID_76_);}
	.st97{fill:url(#SVGID_77_);}
	.st98{fill:url(#SVGID_78_);}
	.st99{fill:url(#SVGID_79_);}
	.st100{fill:url(#SVGID_80_);}
	.st101{fill:url(#SVGID_81_);}
	.st102{fill:url(#SVGID_82_);}
	.st103{fill:url(#SVGID_83_);}
	.st104{fill:url(#SVGID_84_);}
	.st105{fill:url(#SVGID_85_);}
	.st106{fill:url(#SVGID_86_);}
	.st107{fill:url(#SVGID_87_);}
	.st108{fill:url(#SVGID_88_);}
	.st109{fill:url(#SVGID_89_);}
	.st110{fill:url(#SVGID_90_);}
	.st111{fill:#373B44;}
	.st112{fill:#4286F4;}
	.st113{fill:url(#SVGID_91_);}
	.st114{fill:#544A7D;}
	.st115{fill:#FFD452;}
	.st116{fill:url(#SVGID_92_);}
	.st117{fill:#00B4DB;}
	.st118{fill:#0083B0;}
	.st119{fill:url(#SVGID_93_);}
	.st120{fill:#00C6FF;}
	.st121{fill:#0072FF;}
	.st122{fill:url(#SVGID_94_);}
	.st123{fill:#DDEAFB;}
	.st124{fill:#CBE2FF;}
	.st125{fill:#F4FBFF;}
	.st126{fill:#E4F6FF;}
	.st127{fill:#698ED5;}
	.st128{fill:#4073C8;}
	.st129{fill:#3B66C1;}
	.st130{fill:#30579D;}
	.st131{fill:#4DCCFF;}
	.st132{fill:#F2FAFF;}
	.st133{fill:#B3E9FF;}
	.st134{fill:#FDBF67;}
	.st135{fill:#25B1FA;}
	.st136{fill:#FB8656;}
	.st137{fill:#FDAD67;}
	.st138{fill:#FFFEFA;}
	.st139{fill:#FFD4CF;}
	.st140{fill:#FBB8B0;}
	.st141{fill:#FFFFFF;}
	.st142{fill:#F2F2F2;}
	.st143{fill:#61AFF6;}
	.st144{fill:#49A0E8;}
	.st145{fill:#FF4C4C;}
	.st146{fill:#EA2828;}
	.st147{fill:#FFB125;}
	.st148{fill:#FF901D;}
	.st149{fill:#3B97D3;}
	.st150{fill:#ECF0F1;}
	.st151{fill:#E64C3C;}
	.st152{fill:#F0C419;}
	.st153{fill:#4FBA6F;}
	.st154{fill:#2980BA;}
	.st155{fill:#90BAE1;}
	.st156{fill:#B0D3F0;}
	.st157{fill:#7F8C8D;}
	.st158{fill:#3F5C6C;}
	.st159{fill:#95A5A5;}
	.st160{fill:#515151;}
	.st161{fill:none;stroke:#000000;stroke-width:13;stroke-miterlimit:10;}
	.st162{stroke:#000000;stroke-width:4;stroke-miterlimit:10;}
</style>
<g id="Layer_2" class="st0">
</g>
<g id="Layer_1">
	<g>
		<path d="M433.39,160.61l-24.04-29.16c-3.3-4-5.31-8.85-5.8-14.01l-3.63-37.62c-1.88-19.55-17.44-35.1-36.98-36.98l-37.62-3.62
			c-5.16-0.5-10-2.5-14.01-5.8L282.15,9.36C267-3.12,245-3.12,229.85,9.36l-29.16,24.04c-4,3.3-8.84,5.3-14.01,5.8l-37.62,3.62
			c-19.55,1.88-35.1,17.44-36.98,36.98l-3.62,37.62c-0.5,5.16-2.5,10-5.8,14.01l-24.04,29.16c-12.49,15.15-12.49,37.15,0,52.3
			l24.04,29.16c3.3,4,5.3,8.85,5.8,14.01l3.62,37.62c1.88,19.55,17.44,35.1,36.98,36.98l23,2.21l-54.64,130.56
			c-1.48,3.55-0.81,7.55,1.75,10.44c2.56,2.88,6.45,4.02,10.14,2.97l47.4-13.38c0.21-0.06,0.41,0.03,0.5,0.2l23.74,43.16
			c1.77,3.21,5.07,5.15,8.7,5.15c0.17,0,0.34,0,0.52-0.01c3.84-0.2,7.16-2.52,8.68-6.09l57.68-137.85c1.96-1.13,3.84-2.42,5.63-3.89
			l29.16-24.04c3.69-3.05,8.11-4.97,12.82-5.64l52.25,124.84l-36.97-10.44c-7.03-1.98-14.39,1.1-17.92,7.5l-18.51,33.66
			l-24.53-58.61c-1.62-3.87-6.07-5.69-9.94-4.07c-3.87,1.62-5.69,6.07-4.07,9.93l28.73,68.66c1.5,3.54,4.82,5.86,8.66,6.05
			c0.18,0.01,0.35,0.02,0.52,0.02c3.63,0,6.93-1.94,8.7-5.16l23.73-43.16c0.1-0.18,0.3-0.26,0.5-0.21l47.39,13.38
			c3.7,1.05,7.59-0.09,10.15-2.97c2.56-2.88,3.23-6.88,1.74-10.45L339.95,332.9l23-2.21c19.55-1.88,35.1-17.43,36.98-36.98
			l3.63-37.63c0.49-5.16,2.5-10,5.8-14l24.04-29.16C445.88,197.76,445.88,175.76,433.39,160.61z M209.02,490.02l-18.52-33.67
			c-3.52-6.39-10.89-9.47-17.92-7.49l-36.97,10.43l52.24-124.84c4.72,0.67,9.14,2.6,12.83,5.64l29.16,24.04
			c7.58,6.25,16.86,9.37,26.15,9.37c0.6,0,1.19-0.02,1.79-0.04L209.02,490.02z M421.68,203.25l-24.04,29.16
			c-5.23,6.34-8.41,14.02-9.2,22.21l-3.62,37.62c-1.19,12.33-11,22.14-23.32,23.32l-33.05,3.18c-0.13,0.01-0.26,0.02-0.39,0.04
			l-4.18,0.4c-8.19,0.79-15.87,3.97-22.21,9.2l-29.16,24.04c-9.55,7.88-23.43,7.88-32.98,0l-29.16-24.04
			c-6.34-5.23-14.02-8.41-22.21-9.2l-4.2-0.41c-0.12-0.02-0.23-0.02-0.35-0.03l-33.07-3.19c-12.33-1.19-22.14-11-23.32-23.32
			l-3.62-37.62c-0.79-8.19-3.97-15.87-9.2-22.21l-24.04-29.16c-7.88-9.56-7.88-23.43,0-32.99l24.04-29.16
			c5.23-6.34,8.41-14.02,9.2-22.21l3.62-37.62c1.19-12.33,11-22.14,23.32-23.32l37.62-3.62c8.19-0.79,15.87-3.97,22.21-9.2
			l29.16-24.04c4.78-3.94,10.64-5.91,16.49-5.91s11.71,1.97,16.49,5.91l29.16,24.04c6.34,5.23,14.02,8.41,22.21,9.2l37.62,3.62
			c12.33,1.19,22.14,11,23.32,23.32l3.62,37.62c0.79,8.19,3.97,15.87,9.2,22.21l24.04,29.16
			C429.55,179.82,429.55,193.69,421.68,203.25z"/>
		<path d="M256,68.15c-5.07,0-10.17,0.32-15.17,0.96c-4.16,0.53-7.1,4.34-6.57,8.49c0.53,4.16,4.34,7.1,8.49,6.57
			c4.36-0.56,8.82-0.84,13.25-0.84c57.03,0,103.42,46.39,103.42,103.42S313.02,290.18,256,290.18
			c-57.03,0-103.42-46.39-103.42-103.42c0-40.68,23.98-77.73,61.1-94.39c3.82-1.71,5.54-6.21,3.82-10.04
			c-1.72-3.83-6.21-5.54-10.04-3.82c-42.57,19.11-70.07,61.6-70.07,108.25c0,65.4,53.21,118.61,118.61,118.61
			s118.61-53.2,118.61-118.61C374.61,121.36,321.4,68.15,256,68.15z"/>
		<path d="M180.6,177.96c-9.05,9.05-9.05,23.78,0,32.83l33.16,33.16c4.39,4.38,10.21,6.8,16.42,6.8c6.2,0,12.03-2.41,16.42-6.8
			l72.39-72.39c9.05-9.05,9.05-23.78,0-32.84c-9.05-9.05-23.78-9.05-32.84,0l-55.97,55.97l-16.75-16.74
			C204.38,168.91,189.65,168.91,180.6,177.96z M230.18,213.04c2.01,0,3.94-0.8,5.37-2.23l61.34-61.34c3.13-3.13,8.23-3.13,11.36,0
			c3.13,3.13,3.13,8.23,0,11.36l-72.39,72.39c-1.52,1.52-3.54,2.35-5.68,2.35c-2.15,0-4.16-0.84-5.68-2.35l-33.16-33.16
			c-3.13-3.13-3.13-8.23,0-11.36c1.57-1.57,3.63-2.35,5.68-2.35c2.05,0,4.11,0.79,5.68,2.35l22.11,22.11
			C226.23,212.24,228.16,213.04,230.18,213.04z"/>
	</g>
</g>
</svg>
