<?xml version="1.0" encoding="utf-8"?>
<!-- Generator: Adobe Illustrator 24.0.2, SVG Export Plug-In . SVG Version: 6.00 Build 0)  -->
<svg version="1.1" xmlns="http://www.w3.org/2000/svg" xmlns:xlink="http://www.w3.org/1999/xlink" x="0px" y="0px"
	 viewBox="0 0 512 512" style="enable-background:new 0 0 512 512;" xml:space="preserve">
<style type="text/css">
	.st0{display:none;}
	.st1{display:inline;fill:#FFFFFF;}
	.st2{fill:url(#SVGID_1_);}
	.st3{fill:url(#SVGID_2_);}
	.st4{fill:url(#SVGID_3_);}
	.st5{fill:url(#SVGID_4_);}
	.st6{fill:url(#SVGID_5_);}
	.st7{fill:url(#SVGID_6_);}
	.st8{fill:url(#SVGID_7_);}
	.st9{fill:url(#SVGID_8_);}
	.st10{fill:url(#SVGID_9_);}
	.st11{fill:url(#SVGID_10_);}
	.st12{fill:url(#SVGID_11_);}
	.st13{fill:url(#SVGID_12_);}
	.st14{fill:url(#SVGID_13_);}
	.st15{fill:url(#SVGID_14_);}
	.st16{fill:url(#SVGID_15_);}
	.st17{fill:url(#SVGID_16_);}
	.st18{fill:url(#SVGID_17_);}
	.st19{fill:url(#SVGID_18_);}
	.st20{fill:url(#SVGID_19_);}
	.st21{fill:url(#SVGID_20_);}
	.st22{fill:url(#SVGID_21_);}
	.st23{fill:url(#SVGID_22_);}
	.st24{fill:url(#SVGID_23_);}
	.st25{fill:url(#SVGID_24_);}
	.st26{fill:url(#SVGID_25_);}
	.st27{fill:url(#SVGID_26_);}
	.st28{fill:url(#SVGID_27_);}
	.st29{fill:url(#SVGID_28_);}
	.st30{fill:url(#SVGID_29_);}
	.st31{fill:url(#SVGID_30_);}
	.st32{fill:url(#Shape_1_);}
	.st33{fill:url(#Shape_2_);}
	.st34{fill:url(#Shape_3_);}
	.st35{fill:url(#Shape_4_);}
	.st36{fill:url(#Shape_5_);}
	.st37{fill:url(#Shape_6_);}
	.st38{fill:url(#Shape_34_);}
	.st39{fill:url(#Shape_35_);}
	.st40{fill:url(#Shape_36_);}
	.st41{fill:url(#Oval_1_);}
	.st42{fill:url(#SVGID_31_);}
	.st43{fill:url(#SVGID_32_);}
	.st44{fill:url(#SVGID_33_);}
	.st45{fill:url(#SVGID_34_);}
	.st46{fill:url(#SVGID_35_);}
	.st47{fill:url(#SVGID_36_);}
	.st48{fill:url(#SVGID_37_);}
	.st49{fill:url(#SVGID_38_);}
	.st50{fill:url(#SVGID_39_);}
	.st51{fill:url(#SVGID_40_);}
	.st52{fill:url(#SVGID_41_);}
	.st53{fill:url(#SVGID_42_);}
	.st54{fill:url(#SVGID_43_);}
	.st55{fill:url(#SVGID_44_);}
	.st56{fill:url(#SVGID_45_);}
	.st57{fill:url(#SVGID_46_);}
	.st58{fill:url(#SVGID_47_);}
	.st59{fill:url(#SVGID_48_);}
	.st60{fill:url(#SVGID_49_);}
	.st61{fill:url(#SVGID_50_);}
	.st62{fill:url(#SVGID_51_);}
	.st63{fill:url(#SVGID_52_);}
	.st64{fill:url(#SVGID_53_);}
	.st65{fill:url(#SVGID_54_);}
	.st66{fill:url(#SVGID_55_);}
	.st67{fill:url(#SVGID_56_);}
	.st68{fill:url(#SVGID_57_);}
	.st69{fill:url(#SVGID_58_);}
	.st70{fill:url(#SVGID_59_);}
	.st71{fill:url(#SVGID_60_);}
	.st72{fill:url(#SVGID_61_);}
	.st73{fill:url(#SVGID_62_);}
	.st74{fill:url(#SVGID_63_);}
	.st75{fill:url(#SVGID_64_);}
	.st76{fill:url(#SVGID_65_);}
	.st77{fill:url(#SVGID_66_);}
	.st78{fill:url(#SVGID_67_);}
	.st79{fill:url(#SVGID_68_);}
	.st80{fill:url(#SVGID_69_);}
	.st81{fill:url(#Shape_37_);}
	.st82{fill:url(#Shape_38_);}
	.st83{fill:url(#Oval_2_);}
	.st84{fill:url(#Oval_9_);}
	.st85{fill:url(#Shape_39_);}
	.st86{fill:url(#Shape_40_);}
	.st87{fill:url(#Shape_41_);}
	.st88{fill:url(#Shape_42_);}
	.st89{fill:url(#Shape_43_);}
	.st90{fill:url(#SVGID_70_);}
	.st91{fill:url(#SVGID_71_);}
	.st92{fill:url(#SVGID_72_);}
	.st93{fill:url(#SVGID_73_);}
	.st94{fill:url(#SVGID_74_);}
	.st95{fill:url(#SVGID_75_);}
	.st96{fill:url(#SVGID_76_);}
	.st97{fill:url(#SVGID_77_);}
	.st98{fill:url(#SVGID_78_);}
	.st99{fill:url(#SVGID_79_);}
	.st100{fill:url(#SVGID_80_);}
	.st101{fill:url(#SVGID_81_);}
	.st102{fill:url(#SVGID_82_);}
	.st103{fill:url(#SVGID_83_);}
	.st104{fill:url(#SVGID_84_);}
	.st105{fill:url(#SVGID_85_);}
	.st106{fill:url(#SVGID_86_);}
	.st107{fill:url(#SVGID_87_);}
	.st108{fill:url(#SVGID_88_);}
	.st109{fill:url(#SVGID_89_);}
	.st110{fill:url(#SVGID_90_);}
	.st111{fill:#373B44;}
	.st112{fill:#4286F4;}
	.st113{fill:url(#SVGID_91_);}
	.st114{fill:#544A7D;}
	.st115{fill:#FFD452;}
	.st116{fill:url(#SVGID_92_);}
	.st117{fill:#00B4DB;}
	.st118{fill:#0083B0;}
	.st119{fill:url(#SVGID_93_);}
	.st120{fill:#00C6FF;}
	.st121{fill:#0072FF;}
	.st122{fill:url(#SVGID_94_);}
	.st123{fill:#DDEAFB;}
	.st124{fill:#CBE2FF;}
	.st125{fill:#F4FBFF;}
	.st126{fill:#E4F6FF;}
	.st127{fill:#698ED5;}
	.st128{fill:#4073C8;}
	.st129{fill:#3B66C1;}
	.st130{fill:#30579D;}
	.st131{fill:#4DCCFF;}
	.st132{fill:#F2FAFF;}
	.st133{fill:#B3E9FF;}
	.st134{fill:#FDBF67;}
	.st135{fill:#25B1FA;}
	.st136{fill:#FB8656;}
	.st137{fill:#FDAD67;}
	.st138{fill:#FFFEFA;}
	.st139{fill:#FFD4CF;}
	.st140{fill:#FBB8B0;}
	.st141{fill:#FFFFFF;}
	.st142{fill:#F2F2F2;}
	.st143{fill:#61AFF6;}
	.st144{fill:#49A0E8;}
	.st145{fill:#FF4C4C;}
	.st146{fill:#EA2828;}
	.st147{fill:#FFB125;}
	.st148{fill:#FF901D;}
	.st149{fill:#3B97D3;}
	.st150{fill:#ECF0F1;}
	.st151{fill:#E64C3C;}
	.st152{fill:#F0C419;}
	.st153{fill:#4FBA6F;}
	.st154{fill:#2980BA;}
	.st155{fill:#90BAE1;}
	.st156{fill:#B0D3F0;}
	.st157{fill:#7F8C8D;}
	.st158{fill:#3F5C6C;}
	.st159{fill:#95A5A5;}
	.st160{fill:#515151;}
	.st161{fill:none;stroke:#000000;stroke-width:13;stroke-miterlimit:10;}
	.st162{stroke:#000000;stroke-width:4;stroke-miterlimit:10;}
</style>
<g id="Layer_2" class="st0">
</g>
<g id="Layer_1">
	<g>
		<g>
			<path d="M502.77,179.58c4.14,0,7.5-3.36,7.5-7.5v-19.26c0-20.85-16.96-37.8-37.8-37.8H364.79v-0.14h-15.26
				c-3.48-17.09-18.63-30-36.74-30h-140c-18.11,0-33.26,12.91-36.74,30h-14.26v0.14H36.07c-20.84,0-37.8,16.95-37.8,37.8v311.13
				c0,20.84,16.96,37.81,37.8,37.81h436.4c20.84,0,37.8-16.97,37.8-37.81V207.08c0-4.15-3.36-7.5-7.5-7.5s-7.5,3.35-7.5,7.5v226.71
				H376.74c-5.54-15.66-18.83-27.68-35.32-31.41c-0.05-0.01-0.1-0.02-0.16-0.04l-56.86-11.53c-0.6-4.64-0.72-9.25-0.34-14.13
				c19.93-16.66,29.63-31.43,29.63-45.07c0-1.48-0.06-2.94-0.18-4.43c-0.32-3.26-0.51-18.31-0.44-36.59
				c0.05-14.9-5.72-28.92-16.24-39.48c-10.53-10.57-24.54-16.39-39.46-16.39c-0.01,0-0.01,0-0.01,0c-14.92,0-28.94,5.82-39.47,16.38
				c-10.53,10.56-16.29,24.59-16.24,39.49c0.06,18.29-0.12,33.35-0.45,36.7c-0.12,1.36-0.18,2.81-0.18,4.32
				c0,13.62,9.68,28.36,29.53,44.98c0.37,4.77,0.23,9.28-0.4,13.98l-57.88,11.77c-0.06,0.01-0.11,0.02-0.16,0.04
				c-16.48,3.73-29.78,15.75-35.31,31.41H13.27V152.82c0-12.58,10.23-22.8,22.8-22.8h100c3.54,17.03,18.66,29.86,36.72,29.86h140
				c18.06,0,33.18-12.83,36.71-29.86h122.97c12.57,0,22.8,10.22,22.8,22.8v19.26C495.27,176.22,498.63,179.58,502.77,179.58z
				 M216.02,331.61c0-1.07,0.04-2.08,0.11-2.93c0.46-4.65,0.57-22.75,0.52-38.14c-0.04-10.89,4.17-21.13,11.86-28.85
				c7.7-7.72,17.94-11.97,28.85-11.97c5.45,0,10.74,1.06,15.63,3.09c4.88,2.03,9.37,5.02,13.22,8.89
				c7.68,7.71,11.89,17.95,11.86,28.83c-0.06,15.39,0.05,33.48,0.5,38.02c0.08,0.97,0.12,2,0.12,3.06c0,9.01-9.46,21.64-26.67,35.56
				c-4.11,3.34-9.29,5.18-14.63,5.18h-0.04c-5.38,0.01-10.54-1.83-14.69-5.21C225.48,353.24,216.02,340.62,216.02,331.61z
				 M269.82,394.83c-0.38,0.4-0.75,0.8-1.13,1.2c-3.28,3.49-7.27,5.42-11.3,5.42h-0.06c-3.99,0-7.99-1.93-11.29-5.45
				c-0.45-0.47-0.88-0.94-1.32-1.41c0.49-3.06,0.79-6.06,0.93-9.07c3.74,1.2,7.67,1.83,11.62,1.83h0.15c3.92,0,7.79-0.61,11.49-1.78
				c0.12,3.1,0.42,6.16,0.9,9.26H269.82z M175.34,417.02l58.67-11.93c0.36,0.39,0.73,0.79,1.1,1.18
				c6.15,6.57,14.04,10.18,22.18,10.18h0.15c8.16,0,16.04-3.61,22.18-10.14c0.3-0.33,0.6-0.66,0.91-0.98l57.66,11.7
				c9.58,2.18,17.59,8.4,22.17,16.76c0.06,0.1,0.12,0.2,0.17,0.3H153.01c0.05-0.1,0.11-0.2,0.17-0.3
				C157.76,425.43,165.77,419.21,175.34,417.02z M495.27,448.79v15.16c0,12.57-10.23,22.81-22.8,22.81H36.07
				c-12.57,0-22.8-10.24-22.8-22.81v-15.16H495.27z M206.07,130.02c1.14,5.48,3.48,10.53,6.74,14.86h-40.02
				c-9.73,0-18.03-6.2-21.16-14.86c-0.87-2.38-1.34-4.96-1.34-7.64c0-2.58,0.44-5.05,1.24-7.36c3.05-8.8,11.43-15.14,21.26-15.14
				h40.02c-3.31,4.4-5.68,9.55-6.79,15.14c-0.48,2.38-0.73,4.84-0.73,7.36C205.29,125,205.56,127.55,206.07,130.02z M263.95,130.02
				c-3.13,8.66-11.43,14.86-21.16,14.86s-18.03-6.2-21.16-14.86c-0.87-2.38-1.34-4.96-1.34-7.64c0-2.58,0.44-5.05,1.24-7.36
				c3.05-8.8,11.43-15.14,21.26-15.14s18.21,6.34,21.26,15.14c0.8,2.31,1.24,4.78,1.24,7.36
				C265.29,125.06,264.82,127.64,263.95,130.02z M333.95,130.02c-3.13,8.66-11.43,14.86-21.16,14.86h-40.02
				c3.26-4.33,5.6-9.38,6.74-14.86c0.51-2.47,0.78-5.02,0.78-7.64c0-2.52-0.25-4.98-0.73-7.36c-1.11-5.59-3.48-10.74-6.79-15.14
				h40.02c9.83,0,18.21,6.34,21.26,15.14c0.8,2.31,1.24,4.78,1.24,7.36C335.29,125.06,334.82,127.64,333.95,130.02z"/>
		</g>
		<g>
			<path d="M454.72,116.31v13.08h-22.1v-13.08h3.21c0.09-1.9,0.23-3.32,0.23-4.72c0.01-13.92,0.09-27.86-0.08-41.8
				c-0.02-2.11-0.91-4.43-2.05-6.25c-2.94-4.66-2.48-10.21,1.56-13.82c3.96-3.52,9.96-3.56,13.94-0.09
				c3.99,3.47,4.57,9.27,1.79,13.84c-1.12,1.83-1.97,4.14-1.99,6.25c-0.17,13.94-0.09,27.87-0.09,41.8v4.79H454.72z"/>
			<path d="M513.73,64.2c-1.11,4.33-2.03,8.72-3.37,12.98c-2.79,8.86-7.68,16.52-14.12,23.16c-3.39,3.49-7.02,3.79-9.96,1.02
				c-2.9-2.74-2.74-6.26,0.46-9.98c18.71-21.76,18.71-46.56,0-68.29c-3.21-3.72-3.37-7.25-0.46-9.98c2.94-2.77,6.56-2.48,9.95,1.02
				c8.82,9.09,14.29,19.92,16.58,32.38c0.23,1.27,0.6,2.51,0.91,3.76C513.73,54.91,513.73,59.56,513.73,64.2z"/>
			<path d="M394.52,10.24c2.21,1.9,4.92,3.13,5.49,5.01c0.64,2.1-0.03,5.15-1.22,7.15c-2.87,4.82-7.04,8.93-9.5,13.9
				c-8.84,17.87-5.5,39.12,7.91,53.82c0.59,0.64,1.21,1.25,1.75,1.94c2.49,3.16,2.36,6.96-0.29,9.37c-2.78,2.54-6.27,2.43-9.3-0.6
				c-8.09-8.06-13.68-17.63-16.18-28.79c-4.83-21.6,0.02-40.79,15.04-57.19C389.8,13.14,392.03,12.04,394.52,10.24z"/>
			<path d="M485.64,57.33c-0.31,8.86-3.15,16.71-9.31,23.22c-3.2,3.38-7.06,3.79-9.92,1.14c-2.83-2.62-2.81-6.11,0.06-9.67
				c8.18-10.15,8.13-19.27-0.14-29.73c-2.77-3.5-2.68-7.11,0.23-9.65c2.82-2.46,6.54-2.08,9.61,1.11
				C482.49,40.33,485.37,48.31,485.64,57.33z"/>
			<path d="M414.46,29.96c2.21,1.85,4.89,3.01,5.31,4.72c0.57,2.3,0.17,5.61-1.2,7.46c-3.3,4.44-5.85,8.91-5.97,14.58
				c-0.12,5.66,1.82,10.47,5.43,14.74c3.36,3.97,3.48,7.65,0.49,10.32c-3.11,2.77-6.97,2.05-10.52-1.97
				c-11.38-12.89-11.35-32.66,0.23-45.3C409.78,32.81,412,31.72,414.46,29.96z"/>
		</g>
	</g>
</g>
</svg>
