<?xml version="1.0" encoding="utf-8"?>
<!-- Generator: Adobe Illustrator 24.0.2, SVG Export Plug-In . SVG Version: 6.00 Build 0)  -->
<svg version="1.1" xmlns="http://www.w3.org/2000/svg" xmlns:xlink="http://www.w3.org/1999/xlink" x="0px" y="0px"
	 viewBox="0 0 512 512" style="enable-background:new 0 0 512 512;" xml:space="preserve">
<style type="text/css">
	.st0{display:none;}
	.st1{display:inline;fill:#FFFFFF;}
	.st2{fill:url(#SVGID_1_);}
	.st3{fill:url(#SVGID_2_);}
	.st4{fill:url(#SVGID_3_);}
	.st5{fill:url(#SVGID_4_);}
	.st6{fill:url(#SVGID_5_);}
	.st7{fill:url(#SVGID_6_);}
	.st8{fill:url(#SVGID_7_);}
	.st9{fill:url(#SVGID_8_);}
	.st10{fill:url(#SVGID_9_);}
	.st11{fill:url(#SVGID_10_);}
	.st12{fill:url(#SVGID_11_);}
	.st13{fill:url(#SVGID_12_);}
	.st14{fill:url(#SVGID_13_);}
	.st15{fill:url(#SVGID_14_);}
	.st16{fill:url(#SVGID_15_);}
	.st17{fill:url(#SVGID_16_);}
	.st18{fill:url(#SVGID_17_);}
	.st19{fill:url(#SVGID_18_);}
	.st20{fill:url(#SVGID_19_);}
	.st21{fill:url(#SVGID_20_);}
	.st22{fill:url(#SVGID_21_);}
	.st23{fill:url(#SVGID_22_);}
	.st24{fill:url(#SVGID_23_);}
	.st25{fill:url(#SVGID_24_);}
	.st26{fill:url(#SVGID_25_);}
	.st27{fill:url(#SVGID_26_);}
	.st28{fill:url(#SVGID_27_);}
	.st29{fill:url(#SVGID_28_);}
	.st30{fill:url(#SVGID_29_);}
	.st31{fill:url(#SVGID_30_);}
	.st32{fill:url(#Shape_1_);}
	.st33{fill:url(#Shape_2_);}
	.st34{fill:url(#Shape_3_);}
	.st35{fill:url(#Shape_4_);}
	.st36{fill:url(#Shape_5_);}
	.st37{fill:url(#Shape_6_);}
	.st38{fill:url(#Shape_34_);}
	.st39{fill:url(#Shape_35_);}
	.st40{fill:url(#Shape_36_);}
	.st41{fill:url(#Oval_1_);}
	.st42{fill:url(#SVGID_31_);}
	.st43{fill:url(#SVGID_32_);}
	.st44{fill:url(#SVGID_33_);}
	.st45{fill:url(#SVGID_34_);}
	.st46{fill:url(#SVGID_35_);}
	.st47{fill:url(#SVGID_36_);}
	.st48{fill:url(#SVGID_37_);}
	.st49{fill:url(#SVGID_38_);}
	.st50{fill:url(#SVGID_39_);}
	.st51{fill:url(#SVGID_40_);}
	.st52{fill:url(#SVGID_41_);}
	.st53{fill:url(#SVGID_42_);}
	.st54{fill:url(#SVGID_43_);}
	.st55{fill:url(#SVGID_44_);}
	.st56{fill:url(#SVGID_45_);}
	.st57{fill:url(#SVGID_46_);}
	.st58{fill:url(#SVGID_47_);}
	.st59{fill:url(#SVGID_48_);}
	.st60{fill:url(#SVGID_49_);}
	.st61{fill:url(#SVGID_50_);}
	.st62{fill:url(#SVGID_51_);}
	.st63{fill:url(#SVGID_52_);}
	.st64{fill:url(#SVGID_53_);}
	.st65{fill:url(#SVGID_54_);}
	.st66{fill:url(#SVGID_55_);}
	.st67{fill:url(#SVGID_56_);}
	.st68{fill:url(#SVGID_57_);}
	.st69{fill:url(#SVGID_58_);}
	.st70{fill:url(#SVGID_59_);}
	.st71{fill:url(#SVGID_60_);}
	.st72{fill:url(#SVGID_61_);}
	.st73{fill:url(#SVGID_62_);}
	.st74{fill:url(#SVGID_63_);}
	.st75{fill:url(#SVGID_64_);}
	.st76{fill:url(#SVGID_65_);}
	.st77{fill:url(#SVGID_66_);}
	.st78{fill:url(#SVGID_67_);}
	.st79{fill:url(#SVGID_68_);}
	.st80{fill:url(#SVGID_69_);}
	.st81{fill:url(#Shape_37_);}
	.st82{fill:url(#Shape_38_);}
	.st83{fill:url(#Oval_2_);}
	.st84{fill:url(#Oval_9_);}
	.st85{fill:url(#Shape_39_);}
	.st86{fill:url(#Shape_40_);}
	.st87{fill:url(#Shape_41_);}
	.st88{fill:url(#Shape_42_);}
	.st89{fill:url(#Shape_43_);}
	.st90{fill:url(#SVGID_70_);}
	.st91{fill:url(#SVGID_71_);}
	.st92{fill:url(#SVGID_72_);}
	.st93{fill:url(#SVGID_73_);}
	.st94{fill:url(#SVGID_74_);}
	.st95{fill:url(#SVGID_75_);}
	.st96{fill:url(#SVGID_76_);}
	.st97{fill:url(#SVGID_77_);}
	.st98{fill:url(#SVGID_78_);}
	.st99{fill:url(#SVGID_79_);}
	.st100{fill:url(#SVGID_80_);}
	.st101{fill:url(#SVGID_81_);}
	.st102{fill:url(#SVGID_82_);}
	.st103{fill:url(#SVGID_83_);}
	.st104{fill:url(#SVGID_84_);}
	.st105{fill:url(#SVGID_85_);}
	.st106{fill:url(#SVGID_86_);}
	.st107{fill:url(#SVGID_87_);}
	.st108{fill:url(#SVGID_88_);}
	.st109{fill:url(#SVGID_89_);}
	.st110{fill:url(#SVGID_90_);}
	.st111{fill:#373B44;}
	.st112{fill:#4286F4;}
	.st113{fill:url(#SVGID_91_);}
	.st114{fill:#544A7D;}
	.st115{fill:#FFD452;}
	.st116{fill:url(#SVGID_92_);}
	.st117{fill:#00B4DB;}
	.st118{fill:#0083B0;}
	.st119{fill:url(#SVGID_93_);}
	.st120{fill:#00C6FF;}
	.st121{fill:#0072FF;}
	.st122{fill:url(#SVGID_94_);}
	.st123{fill:#DDEAFB;}
	.st124{fill:#CBE2FF;}
	.st125{fill:#F4FBFF;}
	.st126{fill:#E4F6FF;}
	.st127{fill:#698ED5;}
	.st128{fill:#4073C8;}
	.st129{fill:#3B66C1;}
	.st130{fill:#30579D;}
	.st131{fill:#4DCCFF;}
	.st132{fill:#F2FAFF;}
	.st133{fill:#B3E9FF;}
	.st134{fill:#FDBF67;}
	.st135{fill:#25B1FA;}
	.st136{fill:#FB8656;}
	.st137{fill:#FDAD67;}
	.st138{fill:#FFFEFA;}
	.st139{fill:#FFD4CF;}
	.st140{fill:#FBB8B0;}
	.st141{fill:#FFFFFF;}
	.st142{fill:#F2F2F2;}
	.st143{fill:#61AFF6;}
	.st144{fill:#49A0E8;}
	.st145{fill:#FF4C4C;}
	.st146{fill:#EA2828;}
	.st147{fill:#FFB125;}
	.st148{fill:#FF901D;}
	.st149{fill:#3B97D3;}
	.st150{fill:#ECF0F1;}
	.st151{fill:#E64C3C;}
	.st152{fill:#F0C419;}
	.st153{fill:#4FBA6F;}
	.st154{fill:#2980BA;}
	.st155{fill:#90BAE1;}
	.st156{fill:#B0D3F0;}
	.st157{fill:#7F8C8D;}
	.st158{fill:#3F5C6C;}
	.st159{fill:#95A5A5;}
	.st160{fill:#515151;}
	.st161{fill:none;stroke:#000000;stroke-width:13;stroke-miterlimit:10;}
	.st162{stroke:#000000;stroke-width:4;stroke-miterlimit:10;}
</style>
<g id="Layer_2" class="st0">
</g>
<g id="Layer_1">
	<g>
		<g>
			<path d="M500.95,166.57c4.07,0,7.37-3.3,7.37-7.37v-18.93c0-20.5-16.67-37.16-37.16-37.16H365.31v-0.14h-15
				c-3.42-16.8-18.31-29.49-36.12-29.49H176.56c-17.8,0-32.7,12.69-36.12,29.49h-14.02v0.14H42.16C21.67,103.1,5,119.77,5,140.26
				v305.86c0,20.49,16.67,37.17,37.16,37.17h429c20.49,0,37.16-16.68,37.16-37.17V193.6c0-4.08-3.3-7.37-7.37-7.37
				s-7.37,3.29-7.37,7.37v222.87H377.05c-5.45-15.39-18.51-27.21-34.72-30.88c-0.05-0.01-0.1-0.02-0.16-0.04l-55.9-11.33
				c-0.59-4.56-0.71-9.09-0.33-13.89c19.59-16.38,29.13-30.9,29.13-44.31c0-1.45-0.06-2.89-0.18-4.35c-0.31-3.2-0.5-18-0.43-35.97
				c0.05-14.65-5.62-28.43-15.96-38.81c-10.35-10.39-24.12-16.11-38.79-16.11c-0.01,0-0.01,0-0.01,0c-14.67,0-28.45,5.72-38.8,16.1
				c-10.35,10.38-16.01,24.17-15.96,38.82c0.06,17.98-0.12,32.78-0.44,36.08c-0.12,1.34-0.18,2.76-0.18,4.25
				c0,13.39,9.52,27.88,29.03,44.22c0.36,4.69,0.23,9.12-0.39,13.74l-56.9,11.57c-0.06,0.01-0.11,0.02-0.16,0.04
				c-16.2,3.67-29.28,15.48-34.71,30.88H19.75V140.26c0-12.37,10.06-22.41,22.41-22.41h98.3c3.48,16.74,18.34,29.35,36.1,29.35
				h137.63c17.75,0,32.62-12.61,36.09-29.35h120.89c12.36,0,22.41,10.05,22.41,22.41v18.93
				C493.57,163.27,496.88,166.57,500.95,166.57z M219.06,316.02c0-1.05,0.04-2.04,0.11-2.88c0.45-4.57,0.56-22.36,0.51-37.49
				c-0.04-10.71,4.1-20.77,11.66-28.36c7.57-7.59,17.64-11.77,28.36-11.77c5.36,0,10.56,1.04,15.36,3.04c4.8,2,9.21,4.93,13,8.74
				c7.55,7.58,11.69,17.65,11.66,28.34c-0.06,15.13,0.05,32.91,0.49,37.38c0.08,0.95,0.12,1.97,0.12,3.01
				c0,8.86-9.3,21.27-26.22,34.96c-4.04,3.28-9.13,5.09-14.38,5.09h-0.04c-5.29,0.01-10.36-1.8-14.44-5.12
				C228.36,337.29,219.06,324.88,219.06,316.02z M271.95,378.17c-0.37,0.39-0.74,0.79-1.11,1.18c-3.22,3.43-7.15,5.33-11.11,5.33
				h-0.06c-3.92,0-7.85-1.9-11.1-5.36c-0.44-0.46-0.86-0.92-1.3-1.39c0.48-3.01,0.78-5.96,0.91-8.92c3.68,1.18,7.54,1.8,11.42,1.8
				h0.15c3.85,0,7.66-0.6,11.3-1.75C271.17,372.12,271.46,375.12,271.95,378.17L271.95,378.17z M179.07,399.98l57.68-11.73
				c0.35,0.38,0.72,0.78,1.08,1.16c6.05,6.46,13.8,10.01,21.8,10.01h0.15c8.02,0,15.77-3.55,21.8-9.97
				c0.29-0.32,0.59-0.65,0.89-0.96l56.68,11.5c9.42,2.14,17.29,8.26,21.79,16.48c0.06,0.1,0.12,0.2,0.17,0.29h-204
				c0.05-0.1,0.11-0.2,0.17-0.29C161.79,408.25,169.66,402.14,179.07,399.98z M493.57,431.22v14.9c0,12.36-10.06,22.42-22.41,22.42
				h-429c-12.36,0-22.41-10.07-22.41-22.42v-14.9H493.57z M209.28,117.85c1.12,5.39,3.42,10.35,6.63,14.61h-39.34
				c-9.57,0-17.72-6.09-20.8-14.61c-0.86-2.34-1.32-4.88-1.32-7.51c0-2.54,0.43-4.96,1.22-7.24c3-8.65,11.24-14.88,20.9-14.88h39.34
				c-3.25,4.33-5.58,9.39-6.67,14.88c-0.47,2.34-0.72,4.76-0.72,7.24C208.51,112.92,208.78,115.42,209.28,117.85z M266.18,117.85
				c-3.08,8.51-11.24,14.61-20.8,14.61s-17.72-6.09-20.8-14.61c-0.86-2.34-1.32-4.88-1.32-7.51c0-2.54,0.43-4.96,1.22-7.24
				c3-8.65,11.24-14.88,20.9-14.88s17.9,6.23,20.9,14.88c0.79,2.27,1.22,4.7,1.22,7.24C267.49,112.97,267.03,115.51,266.18,117.85z
				 M334.99,117.85c-3.08,8.51-11.24,14.61-20.8,14.61h-39.34c3.2-4.26,5.51-9.22,6.63-14.61c0.5-2.43,0.77-4.93,0.77-7.51
				c0-2.48-0.25-4.9-0.72-7.24c-1.09-5.5-3.42-10.56-6.67-14.88h39.34c9.66,0,17.9,6.23,20.9,14.88c0.79,2.27,1.22,4.7,1.22,7.24
				C336.31,112.97,335.84,115.51,334.99,117.85z"/>
		</g>
		<g>
			<path d="M455.35,103.22h1.6v11.77h-18.68v-11.77h4.66c1-9.61,2.17-11.76,6.2-11.75C453.16,91.48,454.3,93.57,455.35,103.22z"/>
			<path d="M449.96,20.73c20.89,0.36,39.89,7.73,55.89,22.58c1.15,1.06,2.81,2.42,2.83,3.66c0.04,2.21-0.41,4.9-1.72,6.55
				c-1.63,2.05-4.43,1.88-6.71,0.32c-1.21-0.82-2.22-1.92-3.31-2.91c-27.32-24.88-69.18-24.6-96.16,0.63
				c-0.63,0.59-1.22,1.21-1.9,1.74c-2.73,2.15-6.17,2-8.3-0.32c-2.14-2.33-2.21-5.91,0.44-8.24c4.31-3.81,8.7-7.62,13.49-10.78
				C417.96,25.1,432.94,20.94,449.96,20.73z"/>
			<path d="M492.57,64.54c0.02,5.58-4.79,8.46-8.66,6.28c-1.05-0.59-1.93-1.5-2.83-2.33c-18.18-16.6-45.91-16.54-64.04,0.15
				c-0.54,0.5-1.04,1.04-1.61,1.52c-2.71,2.27-6.05,2.26-8.3,0.01c-2.33-2.34-2.31-5.93,0.29-8.54c7.71-7.75,16.9-13.11,27.55-15.54
				c20.49-4.67,38.7,0.05,54.35,14.11C490.87,61.59,491.87,63.59,492.57,64.54z"/>
			<path d="M475.57,85.88c-0.96,1.12-2.26,1.4-3.14,1.56c-2.66,0.48-4.98-0.24-6.41-0.87c-4.1-1.79-7.77-4.81-12-6
				c-7.27-2.05-14.07,0.06-20.05,4.67c-0.68,0.52-1.28,1.17-2.01,1.61c-2.76,1.66-5.42,1.48-7.7-0.86
				c-0.83-0.86-1.33-1.84-1.52-2.86c-0.41-2.27,1.04-4.24,1.67-5.1c2.21-3.01,10.87-9.72,24.6-9.85c0,0,14.49-0.14,24.58,8.85
				c0.83,0.74,2.65,2.41,2.95,4.92C476.61,82.43,476.84,84.39,475.57,85.88z"/>
		</g>
	</g>
</g>
</svg>
