<?xml version="1.0" encoding="utf-8"?>
<!-- Generator: Adobe Illustrator 24.0.2, SVG Export Plug-In . SVG Version: 6.00 Build 0)  -->
<svg version="1.1" xmlns="http://www.w3.org/2000/svg" xmlns:xlink="http://www.w3.org/1999/xlink" x="0px" y="0px"
	 viewBox="0 0 512 512" style="enable-background:new 0 0 512 512;" xml:space="preserve">
<style type="text/css">
	.st0{display:none;}
	.st1{display:inline;fill:#FFFFFF;}
	.st2{fill:url(#SVGID_1_);}
	.st3{fill:url(#SVGID_2_);}
	.st4{fill:url(#SVGID_3_);}
	.st5{fill:url(#SVGID_4_);}
	.st6{fill:url(#SVGID_5_);}
	.st7{fill:url(#SVGID_6_);}
	.st8{fill:url(#SVGID_7_);}
	.st9{fill:url(#SVGID_8_);}
	.st10{fill:url(#SVGID_9_);}
	.st11{fill:url(#SVGID_10_);}
	.st12{fill:url(#SVGID_11_);}
	.st13{fill:url(#SVGID_12_);}
	.st14{fill:url(#SVGID_13_);}
	.st15{fill:url(#SVGID_14_);}
	.st16{fill:url(#SVGID_15_);}
	.st17{fill:url(#SVGID_16_);}
	.st18{fill:url(#SVGID_17_);}
	.st19{fill:url(#SVGID_18_);}
	.st20{fill:url(#SVGID_19_);}
	.st21{fill:url(#SVGID_20_);}
	.st22{fill:url(#SVGID_21_);}
	.st23{fill:url(#SVGID_22_);}
	.st24{fill:url(#SVGID_23_);}
	.st25{fill:url(#SVGID_24_);}
	.st26{fill:url(#SVGID_25_);}
	.st27{fill:url(#SVGID_26_);}
	.st28{fill:url(#SVGID_27_);}
	.st29{fill:url(#SVGID_28_);}
	.st30{fill:url(#SVGID_29_);}
	.st31{fill:url(#SVGID_30_);}
	.st32{fill:url(#Shape_1_);}
	.st33{fill:url(#Shape_2_);}
	.st34{fill:url(#Shape_3_);}
	.st35{fill:url(#Shape_4_);}
	.st36{fill:url(#Shape_5_);}
	.st37{fill:url(#Shape_6_);}
	.st38{fill:url(#Shape_34_);}
	.st39{fill:url(#Shape_35_);}
	.st40{fill:url(#Shape_36_);}
	.st41{fill:url(#Oval_1_);}
	.st42{fill:url(#SVGID_31_);}
	.st43{fill:url(#SVGID_32_);}
	.st44{fill:url(#SVGID_33_);}
	.st45{fill:url(#SVGID_34_);}
	.st46{fill:url(#SVGID_35_);}
	.st47{fill:url(#SVGID_36_);}
	.st48{fill:url(#SVGID_37_);}
	.st49{fill:url(#SVGID_38_);}
	.st50{fill:url(#SVGID_39_);}
	.st51{fill:url(#SVGID_40_);}
	.st52{fill:url(#SVGID_41_);}
	.st53{fill:url(#SVGID_42_);}
	.st54{fill:url(#SVGID_43_);}
	.st55{fill:url(#SVGID_44_);}
	.st56{fill:url(#SVGID_45_);}
	.st57{fill:url(#SVGID_46_);}
	.st58{fill:url(#SVGID_47_);}
	.st59{fill:url(#SVGID_48_);}
	.st60{fill:url(#SVGID_49_);}
	.st61{fill:url(#SVGID_50_);}
	.st62{fill:url(#SVGID_51_);}
	.st63{fill:url(#SVGID_52_);}
	.st64{fill:url(#SVGID_53_);}
	.st65{fill:url(#SVGID_54_);}
	.st66{fill:url(#SVGID_55_);}
	.st67{fill:url(#SVGID_56_);}
	.st68{fill:url(#SVGID_57_);}
	.st69{fill:url(#SVGID_58_);}
	.st70{fill:url(#SVGID_59_);}
	.st71{fill:url(#SVGID_60_);}
	.st72{fill:url(#SVGID_61_);}
	.st73{fill:url(#SVGID_62_);}
	.st74{fill:url(#SVGID_63_);}
	.st75{fill:url(#SVGID_64_);}
	.st76{fill:url(#SVGID_65_);}
	.st77{fill:url(#SVGID_66_);}
	.st78{fill:url(#SVGID_67_);}
	.st79{fill:url(#SVGID_68_);}
	.st80{fill:url(#SVGID_69_);}
	.st81{fill:url(#Shape_37_);}
	.st82{fill:url(#Shape_38_);}
	.st83{fill:url(#Oval_2_);}
	.st84{fill:url(#Oval_9_);}
	.st85{fill:url(#Shape_39_);}
	.st86{fill:url(#Shape_40_);}
	.st87{fill:url(#Shape_41_);}
	.st88{fill:url(#Shape_42_);}
	.st89{fill:url(#Shape_43_);}
	.st90{fill:url(#SVGID_70_);}
	.st91{fill:url(#SVGID_71_);}
	.st92{fill:url(#SVGID_72_);}
	.st93{fill:url(#SVGID_73_);}
	.st94{fill:url(#SVGID_74_);}
	.st95{fill:url(#SVGID_75_);}
	.st96{fill:url(#SVGID_76_);}
	.st97{fill:url(#SVGID_77_);}
	.st98{fill:url(#SVGID_78_);}
	.st99{fill:url(#SVGID_79_);}
	.st100{fill:url(#SVGID_80_);}
	.st101{fill:url(#SVGID_81_);}
	.st102{fill:url(#SVGID_82_);}
	.st103{fill:url(#SVGID_83_);}
	.st104{fill:url(#SVGID_84_);}
	.st105{fill:url(#SVGID_85_);}
	.st106{fill:url(#SVGID_86_);}
	.st107{fill:url(#SVGID_87_);}
	.st108{fill:url(#SVGID_88_);}
	.st109{fill:url(#SVGID_89_);}
	.st110{fill:url(#SVGID_90_);}
	.st111{fill:#373B44;}
	.st112{fill:#4286F4;}
	.st113{fill:url(#SVGID_91_);}
	.st114{fill:#544A7D;}
	.st115{fill:#FFD452;}
	.st116{fill:url(#SVGID_92_);}
	.st117{fill:#00B4DB;}
	.st118{fill:#0083B0;}
	.st119{fill:url(#SVGID_93_);}
	.st120{fill:#00C6FF;}
	.st121{fill:#0072FF;}
	.st122{fill:url(#SVGID_94_);}
	.st123{fill:#DDEAFB;}
	.st124{fill:#CBE2FF;}
	.st125{fill:#F4FBFF;}
	.st126{fill:#E4F6FF;}
	.st127{fill:#698ED5;}
	.st128{fill:#4073C8;}
	.st129{fill:#3B66C1;}
	.st130{fill:#30579D;}
	.st131{fill:#4DCCFF;}
	.st132{fill:#F2FAFF;}
	.st133{fill:#B3E9FF;}
	.st134{fill:#FDBF67;}
	.st135{fill:#25B1FA;}
	.st136{fill:#FB8656;}
	.st137{fill:#FDAD67;}
	.st138{fill:#FFFEFA;}
	.st139{fill:#FFD4CF;}
	.st140{fill:#FBB8B0;}
	.st141{fill:#FFFFFF;}
	.st142{fill:#F2F2F2;}
	.st143{fill:#61AFF6;}
	.st144{fill:#49A0E8;}
	.st145{fill:#FF4C4C;}
	.st146{fill:#EA2828;}
	.st147{fill:#FFB125;}
	.st148{fill:#FF901D;}
	.st149{fill:#3B97D3;}
	.st150{fill:#ECF0F1;}
	.st151{fill:#E64C3C;}
	.st152{fill:#F0C419;}
	.st153{fill:#4FBA6F;}
	.st154{fill:#2980BA;}
	.st155{fill:#90BAE1;}
	.st156{fill:#B0D3F0;}
	.st157{fill:#7F8C8D;}
	.st158{fill:#3F5C6C;}
	.st159{fill:#95A5A5;}
	.st160{fill:#515151;}
	.st161{fill:none;stroke:#000000;stroke-width:13;stroke-miterlimit:10;}
	.st162{stroke:#000000;stroke-width:4;stroke-miterlimit:10;}
</style>
<g id="Layer_2" class="st0">
</g>
<g id="Layer_1">
	<g>
		<g>
			<g>
				<path d="M174.02,377.08c-0.1-0.03-0.2-0.05-0.3-0.07c9.36-10.45,15.07-24.24,15.07-39.34v-44.34c0-26.1-21.23-47.33-47.33-47.33
					H80.7c-5.52,0-10,4.48-10,10v81.67c0,15.1,5.71,28.89,15.07,39.34c-0.1,0.02-0.2,0.05-0.31,0.08
					c-43.21,3.98-77.17,40.42-77.17,84.65V502c0,5.52,4.48,10,10,10h222.89c5.52,0,10-4.48,10-10v-40.26
					C251.19,417.5,217.23,381.06,174.02,377.08z M129.74,376.71c-21.52,0-39.04-17.51-39.04-39.04v-17.88
					c5.44,2.97,11.68,4.67,18.31,4.67h59.76v13.22C168.78,359.19,151.27,376.71,129.74,376.71z M147.17,396.71l-17.43,17.43
					l-17.43-17.43H147.17z M90.7,266L90.7,266h50.74c15.07,0,27.33,12.26,27.33,27.33v11.12h-59.76c-10.1,0-18.31-8.21-18.31-18.31
					C90.7,286.14,90.7,266,90.7,266z M28.29,492v-30.26c0-32.91,24.57-60.16,56.33-64.43l38.05,38.05c1.95,1.95,4.51,2.93,7.07,2.93
					c2.56,0,5.12-0.98,7.07-2.93l38.05-38.05c31.76,4.27,56.33,31.52,56.33,64.43V492H28.29z"/>
			</g>
		</g>
		<g>
			<g>
				<path d="M454.36,384.49c7.69-7.63,12.46-18.19,12.46-29.85v-40.66c0-23.07-11.57-43.49-29.19-55.78
					c0.16-0.71,0.24-1.45,0.24-2.2v-23.77c23.38-2.93,41.52-22.93,41.52-47.09V84.92c0-26.17-21.29-47.46-47.46-47.46H276.47
					c-26.17,0-47.46,21.29-47.46,47.46v100.21c0,26.17,21.29,47.46,47.46,47.46h113.86l13.61,13.62c-1.69-0.13-3.38-0.21-5.1-0.21
					c-37.49,0-67.98,30.5-67.98,67.98v40.66c0,11.66,4.77,22.23,12.46,29.85c-29.09,13.44-49.34,42.88-49.34,76.98V502
					c0,5.52,4.48,10,10,10h189.72c5.52,0,10-4.48,10-10v-40.53C503.7,427.38,483.46,397.94,454.36,384.49z M401.55,215.52
					c-1.88-1.88-4.42-2.93-7.07-2.93H276.47c-15.14,0-27.46-12.32-27.46-27.46V84.92c0-15.14,12.32-27.46,27.46-27.46h155.47
					c15.14,0,27.46,12.32,27.46,27.46v0.54h-63.44c-5.52,0-10,4.48-10,10s4.48,10,10,10h63.44v79.67
					c0,15.14-12.32,27.46-27.46,27.46h-4.06c-5.52,0-10,4.48-10,10v9.26L401.55,215.52z M350.87,313.98
					c0-26.46,21.52-47.98,47.98-47.98c26.46,0,47.98,21.52,47.98,47.98v40.66c0,12.17-9.9,22.07-22.07,22.07h-5.82h-40.18h-5.82v0
					c-12.17,0-22.07-9.9-22.07-22.07L350.87,313.98L350.87,313.98z M483.71,492L483.71,492H313.99v-30.53
					c0-35.71,29.05-64.77,64.77-64.77h40.18c35.71,0,64.77,29.05,64.77,64.77V492z"/>
			</g>
		</g>
		<g>
			<g>
				<path d="M212.96,0H96.65C70.48,0,49.19,21.29,49.19,47.46v100.21c0,24.16,18.14,44.16,41.52,47.09v23.77
					c0,4.04,2.44,7.69,6.17,9.24c1.24,0.51,2.54,0.76,3.83,0.76c2.6,0,5.16-1.02,7.07-2.93l30.47-30.48h51.97c5.52,0,10-4.48,10-10
					s-4.48-10-10-10h-56.11c-2.65,0-5.2,1.05-7.07,2.93l-16.33,16.33v-9.26c0-5.52-4.48-10-10-10h-4.06
					c-15.14,0-27.46-12.32-27.46-27.46V47.46C69.19,32.32,81.51,20,96.65,20h116.31c5.52,0,10-4.48,10-10S218.48,0,212.96,0z"/>
			</g>
		</g>
		<g>
			<g>
				<path d="M259.19,2.93C257.33,1.07,254.75,0,252.12,0c-2.64,0-5.22,1.07-7.07,2.93c-1.87,1.86-2.94,4.44-2.94,7.07
					s1.07,5.21,2.94,7.07c1.85,1.86,4.43,2.93,7.07,2.93c2.63,0,5.2-1.07,7.07-2.93c1.86-1.86,2.93-4.44,2.93-7.07
					S261.05,4.79,259.19,2.93z"/>
			</g>
		</g>
		<g>
			<g>
				<path d="M361.27,88.39c-1.86-1.86-4.44-2.93-7.07-2.93c-2.63,0-5.21,1.07-7.07,2.93c-1.86,1.86-2.93,4.44-2.93,7.07
					s1.07,5.21,2.93,7.07s4.44,2.93,7.07,2.93s5.21-1.07,7.07-2.93c1.86-1.86,2.93-4.44,2.93-7.07S363.13,90.25,361.27,88.39z"/>
			</g>
		</g>
	</g>
</g>
</svg>
