<?xml version="1.0" encoding="utf-8"?>
<!-- Generator: Adobe Illustrator 24.0.2, SVG Export Plug-In . SVG Version: 6.00 Build 0)  -->
<svg version="1.1" xmlns="http://www.w3.org/2000/svg" xmlns:xlink="http://www.w3.org/1999/xlink" x="0px" y="0px"
	 viewBox="0 0 512 512" style="enable-background:new 0 0 512 512;" xml:space="preserve">
<style type="text/css">
	.st0{display:none;}
	.st1{display:inline;fill:#FFFFFF;}
	.st2{fill:url(#SVGID_1_);}
	.st3{fill:url(#SVGID_2_);}
	.st4{fill:url(#SVGID_3_);}
	.st5{fill:url(#SVGID_4_);}
	.st6{fill:url(#SVGID_5_);}
	.st7{fill:url(#SVGID_6_);}
	.st8{fill:url(#SVGID_7_);}
	.st9{fill:url(#SVGID_8_);}
	.st10{fill:url(#SVGID_9_);}
	.st11{fill:url(#SVGID_10_);}
	.st12{fill:url(#SVGID_11_);}
	.st13{fill:url(#SVGID_12_);}
	.st14{fill:url(#SVGID_13_);}
	.st15{fill:url(#SVGID_14_);}
	.st16{fill:url(#SVGID_15_);}
	.st17{fill:url(#SVGID_16_);}
	.st18{fill:url(#SVGID_17_);}
	.st19{fill:url(#SVGID_18_);}
	.st20{fill:url(#SVGID_19_);}
	.st21{fill:url(#SVGID_20_);}
	.st22{fill:url(#SVGID_21_);}
	.st23{fill:url(#SVGID_22_);}
	.st24{fill:url(#SVGID_23_);}
	.st25{fill:url(#SVGID_24_);}
	.st26{fill:url(#SVGID_25_);}
	.st27{fill:url(#SVGID_26_);}
	.st28{fill:url(#SVGID_27_);}
	.st29{fill:url(#SVGID_28_);}
	.st30{fill:url(#SVGID_29_);}
	.st31{fill:url(#SVGID_30_);}
	.st32{fill:url(#Shape_1_);}
	.st33{fill:url(#Shape_2_);}
	.st34{fill:url(#Shape_3_);}
	.st35{fill:url(#Shape_4_);}
	.st36{fill:url(#Shape_5_);}
	.st37{fill:url(#Shape_6_);}
	.st38{fill:url(#Shape_34_);}
	.st39{fill:url(#Shape_35_);}
	.st40{fill:url(#Shape_36_);}
	.st41{fill:url(#Oval_1_);}
	.st42{fill:url(#SVGID_31_);}
	.st43{fill:url(#SVGID_32_);}
	.st44{fill:url(#SVGID_33_);}
	.st45{fill:url(#SVGID_34_);}
	.st46{fill:url(#SVGID_35_);}
	.st47{fill:url(#SVGID_36_);}
	.st48{fill:url(#SVGID_37_);}
	.st49{fill:url(#SVGID_38_);}
	.st50{fill:url(#SVGID_39_);}
	.st51{fill:url(#SVGID_40_);}
	.st52{fill:url(#SVGID_41_);}
	.st53{fill:url(#SVGID_42_);}
	.st54{fill:url(#SVGID_43_);}
	.st55{fill:url(#SVGID_44_);}
	.st56{fill:url(#SVGID_45_);}
	.st57{fill:url(#SVGID_46_);}
	.st58{fill:url(#SVGID_47_);}
	.st59{fill:url(#SVGID_48_);}
	.st60{fill:url(#SVGID_49_);}
	.st61{fill:url(#SVGID_50_);}
	.st62{fill:url(#SVGID_51_);}
	.st63{fill:url(#SVGID_52_);}
	.st64{fill:url(#SVGID_53_);}
	.st65{fill:url(#SVGID_54_);}
	.st66{fill:url(#SVGID_55_);}
	.st67{fill:url(#SVGID_56_);}
	.st68{fill:url(#SVGID_57_);}
	.st69{fill:url(#SVGID_58_);}
	.st70{fill:url(#SVGID_59_);}
	.st71{fill:url(#SVGID_60_);}
	.st72{fill:url(#SVGID_61_);}
	.st73{fill:url(#SVGID_62_);}
	.st74{fill:url(#SVGID_63_);}
	.st75{fill:url(#SVGID_64_);}
	.st76{fill:url(#SVGID_65_);}
	.st77{fill:url(#SVGID_66_);}
	.st78{fill:url(#SVGID_67_);}
	.st79{fill:url(#SVGID_68_);}
	.st80{fill:url(#SVGID_69_);}
	.st81{fill:url(#Shape_37_);}
	.st82{fill:url(#Shape_38_);}
	.st83{fill:url(#Oval_2_);}
	.st84{fill:url(#Oval_9_);}
	.st85{fill:url(#Shape_39_);}
	.st86{fill:url(#Shape_40_);}
	.st87{fill:url(#Shape_41_);}
	.st88{fill:url(#Shape_42_);}
	.st89{fill:url(#Shape_43_);}
	.st90{fill:url(#SVGID_70_);}
	.st91{fill:url(#SVGID_71_);}
	.st92{fill:url(#SVGID_72_);}
	.st93{fill:url(#SVGID_73_);}
	.st94{fill:url(#SVGID_74_);}
	.st95{fill:url(#SVGID_75_);}
	.st96{fill:url(#SVGID_76_);}
	.st97{fill:url(#SVGID_77_);}
	.st98{fill:url(#SVGID_78_);}
	.st99{fill:url(#SVGID_79_);}
	.st100{fill:url(#SVGID_80_);}
	.st101{fill:url(#SVGID_81_);}
	.st102{fill:url(#SVGID_82_);}
	.st103{fill:url(#SVGID_83_);}
	.st104{fill:url(#SVGID_84_);}
	.st105{fill:url(#SVGID_85_);}
	.st106{fill:url(#SVGID_86_);}
	.st107{fill:url(#SVGID_87_);}
	.st108{fill:url(#SVGID_88_);}
	.st109{fill:url(#SVGID_89_);}
	.st110{fill:url(#SVGID_90_);}
	.st111{fill:#373B44;}
	.st112{fill:#4286F4;}
	.st113{fill:url(#SVGID_91_);}
	.st114{fill:#544A7D;}
	.st115{fill:#FFD452;}
	.st116{fill:url(#SVGID_92_);}
	.st117{fill:#00B4DB;}
	.st118{fill:#0083B0;}
	.st119{fill:url(#SVGID_93_);}
	.st120{fill:#00C6FF;}
	.st121{fill:#0072FF;}
	.st122{fill:url(#SVGID_94_);}
	.st123{fill:#DDEAFB;}
	.st124{fill:#CBE2FF;}
	.st125{fill:#F4FBFF;}
	.st126{fill:#E4F6FF;}
	.st127{fill:#698ED5;}
	.st128{fill:#4073C8;}
	.st129{fill:#3B66C1;}
	.st130{fill:#30579D;}
	.st131{fill:#4DCCFF;}
	.st132{fill:#F2FAFF;}
	.st133{fill:#B3E9FF;}
	.st134{fill:#FDBF67;}
	.st135{fill:#25B1FA;}
	.st136{fill:#FB8656;}
	.st137{fill:#FDAD67;}
	.st138{fill:#FFFEFA;}
	.st139{fill:#FFD4CF;}
	.st140{fill:#FBB8B0;}
	.st141{fill:#FFFFFF;}
	.st142{fill:#F2F2F2;}
	.st143{fill:#61AFF6;}
	.st144{fill:#49A0E8;}
	.st145{fill:#FF4C4C;}
	.st146{fill:#EA2828;}
	.st147{fill:#FFB125;}
	.st148{fill:#FF901D;}
	.st149{fill:#3B97D3;}
	.st150{fill:#ECF0F1;}
	.st151{fill:#E64C3C;}
	.st152{fill:#F0C419;}
	.st153{fill:#4FBA6F;}
	.st154{fill:#2980BA;}
	.st155{fill:#90BAE1;}
	.st156{fill:#B0D3F0;}
	.st157{fill:#7F8C8D;}
	.st158{fill:#3F5C6C;}
	.st159{fill:#95A5A5;}
	.st160{fill:#515151;}
	.st161{fill:none;stroke:#000000;stroke-width:13;stroke-miterlimit:10;}
	.st162{stroke:#000000;stroke-width:4;stroke-miterlimit:10;}
</style>
<g id="Layer_2" class="st0">
</g>
<g id="Layer_1">
	<g>
		<g>
			<g>
				<path d="M504.5,127.19c4.14,0,7.5-3.36,7.5-7.5v-19.26c0-20.85-16.96-37.8-37.8-37.8H37.8C16.96,62.63,0,79.58,0,100.43v311.13
					c0,20.84,16.96,37.81,37.8,37.81h436.4c20.84,0,37.8-16.97,37.8-37.81V154.69c0-4.15-3.36-7.5-7.5-7.5s-7.5,3.35-7.5,7.5V381.4
					H15V100.43c0-12.58,10.23-22.8,22.8-22.8h436.4c12.57,0,22.8,10.22,22.8,22.8v19.26C497,123.83,500.36,127.19,504.5,127.19z
					 M497,396.4v15.16c0,12.57-10.23,22.81-22.8,22.81H37.8c-12.57,0-22.8-10.24-22.8-22.81V396.4H497z"/>
				<path d="M225.56,263.9c2.93,0,5.86-0.75,8.55-2.24l60.01-33.34c5.58-3.1,9.05-9,9.05-15.39c0-6.39-3.47-12.29-9.05-15.39
					l-60.01-33.34c-5.51-3.06-12.04-2.98-17.48,0.21c-5.43,3.2-8.68,8.87-8.68,15.17v66.68c0,6.3,3.24,11.97,8.68,15.17
					C219.42,263.08,222.49,263.9,225.56,263.9z M222.96,179.59c0.19-2.32,2.07-3.12,3.87-2.27l60.01,33.34
					c1.89,1.43,1.89,3.12,0,4.55l-60.01,33.34c-2.16,0.83-3.54,0.02-3.87-2.27L222.96,179.59z"/>
			</g>
		</g>
		<g>
			<path d="M435.32,334.08H76.68c-1.63,0-2.94-1.32-2.94-2.94v-9.12c0-1.63,1.32-2.94,2.94-2.94h358.64c1.63,0,2.94,1.32,2.94,2.94
				v9.12C438.26,332.76,436.94,334.08,435.32,334.08z"/>
			<path class="st160" d="M164.01,326.58c0,6.03-4.89,10.91-10.91,10.91c-6.03,0-10.92-4.88-10.92-10.91
				c0-6.02,4.89-10.91,10.92-10.91C159.12,315.67,164.01,320.56,164.01,326.58z"/>
			<path d="M153.1,307.29c-10.66,0-19.29,8.64-19.29,19.29c0,10.66,8.63,19.29,19.29,19.29c10.65,0,19.28-8.63,19.28-19.29
				C172.38,315.93,163.75,307.29,153.1,307.29z M153.1,337.49c-6.03,0-10.92-4.88-10.92-10.91c0-6.02,4.89-10.91,10.92-10.91
				c6.02,0,10.91,4.89,10.91,10.91C164.01,332.61,159.12,337.49,153.1,337.49z"/>
		</g>
	</g>
</g>
</svg>
