<?xml version="1.0" encoding="utf-8"?>
<!-- Generator: Adobe Illustrator 24.0.2, SVG Export Plug-In . SVG Version: 6.00 Build 0)  -->
<svg version="1.1" xmlns="http://www.w3.org/2000/svg" xmlns:xlink="http://www.w3.org/1999/xlink" x="0px" y="0px"
	 viewBox="0 0 512 512" style="enable-background:new 0 0 512 512;" xml:space="preserve">
<style type="text/css">
	.st0{display:none;}
	.st1{display:inline;fill:#FFFFFF;}
	.st2{fill:url(#SVGID_1_);}
	.st3{fill:url(#SVGID_2_);}
	.st4{fill:url(#SVGID_3_);}
	.st5{fill:url(#SVGID_4_);}
	.st6{fill:url(#SVGID_5_);}
	.st7{fill:url(#SVGID_6_);}
	.st8{fill:url(#SVGID_7_);}
	.st9{fill:url(#SVGID_8_);}
	.st10{fill:url(#SVGID_9_);}
	.st11{fill:url(#SVGID_10_);}
	.st12{fill:url(#SVGID_11_);}
	.st13{fill:url(#SVGID_12_);}
	.st14{fill:url(#SVGID_13_);}
	.st15{fill:url(#SVGID_14_);}
	.st16{fill:url(#SVGID_15_);}
	.st17{fill:url(#SVGID_16_);}
	.st18{fill:url(#SVGID_17_);}
	.st19{fill:url(#SVGID_18_);}
	.st20{fill:url(#SVGID_19_);}
	.st21{fill:url(#SVGID_20_);}
	.st22{fill:url(#SVGID_21_);}
	.st23{fill:url(#SVGID_22_);}
	.st24{fill:url(#SVGID_23_);}
	.st25{fill:url(#SVGID_24_);}
	.st26{fill:url(#SVGID_25_);}
	.st27{fill:url(#SVGID_26_);}
	.st28{fill:url(#SVGID_27_);}
	.st29{fill:url(#SVGID_28_);}
	.st30{fill:url(#SVGID_29_);}
	.st31{fill:url(#SVGID_30_);}
	.st32{fill:url(#Shape_1_);}
	.st33{fill:url(#Shape_2_);}
	.st34{fill:url(#Shape_3_);}
	.st35{fill:url(#Shape_4_);}
	.st36{fill:url(#Shape_5_);}
	.st37{fill:url(#Shape_6_);}
	.st38{fill:url(#Shape_34_);}
	.st39{fill:url(#Shape_35_);}
	.st40{fill:url(#Shape_36_);}
	.st41{fill:url(#Oval_1_);}
	.st42{fill:url(#SVGID_31_);}
	.st43{fill:url(#SVGID_32_);}
	.st44{fill:url(#SVGID_33_);}
	.st45{fill:url(#SVGID_34_);}
	.st46{fill:url(#SVGID_35_);}
	.st47{fill:url(#SVGID_36_);}
	.st48{fill:url(#SVGID_37_);}
	.st49{fill:url(#SVGID_38_);}
	.st50{fill:url(#SVGID_39_);}
	.st51{fill:url(#SVGID_40_);}
	.st52{fill:url(#SVGID_41_);}
	.st53{fill:url(#SVGID_42_);}
	.st54{fill:url(#SVGID_43_);}
	.st55{fill:url(#SVGID_44_);}
	.st56{fill:url(#SVGID_45_);}
	.st57{fill:url(#SVGID_46_);}
	.st58{fill:url(#SVGID_47_);}
	.st59{fill:url(#SVGID_48_);}
	.st60{fill:url(#SVGID_49_);}
	.st61{fill:url(#SVGID_50_);}
	.st62{fill:url(#SVGID_51_);}
	.st63{fill:url(#SVGID_52_);}
	.st64{fill:url(#SVGID_53_);}
	.st65{fill:url(#SVGID_54_);}
	.st66{fill:url(#SVGID_55_);}
	.st67{fill:url(#SVGID_56_);}
	.st68{fill:url(#SVGID_57_);}
	.st69{fill:url(#SVGID_58_);}
	.st70{fill:url(#SVGID_59_);}
	.st71{fill:url(#SVGID_60_);}
	.st72{fill:url(#SVGID_61_);}
	.st73{fill:url(#SVGID_62_);}
	.st74{fill:url(#SVGID_63_);}
	.st75{fill:url(#SVGID_64_);}
	.st76{fill:url(#SVGID_65_);}
	.st77{fill:url(#SVGID_66_);}
	.st78{fill:url(#SVGID_67_);}
	.st79{fill:url(#SVGID_68_);}
	.st80{fill:url(#SVGID_69_);}
	.st81{fill:url(#Shape_37_);}
	.st82{fill:url(#Shape_38_);}
	.st83{fill:url(#Oval_2_);}
	.st84{fill:url(#Oval_9_);}
	.st85{fill:url(#Shape_39_);}
	.st86{fill:url(#Shape_40_);}
	.st87{fill:url(#Shape_41_);}
	.st88{fill:url(#Shape_42_);}
	.st89{fill:url(#Shape_43_);}
	.st90{fill:url(#SVGID_70_);}
	.st91{fill:url(#SVGID_71_);}
	.st92{fill:url(#SVGID_72_);}
	.st93{fill:url(#SVGID_73_);}
	.st94{fill:url(#SVGID_74_);}
	.st95{fill:url(#SVGID_75_);}
	.st96{fill:url(#SVGID_76_);}
	.st97{fill:url(#SVGID_77_);}
	.st98{fill:url(#SVGID_78_);}
	.st99{fill:url(#SVGID_79_);}
	.st100{fill:url(#SVGID_80_);}
	.st101{fill:url(#SVGID_81_);}
	.st102{fill:url(#SVGID_82_);}
	.st103{fill:url(#SVGID_83_);}
	.st104{fill:url(#SVGID_84_);}
	.st105{fill:url(#SVGID_85_);}
	.st106{fill:url(#SVGID_86_);}
	.st107{fill:url(#SVGID_87_);}
	.st108{fill:url(#SVGID_88_);}
	.st109{fill:url(#SVGID_89_);}
	.st110{fill:url(#SVGID_90_);}
	.st111{fill:#373B44;}
	.st112{fill:#4286F4;}
	.st113{fill:url(#SVGID_91_);}
	.st114{fill:#544A7D;}
	.st115{fill:#FFD452;}
	.st116{fill:url(#SVGID_92_);}
	.st117{fill:#00B4DB;}
	.st118{fill:#0083B0;}
	.st119{fill:url(#SVGID_93_);}
	.st120{fill:#00C6FF;}
	.st121{fill:#0072FF;}
	.st122{fill:url(#SVGID_94_);}
	.st123{fill:#DDEAFB;}
	.st124{fill:#CBE2FF;}
	.st125{fill:#F4FBFF;}
	.st126{fill:#E4F6FF;}
	.st127{fill:#698ED5;}
	.st128{fill:#4073C8;}
	.st129{fill:#3B66C1;}
	.st130{fill:#30579D;}
	.st131{fill:#4DCCFF;}
	.st132{fill:#F2FAFF;}
	.st133{fill:#B3E9FF;}
	.st134{fill:#FDBF67;}
	.st135{fill:#25B1FA;}
	.st136{fill:#FB8656;}
	.st137{fill:#FDAD67;}
	.st138{fill:#FFFEFA;}
	.st139{fill:#FFD4CF;}
	.st140{fill:#FBB8B0;}
	.st141{fill:#FFFFFF;}
	.st142{fill:#F2F2F2;}
	.st143{fill:#61AFF6;}
	.st144{fill:#49A0E8;}
	.st145{fill:#FF4C4C;}
	.st146{fill:#EA2828;}
	.st147{fill:#FFB125;}
	.st148{fill:#FF901D;}
	.st149{fill:#3B97D3;}
	.st150{fill:#ECF0F1;}
	.st151{fill:#E64C3C;}
	.st152{fill:#F0C419;}
	.st153{fill:#4FBA6F;}
	.st154{fill:#2980BA;}
	.st155{fill:#90BAE1;}
	.st156{fill:#B0D3F0;}
	.st157{fill:#7F8C8D;}
	.st158{fill:#3F5C6C;}
	.st159{fill:#95A5A5;}
	.st160{fill:#515151;}
	.st161{fill:none;stroke:#000000;stroke-width:13;stroke-miterlimit:10;}
	.st162{stroke:#000000;stroke-width:4;stroke-miterlimit:10;}
</style>
<g id="Layer_2" class="st0">
</g>
<g id="Layer_1">
	<g>
		<path d="M490.43,229.85c-0.82-39.9-11.86-79.01-31.97-113.36c16.37-78.29-66.42-141.96-137.71-106.35
			C253.54-9.91,175.4,0.75,113.76,48.47c-7.82,6,1.63,17.64,9.12,11.9c18.93-14.51,39.9-25.77,62.33-33.45
			c23.38-8.01,47.87-11.95,72.81-11.74c15.59,0.14,31.08,1.92,46.18,5.31c-5.89,4.57-11.24,9.81-15.94,15.59
			C171.63,16.16,60.61,106.34,55.29,223.53c-6.15-0.3-12.49,0.13-18.43,1.75c2.07-49.7,21.02-97.86,52.73-133.39
			c6.46-7.23-4.73-17.22-11.19-9.98c-35.63,39.92-56.23,94.63-56.72,150.45C8.65,241.36,0.09,256.4,0.09,273.41v72.45
			c0,32.02,27.26,50.63,56.8,49.89c10.45,30.2,54.52,23.64,55.27-8.77V229.72c0.33-20.03-21.45-34.26-39.61-25.98
			C87.81,108,180.14,36.97,278.88,49.89c-21.19,36.18-14.08,87.01,16.61,116.18v20.36c1,6.03,4.47,8.33,10.42,6.91l18.25-7.71
			c34.42,16.13,79.27,7.89,105.57-17.89c4.52,11.69,7.83,23.75,9.89,36.07c-18.18-8.41-40.11,5.78-39.78,25.91v157.26
			c-0.22,21.32,23.57,35.29,42.02,24.79c-0.04,6.62-0.16,13.25-0.42,19.81c-1.79,21.48-18.35,39.52-39.47,43
			c-6.71,0.66-14.37,0.92-23.73,0.78c-3.36-12.32-14.64-21.4-28.01-21.4h-39.81c-38.49,1.59-38.5,56.45,0,58.05h39.81
			c13.46,0,24.8-9.2,28.07-21.65c8.46,0.11,17.42,0.41,25.82-0.94c28.02-4.48,50.39-28.37,52.67-56.79c0.01-0.1,0-0.2,0-0.3
			c0.52-13.05,0.13-26.22,0-39.15c28.98,1.4,55.11-19.72,55.11-49.89v-72.45C511.91,253.88,503.4,238.86,490.43,229.85
			L490.43,229.85z M15.08,345.86v-72.45c0-21.86,19.24-36.08,39.89-34.89v142.23C34.31,381.9,15.08,367.78,15.08,345.86z
			 M83.83,216.39c7.35,0,13.33,5.98,13.33,13.33v157.26c-0.73,17.69-25.94,17.68-26.66,0V229.72
			C70.5,222.37,76.48,216.39,83.83,216.39L83.83,216.39z M350.24,497.01h-39.81c-7.74,0-14.03-6.29-14.03-14.03
			c0-7.74,6.29-14.03,14.03-14.03h39.81C368.84,469.71,368.86,496.23,350.24,497.01z M475.16,222.71
			c-5.95-1.63-12.29-2.05-18.45-1.75c-1.54-22.7-6.85-44.72-15.84-65.59c4.45-5.89,8.24-12.3,11.27-19.12
			C465.64,163.1,473.51,192.58,475.16,222.71z M363.51,178.96c-12.59,0-24.67-2.78-35.9-8.27c-2.06-0.95-4.13-1.01-6.21-0.17
			l-10.9,4.61v-12.26c0-2.1-0.88-4.1-2.42-5.52c-54.59-50.1-18.74-142.21,55.44-142.17C472.17,19.67,472.14,174.47,363.51,178.96z
			 M496.92,343.29c0,22.09-19.51,36.15-40.29,34.89c-0.09-8.06-0.15-16.11-0.13-24.17c0-9.69-14.99-9.69-14.99,0v32.97
			c0,7.35-5.98,13.33-13.33,13.33s-13.33-5.98-13.33-13.33V229.72c0.71-17.64,25.92-17.72,26.66,0v84.37c0,9.69,14.99,9.69,14.99,0
			v-78.15c20.83-1.18,40.42,12.61,40.42,34.89V343.29z"/>
		<path d="M324.21,422.36c5.94,1.42,9.41-0.88,10.42-6.91v-24.48c71.83-69.84,21.71-193.25-78.62-193.12
			c-62.08,0-112.58,50.5-112.58,112.56c-0.95,80.53,85.88,136.6,158.81,102.66L324.21,422.36z M298.78,398.13
			c-63.4,31.93-141.24-16.65-140.36-87.72c0-53.8,43.78-97.57,97.59-97.57c88.38-0.04,131.09,109.71,66.05,169.38
			c-1.54,1.42-2.42,3.42-2.42,5.52v16.4l-14.64-6.19C302.99,397.12,300.73,397.18,298.78,398.13L298.78,398.13z"/>
		<path d="M235.95,294.86h40.11c9.69,0,9.69-14.99,0-14.99h-40.11C226.25,279.87,226.25,294.86,235.95,294.86L235.95,294.86z"/>
		<path d="M297.51,321.92h-83.02c-9.69,0-9.69,14.99,0,14.99h83.02C307.2,336.91,307.2,321.92,297.51,321.92z"/>
		<path d="M364.16,39.85c-17.71-0.34-32.68,14.31-32.68,32.02c0,9.69,14.99,9.69,14.99,0c0-9.23,8.13-17.23,17.39-17.03
			c8.88,0.18,16.19,7.26,16.65,16.11c0.5,9.63-7.35,17.95-17.01,17.95c-4.14,0-7.5,3.36-7.5,7.5v25.65c0,4.14,3.36,7.5,7.5,7.5
			c4.14,0,7.5-3.36,7.5-7.5v-19.05c14.81-3.59,25.27-17.59,24.48-32.82C394.62,53.5,380.86,40.18,364.16,39.85L364.16,39.85z"/>
		<path d="M363.51,140.28c-9.65,0-9.66,14.99,0,14.99C373.16,155.28,373.17,140.28,363.51,140.28z"/>
	</g>
</g>
</svg>
