<?xml version="1.0" encoding="utf-8"?>
<!-- Generator: Adobe Illustrator 24.0.2, SVG Export Plug-In . SVG Version: 6.00 Build 0)  -->
<svg version="1.1" xmlns="http://www.w3.org/2000/svg" xmlns:xlink="http://www.w3.org/1999/xlink" x="0px" y="0px"
	 viewBox="0 0 512 512" style="enable-background:new 0 0 512 512;" xml:space="preserve">
<style type="text/css">
	.st0{display:none;}
	.st1{display:inline;fill:#FFFFFF;}
	.st2{fill:url(#SVGID_1_);}
	.st3{fill:url(#SVGID_2_);}
	.st4{fill:url(#SVGID_3_);}
	.st5{fill:url(#SVGID_4_);}
	.st6{fill:url(#SVGID_5_);}
	.st7{fill:url(#SVGID_6_);}
	.st8{fill:url(#SVGID_7_);}
	.st9{fill:url(#SVGID_8_);}
	.st10{fill:url(#SVGID_9_);}
	.st11{fill:url(#SVGID_10_);}
	.st12{fill:url(#SVGID_11_);}
	.st13{fill:url(#SVGID_12_);}
	.st14{fill:url(#SVGID_13_);}
	.st15{fill:url(#SVGID_14_);}
	.st16{fill:url(#SVGID_15_);}
	.st17{fill:url(#SVGID_16_);}
	.st18{fill:url(#SVGID_17_);}
	.st19{fill:url(#SVGID_18_);}
	.st20{fill:url(#SVGID_19_);}
	.st21{fill:url(#SVGID_20_);}
	.st22{fill:url(#SVGID_21_);}
	.st23{fill:url(#SVGID_22_);}
	.st24{fill:url(#SVGID_23_);}
	.st25{fill:url(#SVGID_24_);}
	.st26{fill:url(#SVGID_25_);}
	.st27{fill:url(#SVGID_26_);}
	.st28{fill:url(#SVGID_27_);}
	.st29{fill:url(#SVGID_28_);}
	.st30{fill:url(#SVGID_29_);}
	.st31{fill:url(#SVGID_30_);}
	.st32{fill:url(#Shape_1_);}
	.st33{fill:url(#Shape_2_);}
	.st34{fill:url(#Shape_3_);}
	.st35{fill:url(#Shape_4_);}
	.st36{fill:url(#Shape_5_);}
	.st37{fill:url(#Shape_6_);}
	.st38{fill:url(#Shape_34_);}
	.st39{fill:url(#Shape_35_);}
	.st40{fill:url(#Shape_36_);}
	.st41{fill:url(#Oval_1_);}
	.st42{fill:url(#SVGID_31_);}
	.st43{fill:url(#SVGID_32_);}
	.st44{fill:url(#SVGID_33_);}
	.st45{fill:url(#SVGID_34_);}
	.st46{fill:url(#SVGID_35_);}
	.st47{fill:url(#SVGID_36_);}
	.st48{fill:url(#SVGID_37_);}
	.st49{fill:url(#SVGID_38_);}
	.st50{fill:url(#SVGID_39_);}
	.st51{fill:url(#SVGID_40_);}
	.st52{fill:url(#SVGID_41_);}
	.st53{fill:url(#SVGID_42_);}
	.st54{fill:url(#SVGID_43_);}
	.st55{fill:url(#SVGID_44_);}
	.st56{fill:url(#SVGID_45_);}
	.st57{fill:url(#SVGID_46_);}
	.st58{fill:url(#SVGID_47_);}
	.st59{fill:url(#SVGID_48_);}
	.st60{fill:url(#SVGID_49_);}
	.st61{fill:url(#SVGID_50_);}
	.st62{fill:url(#SVGID_51_);}
	.st63{fill:url(#SVGID_52_);}
	.st64{fill:url(#SVGID_53_);}
	.st65{fill:url(#SVGID_54_);}
	.st66{fill:url(#SVGID_55_);}
	.st67{fill:url(#SVGID_56_);}
	.st68{fill:url(#SVGID_57_);}
	.st69{fill:url(#SVGID_58_);}
	.st70{fill:url(#SVGID_59_);}
	.st71{fill:url(#SVGID_60_);}
	.st72{fill:url(#SVGID_61_);}
	.st73{fill:url(#SVGID_62_);}
	.st74{fill:url(#SVGID_63_);}
	.st75{fill:url(#SVGID_64_);}
	.st76{fill:url(#SVGID_65_);}
	.st77{fill:url(#SVGID_66_);}
	.st78{fill:url(#SVGID_67_);}
	.st79{fill:url(#SVGID_68_);}
	.st80{fill:url(#SVGID_69_);}
	.st81{fill:url(#Shape_37_);}
	.st82{fill:url(#Shape_38_);}
	.st83{fill:url(#Oval_2_);}
	.st84{fill:url(#Oval_9_);}
	.st85{fill:url(#Shape_39_);}
	.st86{fill:url(#Shape_40_);}
	.st87{fill:url(#Shape_41_);}
	.st88{fill:url(#Shape_42_);}
	.st89{fill:url(#Shape_43_);}
	.st90{fill:url(#SVGID_70_);}
	.st91{fill:url(#SVGID_71_);}
	.st92{fill:url(#SVGID_72_);}
	.st93{fill:url(#SVGID_73_);}
	.st94{fill:url(#SVGID_74_);}
	.st95{fill:url(#SVGID_75_);}
	.st96{fill:url(#SVGID_76_);}
	.st97{fill:url(#SVGID_77_);}
	.st98{fill:url(#SVGID_78_);}
	.st99{fill:url(#SVGID_79_);}
	.st100{fill:url(#SVGID_80_);}
	.st101{fill:url(#SVGID_81_);}
	.st102{fill:url(#SVGID_82_);}
	.st103{fill:url(#SVGID_83_);}
	.st104{fill:url(#SVGID_84_);}
	.st105{fill:url(#SVGID_85_);}
	.st106{fill:url(#SVGID_86_);}
	.st107{fill:url(#SVGID_87_);}
	.st108{fill:url(#SVGID_88_);}
	.st109{fill:url(#SVGID_89_);}
	.st110{fill:url(#SVGID_90_);}
	.st111{fill:#373B44;}
	.st112{fill:#4286F4;}
	.st113{fill:url(#SVGID_91_);}
	.st114{fill:#544A7D;}
	.st115{fill:#FFD452;}
	.st116{fill:url(#SVGID_92_);}
	.st117{fill:#00B4DB;}
	.st118{fill:#0083B0;}
	.st119{fill:url(#SVGID_93_);}
	.st120{fill:#00C6FF;}
	.st121{fill:#0072FF;}
	.st122{fill:url(#SVGID_94_);}
	.st123{fill:#DDEAFB;}
	.st124{fill:#CBE2FF;}
	.st125{fill:#F4FBFF;}
	.st126{fill:#E4F6FF;}
	.st127{fill:#698ED5;}
	.st128{fill:#4073C8;}
	.st129{fill:#3B66C1;}
	.st130{fill:#30579D;}
	.st131{fill:#4DCCFF;}
	.st132{fill:#F2FAFF;}
	.st133{fill:#B3E9FF;}
	.st134{fill:#FDBF67;}
	.st135{fill:#25B1FA;}
	.st136{fill:#FB8656;}
	.st137{fill:#FDAD67;}
	.st138{fill:#FFFEFA;}
	.st139{fill:#FFD4CF;}
	.st140{fill:#FBB8B0;}
	.st141{fill:#FFFFFF;}
	.st142{fill:#F2F2F2;}
	.st143{fill:#61AFF6;}
	.st144{fill:#49A0E8;}
	.st145{fill:#FF4C4C;}
	.st146{fill:#EA2828;}
	.st147{fill:#FFB125;}
	.st148{fill:#FF901D;}
	.st149{fill:#3B97D3;}
	.st150{fill:#ECF0F1;}
	.st151{fill:#E64C3C;}
	.st152{fill:#F0C419;}
	.st153{fill:#4FBA6F;}
	.st154{fill:#2980BA;}
	.st155{fill:#90BAE1;}
	.st156{fill:#B0D3F0;}
	.st157{fill:#7F8C8D;}
	.st158{fill:#3F5C6C;}
	.st159{fill:#95A5A5;}
	.st160{fill:#515151;}
	.st161{fill:none;stroke:#000000;stroke-width:13;stroke-miterlimit:10;}
	.st162{stroke:#000000;stroke-width:4;stroke-miterlimit:10;}
</style>
<g id="Layer_2" class="st0">
</g>
<g id="Layer_1">
	<g>
		<g>
			<g>
				<path d="M169.88,128.26c-17.4,0-31.55,14.15-31.55,31.55v32.06c0,17.4,14.15,31.55,31.55,31.55s31.55-14.15,31.55-31.55v-32.06
					C201.43,142.41,187.27,128.26,169.88,128.26z M186.43,191.87c0,9.13-7.42,16.55-16.55,16.55s-16.55-7.42-16.55-16.55v-32.06
					c0-9.13,7.42-16.55,16.55-16.55s16.55,7.42,16.55,16.55V191.87z"/>
			</g>
		</g>
		<g>
			<g>
				<path d="M121.78,128.26c-4.14,0-7.5,3.36-7.5,7.5v56.11c0,9.13-7.42,16.55-16.55,16.55c-4.09,0-8.01-1.5-11.05-4.23
					c-3.08-2.77-7.82-2.51-10.59,0.57c-2.77,3.08-2.51,7.82,0.57,10.59c5.79,5.2,13.28,8.07,21.07,8.07
					c17.4,0,31.55-14.15,31.55-31.55v-56.11C129.28,131.62,125.92,128.26,121.78,128.26z"/>
			</g>
		</g>
		<g>
			<g>
				<path d="M260.51,166.33c3.16-4.01,5.05-9.05,5.05-14.54c0-12.98-10.56-23.53-23.53-23.53h-24.05c-4.14,0-7.5,3.36-7.5,7.5v32.06
					v48.1c0,4.14,3.36,7.5,7.5,7.5h24.05c17.4,0,31.55-14.15,31.55-31.55C273.57,181.38,268.42,172.07,260.51,166.33z
					 M225.47,143.26h16.55c4.7,0,8.53,3.83,8.53,8.53c0,4.71-3.83,8.53-8.53,8.53h-16.55V143.26z M242.02,208.42h-16.55v-33.1h16.55
					c9.13,0,16.55,7.42,16.55,16.55S251.15,208.42,242.02,208.42z"/>
			</g>
		</g>
		<g>
			<g>
				<path d="M74.18,277.5c27.89,27.89,64.7,42.09,101.66,42.09c31.32,0,62.74-10.19,88.96-30.9c3.25-2.57,3.8-7.28,1.24-10.53
					c-2.57-3.25-7.28-3.8-10.54-1.24c-51.18,40.42-124.57,36.11-170.71-10.03C38.65,220.75,34.34,147.36,74.76,96.19
					c2.57-3.25,2.01-7.97-1.24-10.53s-7.97-2.01-10.54,1.24C17.85,144.04,22.67,225.98,74.18,277.5z"/>
			</g>
		</g>
		<g>
			<g>
				<path d="M85.66,73.51c2.57,3.25,7.28,3.81,10.54,1.24c51.18-40.42,124.57-36.11,170.71,10.03
					c46.14,46.14,50.45,119.53,10.03,170.71c-2.57,3.25-2.01,7.97,1.24,10.53c1.38,1.09,3.02,1.61,4.64,1.61
					c2.22,0,4.41-0.98,5.89-2.85c45.14-57.15,40.32-139.09-11.2-190.61C225.99,22.65,144.05,17.84,86.9,62.98
					C83.65,65.55,83.1,70.26,85.66,73.51z"/>
			</g>
		</g>
		<g>
			<g>
				<path d="M0.01,175.84c0,96.96,78.88,175.84,175.84,175.84c45.79,0,87.54-17.6,118.86-46.38l26.85,26.85l-6.03,6.03
					c-4.45,4.45-6.89,10.35-6.89,16.64s2.45,12.2,6.89,16.64l128.95,128.95c7.47,7.47,17.41,11.59,27.98,11.59
					c10.57,0,20.5-4.11,27.98-11.59c15.43-15.43,15.43-40.53,0-55.95L371.48,315.51c-4.44-4.45-10.35-6.89-16.64-6.89
					c-6.29,0-12.2,2.45-16.64,6.89l-6.03,6.03l-26.85-26.85c28.78-31.32,46.38-73.07,46.38-118.86C351.69,78.88,272.81,0,175.85,0
					C78.89,0,0.01,78.88,0.01,175.84z M344.14,378.87l34.74-34.74l110.93,110.93c4.64,4.64,7.19,10.81,7.19,17.37
					c0,6.56-2.55,12.73-7.19,17.37c-4.64,4.64-10.81,7.2-17.37,7.2c-6.56,0-12.73-2.56-17.37-7.2L344.14,378.87z M323.63,354.83
					c0-2.28,0.89-4.42,2.5-6.03l22.67-22.67c1.61-1.61,3.75-2.5,6.03-2.5c2.28,0,4.42,0.89,6.03,2.5l7.41,7.41l-34.74,34.74
					l-7.41-7.41C324.52,359.25,323.63,357.11,323.63,354.83z M15.01,175.84C15.01,87.15,87.16,15,175.85,15
					s160.84,72.15,160.84,160.84c0,88.69-72.15,160.84-160.84,160.84S15.01,264.52,15.01,175.84z"/>
			</g>
		</g>
	</g>
</g>
</svg>
