<?xml version="1.0" encoding="utf-8"?>
<!-- Generator: Adobe Illustrator 24.0.2, SVG Export Plug-In . SVG Version: 6.00 Build 0)  -->
<svg version="1.1" xmlns="http://www.w3.org/2000/svg" xmlns:xlink="http://www.w3.org/1999/xlink" x="0px" y="0px"
	 viewBox="0 0 512 512" style="enable-background:new 0 0 512 512;" xml:space="preserve">
<style type="text/css">
	.st0{display:none;}
	.st1{display:inline;fill:#FFFFFF;}
	.st2{fill:url(#SVGID_1_);}
	.st3{fill:url(#SVGID_2_);}
	.st4{fill:url(#SVGID_3_);}
	.st5{fill:url(#SVGID_4_);}
	.st6{fill:url(#SVGID_5_);}
	.st7{fill:url(#SVGID_6_);}
	.st8{fill:url(#SVGID_7_);}
	.st9{fill:url(#SVGID_8_);}
	.st10{fill:url(#SVGID_9_);}
	.st11{fill:url(#SVGID_10_);}
	.st12{fill:url(#SVGID_11_);}
	.st13{fill:url(#SVGID_12_);}
	.st14{fill:url(#SVGID_13_);}
	.st15{fill:url(#SVGID_14_);}
	.st16{fill:url(#SVGID_15_);}
	.st17{fill:url(#SVGID_16_);}
	.st18{fill:url(#SVGID_17_);}
	.st19{fill:url(#SVGID_18_);}
	.st20{fill:url(#SVGID_19_);}
	.st21{fill:url(#SVGID_20_);}
	.st22{fill:url(#SVGID_21_);}
	.st23{fill:url(#SVGID_22_);}
	.st24{fill:url(#SVGID_23_);}
	.st25{fill:url(#SVGID_24_);}
	.st26{fill:url(#SVGID_25_);}
	.st27{fill:url(#SVGID_26_);}
	.st28{fill:url(#SVGID_27_);}
	.st29{fill:url(#SVGID_28_);}
	.st30{fill:url(#SVGID_29_);}
	.st31{fill:url(#SVGID_30_);}
	.st32{fill:url(#Shape_1_);}
	.st33{fill:url(#Shape_2_);}
	.st34{fill:url(#Shape_3_);}
	.st35{fill:url(#Shape_4_);}
	.st36{fill:url(#Shape_5_);}
	.st37{fill:url(#Shape_6_);}
	.st38{fill:url(#Shape_34_);}
	.st39{fill:url(#Shape_35_);}
	.st40{fill:url(#Shape_36_);}
	.st41{fill:url(#Oval_1_);}
	.st42{fill:url(#SVGID_31_);}
	.st43{fill:url(#SVGID_32_);}
	.st44{fill:url(#SVGID_33_);}
	.st45{fill:url(#SVGID_34_);}
	.st46{fill:url(#SVGID_35_);}
	.st47{fill:url(#SVGID_36_);}
	.st48{fill:url(#SVGID_37_);}
	.st49{fill:url(#SVGID_38_);}
	.st50{fill:url(#SVGID_39_);}
	.st51{fill:url(#SVGID_40_);}
	.st52{fill:url(#SVGID_41_);}
	.st53{fill:url(#SVGID_42_);}
	.st54{fill:url(#SVGID_43_);}
	.st55{fill:url(#SVGID_44_);}
	.st56{fill:url(#SVGID_45_);}
	.st57{fill:url(#SVGID_46_);}
	.st58{fill:url(#SVGID_47_);}
	.st59{fill:url(#SVGID_48_);}
	.st60{fill:url(#SVGID_49_);}
	.st61{fill:url(#SVGID_50_);}
	.st62{fill:url(#SVGID_51_);}
	.st63{fill:url(#SVGID_52_);}
	.st64{fill:url(#SVGID_53_);}
	.st65{fill:url(#SVGID_54_);}
	.st66{fill:url(#SVGID_55_);}
	.st67{fill:url(#SVGID_56_);}
	.st68{fill:url(#SVGID_57_);}
	.st69{fill:url(#SVGID_58_);}
	.st70{fill:url(#SVGID_59_);}
	.st71{fill:url(#SVGID_60_);}
	.st72{fill:url(#SVGID_61_);}
	.st73{fill:url(#SVGID_62_);}
	.st74{fill:url(#SVGID_63_);}
	.st75{fill:url(#SVGID_64_);}
	.st76{fill:url(#SVGID_65_);}
	.st77{fill:url(#SVGID_66_);}
	.st78{fill:url(#SVGID_67_);}
	.st79{fill:url(#SVGID_68_);}
	.st80{fill:url(#SVGID_69_);}
	.st81{fill:url(#Shape_37_);}
	.st82{fill:url(#Shape_38_);}
	.st83{fill:url(#Oval_2_);}
	.st84{fill:url(#Oval_9_);}
	.st85{fill:url(#Shape_39_);}
	.st86{fill:url(#Shape_40_);}
	.st87{fill:url(#Shape_41_);}
	.st88{fill:url(#Shape_42_);}
	.st89{fill:url(#Shape_43_);}
	.st90{fill:url(#SVGID_70_);}
	.st91{fill:url(#SVGID_71_);}
	.st92{fill:url(#SVGID_72_);}
	.st93{fill:url(#SVGID_73_);}
	.st94{fill:url(#SVGID_74_);}
	.st95{fill:url(#SVGID_75_);}
	.st96{fill:url(#SVGID_76_);}
	.st97{fill:url(#SVGID_77_);}
	.st98{fill:url(#SVGID_78_);}
	.st99{fill:url(#SVGID_79_);}
	.st100{fill:url(#SVGID_80_);}
	.st101{fill:url(#SVGID_81_);}
	.st102{fill:url(#SVGID_82_);}
	.st103{fill:url(#SVGID_83_);}
	.st104{fill:url(#SVGID_84_);}
	.st105{fill:url(#SVGID_85_);}
	.st106{fill:url(#SVGID_86_);}
	.st107{fill:url(#SVGID_87_);}
	.st108{fill:url(#SVGID_88_);}
	.st109{fill:url(#SVGID_89_);}
	.st110{fill:url(#SVGID_90_);}
	.st111{fill:#373B44;}
	.st112{fill:#4286F4;}
	.st113{fill:url(#SVGID_91_);}
	.st114{fill:#544A7D;}
	.st115{fill:#FFD452;}
	.st116{fill:url(#SVGID_92_);}
	.st117{fill:#00B4DB;}
	.st118{fill:#0083B0;}
	.st119{fill:url(#SVGID_93_);}
	.st120{fill:#00C6FF;}
	.st121{fill:#0072FF;}
	.st122{fill:url(#SVGID_94_);}
	.st123{fill:#DDEAFB;}
	.st124{fill:#CBE2FF;}
	.st125{fill:#F4FBFF;}
	.st126{fill:#E4F6FF;}
	.st127{fill:#698ED5;}
	.st128{fill:#4073C8;}
	.st129{fill:#3B66C1;}
	.st130{fill:#30579D;}
	.st131{fill:#4DCCFF;}
	.st132{fill:#F2FAFF;}
	.st133{fill:#B3E9FF;}
	.st134{fill:#FDBF67;}
	.st135{fill:#25B1FA;}
	.st136{fill:#FB8656;}
	.st137{fill:#FDAD67;}
	.st138{fill:#FFFEFA;}
	.st139{fill:#FFD4CF;}
	.st140{fill:#FBB8B0;}
	.st141{fill:#FFFFFF;}
	.st142{fill:#F2F2F2;}
	.st143{fill:#61AFF6;}
	.st144{fill:#49A0E8;}
	.st145{fill:#FF4C4C;}
	.st146{fill:#EA2828;}
	.st147{fill:#FFB125;}
	.st148{fill:#FF901D;}
	.st149{fill:#3B97D3;}
	.st150{fill:#ECF0F1;}
	.st151{fill:#E64C3C;}
	.st152{fill:#F0C419;}
	.st153{fill:#4FBA6F;}
	.st154{fill:#2980BA;}
	.st155{fill:#90BAE1;}
	.st156{fill:#B0D3F0;}
	.st157{fill:#7F8C8D;}
	.st158{fill:#3F5C6C;}
	.st159{fill:#95A5A5;}
	.st160{fill:#515151;}
	.st161{fill:none;stroke:#000000;stroke-width:13;stroke-miterlimit:10;}
	.st162{stroke:#000000;stroke-width:4;stroke-miterlimit:10;}
</style>
<g id="Layer_2" class="st0">
</g>
<g id="Layer_1">
	<g id="lab-laboratory-science-chemistry-computer">
		<g>
			<path d="M227.57,245.58c30.93,0,56-25.07,56-56s-25.07-56-56-56s-56,25.07-56,56C171.61,220.5,196.66,245.55,227.57,245.58z
				 M266.77,181.58h-31.2v-31.2C251.27,153.62,263.53,165.89,266.77,181.58z M219.57,150.38v39.2c0,4.42,3.58,8,8,8h39.2
				c-4.42,21.64-25.56,35.6-47.2,31.18c-21.64-4.42-35.6-25.56-31.18-47.2C191.6,165.86,203.87,153.59,219.57,150.38z"/>
			<path d="M172.87,292.05h151c4.42,0,8-3.58,8-8c0-4.42-3.58-8-8-8h-151c-4.42,0-8,3.58-8,8
				C164.87,288.47,168.45,292.05,172.87,292.05z"/>
			<path d="M172.87,324.82h151c4.42,0,8-3.58,8-8s-3.58-8-8-8h-151c-4.42,0-8,3.58-8,8S168.45,324.82,172.87,324.82z"/>
		</g>
	</g>
	<g>
		<g>
			<path d="M487.93,210.45c3.9,0,7.18-2.69,8.07-6.32V177c-0.04-13.24-10.76-23.96-24-24h-56v-24c-0.02-2.12-0.85-4.15-2.32-5.68
				l-64-64c-1.53-1.47-3.56-2.3-5.68-2.32H104c-4.42,0-8,3.58-8,8v88H40c-13.24,0.04-23.96,10.76-24,24v240.04
				C16,438.51,31.9,456,51.44,456h409.12c19.54,0,35.44-17.49,35.44-38.96v-178.1c-0.89-3.63-4.17-6.32-8.07-6.32
				c-3.72,0-6.87,2.43-7.93,5.8V386l-446.94,0.96L32,372V177c0-4.42,3.58-8,8-8h56v194l-0.13,16H416V169h56c4.42,0,8,3.58,8,8v28
				C481.06,208.37,484.21,210.45,487.93,210.45z M33.06,402.42L481,401v16c-1.15,12.93-9.94,21.53-20.44,23.54L53,441
				c-11.79,0-20-11.05-20-24L33.06,402.42z M352,84.28L388.72,121H352V84.28z M400,363H112V73h224v48c0.03,8.83,7.17,15.97,16,16h48
				V363z"/>
		</g>
	</g>
</g>
</svg>
