<?xml version="1.0" encoding="utf-8"?>
<!-- Generator: Adobe Illustrator 24.0.2, SVG Export Plug-In . SVG Version: 6.00 Build 0)  -->
<svg version="1.1" xmlns="http://www.w3.org/2000/svg" xmlns:xlink="http://www.w3.org/1999/xlink" x="0px" y="0px"
	 viewBox="0 0 512 512" style="enable-background:new 0 0 512 512;" xml:space="preserve">
<style type="text/css">
	.st0{display:none;}
	.st1{display:inline;fill:#FFFFFF;}
	.st2{fill:url(#SVGID_1_);}
	.st3{fill:url(#SVGID_2_);}
	.st4{fill:url(#SVGID_3_);}
	.st5{fill:url(#SVGID_4_);}
	.st6{fill:url(#SVGID_5_);}
	.st7{fill:url(#SVGID_6_);}
	.st8{fill:url(#SVGID_7_);}
	.st9{fill:url(#SVGID_8_);}
	.st10{fill:url(#SVGID_9_);}
	.st11{fill:url(#SVGID_10_);}
	.st12{fill:url(#SVGID_11_);}
	.st13{fill:url(#SVGID_12_);}
	.st14{fill:url(#SVGID_13_);}
	.st15{fill:url(#SVGID_14_);}
	.st16{fill:url(#SVGID_15_);}
	.st17{fill:url(#SVGID_16_);}
	.st18{fill:url(#SVGID_17_);}
	.st19{fill:url(#SVGID_18_);}
	.st20{fill:url(#SVGID_19_);}
	.st21{fill:url(#SVGID_20_);}
	.st22{fill:url(#SVGID_21_);}
	.st23{fill:url(#SVGID_22_);}
	.st24{fill:url(#SVGID_23_);}
	.st25{fill:url(#SVGID_24_);}
	.st26{fill:url(#SVGID_25_);}
	.st27{fill:url(#SVGID_26_);}
	.st28{fill:url(#SVGID_27_);}
	.st29{fill:url(#SVGID_28_);}
	.st30{fill:url(#SVGID_29_);}
	.st31{fill:url(#SVGID_30_);}
	.st32{fill:url(#Shape_1_);}
	.st33{fill:url(#Shape_2_);}
	.st34{fill:url(#Shape_3_);}
	.st35{fill:url(#Shape_4_);}
	.st36{fill:url(#Shape_5_);}
	.st37{fill:url(#Shape_6_);}
	.st38{fill:url(#Shape_34_);}
	.st39{fill:url(#Shape_35_);}
	.st40{fill:url(#Shape_36_);}
	.st41{fill:url(#Oval_1_);}
	.st42{fill:url(#SVGID_31_);}
	.st43{fill:url(#SVGID_32_);}
	.st44{fill:url(#SVGID_33_);}
	.st45{fill:url(#SVGID_34_);}
	.st46{fill:url(#SVGID_35_);}
	.st47{fill:url(#SVGID_36_);}
	.st48{fill:url(#SVGID_37_);}
	.st49{fill:url(#SVGID_38_);}
	.st50{fill:url(#SVGID_39_);}
	.st51{fill:url(#SVGID_40_);}
	.st52{fill:url(#SVGID_41_);}
	.st53{fill:url(#SVGID_42_);}
	.st54{fill:url(#SVGID_43_);}
	.st55{fill:url(#SVGID_44_);}
	.st56{fill:url(#SVGID_45_);}
	.st57{fill:url(#SVGID_46_);}
	.st58{fill:url(#SVGID_47_);}
	.st59{fill:url(#SVGID_48_);}
	.st60{fill:url(#SVGID_49_);}
	.st61{fill:url(#SVGID_50_);}
	.st62{fill:url(#SVGID_51_);}
	.st63{fill:url(#SVGID_52_);}
	.st64{fill:url(#SVGID_53_);}
	.st65{fill:url(#SVGID_54_);}
	.st66{fill:url(#SVGID_55_);}
	.st67{fill:url(#SVGID_56_);}
	.st68{fill:url(#SVGID_57_);}
	.st69{fill:url(#SVGID_58_);}
	.st70{fill:url(#SVGID_59_);}
	.st71{fill:url(#SVGID_60_);}
	.st72{fill:url(#SVGID_61_);}
	.st73{fill:url(#SVGID_62_);}
	.st74{fill:url(#SVGID_63_);}
	.st75{fill:url(#SVGID_64_);}
	.st76{fill:url(#SVGID_65_);}
	.st77{fill:url(#SVGID_66_);}
	.st78{fill:url(#SVGID_67_);}
	.st79{fill:url(#SVGID_68_);}
	.st80{fill:url(#SVGID_69_);}
	.st81{fill:url(#Shape_37_);}
	.st82{fill:url(#Shape_38_);}
	.st83{fill:url(#Oval_2_);}
	.st84{fill:url(#Oval_9_);}
	.st85{fill:url(#Shape_39_);}
	.st86{fill:url(#Shape_40_);}
	.st87{fill:url(#Shape_41_);}
	.st88{fill:url(#Shape_42_);}
	.st89{fill:url(#Shape_43_);}
	.st90{fill:url(#SVGID_70_);}
	.st91{fill:url(#SVGID_71_);}
	.st92{fill:url(#SVGID_72_);}
	.st93{fill:url(#SVGID_73_);}
	.st94{fill:url(#SVGID_74_);}
	.st95{fill:url(#SVGID_75_);}
	.st96{fill:url(#SVGID_76_);}
	.st97{fill:url(#SVGID_77_);}
	.st98{fill:url(#SVGID_78_);}
	.st99{fill:url(#SVGID_79_);}
	.st100{fill:url(#SVGID_80_);}
	.st101{fill:url(#SVGID_81_);}
	.st102{fill:url(#SVGID_82_);}
	.st103{fill:url(#SVGID_83_);}
	.st104{fill:url(#SVGID_84_);}
	.st105{fill:url(#SVGID_85_);}
	.st106{fill:url(#SVGID_86_);}
	.st107{fill:url(#SVGID_87_);}
	.st108{fill:url(#SVGID_88_);}
	.st109{fill:url(#SVGID_89_);}
	.st110{fill:url(#SVGID_90_);}
	.st111{fill:#373B44;}
	.st112{fill:#4286F4;}
	.st113{fill:url(#SVGID_91_);}
	.st114{fill:#544A7D;}
	.st115{fill:#FFD452;}
	.st116{fill:url(#SVGID_92_);}
	.st117{fill:#00B4DB;}
	.st118{fill:#0083B0;}
	.st119{fill:url(#SVGID_93_);}
	.st120{fill:#00C6FF;}
	.st121{fill:#0072FF;}
	.st122{fill:url(#SVGID_94_);}
	.st123{fill:#DDEAFB;}
	.st124{fill:#CBE2FF;}
	.st125{fill:#F4FBFF;}
	.st126{fill:#E4F6FF;}
	.st127{fill:#698ED5;}
	.st128{fill:#4073C8;}
	.st129{fill:#3B66C1;}
	.st130{fill:#30579D;}
	.st131{fill:#4DCCFF;}
	.st132{fill:#F2FAFF;}
	.st133{fill:#B3E9FF;}
	.st134{fill:#FDBF67;}
	.st135{fill:#25B1FA;}
	.st136{fill:#FB8656;}
	.st137{fill:#FDAD67;}
	.st138{fill:#FFFEFA;}
	.st139{fill:#FFD4CF;}
	.st140{fill:#FBB8B0;}
	.st141{fill:#FFFFFF;}
	.st142{fill:#F2F2F2;}
	.st143{fill:#61AFF6;}
	.st144{fill:#49A0E8;}
	.st145{fill:#FF4C4C;}
	.st146{fill:#EA2828;}
	.st147{fill:#FFB125;}
	.st148{fill:#FF901D;}
	.st149{fill:#3B97D3;}
	.st150{fill:#ECF0F1;}
	.st151{fill:#E64C3C;}
	.st152{fill:#F0C419;}
	.st153{fill:#4FBA6F;}
	.st154{fill:#2980BA;}
	.st155{fill:#90BAE1;}
	.st156{fill:#B0D3F0;}
	.st157{fill:#7F8C8D;}
	.st158{fill:#3F5C6C;}
	.st159{fill:#95A5A5;}
	.st160{fill:#515151;}
	.st161{fill:none;stroke:#000000;stroke-width:13;stroke-miterlimit:10;}
	.st162{stroke:#000000;stroke-width:4;stroke-miterlimit:10;}
</style>
<g id="Layer_2" class="st0">
</g>
<g id="Layer_1">
	<g>
		<g>
			<g>
				<path d="M504.5,127.19c4.14,0,7.5-3.36,7.5-7.5v-19.26c0-20.85-16.96-37.8-37.8-37.8H37.8C16.96,62.63,0,79.58,0,100.43v311.13
					c0,20.84,16.96,37.81,37.8,37.81h436.4c20.84,0,37.8-16.97,37.8-37.81V154.69c0-4.15-3.36-7.5-7.5-7.5s-7.5,3.35-7.5,7.5V381.4
					H15V100.43c0-12.58,10.23-22.8,22.8-22.8h436.4c12.57,0,22.8,10.22,22.8,22.8v19.26C497,123.83,500.36,127.19,504.5,127.19z
					 M497,396.4v15.16c0,12.57-10.23,22.81-22.8,22.81H37.8c-12.57,0-22.8-10.24-22.8-22.81V396.4H497z"/>
			</g>
		</g>
	</g>
	<g>
		<g>
			<path class="st162" d="M186.67,204.49h-51.86c-2.59,0-4.69,2.1-4.69,4.69c0,2.59,2.1,4.69,4.69,4.69h51.86
				c2.59,0,4.69-2.1,4.69-4.69C191.36,206.59,189.26,204.49,186.67,204.49z"/>
			<path class="st162" d="M186.67,181.19h-51.86c-2.59,0-4.69,2.1-4.69,4.69c0,2.59,2.1,4.69,4.69,4.69h51.86
				c2.59,0,4.69-2.1,4.69-4.69C191.36,183.29,189.26,181.19,186.67,181.19z"/>
			<path class="st162" d="M404.68,276.62c-0.83,0-1.57-0.52-1.83-1.3c-0.89-2.64-1.97-5.25-3.21-7.76
				c-0.37-0.74-0.22-1.64,0.37-2.23c4.41-4.41,4.41-11.59,0-16l-10.64-10.64c-4.41-4.41-11.59-4.41-16,0
				c-0.59,0.59-1.48,0.74-2.22,0.37c-2.5-1.24-5.11-2.32-7.76-3.22c-0.78-0.26-1.3-1-1.3-1.83c0-6.24-5.08-11.32-11.32-11.32h-15.05
				c-6.24,0-11.32,5.08-11.32,11.32c0,0.83-0.52,1.57-1.3,1.83c-2.64,0.89-5.25,1.97-7.76,3.21c-0.74,0.37-1.63,0.22-2.23-0.37
				c-4.41-4.41-11.59-4.41-16,0l-10.64,10.64c-4.41,4.41-4.41,11.59,0,16c0.59,0.59,0.74,1.48,0.37,2.22
				c-1.24,2.5-2.32,5.11-3.21,7.76c-0.26,0.78-1,1.3-1.83,1.3c-6.24,0-11.32,5.08-11.32,11.32v15.05c0,6.24,5.08,11.32,11.32,11.32
				c0.83,0,1.57,0.52,1.83,1.3c0.89,2.64,1.97,5.25,3.21,7.76c0.37,0.74,0.22,1.63-0.37,2.22c-4.42,4.42-4.42,11.58,0,16
				l10.64,10.64c4.42,4.42,11.58,4.42,16,0c0.59-0.59,1.48-0.74,2.22-0.37c2.5,1.24,5.11,2.32,7.76,3.21c0.78,0.26,1.3,1,1.3,1.83
				c0,6.24,5.08,11.32,11.32,11.32h15.05c6.24,0,11.32-5.08,11.32-11.32c0-0.83,0.52-1.57,1.3-1.83c2.64-0.89,5.25-1.97,7.76-3.21
				c0.74-0.37,1.63-0.22,2.22,0.37c4.42,4.42,11.58,4.42,16,0l10.64-10.64c4.42-4.42,4.42-11.58,0-16
				c-0.59-0.59-0.74-1.48-0.37-2.22c1.24-2.5,2.32-5.11,3.22-7.76c0.26-0.78,1-1.3,1.83-1.3c6.24,0,11.32-5.08,11.32-11.32v-15.05
				C416,281.7,410.92,276.62,404.68,276.62L404.68,276.62z M406.62,302.99c0,1.07-0.87,1.94-1.94,1.94c-4.86,0-9.16,3.08-10.71,7.67
				c-0.76,2.25-1.68,4.47-2.73,6.59c-2.15,4.35-1.29,9.58,2.14,13.02c0.76,0.76,0.76,1.98,0,2.74l-10.64,10.64
				c-0.75,0.75-1.98,0.76-2.75,0c-3.44-3.44-8.67-4.3-13.01-2.14c-2.13,1.05-4.35,1.97-6.6,2.73c-4.59,1.55-7.67,5.85-7.67,10.71
				c0,1.07-0.87,1.94-1.94,1.94h-15.05c-1.07,0-1.94-0.87-1.94-1.94c0-4.86-3.08-9.16-7.67-10.71c-2.25-0.76-4.47-1.68-6.59-2.73
				c-1.6-0.79-3.31-1.18-5.02-1.18c-2.93,0-5.83,1.14-8,3.32c-0.75,0.75-1.98,0.76-2.74,0l-10.64-10.64c-0.75-0.75-0.76-1.98,0-2.75
				c3.43-3.44,4.3-8.67,2.14-13.01c-1.05-2.13-1.97-4.35-2.73-6.6c-1.55-4.59-5.86-7.67-10.71-7.67c-1.07,0-1.94-0.87-1.94-1.94
				v-15.05c0-1.07,0.87-1.94,1.94-1.94c4.86,0,9.16-3.08,10.71-7.68c0.76-2.25,1.68-4.47,2.73-6.59c2.15-4.35,1.29-9.58-2.14-13.02
				c-0.76-0.76-0.76-1.99,0-2.74l10.64-10.64c0.76-0.76,1.99-0.76,2.75,0c3.44,3.44,8.67,4.3,13.01,2.14
				c2.13-1.05,4.35-1.97,6.6-2.73c4.59-1.55,7.67-5.86,7.67-10.71c0-1.07,0.87-1.94,1.94-1.94h15.05c1.07,0,1.94,0.87,1.94,1.94
				c0,4.86,3.08,9.16,7.68,10.71c2.25,0.76,4.47,1.68,6.59,2.73c4.35,2.15,9.58,1.29,13.02-2.14c0.76-0.76,1.99-0.76,2.74,0
				l10.64,10.64c0.76,0.76,0.76,1.99,0,2.75c-3.44,3.43-4.3,8.66-2.14,13.02c1.05,2.13,1.97,4.35,2.73,6.59
				c1.55,4.59,5.85,7.67,10.71,7.67c1.07,0,1.94,0.87,1.94,1.94L406.62,302.99L406.62,302.99z"/>
			<path class="st162" d="M343.25,263.48c-17.63,0-31.98,14.35-31.98,31.98c0,17.63,14.35,31.98,31.98,31.98
				s31.98-14.35,31.98-31.98C375.22,277.83,360.88,263.48,343.25,263.48z M343.25,318.06c-12.46,0-22.6-10.14-22.6-22.6
				c0-12.46,10.14-22.6,22.6-22.6s22.6,10.14,22.6,22.6C365.85,307.92,355.71,318.06,343.25,318.06z"/>
			<path class="st162" d="M267.15,334.17C267.15,334.17,267.15,334.17,267.15,334.17l-149.69,0.05c0,0,0,0,0,0
				c-6.68,0-12.08-5.4-12.08-12.08V167.68c0-6.66,5.42-12.08,12.08-12.08h144.23c8.37,0,16.03-4.92,19.51-12.54l14.63-32.01
				c1.96-4.29,6.27-7.06,10.99-7.06l66.45-0.01h0c6.67,0,12.08,5.4,12.08,12.08l0.01,106.04c0,2.59,2.1,4.69,4.69,4.69
				c2.59,0,4.69-2.1,4.69-4.69l-0.01-106.04c0-11.86-9.59-21.45-21.46-21.45c0,0,0,0,0,0l-66.45,0.01
				c-8.37,0-16.03,4.92-19.51,12.54l-2.49,5.44l-167.35-0.05c0,0,0,0-0.01,0C105.6,112.55,96,122.14,96,134v188.13
				c0,11.86,9.59,21.46,21.46,21.46h0.01l149.69-0.05c2.59,0,4.69-2.1,4.69-4.69C271.84,336.26,269.74,334.17,267.15,334.17
				L267.15,334.17z M117.46,121.92L117.46,121.92l163.07,0.04l-7.86,17.2c-1.96,4.29-6.27,7.06-10.99,7.06H117.46
				c-4.48,0-8.64,1.38-12.08,3.74V134C105.38,127.33,110.78,121.92,117.46,121.92z"/>
		</g>
	</g>
</g>
</svg>
