<?xml version="1.0" encoding="utf-8"?>
<!-- Generator: Adobe Illustrator 24.0.2, SVG Export Plug-In . SVG Version: 6.00 Build 0)  -->
<svg version="1.1" xmlns="http://www.w3.org/2000/svg" xmlns:xlink="http://www.w3.org/1999/xlink" x="0px" y="0px"
	 viewBox="0 0 512 512" style="enable-background:new 0 0 512 512;" xml:space="preserve">
<style type="text/css">
	.st0{display:none;}
	.st1{display:inline;fill:#FFFFFF;}
	.st2{fill:url(#SVGID_1_);}
	.st3{fill:url(#SVGID_2_);}
	.st4{fill:url(#SVGID_3_);}
	.st5{fill:url(#SVGID_4_);}
	.st6{fill:url(#SVGID_5_);}
	.st7{fill:url(#SVGID_6_);}
	.st8{fill:url(#SVGID_7_);}
	.st9{fill:url(#SVGID_8_);}
	.st10{fill:url(#SVGID_9_);}
	.st11{fill:url(#SVGID_10_);}
	.st12{fill:url(#SVGID_11_);}
	.st13{fill:url(#SVGID_12_);}
	.st14{fill:url(#SVGID_13_);}
	.st15{fill:url(#SVGID_14_);}
	.st16{fill:url(#SVGID_15_);}
	.st17{fill:url(#SVGID_16_);}
	.st18{fill:url(#SVGID_17_);}
	.st19{fill:url(#SVGID_18_);}
	.st20{fill:url(#SVGID_19_);}
	.st21{fill:url(#SVGID_20_);}
	.st22{fill:url(#SVGID_21_);}
	.st23{fill:url(#SVGID_22_);}
	.st24{fill:url(#SVGID_23_);}
	.st25{fill:url(#SVGID_24_);}
	.st26{fill:url(#SVGID_25_);}
	.st27{fill:url(#SVGID_26_);}
	.st28{fill:url(#SVGID_27_);}
	.st29{fill:url(#SVGID_28_);}
	.st30{fill:url(#SVGID_29_);}
	.st31{fill:url(#SVGID_30_);}
	.st32{fill:url(#Shape_1_);}
	.st33{fill:url(#Shape_2_);}
	.st34{fill:url(#Shape_3_);}
	.st35{fill:url(#Shape_4_);}
	.st36{fill:url(#Shape_5_);}
	.st37{fill:url(#Shape_6_);}
	.st38{fill:url(#Shape_34_);}
	.st39{fill:url(#Shape_35_);}
	.st40{fill:url(#Shape_36_);}
	.st41{fill:url(#Oval_1_);}
	.st42{fill:url(#SVGID_31_);}
	.st43{fill:url(#SVGID_32_);}
	.st44{fill:url(#SVGID_33_);}
	.st45{fill:url(#SVGID_34_);}
	.st46{fill:url(#SVGID_35_);}
	.st47{fill:url(#SVGID_36_);}
	.st48{fill:url(#SVGID_37_);}
	.st49{fill:url(#SVGID_38_);}
	.st50{fill:url(#SVGID_39_);}
	.st51{fill:url(#SVGID_40_);}
	.st52{fill:url(#SVGID_41_);}
	.st53{fill:url(#SVGID_42_);}
	.st54{fill:url(#SVGID_43_);}
	.st55{fill:url(#SVGID_44_);}
	.st56{fill:url(#SVGID_45_);}
	.st57{fill:url(#SVGID_46_);}
	.st58{fill:url(#SVGID_47_);}
	.st59{fill:url(#SVGID_48_);}
	.st60{fill:url(#SVGID_49_);}
	.st61{fill:url(#SVGID_50_);}
	.st62{fill:url(#SVGID_51_);}
	.st63{fill:url(#SVGID_52_);}
	.st64{fill:url(#SVGID_53_);}
	.st65{fill:url(#SVGID_54_);}
	.st66{fill:url(#SVGID_55_);}
	.st67{fill:url(#SVGID_56_);}
	.st68{fill:url(#SVGID_57_);}
	.st69{fill:url(#SVGID_58_);}
	.st70{fill:url(#SVGID_59_);}
	.st71{fill:url(#SVGID_60_);}
	.st72{fill:url(#SVGID_61_);}
	.st73{fill:url(#SVGID_62_);}
	.st74{fill:url(#SVGID_63_);}
	.st75{fill:url(#SVGID_64_);}
	.st76{fill:url(#SVGID_65_);}
	.st77{fill:url(#SVGID_66_);}
	.st78{fill:url(#SVGID_67_);}
	.st79{fill:url(#SVGID_68_);}
	.st80{fill:url(#SVGID_69_);}
	.st81{fill:url(#Shape_37_);}
	.st82{fill:url(#Shape_38_);}
	.st83{fill:url(#Oval_2_);}
	.st84{fill:url(#Oval_9_);}
	.st85{fill:url(#Shape_39_);}
	.st86{fill:url(#Shape_40_);}
	.st87{fill:url(#Shape_41_);}
	.st88{fill:url(#Shape_42_);}
	.st89{fill:url(#Shape_43_);}
	.st90{fill:url(#SVGID_70_);}
	.st91{fill:url(#SVGID_71_);}
	.st92{fill:url(#SVGID_72_);}
	.st93{fill:url(#SVGID_73_);}
	.st94{fill:url(#SVGID_74_);}
	.st95{fill:url(#SVGID_75_);}
	.st96{fill:url(#SVGID_76_);}
	.st97{fill:url(#SVGID_77_);}
	.st98{fill:url(#SVGID_78_);}
	.st99{fill:url(#SVGID_79_);}
	.st100{fill:url(#SVGID_80_);}
	.st101{fill:url(#SVGID_81_);}
	.st102{fill:url(#SVGID_82_);}
	.st103{fill:url(#SVGID_83_);}
	.st104{fill:url(#SVGID_84_);}
	.st105{fill:url(#SVGID_85_);}
	.st106{fill:url(#SVGID_86_);}
	.st107{fill:url(#SVGID_87_);}
	.st108{fill:url(#SVGID_88_);}
	.st109{fill:url(#SVGID_89_);}
	.st110{fill:url(#SVGID_90_);}
	.st111{fill:#373B44;}
	.st112{fill:#4286F4;}
	.st113{fill:url(#SVGID_91_);}
	.st114{fill:#544A7D;}
	.st115{fill:#FFD452;}
	.st116{fill:url(#SVGID_92_);}
	.st117{fill:#00B4DB;}
	.st118{fill:#0083B0;}
	.st119{fill:url(#SVGID_93_);}
	.st120{fill:#00C6FF;}
	.st121{fill:#0072FF;}
	.st122{fill:url(#SVGID_94_);}
	.st123{fill:#DDEAFB;}
	.st124{fill:#CBE2FF;}
	.st125{fill:#F4FBFF;}
	.st126{fill:#E4F6FF;}
	.st127{fill:#698ED5;}
	.st128{fill:#4073C8;}
	.st129{fill:#3B66C1;}
	.st130{fill:#30579D;}
	.st131{fill:#4DCCFF;}
	.st132{fill:#F2FAFF;}
	.st133{fill:#B3E9FF;}
	.st134{fill:#FDBF67;}
	.st135{fill:#25B1FA;}
	.st136{fill:#FB8656;}
	.st137{fill:#FDAD67;}
	.st138{fill:#FFFEFA;}
	.st139{fill:#FFD4CF;}
	.st140{fill:#FBB8B0;}
	.st141{fill:#FFFFFF;}
	.st142{fill:#F2F2F2;}
	.st143{fill:#61AFF6;}
	.st144{fill:#49A0E8;}
	.st145{fill:#FF4C4C;}
	.st146{fill:#EA2828;}
	.st147{fill:#FFB125;}
	.st148{fill:#FF901D;}
	.st149{fill:#3B97D3;}
	.st150{fill:#ECF0F1;}
	.st151{fill:#E64C3C;}
	.st152{fill:#F0C419;}
	.st153{fill:#4FBA6F;}
	.st154{fill:#2980BA;}
	.st155{fill:#90BAE1;}
	.st156{fill:#B0D3F0;}
	.st157{fill:#7F8C8D;}
	.st158{fill:#3F5C6C;}
	.st159{fill:#95A5A5;}
	.st160{fill:#515151;}
	.st161{fill:none;stroke:#000000;stroke-width:13;stroke-miterlimit:10;}
	.st162{stroke:#000000;stroke-width:4;stroke-miterlimit:10;}
</style>
<g id="Layer_2" class="st0">
</g>
<g id="Layer_1">
	<g>
		<path d="M471.37,146.67H362.9V71.33c0-22.4-18.23-40.63-40.63-40.63H40.63C18.23,30.7,0,48.93,0,71.33v111.69
			c0,4.14,3.36,7.5,7.5,7.5s7.5-3.36,7.5-7.5V71.33C15,57.2,26.5,45.7,40.63,45.7h281.63c14.13,0,25.63,11.5,25.63,25.63v198.8
			c0,14.13-11.5,25.63-25.63,25.63H160.03c-4.22,0-8.18,1.64-11.16,4.62l-49.7,49.7c-0.14,0.14-0.37,0.37-0.85,0.17
			c-0.48-0.2-0.48-0.53-0.48-0.72v-37.99c0-8.7-7.08-15.78-15.78-15.78H40.63c-14.13,0-25.63-11.5-25.63-25.63v-57.12
			c0-4.14-3.36-7.5-7.5-7.5s-7.5,3.36-7.5,7.5v57.12c0,22.4,18.23,40.63,40.63,40.63h41.42c0.43,0,0.78,0.35,0.78,0.78v37.99
			c0,6.41,3.82,12.13,9.74,14.58c1.96,0.82,4.02,1.21,6.06,1.21c4.1,0,8.12-1.6,11.15-4.63l39.32-39.32v64.73
			c0,22.4,18.23,40.63,40.63,40.63h90.83c4.14,0,7.5-3.36,7.5-7.5s-3.36-7.5-7.5-7.5h-90.83c-14.13,0-25.63-11.5-25.63-25.63v-75.33
			h158.17c22.4,0,40.63-18.23,40.63-40.63V161.67h108.47c14.13,0,25.63,11.5,25.63,25.63v198.8c0,14.13-11.5,25.63-25.63,25.63
			h-41.42c-8.7,0-15.78,7.08-15.78,15.78v37.99c0,0.2,0,0.52-0.48,0.73c-0.48,0.2-0.71-0.03-0.85-0.17l-49.7-49.7
			c-2.98-2.98-6.94-4.63-11.16-4.63h-41.4c-4.14,0-7.5,3.36-7.5,7.5s3.36,7.5,7.5,7.5h41.4c0.2,0,0.41,0.08,0.55,0.23l49.7,49.7
			c3.03,3.03,7.05,4.63,11.15,4.63c2.04,0,4.09-0.4,6.06-1.21c5.92-2.45,9.74-8.17,9.74-14.58v-37.99c0-0.43,0.35-0.78,0.78-0.78
			h41.42c22.4,0,40.63-18.23,40.63-40.63V187.3C512,164.9,493.77,146.67,471.37,146.67L471.37,146.67z"/>
		<path d="M231.93,352.97c0,13.27,10.8,24.07,24.07,24.07c13.27,0,24.07-10.8,24.07-24.07S269.27,328.9,256,328.9
			C242.73,328.9,231.93,339.7,231.93,352.97z M265.06,352.97c0,5-4.07,9.07-9.07,9.07s-9.07-4.07-9.07-9.07s4.07-9.07,9.07-9.07
			S265.06,347.97,265.06,352.97z"/>
		<path d="M157.38,253.57c0,13.27,10.8,24.07,24.07,24.07c13.27,0,24.07-10.8,24.07-24.07c0-13.27-10.8-24.07-24.07-24.07
			S157.38,240.3,157.38,253.57L157.38,253.57z M190.52,253.57c0,5-4.07,9.07-9.07,9.07c-5,0-9.07-4.07-9.07-9.07
			c0-5,4.07-9.07,9.07-9.07C186.45,244.5,190.52,248.57,190.52,253.57L190.52,253.57z"/>
		<path d="M205.52,172.94c21.46-9.94,34.64-32.09,32.99-55.91c-1.95-28.3-24.76-51.1-53.05-53.06c-15.8-1.09-31.49,4.46-43.03,15.24
			c-11.55,10.78-18.18,26.02-18.18,41.82c0,13.27,10.8,24.07,24.07,24.07s24.07-10.8,24.07-24.07c0-2.58,1-4.87,2.88-6.63
			c1.85-1.73,4.3-2.58,6.88-2.41c4.31,0.3,8.05,4.04,8.35,8.35c0.27,3.95-1.98,7.6-5.6,9.09c-16.71,6.86-27.51,23.07-27.51,41.3
			v16.57c0,13.27,10.8,24.07,24.07,24.07s24.07-10.8,24.07-24.07L205.52,172.94L205.52,172.94z M197.47,160.08
			c-4.23,1.74-6.96,5.92-6.96,10.65v16.57c0,5-4.07,9.07-9.07,9.07c-5,0-9.07-4.07-9.07-9.07v-16.57c0-12.12,7.15-22.89,18.2-27.43
			c9.61-3.95,15.59-13.59,14.87-24c-0.81-11.69-10.59-21.48-22.29-22.28c-0.57-0.04-1.14-0.06-1.71-0.06
			c-6.14,0-11.92,2.26-16.43,6.47c-4.93,4.6-7.65,10.85-7.65,17.6c0,5-4.07,9.07-9.07,9.07c-5,0-9.07-4.07-9.07-9.07
			c0-11.65,4.89-22.9,13.41-30.86c8.52-7.95,20.08-12.06,31.77-11.24c20.86,1.44,37.68,18.26,39.12,39.13
			C224.8,136.28,214.32,153.16,197.47,160.08L197.47,160.08z"/>
		<path d="M429.17,352.97c0-13.27-10.8-24.07-24.07-24.07s-24.07,10.8-24.07,24.07s10.8,24.07,24.07,24.07
			S429.17,366.24,429.17,352.97z M396.03,352.97c0-5,4.07-9.07,9.07-9.07s9.07,4.07,9.07,9.07s-4.07,9.07-9.07,9.07
			C400.1,362.04,396.03,357.97,396.03,352.97z"/>
		<path d="M330.55,377.04c13.27,0,24.07-10.8,24.07-24.07s-10.8-24.07-24.07-24.07c-13.27,0-24.07,10.8-24.07,24.07
			S317.28,377.04,330.55,377.04z M330.55,343.9c5,0,9.07,4.07,9.07,9.07s-4.07,9.07-9.07,9.07c-5,0-9.07-4.07-9.07-9.07
			S325.55,343.9,330.55,343.9z"/>
	</g>
</g>
</svg>
