<svg id="Layer_1" data-name="Layer 1" xmlns="http://www.w3.org/2000/svg" viewBox="0 0 1366 256.13"><defs><style>.cls-1{fill:#f06a22;}.cls-2{fill:#4d4d4d;}</style></defs><path class="cls-1" d="M104.16,21.94c4.36,1.1,8.7,2.35,13.1,3.28C182.92,39.11,215.1,112.67,180.17,170c-4.36,7.16-3.83,11,2.08,16.31,9.84,8.85,19,18.52,30,29.47-5.25.34-7.93.67-10.62.67-33.85,0-67.7.13-101.56,0C48.34,216.24,10.43,183.7,2,132.53a46.85,46.85,0,0,0-2-6.43V112.44a56.85,56.85,0,0,0,2.2-7.17C9.62,62.34,40.47,31.48,83.32,24.13a58.11,58.11,0,0,0,7.18-2.19ZM64.92,133.05c-1.81,10.52-3.62,19.71-4.85,29-.33,2.48.27,6.23,1.91,7.51s5.41.75,7.63-.3c7.69-3.63,14.92-8.3,22.73-11.61a15.42,15.42,0,0,1,10.93.05c7.8,3.34,15,8,22.68,11.72,7,3.44,10.39,1.14,9.48-6.66-1-8.72-3.14-17.33-4-26.06a14,14,0,0,1,3-9.52c5.62-6.38,12.19-11.9,18-18.09,1.76-1.85,3.88-5.5,3.14-7.06-1-2.24-4.39-4.13-7.08-4.73A111,111,0,0,0,130,94.72c-8.79-.45-14.73-3.71-17.68-12.62-2-6.14-5.37-11.9-8.62-17.55-1.27-2.2-3.9-5-5.94-5s-4.75,2.7-6,4.89c-4,7.2-7,15-11.25,22a16.76,16.76,0,0,1-9.22,6.88c-7.65,2-15.71,2.24-23.47,3.86-3,.63-6.65,2.44-8,4.84-.81,1.39,1.77,5.51,3.7,7.59,5.4,5.82,11.39,11.1,16.89,16.83C62.45,128.49,63.75,131.27,64.92,133.05Z" transform="translate(0 -21.94)"/><path class="cls-2" d="M874.24,21.94v83.2c13-14.82,28.63-18.77,46.16-16.84a57.15,57.15,0,0,1,38.27,20.24c22.14,25.79,20,69.36-4,92.81-18.42,18-56.05,25.58-80.12-.58-.52,4.91-.93,8.87-1.5,14.33H841.8V21.94Zm33.82,96.57c-19.47-.15-33.87,14.25-33.89,33.87S888.58,187,907.57,187s33.31-14.75,33.3-34.58C940.87,132.89,927.1,118.65,908.06,118.51Z" transform="translate(0 -21.94)"/><path class="cls-2" d="M1019.38,21.94q.38,35.78.74,71.55c0,3.3,0,6.6,0,10.79,30.73-22.5,62.41-21,84.11,3.12,21.92,24.32,21.84,66.78-.16,91s-52.74,25.52-83.26,3.23c-.49,4.39-1,8.49-1.46,13H989a58.05,58.05,0,0,1-.79-6.77q-.06-90.42,0-180.83c0-1.69.3-3.38.46-5.07Zm1.43,130.44c0,19.76,14.22,34.57,33.29,34.65s33.33-14.78,33.33-34.58c0-19.51-13.8-33.76-32.85-33.95C1035.07,118.32,1020.82,132.61,1020.81,152.38Z" transform="translate(0 -21.94)"/><path class="cls-2" d="M607.87,278.06v-30c5.89,0,11,.18,16,0,9.86-.44,15.18-4.82,17.17-14.56a64.13,64.13,0,0,0,1-12.71q.11-59.32,0-118.64v-11h31.76c.15,2.38.45,5.09.45,7.8,0,42.11.14,84.22-.11,126.33a98.24,98.24,0,0,1-2.73,21.92c-3.58,15.06-12.93,25-28.22,28.9a32.13,32.13,0,0,0-4.59,1.93Z" transform="translate(0 -21.94)"/><path class="cls-2" d="M1366,95.36c-2,8.21-4.11,16.42-6.21,24.83-4.92-.82-9.61-1.93-14.36-2.32-15-1.26-25.88,4.94-30.37,19.28-3.1,9.9-4.5,20.53-5.14,30.93-.9,14.74-.39,29.57-.53,44.36,0,.5-.41,1-.87,2.08h-30.41V91h31.43v22c7.51-7.28,14.43-16.43,23.51-22.13,10.19-6.39,22-3,33,1.11Z" transform="translate(0 -21.94)"/><path class="cls-2" d="M391,21.94a29.49,29.49,0,0,0,2.72,1.9c9.72,5.43,13.82,13.26,11.59,22.15A20,20,0,0,1,386,61c-9.4.19-17.84-5.53-20.34-13.8q-4.26-14,11-23.17a19.4,19.4,0,0,0,2.45-2.11Z" transform="translate(0 -21.94)"/><path class="cls-2" d="M664.22,21.94a22.36,22.36,0,0,0,2.57,2q15,8.76,10.88,23.25C675.36,55.33,667.5,60.94,658.31,61c-9.81.09-17.88-5.89-20.25-15s1.61-16.49,11.56-22.13a28.72,28.72,0,0,0,2.65-2Z" transform="translate(0 -21.94)"/><path class="cls-2" d="M823.58,214.64h-31c-.35-4.26-.66-8.12-1.1-13.48-14,12.76-29.57,18.59-47.79,15.76s-32.62-11.43-43.05-26.47c-17.42-25.13-14.46-62,6.48-83.61,22.51-23.21,51.93-24.63,84.34-3.61.38-4.15.73-8,1.13-12.28h31Zm-65.81-95.9c-19.8-.15-35.3,14.76-35.28,34,0,18.77,15.24,33.74,34.51,34,20.06.22,34.94-14.24,35-34C792,133.42,777.37,118.9,757.77,118.74Z" transform="translate(0 -21.94)"/><path class="cls-2" d="M1259.7,163.56h-94c2.41,13.22,9.29,21.23,20.7,24.84,17.59,5.56,33.09,2.08,46.07-13.24l22.68,12.18c-5.93,21.64-45.41,37.64-77.5,27.41-33.88-10.81-51.88-47.5-40.7-83.42,10.35-33.22,45.79-51.1,80.92-40.83C1248.23,99.4,1268.27,133.65,1259.7,163.56Zm-30.35-22.27c-2.09-17.72-16.24-28.37-34.06-26.62-17.24,1.69-29.17,12.76-28.32,26.62Z" transform="translate(0 -21.94)"/><path class="cls-2" d="M622.71,163.55h-94c2.27,12.9,8.85,20.82,19.87,24.54,17.85,6,33.59,2.61,46.88-12.91l22.64,12.15c-5.82,21.59-45.35,37.64-77.46,27.42-33.56-10.68-51.61-46.81-41-82.58,10-33.72,45.67-52,81.15-41.68C611.2,99.38,631.15,133.43,622.71,163.55Zm-30.53-22.26c.24-14.61-13.84-27.67-32.89-26.77-14.93.71-31.14,12.13-29.43,26.77Z" transform="translate(0 -21.94)"/><path class="cls-2" d="M254,176.26c9.3,0,17.52-.34,25.67.23,2.05.14,4.37,2.87,5.74,4.95,6.25,9.49,20.15,14.08,30,8.47,3.58-2,7.49-7.22,7.4-10.87s-4.49-8.63-8.14-10c-11.65-4.43-24.16-6.59-35.71-11.21-16.37-6.54-22.38-17.48-21.23-35,.78-11.78,7.32-20.09,16.64-26.44,16.75-11.42,43.79-11.48,60.74-.28,10.45,6.9,15.66,16.71,16.46,30.31-9.37,0-18.12.21-26.84-.18-1.62-.08-3.5-2.3-4.63-4-5.4-7.92-16.25-11.41-24.72-6.63-3.18,1.79-6.4,6.17-6.69,9.62-.25,2.88,3.09,7.79,6,8.91,8.69,3.36,17.91,5.34,26.94,7.82,15,4.12,27.35,11.42,31.73,27.67,4.11,15.26-1,29.12-13.93,38.17-18.51,13-48.29,13.45-67.09.92C261.34,201.45,254.77,191.44,254,176.26Z" transform="translate(0 -21.94)"/><path class="cls-2" d="M469.18,214.59H437.29V116.44H415.42V90.65H437V43.11h32v47h25.65v26c-5.37,0-10.72.43-16-.1-7.31-.75-9.87,1.51-9.72,9.31.5,26.43.19,52.88.19,79.33Z" transform="translate(0 -21.94)"/><path class="cls-2" d="M370.17,90.74h30.45V214.57H370.17Z" transform="translate(0 -21.94)"/></svg>