<?xml version="1.0" encoding="utf-8"?>
<!-- Generator: Adobe Illustrator 25.4.1, SVG Export Plug-In . SVG Version: 6.00 Build 0)  -->
<svg version="1.1" id="Layer_1" xmlns="http://www.w3.org/2000/svg" xmlns:xlink="http://www.w3.org/1999/xlink" x="0px" y="0px"
	 viewBox="0 0 1085.1 232.1" style="enable-background:new 0 0 1085.1 232.1;" xml:space="preserve">
<style type="text/css">
	.st0{fill:#C94939;}
	.st1{fill:#4D4D4D;}
	.st2{fill:#FFFFFF;}
	.st3{fill:#A62F2C;}
</style>
<path class="st0" d="M232.4,115.8c0,64.3-51.4,114.7-112.2,116.3c-69.7,1.7-119-53-120.2-113.6C-1.3,52.3,52.1,0.3,115.4,0
	C179.6-0.3,232,51.3,232.4,115.8z M124.6,34.1c-0.1,1.7-0.2,2.7-0.2,3.8c0.1,4.8,0.3,9.6,0.3,14.5c0,1.2-0.6,2.8-1.5,3.6
	c-5.1,4.6-10.4,9.1-15.7,13.6C95.9,79.3,84,88.9,74.6,101c-8.6,11-14.2,23-13.3,37.4c0.9,15.3,15.3,24.6,29.6,19.1
	c6.1-2.4,12-5.3,18.1-7.8c8.3-3.5,16.6-6.9,24.9-10.2c1.2-0.5,2.8,0.1,4.2,0.1c-0.4,1.4-0.6,2.8-1.1,4.1c-0.4,1-1.2,1.8-2,2.5
	c-2.5,2.1-4.8,4.4-7.5,6.2C110.8,163.7,94,174.8,77.2,186c-4.9,3.2-9.7,6.5-14.6,9.7c1.4-0.1,2.5-0.7,3.6-1.2
	c18.8-9.2,36.5-20.3,54.4-31c11.2-6.6,22.2-13.5,31.9-22.3c4.6-4.2,8.8-8.7,11-14.6c2.6-6.9,0.3-12-7-13.7c-4.4-1-9-1-13.6-1.3
	c-2.1-0.1-4.2,0.3-6.7,0.4c11.7-17.3,23.2-34.2,34.9-51.4C155.7,51.9,140.4,43.1,124.6,34.1z"/>
<path class="st1" d="M494,179.1c-9.5,0-18.7,0-28.8,0c-5.9-25-11.9-50.3-17.9-75.3c-0.2,0-0.4,0-0.6-0.2c-1,5-1.9,10.2-3.1,15.2
	c-4.5,19.1-9.2,38.2-13.6,57.3c-0.6,2.1-1,3.3-3.7,3.3c-8.2-0.2-16,0-24.7,0c-9-33.7-17.8-67.3-26.9-101.6c7.6,0,14.8-0.2,21.9,0.2
	c1,0,2.6,1.9,2.9,3.3c5.5,24.9,10.9,49.7,16.2,74.7c0.2,0.7,0.4,1.6,1.6,2.3c1.2-5.7,2.4-11.3,3.8-16.9c4.9-19.9,9.8-39.7,14.6-59.5
	c0.7-2.9,1.9-3.9,4.9-3.9c4.9,0.2,9.8,0.2,14.6,0c2.7-0.2,3.8,0.8,4.3,3.5c6,24.7,12.1,49.2,18.3,73.7c0.4,1.2,0.7,2.4,1.9,3.7
	c1.7-9.3,3.3-18.7,5.3-27.9c3.7-16.6,7.6-33.1,11.4-49.7c0.4-1.2,1.9-2.7,2.9-2.7c6.4-0.2,12.9-0.2,20.2-0.2
	C511.1,111.7,502.7,145.2,494,179.1z"/>
<path class="st1" d="M991.8,77.9c6.9,0,13.3,0,19.9,0c0.6,3.3,1.2,6.6,1.9,10.3c2.1-1.4,3.8-2.6,5.5-3.8c9.8-7,20.7-11.1,33.1-8.8
	c12.9,2.3,21.9,9.7,26.6,21.4c8.4,20.3,8.6,41.1-1.2,61.1c-6.6,13.1-17.3,21.2-32.1,23.2c-9.5,1.2-17.8-2.1-25.5-7
	c-1.2-0.8-2.4-1.7-4.5-3.1c0,3.8,0,6.9,0,10c0,11.3,0,22.4,0.2,33.7c0,3.3-0.7,4.7-4.3,4.5c-5-0.4-10-0.2-15,0
	c-3.7,0.2-4.7-0.8-4.7-4.7c0.2-19.1,0-38.2,0-57.3c0-24.7,0-49.4,0-74.1C991.8,81.5,991.8,80,991.8,77.9z M1015.6,129.7
	c0,6.8,0,13.5,0,20.2c0,1.4,0.2,3.1,1,3.9c9.7,8.6,28.1,13.3,37.5-2.9c8.3-14.5,7.8-30.2,1.6-45.6c-3.5-8.3-12.8-12.8-21.4-10
	c-5.7,1.9-10.9,5.5-16,8.8c-1.4,0.8-2.4,3.5-2.4,5.3C1015.4,116.2,1015.6,122.9,1015.6,129.7z"/>
<path class="st1" d="M785.1,178.9c-8.2,0-15.6,0-23.4,0c0-48.5,0-96.9,0-145.7c7.8,0,15.4,0,23.2,0c0,18.7,0,37.1,0,56
	c4.1-2.9,8-6.2,12.3-8.6c12.1-7,24.7-7.8,37.3-0.8c7.4,4.1,10.3,11.7,12.1,19.5c1.2,5.3,1.7,11.1,1.7,16.6c0.2,20.1,0,39.9,0,59.9
	c0,1-0.2,1.9-0.2,3.3c-7.8,0-15.6,0-23.6,0c0-1.9,0-3.5,0-5.2c0-17.4,0-35.1,0-52.5c0-3.9-0.4-8.2-0.8-12.1
	c-1.4-9.8-8.2-14.8-17.9-13.5c-8.2,1.2-14,6.4-19.3,11.9c-0.8,0.8-0.8,2.9-0.8,4.5c0,20.5,0,41.1,0,61.6
	C785.1,175.2,785.1,176.8,785.1,178.9z"/>
<path class="st1" d="M876.1,77.9c8,0,15.4,0,23.4,0c0,1.9,0,3.5,0,5.2c0,19.7,0.2,39.4,0.2,59.1c0,0.4,0,0.8,0,1.2
	c0.6,6.4,1.4,12.9,8.2,16c6.9,3.1,13.8,2.1,19.9-2.6c3.1-2.4,6-5.3,8.4-8.4c1-1.4,1.6-3.7,1.6-5.5c0.2-19.9,0-39.7,0-59.4
	c0-1.7,0-3.5,0-5.3c8,0,15.6,0,23.4,0c0,33.7,0,67.1,0,101.2c-5.7,0-11.4,0.2-16.9-0.2c-1,0-2.4-1.9-2.7-3.3
	c-0.7-3.5-1-6.9-1.6-11.3c-3.7,3.3-6.8,6.2-10,8.8c-11.7,9.5-29.2,11.1-40.7,3.8c-8-5-11.1-12.9-12.6-21.6c-0.7-3.9-1-8-1-11.9
	c0.2-20.9,0.2-41.8,0.2-62.5C875.8,80.1,876,79.1,876.1,77.9z"/>
<path class="st1" d="M361.6,87.4c-3.7,4.9-7.2,9.5-10.2,13.5c-7-2.6-13.6-5.5-20.3-7.2c-3.3-0.8-7,0.2-10.5,1c-4.1,1-6.4,4.3-7,8.4
	c-0.6,3.9,1.4,7,4.7,9c4.3,2.4,9.2,4.1,13.6,6.2c6.4,2.9,13.1,5.2,19.1,8.8c18.5,11.1,16.4,39.6-3.7,49.4
	c-18.5,9.2-46.2,5.2-61.8-9.3c3.5-4.9,7-9.8,10.9-15c3.9,2.4,7.8,4.7,11.4,6.9c6.8,3.9,14,4.9,21.6,3.9c5.7-0.7,9.8-4.1,11.1-9.3
	c1-4.3-0.8-8.8-6.2-11.5c-7.4-3.8-15.4-6.9-23.2-10.3c-8-3.5-15-8.2-18.5-16.4c-6.8-15.8,2.7-33.9,20.1-38.4
	C330.6,72.4,346.8,75.8,361.6,87.4z"/>
<path class="st1" d="M583.1,78.5c4.1-0.4,7.8-0.7,11.5-0.7c3.1,0,4.3-1,4.5-4.1c0.4-6.8,1.4-13.5,1.9-20.1c0.2-2.9,1.6-3.9,4.3-3.8
	c3.9,0.2,8.2,0.2,12.1,0c3.1-0.2,3.9,1,3.9,3.9c-0.2,6.4,0.2,12.9-0.2,19.3c-0.2,3.3,0.8,4.7,4.3,4.5c6.9-0.2,14,0,21.2,0
	c0,6.6,0,12.5,0,18.7c-8.4,0-16.6,0-24.7,0c-0.4,0.8-0.7,1.4-0.7,1.7c0,16.6-0.4,33,0.4,49.5c0.6,12.5,8.4,17.3,20.5,13.8
	c1-0.4,2.3-0.6,3.8-1c1.4,5.7,2.7,11.4,4.1,16.9c-12.6,6.2-35.4,6.4-44.7-4.7c-6.9-8.3-8.3-18.1-8.3-28.1c-0.2-14.2,0-28.5,0-42.7
	c0-1.6,0-3.1,0-5.2c-4.9,0-9.3,0-14.2,0C583.1,90.5,583.1,84.7,583.1,78.5z"/>
<path class="st1" d="M739.7,86.7c-3.8,5.2-7.6,10.2-11.4,15.2c-0.8-0.6-1.4-0.7-1.9-1c-14.2-12.5-34.5-5.3-40.4,12.3
	c-4.1,12.3-3.9,24.7,2.7,36.1c7.6,12.8,21.6,16.2,34.7,9.2c2.6-1.4,5.2-3.1,8.2-5c3.3,5.2,6.4,10.2,9.7,15.6
	c-6.6,5.9-14.3,9.5-22.8,11.4c-19.7,4.5-40.2-3.3-50.7-19.3c-13.6-20.7-13.1-59.7,12.5-77.2C696.2,73,722.1,70.3,739.7,86.7z"/>
<path class="st1" d="M540,77.9c7.8,0,15.2,0,23.2,0c0,33.5,0,67,0,100.8c-7.6,0-15.2,0-23.2,0C540,145.2,540,111.7,540,77.9z"/>
<path class="st1" d="M551.5,59.6c-8.8-0.2-14.6-5.5-14.5-13.5c0-8.2,6.2-13.5,15-13.5s14.8,5.9,14.5,14
	C566.3,54.5,560.5,59.7,551.5,59.6z"/>
<path class="st2" d="M124.6,34.1c15.8,9.1,31.1,17.8,46.6,26.7c-11.7,17.2-23.1,34.1-34.9,51.4c2.5-0.2,4.6-0.6,6.7-0.4
	c4.5,0.3,9.2,0.3,13.6,1.3c7.2,1.7,9.6,6.7,7,13.7c-2.2,5.9-6.4,10.5-11,14.6c-9.6,8.8-20.7,15.7-31.9,22.3
	c-18,10.7-35.7,21.7-54.4,31c-1.1,0.5-2.2,1.1-3.6,1.2c4.9-3.2,9.7-6.5,14.6-9.7c16.8-11.2,33.5-22.3,50.2-33.5
	c2.7-1.8,5.1-4,7.5-6.2c0.8-0.7,1.6-1.6,2-2.5c0.6-1.3,0.8-2.8,1.1-4.1c-1.4-0.1-3-0.6-4.2-0.1c-8.4,3.3-16.6,6.7-24.9,10.2
	c-6.1,2.5-12,5.4-18.1,7.8c-14.4,5.6-28.7-3.7-29.6-19.1c-0.9-14.4,4.8-26.4,13.3-37.4c9.4-12.1,21.2-21.8,32.9-31.6
	c5.3-4.5,10.5-8.9,15.7-13.6c0.9-0.8,1.5-2.4,1.5-3.6c0.1-4.8-0.2-9.6-0.3-14.5C124.4,36.8,124.5,35.8,124.6,34.1z M126.4,100.2
	c-10.9,4.9-21,9.4-31,13.9c-2.8,1.3-4.4,3.7-5.4,6.6c-0.8,2.3-1.1,4.7,0.9,6.5c1.9,1.9,4.2,1.2,6.3,0.3c9.3-4.1,18.5-8.2,27.8-12.4
	c0.6-0.3,1.4-0.9,1.4-1.5C126.4,109.4,126.4,105.1,126.4,100.2z"/>
<path class="st3" d="M126.4,100.2c0,4.9,0,9.2-0.1,13.5c0,0.5-0.8,1.2-1.4,1.5c-9.3,4.2-18.5,8.3-27.8,12.4
	c-2.1,0.9-4.4,1.6-6.3-0.3s-1.7-4.2-0.9-6.5c1-2.8,2.5-5.3,5.4-6.6C105.4,109.6,115.5,105.1,126.4,100.2z"/>
</svg>
