<?xml version="1.0" encoding="utf-8"?>
<!-- Generator: Adobe Illustrator 25.2.3, SVG Export Plug-In . SVG Version: 6.00 Build 0)  -->
<svg version="1.1" id="layer" xmlns="http://www.w3.org/2000/svg" xmlns:xlink="http://www.w3.org/1999/xlink" x="0px" y="0px"
	 viewBox="0 0 652 119.3" style="enable-background:new 0 0 652 119.3;" xml:space="preserve">
<style type="text/css">
	.st0{fill:url(#SVGID_1_);}
	.st1{fill:url(#SVGID_2_);}
	.st2{fill:url(#SVGID_3_);}
	.st3{fill:url(#SVGID_4_);}
	.st4{fill:url(#SVGID_5_);}
	.st5{fill:url(#SVGID_6_);}
	.st6{fill:url(#SVGID_7_);}
	.st7{fill:url(#SVGID_8_);}
	.st8{fill:url(#SVGID_9_);}
</style>
<linearGradient id="SVGID_1_" gradientUnits="userSpaceOnUse" x1="179.0752" y1="-207.5603" x2="180.3972" y2="-207.5603" gradientTransform="matrix(0 -84 -16.28 0 -3316.1101 15161.96)">
	<stop  offset="0.71" style="stop-color:#116BF2"/>
	<stop  offset="1" style="stop-color:#1E50E5"/>
</linearGradient>
<path class="st0" d="M52.4,8.9c0.4,0.2,0.9,0.4,1.2,0.8l18.8,18.8c0.8,0.8,1.2,1.7,1.2,2.8V118c0,0.8-0.5,1.3-1.3,1.3
	c-0.3,0-0.7-0.1-0.9-0.3l-17.7-17.7c-0.8-0.8-1.2-1.7-1.2-2.8V8.9H52.4z"/>
<linearGradient id="SVGID_2_" gradientUnits="userSpaceOnUse" x1="179.0751" y1="-208.0385" x2="180.3971" y2="-208.0385" gradientTransform="matrix(0 -84 -16.28 0 -3292.1101 15161.9795)">
	<stop  offset="0.71" style="stop-color:#116BF2"/>
	<stop  offset="1" style="stop-color:#1E50E5"/>
</linearGradient>
<path class="st1" d="M104.1,9.7c0.3-0.3,0.8-0.7,1.2-0.9v89.5c0,1.1-0.4,2.1-1.2,2.8l-17.7,17.7c-0.5,0.5-1.3,0.5-1.8,0
	c-0.2-0.2-0.3-0.5-0.3-0.9V31.4c0-1,0.4-2.1,1.2-2.7l0,0L104.1,9.7L104.1,9.7z"/>
<linearGradient id="SVGID_3_" gradientUnits="userSpaceOnUse" x1="187.1212" y1="-224.1942" x2="188.4432" y2="-224.1942" gradientTransform="matrix(39 39 46.97 -46.97 3349.3916 -17766.9336)">
	<stop  offset="0.41" style="stop-color:#116BF2"/>
	<stop  offset="1" style="stop-color:#185DEC"/>
</linearGradient>
<path class="st2" d="M138.2,78.6l-1.3-1.3V58.9H119c-0.3,0-0.7,0.1-1,0.4l0,0l-12.8,12.8l41.1,41.2l0,0c0.8,0.8,1.7,1.1,2.8,1.1
	h21.6c0.8,0,1.3-0.5,1.3-1.3c0-0.3-0.1-0.7-0.3-0.9L138.2,78.6z"/>
<linearGradient id="SVGID_4_" gradientUnits="userSpaceOnUse" x1="176.4262" y1="-215.2052" x2="177.7482" y2="-215.2052" gradientTransform="matrix(0 -53.28 -56.7 0 -12080.8623 9478.2402)">
	<stop  offset="0.58" style="stop-color:#116BF2"/>
	<stop  offset="1" style="stop-color:#1E50E5"/>
</linearGradient>
<path class="st3" d="M106.8,8.5c-1.1,0-2.1,0.4-2.8,1.2l0,0L85.2,28.5l0,0c-0.3,0.3-0.5,0.8-0.8,1.1h52.5v47.6l1.3,1.3l18.7-18.6
	c0.8-0.8,1.2-1.7,1.2-2.8V31.4c0-1.1-0.4-2.1-1.2-2.8L138.1,9.7c-0.8-0.8-1.7-1.2-2.8-1.2H106.8z"/>
<linearGradient id="SVGID_5_" gradientUnits="userSpaceOnUse" x1="201.4517" y1="-211.8009" x2="202.7737" y2="-211.8009" gradientTransform="matrix(-16 16 16 16 6662.3804 172.8398)">
	<stop  offset="3.000000e-02" style="stop-color:#59C5FF"/>
	<stop  offset="0.99" style="stop-color:#21B1FF"/>
</linearGradient>
<path class="st4" d="M53.5,9.7c-0.8-0.8-1.7-1.2-2.8-1.2H1.3C0.5,8.5,0,9.1,0,9.8c0,0.3,0.1,0.7,0.4,1l17.7,17.7
	c0.8,0.8,1.7,1.2,2.8,1.2h50c1.4,0,2.6,1.2,2.6,2.6v-1c0-1.1-0.4-2.1-1.2-2.8L53.5,9.7z"/>
<linearGradient id="SVGID_6_" gradientUnits="userSpaceOnUse" x1="191.1239" y1="-235.6773" x2="192.4459" y2="-235.6773" gradientTransform="matrix(16 16 16 -16 814.8802 -6816.9204)">
	<stop  offset="4.000000e-02" style="stop-color:#59C5FF"/>
	<stop  offset="0.99" style="stop-color:#21B1FF"/>
</linearGradient>
<path class="st5" d="M104,9.7c0.8-0.8,1.7-1.2,2.8-1.2h28.5c1.1,0,2.1,0.4,2.8,1.2l18.8,18.8c0.8,0.8,1.2,1.7,1.2,2.8v1
	c0-1.4-1.2-2.6-2.6-2.6H86.8c-1.4,0-2.6,1.2-2.6,2.6v-1c0-1.1,0.4-2.1,1.2-2.8L104,9.7z"/>
<linearGradient id="SVGID_7_" gradientUnits="userSpaceOnUse" x1="173.4574" y1="-195.7374" x2="174.7794" y2="-195.7374" gradientTransform="matrix(-12 -12 -12 12 -118.1602 4498.5903)">
	<stop  offset="4.000000e-02" style="stop-color:#57C4FF"/>
	<stop  offset="0.99" style="stop-color:#21B1FF"/>
</linearGradient>
<path class="st6" d="M158.1,56.1c0,1.4-1.2,2.6-2.6,2.6h-35.4c-0.3,0-0.7,0.3-0.7,0.7c0,0.2,0.1,0.3,0.2,0.4l18.7,18.7L157,59.9
	c0.8-0.8,1.2-1.7,1.2-2.8v-1H158.1z"/>
<linearGradient id="SVGID_8_" gradientUnits="userSpaceOnUse" x1="241.4573" y1="79.6096" x2="652" y2="79.6096" gradientTransform="matrix(1 0 0 -1 0 137.92)">
	<stop  offset="0.71" style="stop-color:#116BF2"/>
	<stop  offset="1" style="stop-color:#1E50E5"/>
</linearGradient>
<path class="st7" d="M652,79.4c0-8.9-5.1-12.3-17.6-15.4c-7.5-1.8-9.5-3.4-9.5-6s2.4-4.3,7.3-4.3c5.4,0.2,10.6,1.6,15.4,4.2l1.5-9.6
	c-5.3-2.3-11.1-3.4-17-3.4c-11.3,0-17.9,5.8-17.9,13.8c0,8.7,4.9,12,16.6,14.9c8.2,2,10.4,3.3,10.4,6.7c0,3.2-3.2,5.1-8.7,5.1
	c-6.3-0.2-12.5-2.1-17.9-5.5l-1.5,9.7c5.9,2.9,12.4,4.5,18.9,4.6C645.2,94.2,652,88.6,652,79.4z M607.6,93.2V45.6H596v32.3
	c-3.8,3.7-7.8,6.1-11.8,6.1c-4.7,0-6.6-2.8-6.6-7.1V45.5H566v34.3c0,8.8,4.9,14.1,14.2,14.1c6.5,0,11.8-3.4,16.5-7.6l1.6,6.6
	L607.6,93.2z M559.1,93.2V45.6h-11.4v47.6H559.1z M553.4,24.7c3.7,0,6.6,2.9,6.6,6.6s-2.9,6.6-6.6,6.6s-6.6-2.9-6.6-6.6
	S549.7,24.7,553.4,24.7z M529.4,77.3c-3.4,4.1-7.1,6.7-11.7,6.7c-5.8,0-10-4.5-10-13.8c0-10.4,5-15.5,11.7-15.5
	c3.5-0.1,7,0.7,10,2.1V77.3z M540.8,93.2V22.5l-11.4,2v22.9c-3.7-1.2-7.6-1.8-11.6-1.8c-11.5,0-21.7,7.8-21.7,25.4
	c0,15.9,8.4,23.3,18.8,23.3c7,0,11.7-3.5,15.3-7.5l1,6.5L540.8,93.2z M479.9,80.2c-3.3,3.3-7.6,5.1-12.2,5.3c-3.9,0-6.4-2.2-6.4-5.5
	c0-4.6,3.6-8.6,18.7-10.3v10.5H479.9z M491.3,93.2V60.8c0-11.2-6.1-15.8-18.7-15.8c-6.6,0-13.3,1.3-19.3,3.8l1.4,9.1
	c5.2-2.3,10.9-3.6,16.6-3.8c5.4,0,8.7,2,8.7,7.1v1.5c-20.2,2-30,6.8-30,18.3c0,8.2,5.7,13,14.1,13c6.3,0,12.3-2.6,16.6-7.1l1.1,6.1
	h9.5V93.2z M448,91.5l-18.3-24.9c8.3-2.6,13.7-8.4,13.7-17.7c0-12.2-8.8-19.1-23.4-19.1H400v63.5h11.8V68.6h5.8l17.8,25.1L448,91.5z
	 M431.6,49.5c0,6.6-5,10.2-13,10.2h-6.7V39.5h7.4C427.4,39.6,431.6,43.2,431.6,49.5z M394,93.2l-1.4-9.5c-1.3,0.2-2.7,0.3-4.1,0.3
	c-4.7,0-6.5-2.1-6.5-6V54.8H394l-2-9.2H382V29.1l-11.3,2v14.6h-7.7v9.2h7.7v25.1c0,10.6,6.3,13.9,15.8,13.9
	C389,94,391.5,93.7,394,93.2z M360.6,79.4c0-8.9-5.1-12.3-17.6-15.4c-7.5-1.8-9.5-3.4-9.5-6s2.4-4.3,7.3-4.3
	c5.4,0.2,10.6,1.6,15.4,4.2l1.6-9.6c-5.3-2.3-11.1-3.4-17-3.4c-11.3,0-17.9,5.8-17.9,13.8c0,8.7,4.9,12,16.6,14.9
	c8.1,2,10.4,3.3,10.4,6.7c0,3.2-3.2,5.1-8.7,5.1c-6.3-0.2-12.4-2.1-17.7-5.5l-1.6,9.7c5.9,2.9,12.4,4.5,19,4.6
	C353.7,94.2,360.6,88.6,360.6,79.4z M316.8,93.2V45.6h-11.5v32.3c-3.8,3.7-7.8,6.1-11.8,6.1c-4.7,0-6.6-2.8-6.6-7.1V45.5h-11.5v34.3
	c0,8.8,4.9,14.1,14.2,14.1c6.5,0,11.8-3.4,16.5-7.6l1.6,6.6L316.8,93.2z M269.8,56.1l-2.6-11.2c-7.3,1.3-11.6,5.1-15,10.5l-2.2-9.9
	h-8.6v47.6h11.2V66C256.5,60.3,262.9,56.6,269.8,56.1z"/>
<linearGradient id="SVGID_9_" gradientUnits="userSpaceOnUse" x1="189.8407" y1="76.4582" x2="248.6293" y2="76.4582" gradientTransform="matrix(1 0 0 -1 0 137.92)">
	<stop  offset="0.71" style="stop-color:#116BF2"/>
	<stop  offset="1" style="stop-color:#1E50E5"/>
</linearGradient>
<path class="st8" d="M248.6,40.3L246,29.7h-56.2v10.5H211v52.9h11.8V40.3H248.6z"/>
</svg>
