<?xml version="1.0" encoding="utf-8"?>
<!-- Generator: Adobe Illustrator 25.2.3, SVG Export Plug-In . SVG Version: 6.00 Build 0)  -->
<svg version="1.1" id="Layer_1" xmlns="http://www.w3.org/2000/svg" xmlns:xlink="http://www.w3.org/1999/xlink" x="0px" y="0px"
	 viewBox="0 0 800 196.4" style="enable-background:new 0 0 800 196.4;" xml:space="preserve">
<style type="text/css">
	.st0{fill:#00B67A;}
	.st1{fill:#005128;}
</style>
<path d="M210.3,69.6h80.9v15.1h-31.9v84.9h-17.5V84.7h-31.7L210.3,69.6z M287.7,97.2h14.9v14h0.3c0.5-2,1.5-3.9,2.8-5.7
	c1.3-1.9,2.9-3.6,4.9-5.1c1.9-1.6,4-2.8,6.4-3.7c2.3-0.9,4.7-1.5,7.1-1.5c1.9,0,3.2,0.1,3.9,0.1c0.7,0.1,1.5,0.3,2.1,0.3v15.3
	c-1.1-0.3-2.3-0.4-3.5-0.5c-1.2-0.1-2.3-0.3-3.5-0.3c-2.7,0-5.2,0.5-7.6,1.6c-2.4,1.1-4.4,2.7-6.3,4.7c-1.7,2.1-3.2,4.7-4.3,7.7
	s-1.6,6.7-1.6,10.7v34.4h-16L287.7,97.2z M403.5,169.6h-15.7v-10.1h-0.3c-2,3.7-4.9,6.5-8.8,8.8c-3.9,2.3-7.9,3.3-11.9,3.3
	c-9.5,0-16.4-2.3-20.7-7.1c-4.3-4.7-6.4-11.9-6.4-21.3v-46h16v44.4c0,6.4,1.2,10.9,3.7,13.5c2.4,2.7,5.9,4,10.3,4
	c3.3,0,6.1-0.5,8.4-1.6c2.3-1.1,4.1-2.4,5.5-4.1c1.5-1.7,2.4-3.9,3.1-6.3c0.7-2.4,0.9-5.1,0.9-7.9v-42h16v72.4L403.5,169.6z
	 M430.7,146.4c0.5,4.7,2.3,7.9,5.3,9.9c3.1,1.9,6.8,2.8,11.1,2.8c1.5,0,3.2-0.1,5.1-0.4c1.9-0.3,3.7-0.7,5.3-1.3
	c1.7-0.7,3.1-1.6,4.1-2.9c1.1-1.3,1.6-2.9,1.5-4.9c-0.1-2-0.8-3.7-2.3-5.1c-1.5-1.3-3.2-2.3-5.3-3.2c-2.1-0.8-4.7-1.5-7.5-2
	c-2.8-0.5-5.6-1.2-8.5-1.9c-2.9-0.7-5.9-1.5-8.7-2.4c-2.8-0.9-5.2-2.1-7.5-3.9c-2.1-1.6-4-3.6-5.2-6.1c-1.3-2.5-2-5.5-2-9.2
	c0-4,0.9-7.2,2.9-9.9c1.9-2.7,4.4-4.8,7.3-6.4s6.3-2.8,9.9-3.5s7.1-0.9,10.3-0.9c3.7,0,7.3,0.4,10.7,1.2c3.3,0.8,6.5,2,9.2,3.9
	c2.8,1.7,5.1,4.1,6.8,6.9c1.9,2.8,2.9,6.3,3.5,10.3H460c-0.8-3.9-2.5-6.4-5.2-7.7c-2.8-1.3-5.9-2-9.5-2c-1.1,0-2.5,0.1-4,0.3
	c-1.6,0.3-2.9,0.5-4.4,1.1c-1.3,0.5-2.5,1.3-3.5,2.3s-1.5,2.3-1.5,3.9c0,2,0.7,3.5,2,4.7c1.3,1.2,3.1,2.1,5.3,3.1
	c2.1,0.8,4.7,1.5,7.5,2c2.8,0.5,5.7,1.2,8.7,1.9s5.7,1.5,8.5,2.4c2.8,0.9,5.3,2.1,7.5,3.9c2.1,1.6,4,3.6,5.3,6c1.3,2.4,2,5.5,2,8.9
	c0,4.3-0.9,7.9-2.9,10.9c-2,2.9-4.5,5.5-7.6,7.3c-3.1,1.9-6.7,3.2-10.4,4.1c-3.9,0.8-7.6,1.3-11.3,1.3c-4.5,0-8.8-0.5-12.7-1.6
	c-3.9-1.1-7.3-2.7-10.1-4.7c-2.8-2.1-5.1-4.7-6.7-7.9c-1.6-3.1-2.5-6.8-2.7-11.2h16.1v0.1L430.7,146.4z M483.3,97.2h12.1V75.3h16
	v21.7h14.4v11.9h-14.4v38.7c0,1.7,0.1,3.1,0.3,4.4c0.1,1.2,0.5,2.3,0.9,3.1c0.5,0.8,1.3,1.5,2.3,1.9c1.1,0.4,2.4,0.7,4.3,0.7
	c1.1,0,2.3,0,3.3-0.1s2.3-0.3,3.3-0.5v12.4c-1.7,0.3-3.5,0.4-5.2,0.5c-1.7,0.3-3.3,0.3-5.2,0.3c-4.3,0-7.6-0.4-10.1-1.2
	s-4.5-2-6-3.5c-1.5-1.6-2.4-3.5-2.9-5.7c-0.5-2.3-0.8-5.1-0.9-8v-42.7h-12.1V96.9L483.3,97.2z M537.1,97.2h15.1v9.9h0.3
	c2.3-4.3,5.3-7.2,9.3-9.1c4-1.9,8.3-2.8,13.1-2.8c5.7,0,10.7,0.9,14.9,3.1c4.3,2,7.7,4.7,10.5,8.3c2.8,3.5,4.9,7.6,6.3,12.3
	c1.3,4.7,2.1,9.7,2.1,14.9c0,4.9-0.7,9.6-1.9,14.1c-1.3,4.5-3.2,8.7-5.7,12.1s-5.7,6.3-9.7,8.4s-8.5,3.2-13.9,3.2
	c-2.3,0-4.7-0.3-6.9-0.7c-2.3-0.4-4.5-1.1-6.7-2c-2.1-0.9-4.1-2.1-5.9-3.6c-1.9-1.5-3.3-3.2-4.5-5.1h-0.3v36.1h-16V97.2L537.1,97.2z
	 M592.9,133.5c0-3.2-0.4-6.4-1.3-9.5c-0.8-3.1-2.1-5.7-3.9-8.1s-3.9-4.3-6.3-5.7c-2.5-1.5-5.5-2.1-8.7-2.1c-6.7,0-11.7,2.3-15.2,6.9
	c-3.3,4.7-5.1,10.9-5.1,18.7c0,3.7,0.4,7.1,1.3,10.1c0.9,3.1,2.1,5.7,4,8c1.7,2.3,3.9,4,6.4,5.3s5.3,2,8.7,2c3.7,0,6.7-0.8,9.2-2.3
	s4.5-3.5,6.3-5.7c1.6-2.4,2.8-5.1,3.5-8.1C592.5,139.7,592.9,136.7,592.9,133.5z M621.1,69.6h16v15.1h-16V69.6z M621.1,97.2h16v72.4
	h-16V97.2z M651.3,69.6h16v100h-16V69.6z M716.1,171.6c-5.7,0-10.9-0.9-15.5-2.9c-4.5-2-8.3-4.5-11.5-7.9c-3.1-3.3-5.5-7.5-7.1-12.1
	c-1.6-4.7-2.5-9.9-2.5-15.3c0-5.5,0.8-10.5,2.5-15.2c1.6-4.7,4-8.7,7.1-12.1c3.1-3.3,6.9-6,11.5-7.9c4.5-1.9,9.7-2.9,15.5-2.9
	s10.9,0.9,15.5,2.9c4.5,1.9,8.3,4.5,11.5,7.9c3.1,3.3,5.5,7.5,7.1,12.1c1.6,4.7,2.5,9.7,2.5,15.2c0,5.6-0.8,10.7-2.5,15.3
	s-4,8.7-7.1,12.1c-3.1,3.3-6.9,6-11.5,7.9C727.1,170.5,722,171.6,716.1,171.6z M716.1,158.9c3.5,0,6.7-0.8,9.2-2.3
	c2.7-1.5,4.7-3.5,6.4-5.9c1.7-2.4,2.9-5.2,3.7-8.1c0.8-3.1,1.2-6.1,1.2-9.3c0-3.1-0.4-6.1-1.2-9.2s-2-5.7-3.7-8.1
	c-1.7-2.4-3.9-4.3-6.4-5.7c-2.7-1.5-5.7-2.3-9.2-2.3s-6.7,0.8-9.2,2.3c-2.7,1.5-4.7,3.5-6.4,5.7c-1.7,2.4-2.9,5.1-3.7,8.1
	c-0.8,3.1-1.2,6.1-1.2,9.2c0,3.2,0.4,6.3,1.2,9.3s2,5.7,3.7,8.1c1.7,2.4,3.9,4.4,6.4,5.9C709.6,158.3,712.7,158.9,716.1,158.9z
	 M757.5,97.2h12.1V75.3h16v21.7H800v11.9h-14.4v38.7c0,1.7,0.1,3.1,0.3,4.4c0.1,1.2,0.5,2.3,0.9,3.1c0.5,0.8,1.3,1.5,2.3,1.9
	c1.1,0.4,2.4,0.7,4.3,0.7c1.1,0,2.3,0,3.3-0.1c1.1-0.1,2.3-0.3,3.3-0.5v12.4c-1.7,0.3-3.5,0.4-5.2,0.5c-1.7,0.3-3.3,0.3-5.2,0.3
	c-4.3,0-7.6-0.4-10.1-1.2c-2.5-0.8-4.5-2-6-3.5c-1.5-1.6-2.4-3.5-2.9-5.7c-0.5-2.3-0.8-5.1-0.9-8v-42.7h-12.1V96.9V97.2z"/>
<path class="st0" d="M191.6,69.6h-73.2L95.9,0L73.2,69.6L0,69.5l59.2,43.1l-22.7,69.6l59.2-43.1l59.2,43.1l-22.5-69.6L191.6,69.6z"
	/>
<path class="st1" d="M137.5,128.3l-5.1-15.7l-36.5,26.5L137.5,128.3z"/>
</svg>
